<?xml version="1.0" encoding="utf-8"?>
<!-- Generator: Adobe Illustrator 18.1.1, SVG Export Plug-In . SVG Version: 6.00 Build 0)  -->
<svg version="1.1" id="Layer_1" xmlns="http://www.w3.org/2000/svg" xmlns:xlink="http://www.w3.org/1999/xlink" x="0px"
	y="0px" viewBox="0 0 1600 720" enable-background="new 0 0 1600 720" xml:space="preserve">
	<rect x="0" fill="#ff4b6c" width="1600" height="720" />
	<circle fill="#ff9541" cx="1040" cy="418.906" r="171" />
	<path fill="#ffcbba" d="M971.333,536.077L971.333,536.077c0-20.104-14.955-36.88-34.289-39.763c0-40.647-30.711-67.983-70.251-64.22
	c-18.221-21.259-43.793-34.694-78.179-34.694C735,314,628,321,586.598,352.196C551.333,333,497,333.667,462.297,352.823
	C394,244,205,229,146.613,382.085c-37.28-15.418-79.613-1.752-94.886,20.075C35.667,397,14,397,0,403.464v172.818h931.128
	C953.241,576.282,971.333,558.19,971.333,536.077z" />
	<path fill="#ffbfa9	" d="M1600,548.05V483.8c-6.074-9.517-16.031-16.344-27.599-18.189c8.599-36.278-20.734-82.944-65.803-82.977
	C1473,285.667,1335,257,1271.688,349.515c-64.022-25.181-147.355,6.819-180.531,60.559h-50.649
	c-32.613,0-59.538,25.515-61.844,57.567h-23.047c-22.113,0-40.205,18.092-40.205,40.205v0c0,22.113,18.092,40.205,40.205,40.205
	H1600z" />
</svg>
