<?xml version="1.0" encoding="utf-8"?>
<!-- Generator: Adobe Illustrator 18.1.1, SVG Export Plug-In . SVG Version: 6.00 Build 0)  -->
<svg version="1.1" id="Layer_1" xmlns="http://www.w3.org/2000/svg" xmlns:xlink="http://www.w3.org/1999/xlink" x="0px"
	y="0px" viewBox="0 0 1600 720" enable-background="new 0 0 1600 720" xml:space="preserve">
	<polygon fill="#ff6091" points="546.363,528.118 546.363,544.151 521.854,544.151 521.854,527.085 446.861,527.085 446.861,537.694
	405.668,537.694 405.668,544.151 361.861,544.151 361.861,553.738 356.867,553.738 356.867,532.85 284.867,532.85 284.867,539.802
	229.001,539.802 229.001,544.151 157.874,544.151 157.874,541.087 147.874,541.087 147.874,532.85 79.081,532.85 79.081,539.802
	72.334,539.802 72.334,527.085 16.334,527.085 16.334,537.793 0.001,537.793 0.001,720 1600.001,720 1600.001,539.802
	1556.334,539.802 1556.334,532.85 1485.667,532.85 1485.667,539.802 1436.334,539.802 1436.334,532.85 1422.081,532.85
	1422.081,522.143 1339.667,522.143 1339.667,544.151 1321.854,544.151 1321.854,527.085 1246.861,527.085 1246.861,537.694
	1205.667,537.694 1205.667,544.151 1161.861,544.151 1161.861,553.738 1156.867,553.738 1156.867,532.85 1084.867,532.85
	1084.867,539.802 1029.001,539.802 1029.001,544.151 957.874,544.151 957.874,541.087 947.874,541.087 947.874,532.85
	879.081,532.85 879.081,539.802 872.334,539.802 872.334,527.085 816.334,527.085 816.334,537.793 785.001,537.793 785.001,539.802
	756.334,539.802 756.334,532.85 685.667,532.85 685.667,539.802 636.334,539.802 636.334,532.85 622.081,532.85 622.081,528.118
	546.363,528.118 " />
</svg>
