<svg viewBox="45 60 400 320" xmlns="http://www.w3.org/2000/svg" id="sign-up">
  <a href="#" rel="external" target="_blank" title="Mailing list" class="text-decoration-none">
    <path
      d="M 90 210 C 90 180 110 160 130 160 C 160 160 180 140 200 130 C 230 120 270 100 290 140 C 310 170 340 100 360 140 C 370 160 390 180 390 210 C 390 240 380 290 350 280 C 330 270 300 280 280 290 C 260 300 230 300 220 290 C 200 270 160 310 140 280 C 130 260 90 240 90 210 "
      mask="url(#knockout-text)"></path>
    <mask id="knockout-text">
      <rect width="100%" height="100%" fill="#fff" x="0" y="0" />
      <text x="135" y="227" fill="#000">SIGN UP!</text>
    </mask>
  </a>
</svg>
