<?xml version="1.0" encoding="UTF-8" standalone="no"?>
<!-- Created with Inkscape (http://www.inkscape.org/) -->

<svg version="1.1" id="svg1" xml:space="preserve" width="1055.7474" height="134.35608"
  xmlns:inkscape="http://www.inkscape.org/namespaces/inkscape"
  xmlns:sodipodi="http://sodipodi.sourceforge.net/DTD/sodipodi-0.dtd" xmlns="http://www.w3.org/2000/svg"
  xmlns:svg="http://www.w3.org/2000/svg">
  <defs id="defs1" />
  <sodipodi:namedview id="namedview1" pagecolor="#ffffff" bordercolor="#666666" borderopacity="1.0"
    inkscape:showpageshadow="2" inkscape:pageopacity="0.0" inkscape:pagecheckerboard="0" inkscape:deskcolor="#d1d1d1" />
  <inkscape:clipboard min="182.49411,76.144872" max="1238.2415,210.50095" geom-min="182.55194,76.202708"
    geom-max="1237.1939,210.32352" />
  <g id="g1" transform="matrix(8.1822273,0,0,8.1822273,982.23129,8.3867965)">
    <path
      d="m 7.2031593,7.3221843 c 0.034042,-0.1277668 0.1782548,-0.1277668 0.2122965,0 L 7.615064,8.0721367 c 0.089081,0.3342521 0.2988015,0.5964861 0.5660208,0.7077507 l 0.5991341,0.2497259 c 0.1021253,0.042591 0.1021253,0.2230111 0,0.2656005 L 8.1807753,9.5449394 C 7.9136047,9.6563868 7.7039988,9.9187641 7.615064,10.253077 l -0.1996082,0.749566 c -0.033643,0.128247 -0.1786539,0.128247 -0.2122965,0 L 7.0035511,10.25269 C 6.9145339,9.9185249 6.7049409,9.6563071 6.4378398,9.5449394 L 5.8383963,9.2952138 c -0.1025095,-0.042089 -0.1025095,-0.2235112 0,-0.2656005 L 6.4378398,8.7798874 C 6.7049409,8.6685197 6.9145339,8.4063018 7.0035511,8.0721367 Z"
      id="path1-7"
      style="fill:#ffffff;fill-opacity:1;stroke:#1c2332;stroke-width:0.256078;stroke-linecap:butt;stroke-linejoin:bevel;stroke-dasharray:none;stroke-opacity:1;paint-order:markers stroke fill"
      sodipodi:nodetypes="ccccccccccccccccc" />
  </g>
  <g id="g2" transform="translate(-182.49411,-76.144872)">
    <path
      d="m 988.30442,193.20499 c 0.15816,-0.57072 0.80331,-0.57072 0.96146,0 l 0.90527,3.39781 c 0.40352,1.51891 1.35444,2.70858 2.56851,3.21342 l 2.71587,1.13259 c 0.45623,0.19787 0.45623,1.00498 0,1.20285 l -2.71587,1.1326 c -1.21308,0.50487 -2.16499,1.69572 -2.56851,3.21343 l -0.90527,3.3978 c -0.15815,0.57071 -0.8033,0.57071 -0.96146,0 l -0.90527,-3.3978 c -0.40351,-1.51769 -1.35543,-2.70854 -2.56863,-3.21342 l -2.71228,-1.13261 c -0.45623,-0.19785 -0.45623,-1.00498 0,-1.20283 l 2.71587,-1.1326 c 1.21408,-0.50485 2.16494,-1.69451 2.56851,-3.21343 l 0.9018,-3.39342 z"
      style="fill:#ffffff;fill-opacity:1;stroke:#1c2332;stroke-width:0.354858;stroke-linecap:butt;stroke-linejoin:bevel;stroke-dasharray:none;stroke-opacity:1;paint-order:markers stroke fill"
      id="path1-9" />
    <path
      d="m 1148.1221,76.415618 c 0.075,-0.28388 0.3961,-0.28388 0.4712,0 l 0.4427,1.66277 c 0.1978,0.74124 0.6622,1.32221 1.2547,1.56976 l 1.329,0.55378 c 0.2269,0.094 0.2269,0.49556 0,0.58956 l -1.329,0.55378 c -0.5925,0.24695 -1.0573,0.82856 -1.2547,1.56977 l -0.4427,1.66277 c -0.075,0.28388 -0.3961,0.28388 -0.4712,0 l -0.4427,-1.66277 c -0.1974,-0.74121 -0.6622,-1.32282 -1.2547,-1.56977 l -1.3291,-0.55378 c -0.2269,-0.094 -0.2269,-0.49556 0,-0.58956 l 1.3291,-0.55378 c 0.5925,-0.24694 1.0573,-0.82855 1.2547,-1.56976 z"
      style="fill:#ffffff;fill-opacity:1;stroke:#1c2332;stroke-width:0.115671;stroke-linecap:butt;stroke-linejoin:bevel;stroke-dasharray:none;stroke-opacity:1;paint-order:markers stroke fill"
      id="path1-0" />
    <path
      d="m 185.74862,109.78079 c 0.075,-0.28388 0.3961,-0.28388 0.4712,0 l 0.4427,1.66277 c 0.1978,0.74124 0.6622,1.32221 1.2547,1.56976 l 1.329,0.55378 c 0.2269,0.094 0.2269,0.49556 0,0.58956 l -1.329,0.55378 c -0.5925,0.24695 -1.0573,0.82856 -1.2547,1.56977 l -0.4427,1.66277 c -0.075,0.28388 -0.3961,0.28388 -0.4712,0 l -0.4427,-1.66277 c -0.1974,-0.74121 -0.6622,-1.32282 -1.2547,-1.56977 l -1.3291,-0.55378 c -0.2269,-0.094 -0.2269,-0.49556 0,-0.58956 l 1.3291,-0.55378 c 0.5925,-0.24694 1.0573,-0.82855 1.2547,-1.56976 z"
      style="fill:#ffffff;fill-opacity:1;stroke:#1c2332;stroke-width:0.115671;stroke-linecap:butt;stroke-linejoin:bevel;stroke-dasharray:none;stroke-opacity:1;paint-order:markers stroke fill"
      id="path1-0-1" />
  </g>
</svg>
