<?xml version="1.0" standalone="no"?>
<!DOCTYPE svg PUBLIC "-//W3C//DTD SVG 1.1//EN" "http://www.w3.org/Graphics/SVG/1.1/DTD/svg11.dtd" >
<svg xmlns="http://www.w3.org/2000/svg">
<metadata>
This is a custom SVG webfont generated by Font Squirrel.
Copyright   :  1989 2002 Adobe Systems Incorporated All rights reserved  1981 2002 Heidelberger Druckmaschinen AG All rights reserved
Designer    : Jackson Burke
Foundry URL : httpwwwadobecomtype
</metadata>
<defs>
<font id="TradeGothicLTStdCnNo.18Ob" horiz-adv-x="909" >
<font-face units-per-em="2048" ascent="1479" descent="-569" />
<missing-glyph horiz-adv-x="454" />
<glyph unicode=" "  horiz-adv-x="454" />
<glyph unicode="&#x09;" horiz-adv-x="454" />
<glyph unicode="&#xa0;" horiz-adv-x="454" />
<glyph unicode="!" horiz-adv-x="681" d="M254 0l43 193h172l-43 -193h-172zM383 438l199 1041h172l-265 -1041h-106z" />
<glyph unicode="&#x22;" horiz-adv-x="681" d="M358 954l117 525h127l-117 -525h-127zM618 954l117 525h127l-117 -525h-127z" />
<glyph unicode="#" d="M139 465l27 115h184l107 319h-170l26 115h181l155 465h119l-154 -465h203l154 465h121l-156 -465h162l-27 -115h-172l-106 -319h159l-26 -115h-172l-154 -465h-121l154 465h-203l-154 -465h-120l155 465h-172zM469 580h205l104 319h-203z" />
<glyph unicode="$" d="M168 406h147q-45 -238 105 -283l133 602l-47 38q-18 15 -45 39.5t-43.5 44t-34.5 45.5t-27.5 51.5t-16.5 55t-6 63.5t9 71q31 139 136.5 234t242.5 112l43 196h102l-43 -196q141 -20 197.5 -127t26.5 -267h-148q16 94 -7.5 170t-94.5 101l-117 -522l51 -42l49 -41 q33 -28 48 -49l39 -51q24 -31 33 -59.5t17.5 -64t7.5 -75.5t-12 -85q-35 -156 -148.5 -254.5t-268.5 -112.5l-54 -238h-102l53 238q-145 23 -203.5 131.5t-21.5 274.5zM492 1149q-27 -129 102 -244l100 451q-74 -14 -129 -71.5t-73 -135.5zM522 123q88 8 153.5 72.5 t88.5 164.5q20 88 -13.5 157t-109.5 138z" />
<glyph unicode="%" horiz-adv-x="1593" d="M283 -20l1183 1519h119l-1184 -1519h-118zM350 1159q29 131 142.5 225.5t249 94.5t206 -94.5t42 -225.5t-141.5 -225t-248 -94t-207 93t-43 226zM473 1159q-16 -80 27 -138t127 -58t153.5 58t85.5 138q18 80 -24.5 138.5t-126.5 58.5t-154 -58.5t-88 -138.5zM858 319.5 q29 131.5 141.5 225.5t247.5 94t207 -93t43 -227q-29 -131 -142.5 -225t-248.5 -94t-206 94t-42 225.5zM981 319q-18 -80 25 -138t127 -58t153.5 58.5t87.5 137.5q16 80 -26.5 138.5t-126.5 58.5t-154 -58.5t-86 -138.5z" />
<glyph unicode="&#x26;" horiz-adv-x="1138" d="M182 356q12 51 36 102.5t46.5 86.5t65.5 81t63.5 65.5t71.5 63.5t59 52q-55 221 -20 379q35 152 125 232.5t202 80.5q121 0 181.5 -75.5t36.5 -182.5q-16 -74 -49 -135.5t-90.5 -121.5t-97.5 -93l-122 -98q63 -233 174 -408q68 115 140 332l141 -8q-74 -250 -201 -439 q53 -84 146 -159l-111 -111q-86 45 -154 139q-166 -160 -348 -159q-174 0 -254 101t-41 275zM332 369q-27 -117 22 -185.5t168 -68.5q59 0 124 35.5t112 87.5q-123 195 -201 448q-80 -68 -144.5 -152.5t-80.5 -164.5zM643 1067q0 -14 3 -42t4 -35t7.5 -38.5t6.5 -36.5 q104 94 162.5 170t78.5 168q12 53 -12.5 94.5t-65.5 41.5q-131 0 -172 -191q-6 -23 -9 -45.5t-3 -46.5v-39z" />
<glyph unicode="'" horiz-adv-x="454" d="M375 954l117 525h126l-116 -525h-127z" />
<glyph unicode="(" horiz-adv-x="569" d="M237.5 184.5q-16.5 200.5 38.5 452.5q55 246 161 449.5t284 412.5l86 -61q-307 -393 -395 -801q-90 -412 39 -801l-111 -61q-86 209 -102.5 409.5z" />
<glyph unicode=")" horiz-adv-x="569" d="M45 -164q307 393 395 801q90 412 -39 801l111 61q86 -209 102.5 -409.5t-39.5 -452.5q-55 -246 -160.5 -449.5t-283.5 -412.5z" />
<glyph unicode="*" d="M350 1163l72 135l262 -143l31 324h135l-113 -324l328 143l10 -135l-330 -65l183 -230l-140 -90l-98 283l-225 -283l-98 90l284 230z" />
<glyph unicode="+" horiz-adv-x="1228" d="M184 465l31 135h465l102 465h136l-103 -465h465l-31 -135h-465l-102 -465h-135l102 465h-465z" />
<glyph unicode="," horiz-adv-x="454" d="M61 -307l162 307h-82l43 193h172l-45 -205l-188 -295h-62z" />
<glyph unicode="-" horiz-adv-x="681" d="M190 465l31 135h504l-31 -135h-504z" />
<glyph unicode="." horiz-adv-x="454" d="M141 0l43 193h172l-43 -193h-172z" />
<glyph unicode="/" horiz-adv-x="569" d="M-25 -20l811 1519h136l-811 -1519h-136z" />
<glyph unicode="0" d="M221 159q-47 179 41 580q88 397 215 578.5t309.5 181.5t229.5 -179t-41 -581q-88 -397 -215 -578t-309.5 -181t-229.5 179zM349 359.5q-7 -142.5 26 -200t102 -57.5q106 0 189.5 143.5t160.5 493.5q53 238 60.5 380.5t-25.5 199.5t-102 57q-106 0 -189.5 -143 t-160.5 -494q-54 -237 -61 -379.5z" />
<glyph unicode="1" d="M217 0l27 123h180l264 1188l-188 -17l20 90q145 35 258 115h99l-306 -1376h172l-26 -123h-500z" />
<glyph unicode="2" d="M98 0l27 123q76 143 205 294.5t237.5 254t203.5 230.5t122 241q25 113 -12 173t-115 60q-199 0 -285 -311h-135q119 434 442 434q150 0 218.5 -98t27.5 -279q-27 -127 -109.5 -241.5t-179 -200.5t-236.5 -237.5t-249 -319.5h561l-26 -123h-697z" />
<glyph unicode="3" d="M164 352h135q-35 -250 158 -250q80 0 156.5 83t109.5 227q39 178 -24.5 245.5t-243.5 67.5l28 123q172 0 255 58.5t118 223.5q55 246 -117 246q-88 0 -144 -60.5t-79 -148.5l-131 17q45 139 140.5 227t230.5 88t211.5 -93t38.5 -267q-33 -150 -107 -241t-162 -107l-2 -5 q201 -72 135 -368q-47 -215 -177 -326.5t-279 -111.5q-145 0 -215 105t-35 267z" />
<glyph unicode="4" d="M123 336l16 70l643 1073h215l-225 -1020h154l-29 -123h-154l-73 -336h-148l74 336h-473zM291 459h334l194 884h-4z" />
<glyph unicode="5" d="M188 332l138 12q-23 -242 135 -242q98 0 182 100.5t125 286.5q80 362 -123 363q-61 0 -123.5 -41t-93.5 -102l-111 20l215 750h521l-39 -123h-389l-129 -451q100 70 213 70q135 0 196.5 -125t9.5 -356q-53 -244 -185 -379t-288 -135q-152 0 -215.5 99t-38.5 253z" />
<glyph unicode="6" d="M202.5 246.5q-14.5 150.5 49.5 412.5q188 840 559 840q135 0 185.5 -73.5t41.5 -213.5l-137 -8q14 172 -121 172q-213 0 -348 -592q131 113 252 113q137 0 202.5 -109.5t14.5 -345.5q-47 -215 -160.5 -338.5t-259.5 -123.5q-133 0 -198.5 58t-80 208.5zM352.5 192.5 q30.5 -90.5 132.5 -90.5q193 0 269 342q74 330 -111 330q-123 0 -246 -127l-30 -139q-45 -225 -14.5 -315.5z" />
<glyph unicode="7" d="M201 0l731 1356h-508l27 123h663l-16 -78l-742 -1401h-155z" />
<glyph unicode="8" d="M172 373q55 246 330 413q-86 84 -117 170t-4 211q33 143 149.5 237.5t256 94.5t215 -94t42.5 -238q-27 -123 -95 -210t-193 -171q201 -170 145 -413q-37 -166 -161 -279.5t-289.5 -113.5t-240.5 113.5t-38 279.5zM319 367q-23 -102 15.5 -183.5t143 -81.5t179 81 t97.5 184q25 109 -14.5 186.5t-127.5 155.5q-123 -78 -195.5 -155.5t-97.5 -186.5zM532 1184q-47 -215 113 -328q209 113 256 328q16 78 -18.5 135t-122.5 57q-90 0 -151 -57t-77 -135z" />
<glyph unicode="9" d="M199 266l137 8q-14 -172 121 -172q213 0 348 592q-131 -113 -252 -112q-137 0 -202.5 109.5t-14.5 344.5q47 215 160.5 339t259.5 124q133 0 198.5 -58.5t80 -209t-49.5 -412.5q-188 -840 -559 -839q-135 0 -185 73.5t-42 212.5zM483 1034q-74 -330 111 -329 q123 0 246 126l30 140q45 225 14.5 315t-132.5 90q-193 0 -269 -342z" />
<glyph unicode=":" horiz-adv-x="454" d="M141 0l43 193h172l-43 -193h-172zM264 557l43 193h172l-43 -193h-172z" />
<glyph unicode=";" horiz-adv-x="454" d="M61 -307l162 307h-82l43 193h172l-45 -205l-188 -295h-62zM264 557l43 193h172l-43 -193h-172z" />
<glyph unicode="&#x3c;" horiz-adv-x="1228" d="M188 481l23 103l1171 475l-32 -141l-949 -386l779 -385l-31 -141z" />
<glyph unicode="=" horiz-adv-x="1228" d="M137 246l29 135h1065l-29 -135h-1065zM233 684l31 135h1065l-31 -135h-1065z" />
<glyph unicode="&#x3e;" horiz-adv-x="1228" d="M84 6l31 141l950 385l-780 386l32 141l959 -475l-23 -103z" />
<glyph unicode="?" horiz-adv-x="796" d="M227 0l43 193h172l-43 -193h-172zM365 438l24 103q23 106 83 200.5t119.5 152.5t118 146t81.5 185q16 74 -11.5 112.5t-74.5 38.5q-61 0 -111.5 -53t-73.5 -123l-117 25q37 121 126 197.5t208 76.5q111 0 170.5 -71.5t30.5 -202.5q-20 -94 -67.5 -175t-101.5 -138 l-109 -111q-54 -55 -99 -127t-63 -154l-19 -82h-114z" />
<glyph unicode="@" horiz-adv-x="1638" d="M258 743q70 313 341 534.5t585 221.5q287 0 450.5 -179t102.5 -448q-53 -246 -250 -417.5t-357 -171.5q-55 0 -83.5 34.5t-20.5 100.5l-4 -2q-150 -133 -279 -133t-191.5 93t-31.5 226q49 221 224.5 397.5t381.5 176.5q160 0 195 -160l74 127h129l-305 -578 q-31 -59 -45 -110q-10 -51 34 -52q109 0 239 147.5t165 311.5q51 236 -83 379t-368 143q-266 0 -487 -188t-281 -453q-61 -276 82 -462.5t410 -186.5q145 0 296.5 65.5t262.5 178.5h129q-137 -166 -328.5 -262t-388.5 -96q-324 0 -497 222t-101 541zM680 616 q-20 -88 15.5 -143t111.5 -55q125 0 254 148.5t160 285.5q16 74 -22 133t-101 59q-133 0 -259 -141.5t-159 -286.5z" />
<glyph unicode="A" d="M18 0l654 1479h221l-2 -1479h-160l8 438h-377l-184 -438h-160zM416 573h332l12 795h-4z" />
<glyph unicode="B" horiz-adv-x="1024" d="M135 0l328 1479h393q164 0 235 -100q46 -65 46 -159q0 -49 -13 -106q-27 -117 -102.5 -206t-196.5 -122v-4q189 -53 189 -250q0 -55 -15 -122q-88 -410 -565 -410h-299zM326 135h159q295 0 355 275q12 57 12 103q0 75 -33 121q-53 75 -207 75h-159zM481 844h90 q176 0 268.5 61.5t125.5 208.5q9 44 9 79q0 64 -32 98q-49 52 -190 52h-160z" />
<glyph unicode="C" horiz-adv-x="1024" d="M213 294q-4 38 -4 81q0 150 49 364q90 403 238.5 581.5t357.5 178.5q166 0 238 -117q49 -80 49 -215q0 -62 -11 -135h-159q8 62 8 112q0 220 -154 220q-141 0 -236 -142.5t-171 -482.5q-51 -229 -53 -366q0 -6 -1 -12q0 -128 44 -186q45 -60 139 -60q117 0 196.5 88 t126.5 289h160q-57 -246 -190 -379t-322 -133q-137 0 -212 72.5t-93 241.5z" />
<glyph unicode="D" horiz-adv-x="1024" d="M135 0l328 1479h274q121 0 201 -36t130 -121q49 -83 49 -222q0 -143 -44 -361q-90 -406 -253 -572.5t-410 -166.5h-275zM326 135h86q94 0 161.5 23.5t133 88t115.5 185.5t91 307.5t44 307.5q0 10 1 18q0 107 -33 167q-36 65 -94.5 88t-152.5 23h-86z" />
<glyph unicode="E" d="M135 0l328 1479h676l-31 -136h-516l-111 -503h381l-31 -135h-380l-125 -570h540l-30 -135h-701z" />
<glyph unicode="F" horiz-adv-x="796" d="M135 0l328 1479h635l-31 -136h-475l-111 -503h357l-31 -135h-356l-156 -705h-160z" />
<glyph unicode="G" horiz-adv-x="1024" d="M212 294q-4 36 -4 78q0 151 50 367q90 403 238.5 581.5t353.5 178.5q129 0 202.5 -70.5t85.5 -176.5q5 -50 5 -105q0 -59 -6 -123h-160q11 69 11 124q0 216 -167 216q-137 0 -232 -142.5t-171 -482.5q-52 -246 -52 -387q0 -59 9 -99q31 -138 168 -138q231 0 284 233 l45 209h-200l30 135h361l-154 -692h-102l4 111q-127 -131 -297 -131q-135 0 -210 72.5t-92 241.5z" />
<glyph unicode="H" horiz-adv-x="1024" d="M135 0l328 1479h160l-142 -639h434l142 639h160l-328 -1479h-160l156 705h-434l-156 -705h-160z" />
<glyph unicode="I" horiz-adv-x="454" d="M147 0l328 1479h160l-328 -1479h-160z" />
<glyph unicode="J" horiz-adv-x="569" d="M-14 -8l43 139q43 -16 88 -16q98 0 151.5 48t79.5 169l254 1147h160l-246 -1110q-49 -223 -149.5 -306t-300.5 -83q-23 0 -80 12z" />
<glyph unicode="K" d="M115 0l327 1479h160l-168 -754h4l582 754h172l-401 -516l127 -963h-173l-98 799h-4l-268 -344l-101 -455h-159z" />
<glyph unicode="L" horiz-adv-x="796" d="M135 0l328 1479h160l-297 -1344h479l-31 -135h-639z" />
<glyph unicode="M" horiz-adv-x="1251" d="M115 0l327 1479h254l11 -1119h4l499 1119h254l-327 -1479h-148l301 1356h-4l-608 -1356h-105l-6 1356h-4l-301 -1356h-147z" />
<glyph unicode="N" horiz-adv-x="1024" d="M115 0l327 1479h250l139 -1090h5l241 1090h160l-328 -1479h-172l-174 1286h-4l-285 -1286h-159z" />
<glyph unicode="O" horiz-adv-x="1024" d="M258 739q170 760 586 760q299 0 299 -385q0 -156 -49 -375q-170 -760 -586 -759q-299 0 -299 384q0 156 49 375zM368 354q9 -139 50 -189t119 -50q121 0 220 137t177 487q51 213 51 346q0 21 -1 39q-9 139 -50 189.5t-119 50.5q-121 0 -220 -137t-177 -488 q-51 -213 -52 -345z" />
<glyph unicode="P" d="M115 0l327 1479h349q178 0 261 -111q56 -74 55 -181q0 -53 -13 -114q-39 -184 -172.5 -294.5t-311.5 -110.5h-188l-148 -668h-159zM453 803h168q254 0 313 270q11 51 11 93q0 178 -206 177h-168z" />
<glyph unicode="Q" horiz-adv-x="1024" d="M258 739q170 760 586 760q299 0 299 -385q0 -156 -49 -375q-90 -399 -244 -585q47 -123 127 -129l-31 -140q-82 4 -129 47t-76 121q-106 -74 -233 -73q-299 0 -299 384q0 156 49 375zM368 354q9 -139 50 -189t119 -50q88 0 159 65q-35 68 -88 107l29 131q90 -27 145 -121 q88 150 152 442q51 213 51 346q0 21 -1 39q-9 139 -50 189.5t-119 50.5q-121 0 -220 -137t-177 -488q-51 -213 -52 -345z" />
<glyph unicode="R" horiz-adv-x="1024" d="M135 0l328 1479h356q182 0 272 -102q62 -71 62 -179q0 -48 -12 -102q-29 -129 -110 -225.5t-210 -137.5l88 -733h-168l-82 700l-210 -8l-154 -692h-160zM479 831h139q166 0 249 63.5t112 192.5q10 44 10 81q0 70 -37 112q-55 63 -221 63h-139z" />
<glyph unicode="S" d="M162 397h147q-10 -49 -10 -91q0 -70 29 -117q45 -75 161 -74q102 0 175 63.5t100 179.5q6 29 6 56q0 37 -11 72q-19 60 -61.5 103.5t-96.5 90.5l-107 90q-53 43 -93.5 101.5t-56.5 123.5q-8 31 -8 68q0 42 10 92q35 156 153.5 250t278.5 94q162 0 236 -105 q51 -73 51 -187q0 -51 -10 -109h-148q6 41 6 75q0 191 -174 191q-92 0 -159.5 -54.5t-85.5 -140.5q-6 -29 -7 -55q0 -36 12 -70q19 -57 62 -98t96 -87l107 -88q53 -42 93 -103.5t55 -133.5q7 -31 7 -69q0 -49 -12 -109q-41 -178 -160.5 -277t-302.5 -99q-172 0 -246 114 q-49 75 -50 183q1 55 14 120z" />
<glyph unicode="T" horiz-adv-x="796" d="M311 1343l31 136h766l-31 -136h-303l-297 -1343h-160l297 1343h-303z" />
<glyph unicode="U" horiz-adv-x="1024" d="M221 389l242 1090h160l-240 -1086q-15 -64 -15 -113q0 -165 169 -165q215 0 280 278l240 1086h160l-242 -1090q-43 -188 -160 -298.5t-307.5 -110.5t-259.5 110q-43 68 -43 167q0 60 16 132z" />
<glyph unicode="V" d="M360 1479h160v-1172h4l520 1172h160l-676 -1479h-147z" />
<glyph unicode="W" horiz-adv-x="1251" d="M258 0l82 1479h147l-79 -1155h4l477 1155h131l-27 -1155h4l420 1155h148l-566 -1479h-135l25 1161h-4l-492 -1161h-135z" />
<glyph unicode="X" d="M29 0l493 786l-153 693h172l108 -525l326 525h172l-445 -693l179 -786h-172l-134 618l-374 -618h-172z" />
<glyph unicode="Y" d="M360 1479h172l111 -648l389 648h172l-528 -852l-139 -627h-160l139 627z" />
<glyph unicode="Z" d="M90 0l25 115l805 1228h-484l31 136h680l-25 -111l-821 -1233h549l-31 -135h-729z" />
<glyph unicode="[" horiz-adv-x="569" d="M78 -205l373 1684h376l-18 -82h-242l-336 -1520h242l-18 -82h-377z" />
<glyph unicode="\" horiz-adv-x="569" d="M311 1499h135l140 -1519h-135z" />
<glyph unicode="]" horiz-adv-x="569" d="M25 -205l18 82h242l336 1520h-242l18 82h377l-373 -1684h-376z" />
<glyph unicode="^" horiz-adv-x="1228" d="M260 604l625 875h114l236 -875h-148l-184 701l-495 -701h-148z" />
<glyph unicode="_" horiz-adv-x="1024" d="M-57 -256l22 102h1024l-22 -102h-1024z" />
<glyph unicode="`" horiz-adv-x="454" d="M309 1466h160l137 -282h-102z" />
<glyph unicode="a" d="M154 254q20 94 85.5 172t154.5 130t178.5 87t181.5 53l18 76q7 33 7 61q0 46 -19 78q-31 51 -101 52q-78 0 -137 -62.5t-92 -146.5l-131 20q53 137 151.5 224t231.5 87q145 0 208 -79q42 -54 42 -136q0 -40 -10 -88l-134 -594q-21 -93 -20 -144q0 -29 6 -44h-153l2 90 q-53 -45 -128 -77.5t-124 -32.5q-125 0 -185 74q-41 52 -41 127q1 34 9 73zM305 266q-7 -32 -7 -58q0 -106 122 -106q96 0 227 111l80 360q-88 -25 -167 -59.5t-159 -102t-96 -145.5z" />
<glyph unicode="b" d="M135 0q45 88 88 287l264 1192h148l-109 -492q119 98 217 98q88 0 142.5 -52t72.5 -175q5 -35 6 -75q0 -104 -34 -251q-66 -289 -179.5 -420.5t-250.5 -131.5q-135 0 -195 122l-55 -102h-115zM352 205q25 -45 62 -74t71 -29q98 0 171 98.5t126 331.5q32 159 32 255 q0 51 -9 83q-27 92 -125 93q-63 0 -180 -95z" />
<glyph unicode="c" horiz-adv-x="796" d="M176 112q-21 58 -21 145q0 113 35 275q63 287 171 420t276 133q240 0 240 -273q0 -29 -3 -62h-143q4 33 4 60q0 153 -125 153q-98 0 -157.5 -88.5t-114.5 -342.5q-40 -196 -40 -292q0 -33 5 -55q18 -83 117 -83q74 0 125 50.5t98 183.5h143q-55 -164 -154.5 -260 t-238.5 -96q-168 0 -217 132z" />
<glyph unicode="d" d="M186 207q-5 34 -5 73q0 105 36 252q63 289 177 421t251 132q98 0 176 -98l109 492h147l-264 -1192q-39 -174 -39 -270v-17h-139l16 102h-4q-111 -123 -246 -122q-88 0 -142.5 52t-72.5 175zM343 195q28 -92 126 -93q35 0 85 29t93 74l148 663q-72 94 -140 95 q-98 0 -168.5 -97.5t-121.5 -333.5q-31 -157 -32 -251q0 -53 10 -86z" />
<glyph unicode="e" horiz-adv-x="796" d="M176 112q-21 58 -21 145q0 113 35 275q63 287 171 420t276 133q164 0 217 -139q26 -68 26 -158q0 -93 -28 -210l-16 -70h-504l-13 -59q-26 -117 -25 -191q0 -49 11 -80q29 -76 135 -76q137 0 224 201l135 -16q-45 -127 -156 -217t-250 -90q-168 0 -217 132zM358 631h357 q24 107 24 178q0 43 -9 74q-24 80 -120 80q-86 0 -147.5 -76t-104.5 -256z" />
<glyph unicode="f" horiz-adv-x="569" d="M201 0l209 942h-164l26 123h164l49 217q25 111 86.5 164t178.5 53q47 0 112 -12l-24 -115q-33 16 -78 17q-104 0 -129 -113l-47 -211h172l-27 -123h-172l-209 -942h-147z" />
<glyph unicode="g" d="M72 -119q14 70 68.5 126t133.5 87q-47 16 -70 54q-15 25 -16 56q0 16 5 34q12 55 61 93t108 48q-51 43 -65 134q-6 38 -6 73q0 51 12 98q43 188 149.5 294.5t247.5 106.5q57 0 108.5 -25.5t65.5 -72.5q78 98 201 98l-28 -135q-16 4 -43 4q-45 0 -101 -41q3 -32 3 -64 q0 -70 -15 -140q-43 -190 -143.5 -285.5t-229.5 -95.5q-16 0 -48 4t-48 4q-78 -20 -88 -70q-4 -23 4 -38t35.5 -25t48 -15.5t71 -14.5t74.5 -15q133 -29 197 -83q45 -38 45 -109q0 -29 -8 -64q-25 -106 -138.5 -178t-277.5 -72q-178 0 -258 61q-61 47 -61 121q0 22 6 47z M213 -88q-3 -16 -3 -30q0 -49 38 -80q49 -40 166 -40q219 0 256 152q6 29 -7.5 49.5t-50.5 35.5t-63.5 23.5t-83.5 19.5t-76 15q-156 -61 -176 -145zM442 707q-16 -73 -15 -126q0 -142 112 -143q158 0 215 269q17 75 16 128q0 140 -111 140q-158 0 -217 -268z" />
<glyph unicode="h" d="M147 0l328 1479h148l-117 -531q59 55 135 96t127 41q186 0 186 -172q0 -47 -14 -106l-178 -807h-148l174 786q10 44 10 77q0 99 -87 100q-96 0 -232 -132l-184 -831h-148z" />
<glyph unicode="i" horiz-adv-x="454" d="M154 0l235 1065h148l-236 -1065h-147zM442 1307l39 172h148l-39 -172h-148z" />
<glyph unicode="j" horiz-adv-x="454" d="M-68 -340l29 123q33 -8 47 -8q102 0 131 131l256 1159h148l-260 -1171q-29 -129 -93.5 -185.5t-177.5 -56.5q-23 0 -80 8zM449 1307l38 172h148l-39 -172h-147z" />
<glyph unicode="k" horiz-adv-x="796" d="M135 0l328 1479h147l-207 -934h5l397 520h151l-272 -340l86 -725h-152l-63 578h-4l-199 -263l-69 -315h-148z" />
<glyph unicode="l" horiz-adv-x="454" d="M154 0l327 1479h148l-328 -1479h-147z" />
<glyph unicode="m" horiz-adv-x="1366" d="M164 0l235 1065h136l-25 -117q145 137 276 137q63 0 109.5 -37.5t52.5 -97.5q152 135 277 135q102 0 144 -65q26 -41 27 -102q0 -36 -10 -78l-186 -840h-147l182 819q9 39 9 67q0 29 -10 45q-19 32 -79 32q-14 0 -28.5 -2.5t-29 -7.5t-24.5 -9t-24.5 -13t-22.5 -13.5 t-23.5 -16.5t-19.5 -16t-20.5 -17.5t-18.5 -15.5l-188 -852h-148l183 819q9 37 8 64q0 31 -12 48q-22 32 -82 32q-90 0 -205 -111l-189 -852h-147z" />
<glyph unicode="n" d="M147 0l236 1065h139l-24 -117q66 57 143.5 97t126.5 40q186 0 186 -172q0 -47 -14 -106l-178 -807h-148l174 786q10 44 10 77q0 99 -87 100q-96 0 -232 -132l-184 -831h-148z" />
<glyph unicode="o" horiz-adv-x="796" d="M176 112q-21 58 -21 145q0 113 35 275q63 287 171 420t276 133t217 -132q22 -59 22 -148q0 -112 -34 -273q-63 -289 -172 -420.5t-277 -131.5t-217 132zM303 185q18 -83 116.5 -83t159 88.5t115.5 341.5q39 193 39 290q0 35 -5 58q-19 83 -117.5 83t-158 -88.5 t-114.5 -342.5q-40 -196 -40 -292q0 -34 5 -55z" />
<glyph unicode="p" d="M82 -348l313 1413h123l-22 -102h4q106 123 243 122q88 0 142.5 -52t72.5 -175q5 -35 6 -75q0 -104 -34 -251q-66 -289 -179.5 -420.5t-250.5 -131.5q-98 0 -176 98l-95 -426h-147zM350 197q25 -31 38 -45.5t42 -32t59 -17.5q98 0 169 97.5t124 332.5q30 155 30 249 q0 55 -10 89q-28 92 -126 93q-80 0 -178 -103z" />
<glyph unicode="q" d="M186 207q-5 34 -5 73q0 105 36 252q63 289 177 421t251 132t191 -122h4l22 102h123l-313 -1413h-148l94 426q-119 -98 -217 -98q-88 0 -142.5 52t-72.5 175zM340 195q27 -92 125 -93q68 0 180 95l148 663q-23 45 -61 74t-73 29q-98 0 -170.5 -98.5t-123.5 -332.5 q-34 -162 -34 -256q0 -49 9 -81z" />
<glyph unicode="r" horiz-adv-x="569" d="M135 0l236 1065h147l-29 -129h5q84 92 146 120.5t157 28.5l-31 -139q-90 0 -163 -40t-152 -148l-168 -758h-148z" />
<glyph unicode="s" horiz-adv-x="796" d="M135 262l141 29q20 -188 154 -189q61 0 118.5 48.5t72.5 113.5q4 20 4 40q0 35 -15 66q-23 48 -65 80l-93 70q-50 39 -91.5 77t-61.5 97q-11 33 -11 71q0 30 7 62q23 106 118 182t214 76q242 0 241 -254l-131 -36q-6 82 -35.5 125t-111.5 43q-51 0 -93 -36t-55 -91 q-3 -15 -3 -30q0 -42 27 -79q36 -49 93 -89t113.5 -84t87.5 -116q18 -43 18 -93q0 -34 -8 -71q-29 -127 -130 -210.5t-226 -83.5q-139 0 -204 71.5t-75 210.5z" />
<glyph unicode="t" horiz-adv-x="569" d="M207 209l162 733h-144l27 123h143l80 356h148l-80 -356h196l-26 -123h-197l-166 -745q-3 -17 -3 -32q0 -74 87 -75q29 0 94 21l-24 -111q-72 -20 -144 -20q-106 0 -143 54q-21 32 -21 85q0 39 11 90z" />
<glyph unicode="u" d="M205 258l178 807h147l-174 -786q-10 -44 -9 -78q0 -99 87 -99q96 0 232 131l184 832h147l-235 -1065h-139l26 117q-68 -57 -145.5 -97t-126.5 -40q-185 0 -185 174q0 46 13 104z" />
<glyph unicode="v" horiz-adv-x="796" d="M272 1065h148l10 -918h4l412 918h147l-497 -1065h-197z" />
<glyph unicode="w" horiz-adv-x="1138" d="M262 0l10 1065h140l-21 -782h4l344 782h140l4 -782h4l311 782h139l-456 -1065h-123v827h-4l-369 -827h-123z" />
<glyph unicode="x" horiz-adv-x="681" d="M2 0l369 553l-133 512h151l94 -373l238 373h151l-342 -512l148 -553h-152l-100 418l-272 -418h-152z" />
<glyph unicode="y" horiz-adv-x="681" d="M-57 -348l28 123h45q176 0 273 233l-49 1057h151l21 -815h4l344 815h151l-475 -1042q-170 -371 -418 -371h-75z" />
<glyph unicode="z" horiz-adv-x="681" d="M47 0l25 111l594 831h-377l26 123h553l-20 -98l-610 -844h421l-26 -123h-586z" />
<glyph unicode="{" horiz-adv-x="569" d="M145 -29l101 453q20 98 1.5 135t-81.5 37l16 82q63 0 100 38t58 134l100 453q20 96 84 146t152 50h131l-19 -82h-106q-82 0 -104 -106l-107 -482q-20 -88 -76.5 -135t-122.5 -55v-4q61 -8 97.5 -55.5t15.5 -135.5l-106 -481q-25 -106 57 -106h106l-16 -82h-131 q-88 0 -129 50t-21 146z" />
<glyph unicode="|" horiz-adv-x="790" d="M502 -571v2287h121v-2287h-121z" />
<glyph unicode="}" horiz-adv-x="569" d="M45 -225l16 82h107q82 0 106 106l107 481q20 88 76.5 135.5t122.5 55.5v4q-61 8 -97.5 55t-15.5 135l106 482q23 106 -59 106h-106l18 82h131q88 0 129 -50t21 -146l-101 -453q-20 -98 -1.5 -135t81.5 -37l-16 -82q-63 0 -100.5 -38t-57.5 -134l-100 -453 q-20 -96 -84 -146t-152 -50h-131z" />
<glyph unicode="~" horiz-adv-x="1228" d="M231 489q147 180 308 181q86 0 221 -68q12 -6 41 -19l44 -21q15 -7 37.5 -15t41 -12.5t34.5 -4.5q57 0 106.5 38t113.5 110l55 -103q-143 -180 -307 -180q-86 0 -221 68q-152 72 -199 72q-55 0 -105.5 -38t-113.5 -110z" />
<glyph unicode="&#xa1;" horiz-adv-x="681" d="M164 -414l264 1041h107l-199 -1041h-172zM449 872l43 193h172l-43 -193h-172z" />
<glyph unicode="&#xa2;" d="M170 -233l125 278q-137 109 -47 508q63 289 171.5 421t276.5 132q37 0 70 -6l102 231h99l-119 -266q102 -80 84 -295h-144q12 94 -8 143l-350 -784q20 -6 47 -6q74 0 126 50t99 183h144q-57 -164 -156.5 -260t-238.5 -96q-49 0 -74 10l-109 -243h-98zM365 199l348 778 q-18 6 -45 6q-98 0 -157.5 -88t-115.5 -342q-59 -270 -30 -354z" />
<glyph unicode="&#xa3;" d="M61 -20l31 139q193 82 256 360q6 31 27 197h-160l27 123h135q0 20 -1 96t3 129t14 104q41 184 145.5 277.5t233.5 93.5q324 0 252 -426h-135q8 88 4 155.5t-37 107.5t-96 40q-82 0 -134.5 -51t-78.5 -174q-12 -55 -16.5 -113.5t-4.5 -131t-2 -107.5h217l-26 -123h-193 l-8 -80q-6 -59 -12 -92q-35 -152 -109 -266q78 -119 174 -119q152 0 211 270h135q-51 -231 -136 -320t-238 -89q-70 0 -131.5 45t-92.5 110q-129 -137 -254 -155z" />
<glyph unicode="&#xa5;" d="M164 487l26 123h328l4 17l-33 172h-258l29 123h209l-102 557h147l121 -680l416 680h147l-344 -557h209l-29 -123h-258l-106 -172l-4 -17h327l-26 -123h-328l-109 -487h-147l109 487h-328z" />
<glyph unicode="&#xa8;" horiz-adv-x="454" d="M291 1204l47 209h135l-47 -209h-135zM561 1204l47 209h135l-47 -209h-135z" />
<glyph unicode="&#xa9;" horiz-adv-x="1638" d="M217 741q72 319 346.5 538.5t589.5 219.5t491.5 -219t104.5 -539q-72 -322 -344 -541.5t-588 -219.5q-317 0 -494.5 219.5t-105.5 541.5zM365 741q-59 -272 78 -455.5t401 -183.5q262 0 480 183.5t278 455.5q59 268 -78.5 451.5t-397.5 183.5q-264 0 -483 -183.5 t-278 -451.5zM557 741q47 207 196.5 338t354.5 131q150 0 237 -83t76 -230h-129q2 84 -54 137t-155 53q-143 0 -243.5 -96t-132.5 -246q-33 -147 27.5 -250.5t197.5 -103.5q100 0 180 56.5t113 146.5h131q-66 -147 -189 -236.5t-262 -89.5q-203 0 -298 135t-50 338z" />
<glyph unicode="&#xaa;" horiz-adv-x="544" d="M264 1008q16 74 85 132t139.5 87.5t146.5 46.5l8 37q20 98 -63 98q-92 0 -136 -109l-92 13q31 82 94.5 134t149.5 52q96 0 137 -48t23 -134l-80 -356q-20 -92 -8 -113h-107l-4 37q-55 -49 -151 -49q-82 0 -121 46t-21 126zM375 1008q-10 -45 5 -63.5t60 -18.5 q78 0 131 65l41 185q-214 -68 -237 -168z" />
<glyph unicode="&#xab;" horiz-adv-x="1024" d="M287 532l323 316h140l-332 -316l190 -315h-139zM582 532l323 316h139l-331 -316l190 -315h-139z" />
<glyph unicode="&#xac;" horiz-adv-x="1228" d="M233 684l31 135h1065l-127 -573h-135l96 438h-930z" />
<glyph unicode="&#xad;" horiz-adv-x="681" d="M190 465l31 135h504l-31 -135h-504z" />
<glyph unicode="&#xae;" horiz-adv-x="1638" d="M217 741q72 319 346.5 538.5t589.5 219.5t491.5 -219t104.5 -539q-72 -322 -344 -541.5t-588 -219.5q-317 0 -494.5 219.5t-105.5 541.5zM365 741q-59 -272 78 -455.5t401 -183.5q262 0 480 183.5t278 455.5q59 268 -78.5 451.5t-397.5 183.5q-264 0 -483 -183.5 t-278 -451.5zM594 291l199 889h337q307 0 250 -252q-25 -111 -98.5 -170.5t-169.5 -73.5l152 -393h-162l-148 389h-137l-88 -389h-135zM842 795h147q129 0 184.5 26.5t73.5 112.5q16 68 -22.5 99.5t-143.5 31.5h-180z" />
<glyph unicode="&#xb1;" horiz-adv-x="1228" d="M82 0l31 135h1065l-31 -135h-1065zM211 582l31 135h465l75 348h136l-76 -348h465l-31 -135h-465l-78 -349h-135l78 349h-465z" />
<glyph unicode="&#xb4;" horiz-adv-x="454" d="M373 1184l264 282h160l-322 -282h-102z" />
<glyph unicode="&#xb5;" d="M70 -348l313 1413h147l-174 -786q-39 -176 78 -177q96 0 232 131l184 832h147l-235 -1065h-139l26 117q-68 -57 -145.5 -97t-126.5 -40t-84 12l-76 -340h-147z" />
<glyph unicode="&#xb8;" horiz-adv-x="454" d="M-74 -410l47 91q72 -29 127 -29q61 0 104.5 23.5t51.5 60.5q10 37 -14.5 62.5t-75.5 25.5q-33 0 -90 -21l-23 29l160 168h78l-121 -119l4 -4q25 12 66 12q70 0 107.5 -38.5t21.5 -108.5q-18 -82 -94 -133t-169 -51q-114 -1 -180 32z" />
<glyph unicode="&#xba;" horiz-adv-x="477" d="M278.5 914.5q-32.5 78.5 6.5 252.5t106.5 253t175.5 79q111 0 143.5 -79t-3.5 -253q-39 -172 -108 -251.5t-179 -79.5q-109 0 -141.5 78.5zM380 977q9 -47 62 -47q55 0 87 49t63 188q31 143 20.5 190.5t-65.5 47.5q-53 0 -85 -49t-63 -189q-28 -143 -19 -190z" />
<glyph unicode="&#xbb;" horiz-adv-x="1024" d="M215 217l334 315l-193 316h140l184 -316l-326 -315h-139zM510 217l334 315l-193 316h140l184 -316l-326 -315h-139z" />
<glyph unicode="&#xbf;" horiz-adv-x="796" d="M96 -160q20 94 67.5 175t101.5 138l108 111q53 55 98 127t64 154l18 82h115l-23 -103q-20 -88 -62 -163.5t-93 -132.5l-98 -111q-48 -55 -89 -126t-59 -151q-16 -74 10.5 -112.5t73.5 -38.5q63 0 113.5 54t70.5 122l119 -25q-39 -121 -128 -197.5t-208 -76.5 q-111 0 -169.5 71.5t-29.5 202.5zM590 872l43 193h172l-43 -193h-172z" />
<glyph unicode="&#xc0;" d="M18 0l654 1479h221l-2 -1479h-160l8 438h-377l-184 -438h-160zM416 573h332l12 795h-4zM618 1839h160l137 -283h-102z" />
<glyph unicode="&#xc2;" d="M18 0l654 1479h221l-2 -1479h-160l8 438h-377l-184 -438h-160zM416 573h332l12 795h-4zM522 1556l271 283h139l143 -283h-131l-98 209l-193 -209h-131z" />
<glyph unicode="&#xc4;" d="M18 0l654 1479h221l-2 -1479h-160l8 438h-377l-184 -438h-160zM416 573h332l12 795h-4zM602 1577l45 209h135l-45 -209h-135zM872 1577l46 209h135l-45 -209h-136z" />
<glyph unicode="&#xc6;" horiz-adv-x="1478" d="M18 0l922 1479h768l-31 -136h-487l-111 -503h381l-30 -135h-381l-125 -570h512l-31 -135h-672l96 438h-376l-265 -438h-170zM537 573h323l180 816h-4z" />
<glyph unicode="&#xc7;" horiz-adv-x="1024" d="M211 -410l47 91q72 -29 127 -29q61 0 104 23.5t52 60.5q10 37 -14.5 62.5t-75.5 25.5q-33 0 -91 -21l-22 29l141 150q-186 14 -243.5 186t22.5 571q90 403 238.5 581.5t357.5 178.5q166 0 237.5 -116.5t38.5 -350.5h-159q43 332 -146 332q-141 0 -236 -142.5t-171 -482.5 q-51 -229 -53.5 -366t43 -197.5t139.5 -60.5q117 0 196.5 88t126.5 289h160q-53 -233 -176 -364.5t-297 -145.5l-102 -101l4 -4q25 12 65 12q70 0 108 -38.5t21 -108.5q-18 -82 -94 -133t-168 -51q-114 -1 -180 32z" />
<glyph unicode="&#xc8;" d="M135 0l328 1479h676l-31 -136h-516l-111 -503h381l-31 -135h-380l-125 -570h540l-30 -135h-701zM631 1839h160l137 -283h-103z" />
<glyph unicode="&#xc9;" d="M135 0l328 1479h676l-31 -136h-516l-111 -503h381l-31 -135h-380l-125 -570h540l-30 -135h-701zM694 1556l264 283h160l-321 -283h-103z" />
<glyph unicode="&#xca;" d="M135 0l328 1479h676l-31 -136h-516l-111 -503h381l-31 -135h-380l-125 -570h540l-30 -135h-701zM535 1556l270 283h139l143 -283h-131l-98 209l-192 -209h-131z" />
<glyph unicode="&#xcb;" d="M135 0l328 1479h676l-31 -136h-516l-111 -503h381l-31 -135h-380l-125 -570h540l-30 -135h-701zM614 1577l45 209h136l-45 -209h-136zM885 1577l45 209h135l-45 -209h-135z" />
<glyph unicode="&#xce;" horiz-adv-x="454" d="M147 0l328 1479h160l-328 -1479h-160zM295 1556l270 283h140l143 -283h-131l-99 209l-192 -209h-131z" />
<glyph unicode="&#xcf;" horiz-adv-x="454" d="M147 0l328 1479h160l-328 -1479h-160zM375 1577l45 209h135l-45 -209h-135zM645 1577l45 209h135l-45 -209h-135z" />
<glyph unicode="&#xd4;" horiz-adv-x="1024" d="M258 739.5q170 759.5 586 759.5q420 0 250 -759.5t-586 -759.5q-420 0 -250 759.5zM367.5 354.5q9.5 -139.5 50.5 -189.5t119 -50q121 0 220 137t177 487q59 246 50 385.5t-50 189.5t-119 50q-121 0 -220 -137t-177 -488q-60 -245 -50.5 -384.5zM580 1556l270 283h139 l144 -283h-132l-98 209l-192 -209h-131z" />
<glyph unicode="&#xd6;" horiz-adv-x="1024" d="M258 739.5q170 759.5 586 759.5q420 0 250 -759.5t-586 -759.5q-420 0 -250 759.5zM367.5 354.5q9.5 -139.5 50.5 -189.5t119 -50q121 0 220 137t177 487q59 246 50 385.5t-50 189.5t-119 50q-121 0 -220 -137t-177 -488q-60 -245 -50.5 -384.5zM659 1577l46 209h135 l-45 -209h-136zM930 1577l45 209h135l-45 -209h-135z" />
<glyph unicode="&#xd9;" horiz-adv-x="1024" d="M221 389l242 1090h160l-240 -1086q-66 -279 154 -278q215 0 280 278l240 1086h160l-242 -1090q-43 -188 -160 -298.5t-307.5 -110.5t-260 110.5t-26.5 298.5zM676 1839h160l137 -283h-103z" />
<glyph unicode="&#xdb;" horiz-adv-x="1024" d="M221 389l242 1090h160l-240 -1086q-66 -279 154 -278q215 0 280 278l240 1086h160l-242 -1090q-43 -188 -160 -298.5t-307.5 -110.5t-260 110.5t-26.5 298.5zM580 1556l270 283h139l144 -283h-132l-98 209l-192 -209h-131z" />
<glyph unicode="&#xdc;" horiz-adv-x="1024" d="M221 389l242 1090h160l-240 -1086q-66 -279 154 -278q215 0 280 278l240 1086h160l-242 -1090q-43 -188 -160 -298.5t-307.5 -110.5t-260 110.5t-26.5 298.5zM659 1577l46 209h135l-45 -209h-136zM930 1577l45 209h135l-45 -209h-135z" />
<glyph unicode="&#xdf;" d="M147 0l265 1188q29 127 129 219t237 92q150 0 216.5 -101.5t29.5 -271.5q-47 -215 -213 -299q49 -29 78 -67.5t45 -124.5t-16 -213q-100 -442 -379 -442q-55 0 -109 24l29 127q41 -29 94 -29q145 0 211 295q43 197 12 277t-153 80l26 123q90 6 144.5 62t83.5 189 q29 131 -6 189.5t-111 58.5q-70 0 -126 -52t-75 -136l-264 -1188h-148z" />
<glyph unicode="&#xe0;" d="M154 254q20 94 85.5 172t154.5 130t178.5 87t181.5 53l18 76q18 88 -12.5 139.5t-100.5 51.5q-78 0 -137 -62.5t-92 -146.5l-131 20q53 137 151.5 224t231.5 87q145 0 207.5 -79.5t32.5 -223.5l-134 -594q-33 -145 -14 -188h-153l2 90q-53 -45 -128 -77.5t-124 -32.5 q-125 0 -184.5 74.5t-32.5 199.5zM305 266q-37 -164 115 -164q96 0 227 111l80 360q-88 -25 -167 -59.5t-159 -102t-96 -145.5zM537 1466h159l138 -282h-103z" />
<glyph unicode="&#xe2;" d="M154 254q20 94 85.5 172t154.5 130t178.5 87t181.5 53l18 76q18 88 -12.5 139.5t-100.5 51.5q-78 0 -137 -62.5t-92 -146.5l-131 20q53 137 151.5 224t231.5 87q145 0 207.5 -79.5t32.5 -223.5l-134 -594q-33 -145 -14 -188h-153l2 90q-53 -45 -128 -77.5t-124 -32.5 q-125 0 -184.5 74.5t-32.5 199.5zM305 266q-37 -164 115 -164q96 0 227 111l80 360q-88 -25 -167 -59.5t-159 -102t-96 -145.5zM440 1184l271 282h139l143 -282h-131l-98 209l-193 -209h-131z" />
<glyph unicode="&#xe4;" d="M154 254q20 94 85.5 172t154.5 130t178.5 87t181.5 53l18 76q18 88 -12.5 139.5t-100.5 51.5q-78 0 -137 -62.5t-92 -146.5l-131 20q53 137 151.5 224t231.5 87q145 0 207.5 -79.5t32.5 -223.5l-134 -594q-33 -145 -14 -188h-153l2 90q-53 -45 -128 -77.5t-124 -32.5 q-125 0 -184.5 74.5t-32.5 199.5zM305 266q-37 -164 115 -164q96 0 227 111l80 360q-88 -25 -167 -59.5t-159 -102t-96 -145.5zM518 1204l47 209h135l-47 -209h-135zM788 1204l48 209h135l-47 -209h-136z" />
<glyph unicode="&#xe6;" horiz-adv-x="1251" d="M117 254q20 92 84.5 171t151.5 132t167 86t160 53l18 76q20 94 -6 142.5t-90 48.5q-59 0 -118.5 -64.5t-90.5 -144.5l-131 20q53 137 151.5 224t229.5 87q147 0 188 -131q123 131 261 131q164 0 217 -139t-2 -368l-17 -70h-504l-12 -59q-41 -178 0 -262.5t121 -84.5 q137 0 223 201l135 -16q-45 -127 -152.5 -217t-234.5 -90q-190 0 -233 145q-168 -145 -299 -145q-125 0 -184.5 74.5t-32.5 199.5zM268 266q-37 -164 115 -164q45 0 99.5 33t90.5 78l80 360q-346 -133 -385 -307zM813 631h356q39 172 15.5 252t-119.5 80q-78 0 -144.5 -82 t-107.5 -250z" />
<glyph unicode="&#xe7;" horiz-adv-x="796" d="M98 -410l47 91q72 -29 127 -29q61 0 104.5 23.5t51.5 60.5q10 37 -14.5 62.5t-75.5 25.5q-33 0 -90 -21l-23 29l142 148q-152 10 -195 143t18 409q63 287 171 420t276 133q266 0 237 -335h-143q27 213 -121 213q-98 0 -157.5 -88.5t-114.5 -342.5q-53 -264 -34.5 -347 t116.5 -83q74 0 125 50.5t98 183.5h143q-106 -317 -340 -352l-104 -103l4 -4q25 12 66 12q70 0 107.5 -38.5t21.5 -108.5q-18 -82 -94 -133t-168 -51q-115 -1 -181 32z" />
<glyph unicode="&#xe8;" horiz-adv-x="796" d="M176 112q-49 132 14 420q63 287 171 420t276 133q164 0 217 -139t-2 -368l-16 -70h-504l-13 -59q-43 -195 -14 -271t135 -76q137 0 224 201l135 -16q-45 -127 -156 -217t-250 -90q-168 0 -217 132zM358 631h357q39 172 15.5 252t-120.5 80q-86 0 -147.5 -76t-104.5 -256z M481 1466h160l137 -282h-102z" />
<glyph unicode="&#xe9;" horiz-adv-x="796" d="M176 112q-49 132 14 420q63 287 171 420t276 133q164 0 217 -139t-2 -368l-16 -70h-504l-13 -59q-43 -195 -14 -271t135 -76q137 0 224 201l135 -16q-45 -127 -156 -217t-250 -90q-168 0 -217 132zM358 631h357q39 172 15.5 252t-120.5 80q-86 0 -147.5 -76t-104.5 -256z M545 1184l264 282h160l-322 -282h-102z" />
<glyph unicode="&#xea;" horiz-adv-x="796" d="M176 112q-49 132 14 420q63 287 171 420t276 133q164 0 217 -139t-2 -368l-16 -70h-504l-13 -59q-43 -195 -14 -271t135 -76q137 0 224 201l135 -16q-45 -127 -156 -217t-250 -90q-168 0 -217 132zM358 631h357q39 172 15.5 252t-120.5 80q-86 0 -147.5 -76t-104.5 -256z M385 1184l270 282h140l143 -282h-131l-98 209l-193 -209h-131z" />
<glyph unicode="&#xeb;" horiz-adv-x="796" d="M176 112q-49 132 14 420q63 287 171 420t276 133q164 0 217 -139t-2 -368l-16 -70h-504l-13 -59q-43 -195 -14 -271t135 -76q137 0 224 201l135 -16q-45 -127 -156 -217t-250 -90q-168 0 -217 132zM358 631h357q39 172 15.5 252t-120.5 80q-86 0 -147.5 -76t-104.5 -256z M463 1204l47 209h135l-47 -209h-135zM733 1204l47 209h135l-47 -209h-135z" />
<glyph unicode="&#xee;" horiz-adv-x="454" d="M154 0l235 1065h148l-236 -1065h-147zM213 1184l270 282h140l143 -282h-131l-98 209l-193 -209h-131z" />
<glyph unicode="&#xef;" horiz-adv-x="454" d="M154 0l235 1065h148l-236 -1065h-147zM291 1204l47 209h135l-47 -209h-135zM561 1204l47 209h135l-47 -209h-135z" />
<glyph unicode="&#xf4;" horiz-adv-x="796" d="M176 112q-49 132 14 420q63 287 171 420t276 133t217 -132t-12 -421q-63 -289 -172 -420.5t-277 -131.5t-217 132zM303.5 185q18.5 -83 116.5 -83t158.5 88.5t115.5 341.5q53 264 34 347.5t-117.5 83.5t-158 -88.5t-114.5 -342.5q-53 -264 -34.5 -347zM385 1184l270 282 h140l143 -282h-131l-98 209l-193 -209h-131z" />
<glyph unicode="&#xf6;" horiz-adv-x="796" d="M176 112q-49 132 14 420q63 287 171 420t276 133t217 -132t-12 -421q-63 -289 -172 -420.5t-277 -131.5t-217 132zM303.5 185q18.5 -83 116.5 -83t158.5 88.5t115.5 341.5q53 264 34 347.5t-117.5 83.5t-158 -88.5t-114.5 -342.5q-53 -264 -34.5 -347zM463 1204l47 209 h135l-47 -209h-135zM733 1204l47 209h135l-47 -209h-135z" />
<glyph unicode="&#xf7;" horiz-adv-x="1228" d="M184 465l31 135h1065l-31 -135h-1065zM504 114.5q12 55.5 61 95.5t104.5 40t86 -40t18.5 -95.5t-60 -95t-103.5 -39.5t-87 39.5t-19.5 95zM690 950.5q12 55.5 60.5 95t103.5 39.5t87 -39.5t19.5 -95t-61.5 -95.5t-104.5 -40t-86 40t-18.5 95.5z" />
<glyph unicode="&#xf9;" d="M205 258l178 807h147l-174 -786q-39 -176 78 -177q96 0 232 131l184 832h147l-235 -1065h-139l26 117q-68 -57 -145.5 -97t-126.5 -40q-233 -1 -172 278zM537 1466h159l138 -282h-103z" />
<glyph unicode="&#xfb;" d="M205 258l178 807h147l-174 -786q-39 -176 78 -177q96 0 232 131l184 832h147l-235 -1065h-139l26 117q-68 -57 -145.5 -97t-126.5 -40q-233 -1 -172 278zM440 1184l271 282h139l143 -282h-131l-98 209l-193 -209h-131z" />
<glyph unicode="&#xfc;" d="M205 258l178 807h147l-174 -786q-39 -176 78 -177q96 0 232 131l184 832h147l-235 -1065h-139l26 117q-68 -57 -145.5 -97t-126.5 -40q-233 -1 -172 278zM518 1204l47 209h135l-47 -209h-135zM788 1204l48 209h135l-47 -209h-136z" />
<glyph unicode="&#xff;" horiz-adv-x="681" d="M-57 -348l28 123h45q176 0 273 233l-49 1057h151l21 -815h4l344 815h151l-475 -1042q-170 -371 -418 -371h-75zM406 1204l47 209h135l-47 -209h-135zM676 1204l47 209h135l-47 -209h-135z" />
<glyph unicode="&#x102;" d="M609 1884h77q-20 -164 160 -164q82 0 130 40t83 124h78q-82 -262 -334 -262q-111 0 -161.5 74.5t-32.5 187.5zM18 0l654 1479h221l-2 -1479h-160l8 438h-377l-184 -438h-160zM416 573h332l12 795h-4z" />
<glyph unicode="&#x103;" d="M504 1470h77q-20 -164 160 -164q82 0 130 40t83 124h78q-82 -262 -334 -262q-111 0 -161.5 74.5t-32.5 187.5zM154 254q20 94 85.5 172t154.5 130t178.5 87t181.5 53l18 76q7 33 7 61q0 46 -19 78q-31 51 -101 52q-78 0 -137 -62.5t-92 -146.5l-131 20q53 137 151.5 224 t231.5 87q145 0 208 -79q42 -54 42 -136q0 -40 -10 -88l-134 -594q-21 -93 -20 -144q0 -29 6 -44h-153l2 90q-53 -45 -128 -77.5t-124 -32.5q-125 0 -185 74q-41 52 -41 127q1 34 9 73zM305 266q-7 -32 -7 -58q0 -106 122 -106q96 0 227 111l80 360q-88 -25 -167 -59.5 t-159 -102t-96 -145.5z" />
<glyph unicode="&#x152;" horiz-adv-x="1478" d="M187 376.5q1 143.5 50.5 362.5t111 362.5t149.5 226.5t192.5 117t251.5 34h766l-31 -136h-479l-111 -503h365l-31 -135h-364l-125 -570h504l-31 -135h-791q-147 0 -237 34t-140.5 116.5t-49.5 226zM353 445.5q-5 -119.5 24 -185t79 -93.5t128 -28q104 0 156.5 43 t76.5 162l176 791q27 119 -6 161.5t-137 42.5q-160 0 -268.5 -131t-184.5 -469q-39 -174 -44 -293.5z" />
<glyph unicode="&#x153;" horiz-adv-x="1251" d="M151.5 112q-49.5 132 14.5 420q63 287 170.5 420t275.5 133q195 0 219 -180q117 180 265 180q164 0 217 -139t-2 -368l-17 -70h-479l-12 -59q-37 -195 -9.5 -271t105.5 -76q141 0 219 201l135 -16q-41 -125 -148.5 -216t-234.5 -91q-172 0 -213 165q-102 -166 -288 -165 q-168 0 -217.5 132zM278.5 185q18.5 -83 117 -83t160.5 89.5t118 340.5q53 264 31.5 347.5t-120 83.5t-157.5 -88.5t-115 -342.5q-53 -264 -34.5 -347zM842 631h332q39 172 15 252t-120 80q-143 0 -227 -332z" />
<glyph unicode="&#x162;" horiz-adv-x="796" d="M-19 -396l47 91q72 -29 127 -29q61 0 104.5 23.5t51.5 60.5q10 37 -14.5 62.5t-75.5 25.5q-33 0 -90 -21l-23 29l160 168h78l-121 -119l4 -4q25 12 66 12q70 0 107.5 -38.5t21.5 -108.5q-18 -82 -94 -133t-169 -51q-114 -1 -180 32zM311 1343l31 136h766l-31 -136h-303 l-297 -1343h-160l297 1343h-303z" />
<glyph unicode="&#x163;" horiz-adv-x="569" d="M-56 -416l47 91q72 -29 127 -29q61 0 104.5 23.5t51.5 60.5q10 37 -14.5 62.5t-75.5 25.5q-33 0 -90 -21l-23 29l160 168h78l-121 -119l4 -4q25 12 66 12q70 0 107.5 -38.5t21.5 -108.5q-18 -82 -94 -133t-169 -51q-114 -1 -180 32zM207 209l162 733h-144l27 123h143 l80 356h148l-80 -356h196l-26 -123h-197l-166 -745q-3 -17 -3 -32q0 -74 87 -75q29 0 94 21l-24 -111q-72 -20 -144 -20q-106 0 -143 54q-21 32 -21 85q0 39 11 90z" />
<glyph unicode="&#x178;" d="M360 1479h172l111 -648l389 648h172l-528 -852l-139 -627h-160l139 627zM602 1577l45 209h135l-45 -209h-135zM872 1577l46 209h135l-45 -209h-136z" />
<glyph unicode="&#x192;" d="M-6 -340l31 135q37 -20 81 -20q66 0 108 46t129 269t230 701h-180l27 122h188q84 326 199 456t274 130q35 0 97 -8l-29 -131q-76 16 -86 16q-66 0 -105.5 -26.5t-90 -128t-111.5 -308.5h176l-27 -122h-184q-117 -387 -197 -607.5t-156.5 -342.5t-140 -155.5t-161.5 -33.5 q-39 0 -72 8z" />
<glyph unicode="&#x218;" d="M215 -643l162 307h-82l43 193h172l-45 -205l-188 -295h-62zM162 397h147q-10 -49 -10 -91q0 -70 29 -117q45 -75 161 -74q102 0 175 63.5t100 179.5q6 29 6 56q0 37 -11 72q-19 60 -61.5 103.5t-96.5 90.5l-107 90q-53 43 -93.5 101.5t-56.5 123.5q-8 31 -8 68 q0 42 10 92q35 156 153.5 250t278.5 94q162 0 236 -105q51 -73 51 -187q0 -51 -10 -109h-148q6 41 6 75q0 191 -174 191q-92 0 -159.5 -54.5t-85.5 -140.5q-6 -29 -7 -55q0 -36 12 -70q19 -57 62 -98t96 -87l107 -88q53 -42 93 -103.5t55 -133.5q7 -31 7 -69q0 -49 -12 -109 q-41 -178 -160.5 -277t-302.5 -99q-172 0 -246 114q-49 75 -50 183q1 55 14 120z" />
<glyph unicode="&#x219;" horiz-adv-x="796" d="M184 -643l162 307h-82l43 193h172l-45 -205l-188 -295h-62zM135 262l141 29q20 -188 154 -189q61 0 118.5 48.5t72.5 113.5q4 20 4 40q0 35 -15 66q-23 48 -65 80l-93 70q-50 39 -91.5 77t-61.5 97q-11 33 -11 71q0 30 7 62q23 106 118 182t214 76q242 0 241 -254 l-131 -36q-6 82 -35.5 125t-111.5 43q-51 0 -93 -36t-55 -91q-3 -15 -3 -30q0 -42 27 -79q36 -49 93 -89t113.5 -84t87.5 -116q18 -43 18 -93q0 -34 -8 -71q-29 -127 -130 -210.5t-226 -83.5q-139 0 -204 71.5t-75 210.5z" />
<glyph unicode="&#x21a;" horiz-adv-x="796" d="M167 -622l162 307h-82l43 193h172l-45 -205l-188 -295h-62zM311 1343l31 136h766l-31 -136h-303l-297 -1343h-160l297 1343h-303z" />
<glyph unicode="&#x21b;" horiz-adv-x="569" d="M131 -643l162 307h-82l43 193h172l-45 -205l-188 -295h-62zM207 209l162 733h-144l27 123h143l80 356h148l-80 -356h196l-26 -123h-197l-166 -745q-3 -17 -3 -32q0 -74 87 -75q29 0 94 21l-24 -111q-72 -20 -144 -20q-106 0 -143 54q-21 32 -21 85q0 39 11 90z" />
<glyph unicode="&#x2c6;" horiz-adv-x="454" d="M213 1184l270 282h140l143 -282h-131l-98 209l-193 -209h-131z" />
<glyph unicode="&#x2d8;" horiz-adv-x="454" d="M285 1454h77q-20 -164 160 -164q82 0 130 40t83 124h78q-82 -262 -334 -262q-111 0 -161.5 74.5t-32.5 187.5z" />
<glyph unicode="&#x2da;" horiz-adv-x="454" d="M338 1378q18 80 87 137.5t150.5 57.5t125.5 -57.5t26 -137.5q-16 -80 -86 -137t-151.5 -57t-124.5 57t-27 137zM424 1378q-10 -43 15.5 -75.5t68.5 -32.5t84 32.5t49 75.5q10 43 -15.5 76t-68.5 33t-84 -33t-49 -76z" />
<glyph unicode="&#x2dc;" horiz-adv-x="454" d="M205 1204q18 74 76.5 137.5t126.5 63.5q57 0 135 -45q82 -45 112 -45q68 0 101 102h73q-23 -86 -72.5 -143t-129.5 -57q-47 0 -125 45q-82 45 -119 45q-72 0 -104 -103h-74z" />
<glyph unicode="&#x3a9;" horiz-adv-x="1165" d="M82 0l27 117h245v6q-72 119 -94 281.5t21 390.5q70 313 249 502.5t389.5 189.5t295.5 -194.5t20 -487.5q-47 -213 -151.5 -393.5t-223.5 -288.5v-6h246l-27 -117h-391l19 86q123 98 232.5 281.5t158.5 406.5q23 104 24.5 206.5t-19 189.5t-75.5 141.5t-139 54.5 q-160 0 -293 -167t-188 -427q-45 -227 -18.5 -411.5t102.5 -274.5l-19 -86h-391z" />
<glyph unicode="&#x3c0;" horiz-adv-x="952" d="M100 0q84 164 181.5 448.5t154.5 520.5q-117 0 -184 -23v92q84 51 252 52h651l-39 -121h-131l-151 -680q-41 -190 -37 -289h-125q-14 61 33 279l153 690h-293q-61 -236 -161.5 -530t-178.5 -439h-125z" />
<glyph unicode="&#x2000;" horiz-adv-x="942" />
<glyph unicode="&#x2001;" horiz-adv-x="1884" />
<glyph unicode="&#x2002;" horiz-adv-x="942" />
<glyph unicode="&#x2003;" horiz-adv-x="1884" />
<glyph unicode="&#x2004;" horiz-adv-x="626" />
<glyph unicode="&#x2005;" horiz-adv-x="471" />
<glyph unicode="&#x2006;" horiz-adv-x="313" />
<glyph unicode="&#x2007;" horiz-adv-x="313" />
<glyph unicode="&#x2008;" horiz-adv-x="235" />
<glyph unicode="&#x2009;" horiz-adv-x="376" />
<glyph unicode="&#x200a;" horiz-adv-x="104" />
<glyph unicode="&#x2010;" horiz-adv-x="681" d="M190 465l31 135h504l-31 -135h-504z" />
<glyph unicode="&#x2011;" horiz-adv-x="681" d="M190 465l31 135h504l-31 -135h-504z" />
<glyph unicode="&#x2012;" horiz-adv-x="681" d="M190 465l31 135h504l-31 -135h-504z" />
<glyph unicode="&#x2013;" horiz-adv-x="1024" d="M106 483l23 99h1024l-23 -99h-1024z" />
<glyph unicode="&#x2014;" horiz-adv-x="2048" d="M106 483l23 99h2048l-23 -99h-2048z" />
<glyph unicode="&#x2018;" horiz-adv-x="454" d="M369 999l45 205l188 295h62l-162 -307h82l-43 -193h-172z" />
<glyph unicode="&#x2019;" horiz-adv-x="454" d="M340 979l162 307h-82l43 193h172l-45 -205l-189 -295h-61z" />
<glyph unicode="&#x201a;" horiz-adv-x="454" d="M55 -307l162 307h-82l43 193h172l-45 -205l-188 -295h-62z" />
<glyph unicode="&#x201c;" horiz-adv-x="796" d="M369 999l45 205l188 295h62l-162 -307h82l-43 -193h-172zM711 999l45 205l188 295h62l-162 -307h82l-43 -193h-172z" />
<glyph unicode="&#x201d;" horiz-adv-x="796" d="M340 979l162 307h-82l43 193h172l-45 -205l-189 -295h-61zM682 979l162 307h-82l43 193h172l-45 -205l-189 -295h-61z" />
<glyph unicode="&#x201e;" horiz-adv-x="796" d="M55 -307l162 307h-82l43 193h172l-45 -205l-188 -295h-62zM397 -307l162 307h-82l43 193h172l-45 -205l-188 -295h-62z" />
<glyph unicode="&#x2022;" horiz-adv-x="1024" d="M305 739q33 154 165 261.5t285.5 107.5t237.5 -107.5t51.5 -261t-166 -262t-287 -108.5t-237.5 108t-49 262z" />
<glyph unicode="&#x2026;" horiz-adv-x="2048" d="M256 0l43 193h172l-43 -193h-172zM938 0l43 193h172l-43 -193h-172zM1620 0l43 193h172l-43 -193h-172z" />
<glyph unicode="&#x202f;" horiz-adv-x="376" />
<glyph unicode="&#x2030;" horiz-adv-x="2048" d="M172 -20l1184 1519h119l-1184 -1519h-119zM301 1176q29 121 139.5 212t231.5 91t191.5 -91.5t44 -212t-138.5 -212t-232.5 -91.5t-191.5 91.5t-44 212.5zM415.5 1175.5q-16.5 -75.5 25.5 -132t122 -56.5t146.5 56.5t83 132t-24.5 132t-121 56.5t-147.5 -56.5t-84 -132z M739.5 303q26.5 121 138 212t232.5 91t191.5 -91t44.5 -212q-29 -121 -139.5 -212t-231.5 -91t-191.5 91t-44 212zM854 303q-16 -76 25 -132t120.5 -56t147 56t84 132t-25.5 132.5t-121.5 56.5t-146.5 -56.5t-83 -132.5zM1468.5 303q26.5 121 138 212t232.5 91t191.5 -91 t44.5 -212q-29 -121 -139.5 -212t-231.5 -91t-191.5 91t-44 212zM1583 303q-16 -76 25 -132t120.5 -56t147.5 56t84 132t-26 132.5t-121.5 56.5t-146.5 -56.5t-83 -132.5z" />
<glyph unicode="&#x2039;" horiz-adv-x="681" d="M266 532l324 316h139l-332 -316l191 -315h-139z" />
<glyph unicode="&#x203a;" horiz-adv-x="681" d="M188 217l334 315l-192 316h139l184 -316l-325 -315h-140z" />
<glyph unicode="&#x2044;" horiz-adv-x="342" d="M-346 -20l1235 1519h127l-1235 -1519h-127z" />
<glyph unicode="&#x205f;" horiz-adv-x="471" />
<glyph unicode="&#x20ac;" d="M141 498l58 123h92q4 23 13 65.5l11 52.5l17 70h-121l57 123h97q37 123 82 218t109.5 178t156.5 127t205 44q188 0 280 -156l-76 -161q-49 90 -100 136t-137 46q-137 0 -220 -118t-139 -314h478l-58 -123h-450l-43 -188h401l-57 -123h-365q-12 -109 -9 -194t52 -137 t146 -52q147 0 290 121l-34 -158q-129 -98 -291 -98q-143 0 -222 68.5t-92.5 183t0.5 266.5h-131z" />
<glyph unicode="&#x2122;" horiz-adv-x="2027" d="M381 1368l25 111h684l-25 -111h-274l-168 -756h-136l168 756h-274zM1036 612l193 867h215l112 -658l400 658h217l-193 -867h-135l162 731h-4l-451 -731h-90l-123 731h-6l-162 -731h-135z" />
<glyph unicode="&#x2202;" horiz-adv-x="921" d="M180 463q53 242 196.5 393.5t291.5 151.5q94 0 150 -50.5t75 -111.5h2q10 29 18 78q57 268 5 438t-185 170q-119 0 -239 -96l-21 106q143 109 301 109q178 0 260 -194.5t-6 -590.5q-92 -414 -258 -644t-377 -230q-150 0 -205 132t-8 339zM306 204q34 -95 126 -95h2 q115 0 228.5 166.5t185.5 414.5q-6 80 -55.5 140.5t-135.5 60.5q-104 0 -206.5 -126t-141.5 -302q-37 -164 -3 -259z" />
<glyph unicode="&#x2206;" horiz-adv-x="1069" d="M57 0l21 92l723 1409h145l88 -1407l-20 -94h-957zM211 113h692l-55 819q0 55 -12.5 187t-10.5 188h-6q-20 -49 -84.5 -174t-87.5 -177z" />
<glyph unicode="&#x220f;" horiz-adv-x="1490" d="M375 1337v129h1067v-129h-174v-1540h-127v1540h-465v-1540h-129v1540h-172z" />
<glyph unicode="&#x2211;" horiz-adv-x="1253" d="M369 -104l454 735l-434 737v98h797v-118h-625v-7l408 -688l-445 -714v-9h693v-133h-848v99z" />
<glyph unicode="&#x221a;" horiz-adv-x="1320" d="M393 707l240 90l211 -750q25 -119 30 -166l3 -2q4 23 12 82t10 80l315 1704h97l-375 -2060h-115l-276 981l-127 -48z" />
<glyph unicode="&#x221e;" horiz-adv-x="1597" d="M287 604q0 125 79.5 207t202.5 82q94 0 172 -56.5t166 -160.5l74 81q20 22 68.5 62.5t95.5 57t102 16.5q117 0 189.5 -78t72.5 -203v-2q0 -127 -81.5 -207.5t-194.5 -80.5q-84 0 -159 49t-173 164q-57 -68 -99 -107t-107.5 -72.5t-135.5 -33.5q-113 0 -192.5 80.5 t-79.5 201.5zM379 602q2 -84 55 -139t135 -55h2q20 0 43 5t39.5 12t39 22.5t34.5 24.5t34.5 31.5t31.5 32.5l30 33q23 25 29 31q-59 74 -87 104.5t-87.5 67.5t-118.5 37q-84 0 -132 -59.5t-48 -147.5zM952 608q104 -115 160.5 -157.5t126.5 -42.5q82 0 131 59t49 137 q0 94 -51 149.5t-131 55.5h-2q-35 0 -68.5 -13.5t-66.5 -40t-54.5 -47t-53.5 -56.5t-40 -44z" />
<glyph unicode="&#x222b;" horiz-adv-x="976" d="M367 -305l24 102q43 -18 74 -18q51 0 82 51q55 86 55 363q0 172 -10 541.5t-10 533.5q0 328 94 440q66 82 170 82q47 0 92 -25l-25 -98q-29 16 -59 16q-55 0 -88 -51q-57 -82 -57 -377q0 -162 10 -527.5t10 -534.5q0 -297 -78 -429q-57 -98 -176 -98q-61 0 -108 29z" />
<glyph unicode="&#x2248;" horiz-adv-x="1150" d="M266 377q84 182 238 182q25 0 48 -4t47 -15l37 -18q13 -6 36.5 -21.5t27.5 -17.5q111 -63 160 -63t85 33.5t73 105.5l59 -45q-78 -182 -225 -182q-70 0 -199 76q-104 63 -159.5 63t-93.5 -37t-74 -102zM266 682q84 182 238 182q31 0 62.5 -9t49 -18.5t48 -27.5t36.5 -21 q109 -63 160 -63q49 0 85 34t73 105l59 -45q-78 -182 -225 -182q-68 0 -199 76q-98 63 -159 63q-55 0 -92 -34.5t-76 -102.5z" />
<glyph unicode="&#x2260;" horiz-adv-x="1185" d="M315 375v90h289l113 260h-402v90h435l90 203l69 -29l-75 -174h262v-90h-295l-115 -260h410v-90h-445l-88 -205l-71 31l75 174h-252z" />
<glyph unicode="&#x2264;" horiz-adv-x="1220" d="M350 63v95h783v-95h-783zM358 659v93l768 422v-111l-673 -354v-4l673 -357v-110z" />
<glyph unicode="&#x2265;" horiz-adv-x="1220" d="M352 63v95h781v-95h-781zM360 238v110l672 354v5l-672 356v111l768 -422v-93z" />
<glyph unicode="&#xe000;" horiz-adv-x="1065" d="M0 1065h1065v-1065h-1065v1065z" />
</font>
</defs>
</svg>
