<?xml version="1.0" encoding="UTF-8" standalone="no"?>
<!-- Generator: Adobe Illustrator 18.1.1, SVG Export Plug-In . SVG Version: 6.00 Build 0)  -->

<svg
   version="1.1"
   id="Layer_1"
   x="0px"
   y="0px"
   viewBox="0 0 1622.4121 229.13672"
   enable-background="new 0 0 1600 720"
   xml:space="preserve"
   sodipodi:docname="footer.svg"
   inkscape:version="1.3 (1:1.3+202307231459+0e150ed6c4)"
   width="1622.4121"
   height="229.13672"
   xmlns:inkscape="http://www.inkscape.org/namespaces/inkscape"
   xmlns:sodipodi="http://sodipodi.sourceforge.net/DTD/sodipodi-0.dtd"
   xmlns="http://www.w3.org/2000/svg"
   xmlns:svg="http://www.w3.org/2000/svg">&#10;  <defs
   id="defs1" />&#10;  <sodipodi:namedview
   id="namedview1"
   pagecolor="#ffffff"
   bordercolor="#666666"
   borderopacity="1.0"
   inkscape:showpageshadow="2"
   inkscape:pageopacity="0.0"
   inkscape:pagecheckerboard="0"
   inkscape:deskcolor="#d1d1d1"
   inkscape:zoom="0.61032154"
   inkscape:cx="665.22312"
   inkscape:cy="406.34319"
   inkscape:window-width="1920"
   inkscape:window-height="1135"
   inkscape:window-x="0"
   inkscape:window-y="0"
   inkscape:window-maximized="1"
   inkscape:current-layer="Layer_1"
   showguides="true">&#10;    <sodipodi:guide
   position="202.49582,1165.4009"
   orientation="1,0"
   id="guide28"
   inkscape:locked="false" />&#10;  </sodipodi:namedview>&#10; &#10;<g
   id="g1"
   transform="matrix(-3.2759468,0,0,2.222238,1615.921,-493.90848)"
   style="display:inline;fill:#ffb196;fill-opacity:1">&#10;    &#10;  <path
   id="path12"
   style="display:inline;fill:#dd004b;fill-opacity:1;stroke:none;stroke-width:20.7484;stroke-linecap:square;stroke-dasharray:none;paint-order:fill markers stroke"
   d="M -1.9814453,222.25724 94.826271,248.2718 c 12.740469,2.7239 18.673659,3.27627 35.165289,3.27127 19.48413,-0.006 23.79451,-0.57634 52.29942,-6.92134 24.88551,-5.53936 32.95821,-6.55994 44.54178,-5.63111 15.10366,1.21108 25.05618,4.95078 44.09447,16.5699 16.90783,10.3189 23.16506,12.78517 33.59487,13.24063 7.34685,0.32082 11.86796,-0.4953 16.99,-3.06648 4.66846,-2.3435 7.07825,-4.27465 13.86291,-11.1093 9.75796,-9.82989 14.28093,-12.35035 21.07633,-11.74562 4.73366,0.42123 8.0398,2.07575 10.98758,5.49928 2.98407,3.46567 4.39323,7.33507 6.86716,18.86119 0.96803,4.51016 2.32342,9.46526 3.01228,11.01086 2.2814,5.11882 6.73214,8.728 13.61831,11.04338 2.97089,0.99891 5.24576,1.24772 14.37063,1.57235 12.47038,0.44366 12.38914,0.42023 19.08071,5.52037 7.51603,5.7285 14.33251,7.91289 24.72132,7.91889 6.25408,0.004 10.36541,-0.72357 16.9595,-3.00232 4.96772,-1.71669 13.86528,-4.80086 20.18108,-1.35966 3.42112,1.86402 5.46075,4.44606 6.7344,11.68146 0,0 0.0843,11.58295 0.0975,12.96641 -1.28284,-6.56296 -3.27054,-9.11887 -6.54781,-10.90451 -6.3158,-3.4412 -15.21338,-0.35791 -20.18108,1.35878 -6.5941,2.27875 -10.70542,3.00639 -16.95951,3.00232 -10.3888,-0.006 -17.20529,-2.19039 -24.72131,-7.91889 -6.69157,-5.10014 -6.61033,-5.07671 -19.08071,-5.52037 -9.12487,-0.32463 -11.39974,-0.57344 -14.37064,-1.57235 -6.88617,-2.31538 -11.33691,-5.92455 -13.61831,-11.04338 -0.68885,-1.5456 -2.04424,-6.49982 -3.01227,-11.00998 -2.47394,-11.52612 -3.8831,-15.3964 -6.86716,-18.86207 -2.94778,-3.42353 -6.25392,-5.07805 -10.98759,-5.49928 -6.79539,-0.60473 -11.31836,1.91573 -21.07633,11.74562 -6.78467,6.83465 -9.19444,8.7658 -13.86291,11.1093 -5.12203,2.57118 -9.64315,3.3873 -16.98999,3.06648 -10.42981,-0.45546 -16.68706,-2.92173 -33.59488,-13.24063 -19.03828,-11.61912 -28.9908,-15.35882 -44.09446,-16.5699 -11.58358,-0.92883 -19.65627,0.0918 -44.54179,5.63111 -28.50491,6.345 -32.81528,6.91563 -52.29941,6.92134 -16.49164,0.005 -22.42483,-0.54737 -35.165297,-3.27127 L -1.6973816,235.99972 Z M 493.08179,324.59196 c 0.0563,0.28806 0.13304,0.47185 0.18659,0.77607 z"
   sodipodi:nodetypes="cccsssssssssssscccsccsccsssscssssssssccccccc" /></g><g
   id="g2"
   transform="matrix(-3.2759468,0,0,2.222238,1618.9933,-459.36936)"
   style="display:inline;fill:#ffffff;fill-opacity:1">&#10;    &#10;  </g>&#10;  &#10;  &#10;  &#10;  &#10;  &#10;  &#10;  &#10;  &#10;</svg>
