<?xml version="1.0" encoding="UTF-8" standalone="no"?>
<!-- Created with Inkscape (http://www.inkscape.org/) -->

<svg
   width="438.08813mm"
   height="86.38559mm"
   viewBox="0 0 438.08813 86.385593"
   version="1.1"
   id="svg1"
   sodipodi:docname="footer2.svg"
   inkscape:version="1.3 (1:1.3+202307231459+0e150ed6c4)"
   xmlns:inkscape="http://www.inkscape.org/namespaces/inkscape"
   xmlns:sodipodi="http://sodipodi.sourceforge.net/DTD/sodipodi-0.dtd"
   xmlns="http://www.w3.org/2000/svg"
   xmlns:svg="http://www.w3.org/2000/svg">
  <sodipodi:namedview
     id="namedview1"
     pagecolor="#ffffff"
     bordercolor="#666666"
     borderopacity="1.0"
     inkscape:showpageshadow="2"
     inkscape:pageopacity="0.0"
     inkscape:pagecheckerboard="0"
     inkscape:deskcolor="#d1d1d1"
     inkscape:document-units="mm"
     inkscape:zoom="0.30236553"
     inkscape:cx="527.50723"
     inkscape:cy="72.759617"
     inkscape:window-width="1920"
     inkscape:window-height="1135"
     inkscape:window-x="0"
     inkscape:window-y="0"
     inkscape:window-maximized="1"
     inkscape:current-layer="layer1" />
  <defs
     id="defs1" />
  <g
     inkscape:label="Layer 1"
     inkscape:groupmode="layer"
     id="layer1"
     transform="translate(167.45019,-50.327683)">
    <path
       d="m 223.47836,133.85431 c -5.63727,-0.67241 -10.21429,-1.97677 -15.06017,-3.35717 -8.33881,-2.37602 -16.96058,-4.83165 -31.13105,-4.05401 -13.43352,0.73833 -20.21785,3.02062 -25.66894,4.85454 -3.36677,1.13246 -6.02587,2.02688 -9.56655,2.39058 -5.76836,0.59302 -10.80919,0.14848 -16.64487,-0.36547 -4.01501,-0.35373 -8.16565,-0.71933 -12.86433,-0.76396 -5.89596,-0.0565 -11.70265,0.92075 -17.849784,1.95517 -6.619604,1.11436 -13.465853,2.26671 -20.825702,2.1962 -7.850805,-0.0752 -12.102618,-1.43723 -17.025548,-3.01409 -3.528169,-1.12981 -7.175454,-2.29825 -12.264967,-2.99151 -6.204798,-0.84542 -12.889035,-0.53003 -19.351396,-0.22623 -6.337961,0.2981 -12.323463,0.58038 -17.1456979,-0.24494 -3.735658,-0.63909 -6.587891,-3.12117 -9.608231,-5.74942 -4.26618,-3.71185 -9.1014001,-7.91982 -19.1870001,-9.55748 -11.32719,-1.83979 -22.34243,-0.32939 -31.19296,0.88445 -4.87611,0.66888 -9.4825,1.30051 -13.1759,1.26512 -5.31166,-0.0509 -10.83448,-1.23005 -16.68149,-2.47857 -5.6129,-1.19859 -11.41487,-2.43741 -17.72658,-2.8148 -7.486384,-0.44839 -17.262794,0.67179 -26.721824,1.7541 -6.7943,0.77755 -13.82058,1.58138 -18.28676,1.53859 -7.61833,-0.073 -18.195,-2.28431 -22.9488,-3.4427 l 0.36876,-4.39744 c 4.90527,1.42492 12.79666,3.08346 23.18213,3.18295 9.11634,0.0873 17.20312,-1.48821 25.02447,-3.01236 7.54493,-1.47015 14.67207,-2.8588 22.398114,-2.78479 7.83376,0.075 11.7381,1.49211 16.25991,3.13279 4.20739,1.52675 8.97631,3.25736 17.12035,3.84047 8.44788,0.6032 15.76782,-0.79289 22.84718,-2.14527 7.50431,-1.43309 14.59632,-2.78637 23.44491,-2.13917 8.2913401,0.60615 13.3657501,4.17193 17.8426401,7.3182 4.675204,3.28586 9.5131899,6.68282 18.1763689,5.76076 9.475785,-1.00973 9.137196,-6.32596 8.780083,-11.95447 -0.264543,-4.15768 -0.564486,-8.869548 3.51395,-10.427499 0.614932,-0.235156 1.693855,-0.545186 3.946688,-0.523604 8.364201,0.08012 12.408987,7.915463 15.976702,14.828383 4.276153,8.28498 8.315416,16.11062 20.434839,18.00745 2.443574,0.38257 4.729886,0.56072 6.875009,0.58129 8.338148,0.0802 14.558862,-2.2195 19.767433,-4.14468 3.897633,-1.44052 7.578783,-2.80108 11.372603,-3.03738 4.77124,-0.2952 8.4766,0.93414 12.76644,2.36073 4.45444,1.48072 9.51269,3.16431 16.51045,3.08782 6.75465,-0.0689 11.46962,-2.0108 16.02956,-3.88896 5.22929,-2.15402 10.63771,-4.3815 19.69615,-4.59689 9.14463,-0.21492 17.68455,1.70598 27.56471,3.93365 8.4822,1.91245 18.09852,4.0799 29.619,5.11908 17.07971,1.53948 30.60709,-0.20848 37.91671,-1.59883 l -0.34255,4.35032 c -8.1594,0.75244 -33.56273,2.87254 -46.16403,1.36905 z"
       id="path1"
       style="display:inline;fill:#ff6091;fill-opacity:1;stroke-width:0.555149"
       sodipodi:nodetypes="ccccccscscccccccssccsccscsccccccccscccccccccscccc" />
    <path
       style="display:inline;fill:#dd004b;fill-opacity:1;stroke:none;stroke-width:15.4776;stroke-linecap:square;stroke-dasharray:none;paint-order:fill markers stroke"
       d="m 83.846406,127.61351 c 1.013914,-0.15774 4.845623,-1.32244 8.514909,-2.58822 9.708875,-3.34923 12.121995,-3.88749 18.038255,-4.02357 6.15705,-0.14162 8.73468,0.30525 17.17573,2.97768 6.06702,1.92082 6.3654,1.97825 10.50857,2.02294 4.75058,0.0509 5.16636,-0.056 14.90324,-3.84365 8.70626,-3.38675 16.25986,-4.57227 26.55819,-4.16822 7.47035,0.29308 12.52924,1.07554 25.85402,3.99859 19.46906,4.27097 25.93506,5.16632 38.3802,5.31449 9.13336,0.10872 15.17865,-0.33903 22.36829,-1.65675 l 3.87452,-0.71013 0.38188,-3.22203 c 0.43954,-3.7085 0.88032,-3.34774 -4.90899,-4.01754 -5.24089,-0.60637 -11.56532,-0.33371 -16.07208,0.69289 -5.98225,1.3627 -9.6779,1.78084 -15.24552,1.72496 -9.24846,-0.0932 -15.21008,-1.51061 -21.62048,-5.14177 -5.70723,-3.23285 -5.63574,-3.21745 -16.71597,-3.60006 -8.10767,-0.27996 -10.12093,-0.45438 -12.71684,-1.10174 -6.01702,-1.50046 -9.80237,-3.78579 -11.58245,-6.99267 -0.53748,-0.96828 -1.50142,-4.065054 -2.14209,-6.881717 -1.63732,-7.198242 -2.70177,-9.619769 -5.18846,-11.803242 -2.45646,-2.156923 -5.31859,-3.215516 -9.51217,-3.518186 -6.02006,-0.434493 -10.17029,1.0965 -19.33947,7.134201 -6.37527,4.197982 -8.61545,5.379989 -12.88654,6.799432 -4.68605,1.557358 -8.75113,2.026897 -15.27606,1.764461 C 97.93409,96.40111 92.484227,94.812091 77.937685,88.242471 61.558213,80.845046 52.881193,78.43129 39.494284,77.548357 29.22734,76.871203 21.990847,77.43782 -0.4355159,80.674872 c -25.6881301,3.70786 -29.5538101,4.026319 -46.9002101,3.863708 -14.6822,-0.137641 -19.93686,-0.531856 -31.14574,-2.336643 -26.158814,-4.211943 -57.092564,-16.265634 -82.874984,-28.74023 -1.77852,-0.86052 -4.85805,-3.134024 -4.85805,-3.134024 l -0.32656,53.286997 2.31321,0.8024 c 1.27228,0.4413 4.49354,1.25188 7.15846,1.80124 6.52987,1.12175 14.73668,1.54264 21.45794,1.11979 2.78959,-0.24358 8.2056,-1.51278 8.2056,-1.51278 21.15871,-3.90082 23.31178,-4.14596 33.375214,-3.79986 8.03029,0.27618 10.30755,0.71129 18.63793,3.56111 7.60421,2.6014 10.08711,3.08704 16.0444,3.13807 5.17066,0.0441 7.11543,-0.20061 19.15418,-2.41206 8.98598,-1.65067 15.09842,-2.16951 22.06489,-1.87288 10.0017701,0.42587 15.7049501,2.23066 23.4375611,7.41691 7.7089859,5.1704 10.0498599,6.22703 12.5608629,5.66975 0.527586,-0.11708 1.318942,-0.67375 1.758568,-1.23702 0.69354,-0.8886 0.828165,-1.93346 1.01728,-7.89524 0.254902,-8.03592 0.598965,-9.112568 3.570572,-11.172992 2.643724,-1.833084 6.064816,-2.560448 11.654674,-2.477918 6.766727,0.0999 11.447628,1.85404 15.421903,5.77926 1.872263,1.84916 3.080698,3.78175 9.948626,15.91046 3.626885,6.40503 7.498954,9.84335 12.392111,11.00395 2.223304,0.52734 7.385513,0.61665 10.213489,0.17667 z"
       id="path12"
       sodipodi:nodetypes="cssscscccscssscsscssssssssssssaccsssssscssssssssssscc" />
  </g>
</svg>
