<?xml version="1.0" encoding="UTF-8" standalone="no"?>
<!-- Generator: Adobe Illustrator 18.1.1, SVG Export Plug-In . SVG Version: 6.00 Build 0)  -->

<svg version="1.1" id="Layer_1" x="0px" y="0px" viewBox="0 0 1600 200" enable-background="new 0 0 1600 720"
  xml:space="preserve" sodipodi:docname="footer.svg" inkscape:version="1.3 (1:1.3+202307231459+0e150ed6c4)" width="1600"
  height="200" xmlns:inkscape="http://www.inkscape.org/namespaces/inkscape"
  xmlns:sodipodi="http://sodipodi.sourceforge.net/DTD/sodipodi-0.dtd" xmlns="http://www.w3.org/2000/svg"
  xmlns:svg="http://www.w3.org/2000/svg">
  <defs id="defs1" />
  <sodipodi:namedview id="namedview1" pagecolor="#ffffff" bordercolor="#666666" borderopacity="1.0"
    inkscape:showpageshadow="2" inkscape:pageopacity="0.0" inkscape:pagecheckerboard="0" inkscape:deskcolor="#d1d1d1"
    inkscape:zoom="0.61032154" inkscape:cx="756.15879" inkscape:cy="504.65202" inkscape:window-width="1920"
    inkscape:window-height="1135" inkscape:window-x="0" inkscape:window-y="0" inkscape:window-maximized="1"
    inkscape:current-layer="g1" showguides="true">
    <sodipodi:guide position="185.96755,655.68964" orientation="1,0" id="guide28" inkscape:locked="false" />
  </sodipodi:namedview>&#10; &#10;<g id="g1" transform="matrix(-3.2759468,0,0,2.222238,1599.3927,-491.635)"
    style="display:inline;fill:#ffb196;fill-opacity:1">
    <g id="g11" style="fill:#ffb196;fill-opacity:1">
      <path
        d="m 40.435,249.616 c 11.732,-2.457 21.62,-7.942 31.182,-13.248 11.827,-6.563 22.993,-12.776 35.611,-11.659 13.265,1.159 20.792,9.736 26.841,16.629 4.166,4.747 7.765,8.847 11.906,9.062 4.697,0.212 8.613,-2.985 13.154,-6.721 5.636,-4.639 12.029,-9.89 20.988,-8.203 6.675,1.261 11.734,6.43 16.627,11.429 7.606,7.771 12.802,12.267 20.792,9.238 9.655,-3.666 14.816,-26.251 19.37,-46.178 5.754,-25.176 11.188,-48.956 26.886,-48.956 4.142,0 7.559,1.391 10.156,4.134 6.771,7.149 5.961,22.021 5.178,36.401 -0.588,10.806 -1.395,25.604 3.082,26.977 3.245,1.001 6.661,-4.359 11.483,-12.646 5.844,-10.041 13.116,-22.536 26.115,-24.684 12.595,-2.078 22.358,3.123 30.979,7.716 7.197,3.834 13.412,7.153 20.214,6.047 6.795,-1.096 10.748,-4.647 15.324,-8.759 5.592,-5.024 11.931,-10.72 23.724,-10.72 10.641,0 19.726,4.934 28.511,9.705 8.05,4.372 15.652,8.501 23.777,8.501 14.121,0 23.705,-8.677 26.068,-11.057 L 488.114,44.2 c -16.491,21.823 -58.844,72.735 -104.012,85.95 -33.656,9.849 -57.873,-0.462 -79.235,-9.559 -15.544,-6.619 -28.966,-12.338 -44.128,-10.229 -19.117,2.659 -32.401,17.686 -44.122,30.942 -10.9,12.331 -21.197,23.978 -34.698,23.978 -14.748,0 -22.3,-14.44 -28.963,-27.181 -7.374,-14.1 -12.495,-22.517 -21.444,-20.473 -12.446,2.835 -14.718,24.12 -16.722,42.9 -1.4,13.122 -2.723,25.516 -7.446,32.513 -8.479,12.558 -18.655,12.221 -26.085,11.975 -3.483,-0.113 -6.488,-0.215 -8.583,0.935 -2.582,1.417 -4.472,4.224 -6.658,7.475 -3.779,5.616 -8.482,12.605 -19.107,15.2 -2.462,0.602 -4.699,0.857 -6.75,0.857 -6.956,0 -11.754,-2.954 -15.789,-5.438 -3.032,-1.868 -5.651,-3.481 -8.833,-3.794 -6.37,-0.619 -12.47,1.497 -15.537,2.81 v 19.368 c 4.647,3.056 19.846,11.5 40.433,7.187 z"
        id="path2" style="display:none;fill:#ffb196;fill-opacity:1" />
      <path
        d="M -2.540086,555.68544 C 10.252831,583.98477 24.202854,318.017 104.289,318.017 c 68.96141,80.70912 150.3884,16.08012 219.941,-1.053 2.505,-10.123 12.372,-43.741 33.414,-46.398 19.092,-2.408 33.117,16.997 38.554,26.039 5.875,-4.646 12.372,-7.642 19.374,-7.642 22.729,0 38.466,23.255 48.879,38.643 3.399,5.023 6.61,9.768 8.67,11.469 5.153,4.257 11.541,6.639 15.586,7.824 l -0.238,-121.851 c -6.367,3.407 -16.935,8.215 -25.868,8.215 -6.251,0 -14.247,-2.617 -22.712,-5.388 -9.59,-3.139 -19.507,-6.384 -26.07,-5.525 -5.645,0.738 -11.308,3.71 -17.303,6.855 -7.186,3.771 -14.617,7.669 -22.506,7.669 -5.611,0 -11.363,-2.231 -17.451,-4.594 -9.321,-3.616 -18.958,-7.355 -28.819,-3.463 -8.436,3.33 -13.252,13.476 -17.909,23.288 -4.27,8.995 -8.303,17.492 -15.351,20.43 -7.499,3.124 -15.564,1.925 -23.365,0.764 -6.538,-0.972 -12.713,-1.892 -17.896,-0.192 -4.368,1.432 -7.803,4.154 -11.438,7.037 -5.933,4.703 -12.655,10.034 -24.189,10.034 -9.992,0 -18.712,-4.112 -26.405,-7.74 -5.92,-2.792 -11.511,-5.429 -16.289,-5.429 -4.427,0 -8.489,0.828 -12.791,1.705 -6.954,1.418 -14.146,2.886 -22.433,0.433 -5.71,-1.691 -9.551,-5.262 -13.617,-9.041 -5.659,-5.262 -11.511,-10.701 -24.043,-12.827 -12.453,-2.108 -20.154,3.312 -29.068,9.592 -5.819,4.1 -11.837,8.339 -19.48,10.513 -15.206,4.324 -42.189,-1.76 -53.462,-4.688 l -7.1740741,22.00353 c 5.528,1.287 -10.8657689,70.48395 -2.7228255,78.41516 4.3180563,4.20579 3.7798136,174.66975 7.3528136,182.57075 z m 494.641876,2.43384 c 3.399,5.023 6.17543,-201.01048 8.23543,-199.30948 5.153,4.257 11.541,6.639 15.586,7.824 l -0.238,-121.851 c -6.367,3.407 -16.935,8.215 -25.868,8.215 -6.251,0 -14.247,-2.617 -22.712,-5.388 -9.59,-3.139 -19.507,-6.384 -26.07,-5.525 -5.645,0.738 -11.308,3.71 -17.303,6.855 -7.186,3.771 -14.617,7.669 -22.506,7.669 -5.611,0 -11.363,-2.231 -17.451,-4.594 -9.321,-3.616 -18.958,-7.355 -28.819,-3.463 -8.436,3.33 -13.252,13.476 -17.909,23.288 -4.27,8.995 -8.303,17.492 -15.351,20.43 -7.499,3.124 -15.564,1.925 -23.365,0.764 -6.538,-0.972 -12.713,-1.892 -17.896,-0.192 -4.368,1.432 -7.803,4.154 -11.438,7.037 -5.933,4.703 -12.655,10.034 -24.189,10.034 -9.992,0 -18.712,-4.112 -26.405,-7.74 -5.92,-2.792 -11.511,-5.429 -16.289,-5.429 -4.427,0 -8.489,0.828 -12.791,1.705 -6.954,1.418 -14.146,2.886 -22.433,0.433 -5.71,-1.691 -9.551,-5.262 -13.617,-9.041 -5.659,-5.262 -11.511,-10.701 -24.043,-12.827 -12.453,-2.108 -20.154,3.312 -29.068,9.592 -5.819003,4.1 -11.837003,8.339 -19.480003,10.513 -15.206,4.324 -42.189,-1.76 -53.462,-4.688 L -1.3011783,554.96744 c 5.528,1.287 52.3244843,-15.97064 60.4674843,-8.03964 z"
        id="path3" style="fill:#0186c4;fill-opacity:1"
        sodipodi:nodetypes="cscccsscccscccscccccccscsccccccccscccccscccscccccccscscccccccccc" />
    </g>
  </g>
  <polygon fill="#ffb196"
    points="1492.613,516.821 1492.613,511.995 1464.613,511.995 1464.613,521.245 1455.588,521.245 1455.588,518.544 1342.057,518.544 1342.057,522.164 1293.588,522.164 1293.588,517.338 1235.588,517.338 1235.588,519.751 1141.588,519.751 1141.588,514.523 1061.588,514.523 1061.588,518.142 1001.588,518.142 1001.588,520.957 971.588,520.957 971.588,516.131 944.588,516.131 944.588,523.37 891.613,523.37 891.613,520.153 842.613,520.153 842.613,513.027 774.613,513.027 774.613,516.131 743.588,516.131 743.588,520.498 701.588,520.498 701.588,514.45 629.966,514.45 629.966,521.647 588.613,521.647 588.613,524.665 535.588,524.665 535.588,519.349 516.991,519.349 516.991,515.213 426.613,515.213 426.613,522.854 332.613,522.854 332.613,514.81 278.613,514.81 278.613,510.789 236.613,510.789 236.613,515.213 208.613,515.213 208.613,509.985 130.613,509.985 130.613,518.028 90.613,518.028 90.613,512.398 -0.001,512.398 -0.001,720 1599.999,720 1599.999,512.8 1576.613,512.8 1576.613,516.821 1534.613,516.821 1534.613,519.618 1521.588,519.618 1521.588,522.049 1512.613,522.049 1512.613,516.821 "
    id="polygon1" style="display:none" />
  <g inkscape:groupmode="layer" id="layer1" inkscape:label="Layer 1" style="display:inline" />
  <g id="SVGRepo_bgCarrier" stroke-width="0" transform="matrix(8.1822273,0,0,8.1822273,1163.4426,-364.194)" />
  <g id="SVGRepo_tracerCarrier" stroke-linecap="round" stroke-linejoin="round"
    transform="matrix(8.1822273,0,0,8.1822273,1163.4426,-364.194)" />
  <g id="SVGRepo_iconCarrier" transform="matrix(8.1822273,0,0,8.1822273,1163.4426,-364.194)"
    style="fill:#41895b;fill-opacity:1;stroke:#1c2332;stroke-opacity:1">
    <path
      d="m 7.2031593,7.3221843 c 0.034042,-0.1277668 0.1782548,-0.1277668 0.2122965,0 L 7.615064,8.0721367 c 0.089081,0.3342521 0.2988015,0.5964861 0.5660208,0.7077507 l 0.5991341,0.2497259 c 0.1021253,0.042591 0.1021253,0.2230111 0,0.2656005 L 8.1807753,9.5449394 C 7.9136047,9.6563868 7.7039988,9.9187641 7.615064,10.253077 l -0.1996082,0.749566 c -0.033643,0.128247 -0.1786539,0.128247 -0.2122965,0 L 7.0035511,10.25269 C 6.9145339,9.9185249 6.7049409,9.6563071 6.4378398,9.5449394 L 5.8383963,9.2952138 c -0.1025095,-0.042089 -0.1025095,-0.2235112 0,-0.2656005 L 6.4378398,8.7798874 C 6.7049409,8.6685197 6.9145339,8.4063018 7.0035511,8.0721367 Z"
      id="path1-7"
      style="fill:#ffffff;fill-opacity:1;stroke:#1c2332;stroke-width:0.256078;stroke-linecap:butt;stroke-linejoin:bevel;stroke-dasharray:none;stroke-opacity:1;paint-order:markers stroke fill"
      sodipodi:nodetypes="ccccccccccccccccc" />
  </g>
  <path
    d="m 987.02166,-255.52068 c 0.15816,-0.57072 0.80331,-0.57072 0.96146,0 l 0.90527,3.39781 c 0.40352,1.51891 1.35444,2.70858 2.56851,3.21342 l 2.71587,1.13259 c 0.45623,0.19787 0.45623,1.00498 0,1.20285 l -2.71587,1.1326 c -1.21308,0.50487 -2.16499,1.69572 -2.56851,3.21343 l -0.90527,3.3978 c -0.15815,0.57071 -0.8033,0.57071 -0.96146,0 l -0.90527,-3.3978 c -0.40351,-1.51769 -1.35543,-2.70854 -2.56863,-3.21342 l -2.71228,-1.13261 c -0.45623,-0.19785 -0.45623,-1.00498 0,-1.20283 l 2.71587,-1.1326 c 1.21408,-0.50485 2.16494,-1.69451 2.56851,-3.21343 l 0.9018,-3.39342 z"
    style="fill:#ffffff;fill-opacity:1;stroke:#1c2332;stroke-width:0.354858;stroke-linecap:butt;stroke-linejoin:bevel;stroke-dasharray:none;stroke-opacity:1;paint-order:markers stroke fill"
    id="path1-9" />
  <path
    d="m 1146.8393,-372.31005 c 0.075,-0.28388 0.3961,-0.28388 0.4712,0 l 0.4427,1.66277 c 0.1978,0.74124 0.6622,1.32221 1.2547,1.56976 l 1.329,0.55378 c 0.2269,0.094 0.2269,0.49556 0,0.58956 l -1.329,0.55378 c -0.5925,0.24695 -1.0573,0.82856 -1.2547,1.56977 l -0.4427,1.66277 c -0.075,0.28388 -0.3961,0.28388 -0.4712,0 l -0.4427,-1.66277 c -0.1974,-0.74121 -0.6622,-1.32282 -1.2547,-1.56977 l -1.3291,-0.55378 c -0.2269,-0.094 -0.2269,-0.49556 0,-0.58956 l 1.3291,-0.55378 c 0.5925,-0.24694 1.0573,-0.82855 1.2547,-1.56976 z"
    style="fill:#ffffff;fill-opacity:1;stroke:#1c2332;stroke-width:0.115671;stroke-linecap:butt;stroke-linejoin:bevel;stroke-dasharray:none;stroke-opacity:1;paint-order:markers stroke fill"
    id="path1-0" />
  <path
    d="m 184.46586,-338.94488 c 0.075,-0.28388 0.3961,-0.28388 0.4712,0 l 0.4427,1.66277 c 0.1978,0.74124 0.6622,1.32221 1.2547,1.56976 l 1.329,0.55378 c 0.2269,0.094 0.2269,0.49556 0,0.58956 l -1.329,0.55378 c -0.5925,0.24695 -1.0573,0.82856 -1.2547,1.56977 l -0.4427,1.66277 c -0.075,0.28388 -0.3961,0.28388 -0.4712,0 l -0.4427,-1.66277 c -0.1974,-0.74121 -0.6622,-1.32282 -1.2547,-1.56977 l -1.3291,-0.55378 c -0.2269,-0.094 -0.2269,-0.49556 0,-0.58956 l 1.3291,-0.55378 c 0.5925,-0.24694 1.0573,-0.82855 1.2547,-1.56976 z"
    style="fill:#ffffff;fill-opacity:1;stroke:#1c2332;stroke-width:0.115671;stroke-linecap:butt;stroke-linejoin:bevel;stroke-dasharray:none;stroke-opacity:1;paint-order:markers stroke fill"
    id="path1-0-1" />
</svg>
