<?xml version="1.0" encoding="UTF-8" standalone="no"?>
<svg
   id="footer-svg"
   xml:space="preserve"
   viewBox="0 0 1600.2031 362.32421"
   version="1.1"
   sodipodi:docname="footer.svg"
   inkscape:version="1.3 (1:1.3+202307231459+0e150ed6c4)"
   width="1600.2031"
   height="362.32422"
   xmlns:inkscape="http://www.inkscape.org/namespaces/inkscape"
   xmlns:sodipodi="http://sodipodi.sourceforge.net/DTD/sodipodi-0.dtd"
   xmlns:xlink="http://www.w3.org/1999/xlink"
   xmlns="http://www.w3.org/2000/svg"
   xmlns:svg="http://www.w3.org/2000/svg"><sodipodi:namedview
   id="namedview3"
   pagecolor="#ffffff"
   bordercolor="#666666"
   borderopacity="1.0"
   inkscape:showpageshadow="2"
   inkscape:pageopacity="0.0"
   inkscape:pagecheckerboard="0"
   inkscape:deskcolor="#d1d1d1"
   inkscape:zoom="0.46843204"
   inkscape:cx="545.43664"
   inkscape:cy="-115.27819"
   inkscape:window-width="1920"
   inkscape:window-height="1135"
   inkscape:window-x="0"
   inkscape:window-y="0"
   inkscape:window-maximized="1"
   inkscape:current-layer="footer-svg" />&#10;  <defs
   id="defs2">&#10;    <radialGradient
   xlink:href="#a"
   id="b"
   cx="255.467"
   cy="141.091"
   r="244.22501"
   fx="255.467"
   fy="141.091"
   gradientTransform="matrix(2.23513,-0.68187,0.06945,0.85866,-332.634,135.4)"
   gradientUnits="userSpaceOnUse" />&#10;    <radialGradient
   xlink:href="#a"
   id="c"
   cx="294.43201"
   cy="169.147"
   r="244.907"
   fx="294.43201"
   fy="169.147"
   gradientTransform="matrix(1.54767,-0.574,0.07884,0.80178,-158.72,96.312)"
   gradientUnits="userSpaceOnUse" />&#10;    <linearGradient
   id="a">&#10;      <stop
   offset="0"
   style="stop-color:#ff6091;stop-opacity:1"
   id="stop1" />&#10;      <stop
   offset="1"
   style="stop-color:#000;stop-opacity:0"
   id="stop2" />&#10;    </linearGradient>&#10;  </defs>&#10;  <g
   style="display:inline;fill:#ffb196;fill-opacity:1"
   id="g3"
   transform="translate(0,-232.99414)">&#10;    <path
   id="path2"
   style="display:inline;fill:url(#b);fill-opacity:1"
   d="m 255.54876,83.641588 c -9.31899,0 -14.50878,22.706212 -19.08678,42.739192 -5.48699,24.00898 -10.67019,46.68761 -24.32918,51.8736 -2.754,1.046 -5.31471,1.49944 -7.7047,1.49944 -9.29,0.002 -16.0139,-6.86975 -21.64389,-12.62075 -4.213,-4.30399 -8.19203,-8.37036 -12.39502,-9.16336 -5.286,-0.993 -9.51933,2.4838 -14.42032,6.51879 -5.089,4.188 -10.86816,8.95032 -18.65215,8.53233 -7.51399,-0.39 -12.59247,-6.1762 -17.50447,-11.7732 -5.63299,-6.41999 -11.45925,-13.05609 -21.525241,-13.93609 -10.16199,-0.881 -19.837874,4.47397 -31.032863,10.68596 -9.609991,5.33299 -20.507239,11.37698 -33.424226,14.08198 -19.149981,4.007 -34.05672781,-1.45992 -42.0727198,-5.71292 v 12.67865 c 9.01799098,2.419 37.1140978,9.30224 51.2750838,5.27524 6.334993,-1.801 11.544896,-5.47289 17.06089,-9.35788 9.491991,-6.68699 19.305714,-13.59721 35.013699,-10.93721 14.890987,2.52499 22.244027,9.35912 28.152017,14.85312 3.65,3.39199 6.53128,6.07072 10.44127,7.22972 6.37,1.888 12.02073,0.73422 18.56272,-0.59978 4.501,-0.917 9.15392,-1.86648 14.38991,-1.86648 6.568,0 12.94728,3.00828 19.70028,6.19227 7.27199,3.43 14.7931,6.97731 22.99309,6.97731 8.74699,0 13.59974,-3.84807 19.21973,-8.30306 4.026,-3.192 8.18994,-6.49323 13.91593,-8.37023 6.982,-2.28999 14.39601,-1.18441 21.564,-0.12041 7.02999,1.046 13.67004,2.0351 19.11003,-0.23389 4.215,-1.757 7.60843,-8.90646 11.20143,-16.47645 5.075,-10.69099 10.82656,-22.81004 22.19955,-27.29904 12.77099,-5.04099 24.90202,-0.33502 34.65001,3.44698 5.37,2.08399 10.44245,4.05137 14.55745,4.05137 5.91799,0 12.16988,-3.27968 18.78987,-6.75268 6.35299,-3.334 12.92109,-6.78029 19.98108,-7.70329 8.374,-1.097 19.16003,2.43818 29.59602,5.85418 7.496,2.454 15.24775,4.9904 20.22374,4.9904 8.48799,0 20.45729,-6.14467 25.85128,-9.38567 l -0.025,-12.81643 c -5.58599,4.013 -14.51698,8.62264 -26.08797,8.62264 -10.15699,0 -19.02237,-4.81436 -27.59636,-9.47135 -8.26999,-4.492 -16.08368,-8.73495 -24.69167,-8.73495 -8.72799,0 -13.19931,4.01811 -18.3773,8.67011 -4.818,4.32899 -10.27882,9.23579 -19.39681,10.70679 -9.45799,1.52 -17.48493,-2.74968 -25.24792,-6.88468 -8.229,-4.38299 -16.00649,-8.52151 -25.91448,-6.88352 -9.28399,1.534 -15.24575,11.77699 -20.50574,20.81498 -5.493,9.43899 -11.17706,19.19619 -20.74005,16.26919 -10.46199,-3.20499 -9.61879,-18.67707 -8.72779,-35.05906 0.66,-12.10098 1.4057,-25.815958 -2.99829,-30.466953 -0.664,-0.701999 -1.8381,-1.634909 -4.3481,-1.634909 z m 150.02805,53.341782 c -5.645,0.738 -11.30796,3.70958 -17.30295,6.85457 -7.18599,3.77 -14.617,7.66856 -22.506,7.66856 -5.60999,0 -11.36262,-2.23026 -17.44961,-4.59326 -9.32199,-3.616 -18.95937,-7.35518 -28.82036,-3.46318 -8.43599,3.32999 -13.25169,13.47619 -17.90869,23.28818 -4.27,8.99499 -8.3034,17.49141 -15.35039,20.42941 -7.49999,3.12399 -15.56472,1.92519 -23.36572,0.76419 -6.53799,-0.972 -12.71317,-1.89221 -17.89617,-0.19221 -4.36799,1.432 -7.80312,4.15452 -11.43811,7.03752 -5.933,4.70299 -12.65509,10.03408 -24.18907,10.03408 -9.99199,0 -18.71157,-4.11235 -26.40456,-7.74035 -5.91999,-2.79199 -11.51041,-5.43039 -16.28941,-5.43039 -4.42699,0 -8.48871,0.82969 -12.7897,1.70669 -6.95499,1.418 -14.14686,2.88604 -22.43386,0.43304 -5.70999,-1.69099 -9.55023,-5.26278 -13.61723,-9.04178 -5.65899,-5.26199 -11.51001,-10.70085 -24.043002,-12.82685 -12.452987,-2.108 -20.153793,3.31293 -29.067784,9.59293 -5.818995,4.09999 -11.837283,8.33828 -19.480275,10.51227 -15.205985,4.324 -42.1889605,-1.7602 -53.4619492,-4.6882 l 0.035772,111.10893 488.3781282,-0.23852 0.0513,-158.5178 c -6.367,3.407 -16.93498,8.21507 -25.86798,8.21507 -6.24999,0 -14.24729,-2.61772 -22.71228,-5.38872 -9.58999,-3.13999 -19.50709,-6.38318 -26.07008,-5.52418 z"
   transform="matrix(3.27595,0,0,1.68683,27.003,91.905)" />&#10;    &#10;  </g>&#10;</svg>
