<svg xmlns="http://www.w3.org/2000/svg" viewBox="0 0 600 600" enable-background="new 0 0 600 600"><path fill="#AF1E59" d="M550.455 345.08l-2.72 2.46-29.462-148.017-47.403-19.436-1.188 2.253-2.44.018-37.32 26.242-3.95-4.343-27.334-99.78-62.332-29.832-4.85 6.94 3.438 2.407-51.906 20.888-110.16.847-.778 8.89.798.172 2.407 1.583 38.417 7.13-49.924-4.283-4.096 6.83-1.56.523 5.484-12.317-9.05-4.732-84.85 155.68-33.37 20.58 119.643 137.13.4-.144 11.738 13.295 5.573.912 6.83 5.632 204.467-2.396 5.28-7.893 17.086-.61 33.405-47.695 33.703-11.326 40.582 1.593 5.75-2.9.69.024 7.17 5.303 30.325-23.905-8.492-7.726zM395.74 149.674l-15.29-26.985 9.135 4.886 6.367 22.472-.212-.373zM251.292 126.27l97.43-9.467 61.162 104.816 8.46.93 2.004 6.054 11.357-1.36 1.733-3.72 49.226-23.564 11.593 6.31-.304 69.237 33.625 69.654-4.004 3.976-62.265 4.67-89.382 49.97-193.345 2.168-85.717-113.59 70.787-155.6 3.38-1.246 3.69-5.603 80.57-3.636zM81.794 275.204l-1.398-1.208 4.463-6.586 4.376 2.665-3.816 10.68-3.626-5.55zM60.97 287.918l15.634-9.5 5.84 11.37-2.447 7.964 8.952 4.27 27.106 48.512-63.55-60.95 8.465-1.666zm116.18 144.476l-.104.05-.938-3.193-8.156-10.39 4.467-1.348 9.263 8.757 9.953.724-14.487 5.4zm99.038-15.988l-5.247.02-6.048-5.39-72.157 6.928-4.974-4.39 176.076.04 5.748 3.527 2.678-2.544 11.11 1.295 2.277-10.092-2.9-.433 45.31-28.24-43.338 43.07-46.37-3.48-6.3 2.635-55.864-2.944zM405.68 412.4l-4.787 8.727-2.36-.127 7.148-8.6z"/><path fill="#fff" d="M531.578 425.588c-2.26 5.928-10.574 9.493-16.19 6.317-2.288-1.294-4.077-3.23-5.58-5.48 1.91-1.228 3.686-2.838 5.32-4.094 3.095-2.377 6.053-4.72 8.845-7.45 3.524-3.447-1.132-9.89-5.388-6.984-3.387 2.312-6.45 4.854-9.536 7.55-1.106.965-2.283 1.92-3.39 2.938-.982-2.23-1.92-4.435-2.947-6.406 7.574-6.738 12.98-15.987 15.632-25.676 1.386-5.065-6.56-8.825-8.776-3.7-3.377 7.81-7.766 14.628-12.887 21.167-4.726-4.634-10.88-7.43-17.92-6.1-6.29 1.187-12.6 5.924-14.894 12.07-5.962-3.787-13.404-3.508-18.726 1.31-1.382 1.25-2.5 2.704-3.342 4.27-3.617-3.243-7.96-5.775-13.168-7.294-9.898-2.886-21.596-.78-28.186 7.628-3.39 4.327-5.286 9.937-4.93 15.307-3.268-.158-6.563 1.05-9.27 3.503-5.29 4.795-7.54 13.265-8.64 20.06-.554 3.41-.657 6.966-.274 10.45-1.03.686-1.83 1.71-2.13 2.948-4.124 16.92-25.77 27.17-39.02 13.14-6.246-6.61-7.586-16.333-2.962-24.212 2.202-3.752 5.42-6.943 9.385-8.8 2.123-.993 4.46-1.574 6.8-1.67 3.122-.13 5.7.917 8.692 1.456 3.774.68 6.3-3.404 3.713-6.38-3.694-4.25-10.553-4.97-15.806-4.33-5.353.65-10.25 2.807-14.478 6.13-7.99 6.28-12.89 16.725-11.778 26.94.655 6.016 3.02 11.77 6.67 16.547-.575.46-1.106 1-1.572 1.607-2.79 3.633-9.433 1.345-12.817.122-.42-.153-.84-.316-1.255-.482l-.505-.228c-1-.476-1.988-.977-2.95-1.526-.95-.542-1.88-1.122-2.785-1.74-.435-.296-.863-.602-1.286-.915-.31-.25-.615-.503-.916-.76-6.448-5.73-10.91-12.89-13.732-20.4-1.577-4.196-2.814-8.463-3.788-12.78 12.113-8.35 23.334-18.324 30.67-31.163 8.057-14.098 11.066-32.482 4.897-47.854-3.372-8.403-8.93-16.037-17.584-19.48-8.926-3.552-17.737.138-22.052 8.576-4.704 9.196-7.318 19.663-9.17 29.764-3.275 17.872-4.436 36.95-1.682 55.202-12.19 7.92-25.275 14.96-38.78 19.915-6.395 2.348-13.014 4.248-19.754 5.345 1.002-1.606 2.145-3.12 3.27-4.515 3.392-4.203 7.388-8.057 11.783-11.2 4.133-2.956 8.598-5.45 13.288-7.41 2.37-.99 4.794-1.84 7.26-2.553 2.75-.794 5.622-1.904 8.395-2.463 3.965-.8 3.088-7.258-.957-7.068-2.66.125-5.008-.092-7.674.413-2.518.477-5.007 1.104-7.453 1.87-4.92 1.538-9.69 3.725-14.13 6.337-8.926 5.25-17.137 12.58-22.744 21.34-1.24 1.935-2.287 4.066-3.076 6.294-4.367.02-8.695-.534-12.404-2.652.254-8.7-1.584-17.404-4.91-25.445-3.91-9.454-9.655-20.524-18.15-26.542-5.167-3.658-10.063 3.216-7.88 7.88 1.7 3.633 4.41 6.67 6.682 9.973 2.274 3.308 4.357 6.756 6.142 10.353 3.18 6.41 5.29 13.47 5.576 20.644.292 7.31-1.063 14.796-5.01 21.054-3.873 6.14-9.326 5.07-14.625 1.155-5.795-4.28-10.448-10.238-14.19-16.323-4.198-6.827-10.28-11.32-18.226-6.946-7.216 3.972-13.965 8.238-21.864 10.84-2.42.797-6.13 2.156-8.484.485-1.984-1.41-2.15-4.48-2.16-6.674-.034-7.752 2.678-15.955 5.43-23.114 3.2-8.33 7.894-15.965 13.096-23.183 3.417-4.742-4.342-10.774-8.142-6.283-11.56 13.662-19.923 31.822-21.58 49.755-.695 7.527 1.336 16.3 8.695 19.924 8.713 4.288 18.92-.524 26.964-4.185 4.316-1.964 8.398-4.287 12.45-6.736.056-.035 1.227-.548 1.68-.91.185.125.392.275.515.442 1.252 1.708 2.166 3.694 3.302 5.48 4.76 7.48 11.03 14.944 18.74 19.512 8.147 4.825 17.846 4.923 24.945-1.815 5.192-4.928 8.18-12 9.725-19.057 3.624 1.815 7.79 2.75 12.148 3.09.362 4.455 2.11 8.695 5.76 11.993 7.906 7.14 21.898 5.807 31.606 4.345 12.425-1.87 23.74-7.385 33.527-15.156 4.2-3.334-1.303-10.468-5.752-7.455-9.177 6.215-19.754 10.275-30.74 11.85-6.997 1-21.52 2.943-23.656-5.76 5.896-.572 11.61-1.778 16.29-2.94 16.916-4.205 32.812-12.13 47.715-21.1.4 1.512.833 3.016 1.3 4.508 3.708 11.874 9.83 23.566 19.58 31.577 11.535 9.478 32.164 16.927 42.226 1.377.218.128.43.266.65.39 9.177 5.1 20.183 5.105 29.665.888 7.396-3.29 13.394-9.218 16.765-16.44 2.87 4 6.888 7.144 12.175 8.748 13.787 4.184 28.963-7.526 34.807-19.356 3.103-6.282 4.113-13.342 1.272-19.913-2.64-6.102-8.036-10.187-14.067-12.622-4.09-1.65-8.75-2.63-13.38-2.728-1.037-5.355.728-11.187 5.042-14.764 6.103-5.06 15.337-4.112 21.813-.358 16.517 9.575 16.687 31.606 18.728 48.198.697 5.662 8.977 6.032 9.11 0 .312-14.08-1.79-31.29-9.776-43.768.407-2.83 2.28-5.685 4.983-6.397 4.347-1.145 8.05 3.746 10.21 6.817 3.33 4.737 6.266 9.77 8.857 14.948 2.783 5.562 4.47 11.802 7.634 17.13 2.306 3.88 9.737 2.592 9.15-2.48-.988-8.57-5.71-17.046-9.97-24.444-2.618-4.546-5.47-9.38-9.045-13.432 2.7-6.913 10.6-11.805 17.292-6.39 7.016 5.68 8.72 15.825 13.25 23.244 4.717 7.727 12.435 13.2 21.8 12.13 8.728-.996 16.784-7.28 18.388-16.164 1.12-6.22-7.18-8.482-9.422-2.6zm-248.368-23.34c.884-7.9 2.76-17.7 5.41-26.233.588-1.897 1.225-3.78 1.926-5.637.296-.783.602-1.562.92-2.335.05-.12.077-.19.087-.224l.205-.415c.473-.956.885-1.997 1.51-2.872 3.22-4.518 9.463 1.533 11.53 4.45 7.785 10.985 7.1 25.976 2.122 37.974-4.88 11.758-14.23 21.216-24.306 28.885-1.072-11.05-.665-22.327.596-33.594zm138.75 57.936c-1.773 8.37-10.334 16.698-18.614 18.592-8.816 2.017-15.35-5.92-16.755-13.846-.723-4.087-.423-8.276.403-12.348.75-.353 1.41-.93 1.885-1.775 6.846-12.215 36.434-6.448 33.082 9.377z"/></svg>