<svg xmlns="http://www.w3.org/2000/svg" viewBox="0 0 600 600" enable-background="new 0 0 600 600"><g fill="#AF1E59"><path d="M225.3 118.288c-11.067 13.124-16.46 29.943-18.6 46.75-2.577 20.238-.91 41.308 3.52 61.17 4.46 20 12.12 40.26 23.442 57.423 9.996 15.154 24.568 29.73 43.334 32.332 19.675 2.73 37.765-9.215 47.33-25.89 10.668-18.604 12.256-41.89 11.35-62.872-.846-19.582-4.562-39.39-11.675-57.736-.1-2.296-.33-4.587-.633-6.86-1.186-8.85-3.945-17.353-8.148-25.24-8.478-15.91-23.135-28.71-40.58-33.718-18.17-5.215-37.122.15-49.34 14.642zm84.65 57.392c-.095 2.466.004 5.085-.345 7.578-3-6.392-6.828-12.493-11.974-17.11-6.764-6.07-16.058-9.252-24.904-5.996-4.205 1.548-7.9 4.39-9.994 8.416-2.493 4.79-2.604 10.27-2.747 15.552-.314 11.63-.162 23.482 1.285 35.04 1.16 9.25 4.322 18.974 13.423 23.173 3.994 1.842 8.63 2.513 12.886 1.166 4.853-1.537 7.058-4.75 8.26-9.516 2.142-8.497 1.707-17.773-1.155-26.05-2.755-7.97-7.502-15.217-14.125-20.49-2.646-2.106-5.658-1.747-7.674.99-.612.83-1.17 1.693-1.697 2.57.008-1.83.03-3.66.075-5.492.094-3.808-.524-9.306 2.015-12.505 3.644-4.59 10.883-2.857 14.884.078 6.17 4.526 10.09 12.34 12.918 19.243 3.234 7.897 5.25 16.295 6.74 24.678 2.674 15.055 3.4 33.142-8.056 44.947-9.148 9.427-22.282 9.913-31.65.65-9.57-9.464-13.547-23.143-16.18-35.95-3.375-16.433-5.395-34.096-3.44-50.848 1.297-11.1 4.926-24.19 14.275-31.263 11.59-8.768 27.053-3.292 36.22 6.292 4.61 4.82 8.143 10.585 10.968 16.76.147 2.698.096 5.373-.008 8.086zm-15.293-43.97c.39.427.77.868 1.147 1.31-5.416-3.003-11.46-4.897-18.1-5.227-18.043-.898-31.03 12.264-37.048 28.065-6.735 17.68-5.756 37.866-3.452 56.283 2.365 18.9 6.185 38.802 18.204 54.173 10.69 13.672 28.555 19.793 44.306 10.526 18.344-10.794 22.962-32.942 20.75-52.66-1.194-10.636-3.343-21.326-6.97-31.41-.052-.146-.107-.292-.16-.437 1.527.5 3.216.48 4.644-.178.16.66.322 1.32.476 1.973 4.175 17.624 5.528 35.82 4.168 53.877-1.188 15.776-4.763 32.914-16.243 44.585-9.594 9.754-23.298 13.83-36.112 7.993-12.88-5.867-22.248-17.912-29.025-29.955-16.64-29.566-24.07-64.237-21.797-98.027 1.47-21.87 10.817-53.837 36.572-57.29 14.524-1.95 29.095 5.953 38.64 16.4zM436.95 107.8c-10.61-14.158-25.656-26.11-44.116-26.374-.955-.014-1.903.014-2.847.064-.99-7.455-2.59-14.83-6.706-21.293-4.178-6.56-10.72-12.026-18.573-13.28-9.004-1.436-17.18 2.733-24.28 7.854-5.726 4.132-14.008 10.368-10.924 18.507 1.398 3.69 6.934 3.295 7.068-.957.164-5.133 7.973-8.926 11.748-11.192 4.904-2.944 10.805-5.6 16.516-3.335 9.885 3.922 12.8 15.638 14.885 25.47-13.902 4.093-25.863 14.565-33.442 26.75-9.285 14.93-12.44 33.07-9.768 50.34.266 1.717.6 3.432 1 5.132-.766 9.137-.48 18.38.12 26.92.82 11.644 2.676 23.25 5.6 34.57-.747.718-1.21 1.777-1.033 3.058 1.8 12.933 7.772 24.684 15.845 34.825 8.412 14.417 20.74 26.736 37.33 31.065h.002c.603.365 1.203.733 1.81 1.094 6.453 3.84 16.43 9.47 13.21 18.513-3.414 9.59-14.933 12.79-23.574 15.69-11.772 3.952-23.55 7.908-35.41 11.586-23.108 7.165-46.886 13.282-71.07 15.216-12.836 1.027-25.8.964-38.59-.61-6.396-.787-12.753-2.057-18.983-3.694-2.84-.747-5.84-1.483-8.747-2.442 2.633-1.042 5.278-2.06 7.93-3.07 6.716-2.55 4.193-12.3-2.988-10.84-10.037 2.04-19.482 5.67-28.68 10.152-8.73 4.255-17.804 9.16-24.98 15.8-6.265 5.797-10.802 14.36-7.89 22.973 2.435 7.208 9.405 13.044 17.266 10.582 3.8-1.19 3.21-7.094-.957-7.068-4.483.028-7.044-5.57-6.173-9.494 1.337-6.02 7.75-9.903 12.61-12.842 1.543-.935 3.102-1.836 4.67-2.714 20.404 22.045 46.485 38.934 74.257 50.05 29.655 11.868 62.99 17.767 94.785 12.994 17.66-2.65 34.325-9.655 47.596-21.742 3.453-3.145.872-7.362-2.665-8.093.617-.95.82-2.154.296-3.5-3.407-8.778-6.506-17.608-8.484-26.828-1.61-7.5-1.93-14.92-2.407-22.447 10.372-3.507 21.75-7.078 28.965-15.63 7.76-9.196 9.505-21.747 1.812-31.543-.572-.728-1.184-1.415-1.812-2.084 10.06-2.694 19.01-9.07 25.78-17.912 11.084-14.477 15.905-32.74 18.367-50.52 3.024-21.826 2.354-43.905-2.1-65.498-3.93-19.05-10.49-38.492-22.266-54.2zm-46.283 290.214c.594 1.068 1.503 1.7 2.512 1.982-23.326 17.695-54.947 20.277-83.1 17.058-29.775-3.404-58.574-14.02-83.98-29.795-12.252-7.608-23.424-16.55-33.838-26.43 1.6-.797 3.21-1.572 4.83-2.328.66.486 1.425.843 2.3 1 6.06 1.088 11.73 3.915 17.65 5.67 5.935 1.76 11.982 3.134 18.088 4.154 12.255 2.047 24.68 2.863 37.098 2.513 25.82-.727 51.184-6.198 75.877-13.502 10.16-3.005 20.217-6.318 30.236-9.754.01 6.9.992 13.893 2.217 20.523 1.856 10.05 5.138 19.974 10.11 28.907zm.546-228.534c-2.222-1.69-5.32-.188-6.685 1.753-10.272 14.594-10.575 35.648-.733 50.567 2.914 4.418 7.37 5.928 12.562 5.077 4.157-.68 8.102-3.008 10.874-6.168 7.338-8.365 5.7-19.91 3.59-29.94-2.307-10.96-5.15-21.924-8.913-32.482-3.24-9.097-9.892-16.127-20.242-15.336-16.78 1.283-23.688 17.206-26.217 32.602-1.105-2.425-1.798-5.107-2.63-7.594-.832-2.485-1.58-4.976-2.168-7.518 1.253-8.854 3.9-17.38 9.136-24.42 8.306-11.17 22.644-16.1 34.83-8.138 10.924 7.135 17.135 20.78 20.767 32.837 5.142 17.072 8.52 35.588 8.096 53.472-.27 11.41-2.58 25.653-12.04 33.283-11.22 9.046-26.86 2.334-34.462-8.13-10.088-13.885-11.73-33.97-11.265-50.585.233-8.325 1.218-17.48 5.005-25.03 2.697-5.378 8.262-11.316 14.983-9.076 3.164 1.054 4.44 4.244 5.464 7.156 1.215 3.457 2.31 6.96 3.346 10.48-1.037-.987-2.136-1.926-3.297-2.81zm54.612 69.496c-2.966 13.29-8.188 27.107-18.23 36.7-7.964 7.61-18.313 10.03-28.346 7.767-1.945-1.11-3.867-2.228-5.71-3.403-6.79-4.332-13.505-9.038-19.652-14.307-5.528-7.312-9.58-15.895-12.764-24.35-6.608-17.548-10.474-36.087-11.248-54.826l-.01-.26c1.55.24 3.173-.174 4.503-1.03-.104 1.65-.167 3.256-.195 4.786-.356 19.913 2.388 43.16 15.647 58.946 11.467 13.65 32.658 19.91 47.885 8.618 13.095-9.71 17.324-26.998 17.96-42.507.412-10.078-.82-20.262-2.33-30.21-1.595-10.496-3.827-21.068-7.27-31.126-5.24-15.298-14.454-32.178-29.93-39.084-14.92-6.658-30.574-1.924-41.568 8.76 3.573-8.022 8.908-15.2 16.038-20.56 11.703-8.797 26.084-10.52 38.81-2.948 12.49 7.43 21.137 20.557 26.962 33.558 14.463 32.28 17.103 71.164 9.445 105.476zM506.963 111.59c-14.945 5.765-29.322 12.91-43.997 19.325-3.367 1.472-.97 7.043 2.5 5.927 15.246-4.9 30.565-9.98 44.88-17.225 4.368-2.21 1.3-9.833-3.383-8.026zM519.27 147.12c-15.954 1.47-31.747 4.2-47.428 7.466-4.93 1.027-3.916 9.35 1.204 8.894 15.945-1.416 31.864-3.34 47.55-6.552 5.44-1.114 4.315-10.327-1.326-9.808zM516.31 196.487c-7.16-1.24-14.32-2.45-21.496-3.606-6.99-1.124-14.617-2.656-21.696-2.174-5.004.34-5.884 6.935-1.167 8.626 6.688 2.398 14.436 2.99 21.475 3.815 7.216.847 14.435 1.634 21.66 2.395 5.124.54 6.345-8.17 1.226-9.055zM164.38 158.38c5.768 2.23 11.578 4.03 17.684 5.05 5.843.975 8.173-6.936 2.466-8.944-5.588-1.966-11.255-3.628-16.9-5.424-4.73-1.505-10.853-5.04-15.7-2.84-1.136.516-1.795 2.256-1.39 3.415 1.8 5.158 9.19 6.946 13.84 8.744zM167.262 200.738c7.78-.312 15.277-1.727 22.822-3.618 4.81-1.206 3.953-9.578-1.204-8.894-7.39.98-14.87 1.528-22.298 2.115-7.353.582-14.934.04-22.214 1.09-4.25.61-3.63 6.966 0 7.993 7.144 2.02 15.53 1.61 22.894 1.315zM190.13 223.585c-10.258 2.507-20.08 6.74-29.145 12.122-2.5 1.484-3.43 4.87-1.938 7.393 1.64 2.776 4.684 3.085 7.392 1.938 9.258-3.92 18.57-7.717 27.79-11.728 5.688-2.475 1.54-11.104-4.1-9.725zM203.382 109.065c1.85-.187 3.85-1.536 3.676-3.676l-.03-.356c-.036-.454-.143-.86-.29-1.23.104-.143.093-.682.286-1.22.233-.647.487-1.287.733-1.93.533-1.394 1.077-2.757 1.746-4.093 1.42-2.837 3.143-5.543 5.14-8.01 3.943-4.88 8.913-8.845 14.62-11.47 12.102-5.564 26.727-3.94 38.12 2.54 5.66 3.22 10.273-5.01 5.04-8.622-15.38-10.62-36.76-10.79-52.484-.703-7.2 4.618-13.34 11.084-17.263 18.71-1.903 3.697-3.498 7.65-4.17 11.766-.567 3.46-.074 8.796 4.875 8.295z"/></g><path fill="#fff" d="M65.526 497.38c-7.368 7.744-19.288 11.463-29.618 13.132-9.376 1.515-21.262 1.08-24.412-10.018-1.454-5.122-.825-10.964-.444-16.188.406-5.563 1.127-11.123 2.13-16.61.807-4.426 1.778-8.874 3.07-13.204-.18-1.112.04-2.303.827-3.446.174-.254.357-.5.536-.75 1.67-4.882 3.05-9.626 8.105-11.73.92-.383 2.04-.275 3.06.128 10.916-8.43 24.862-12.554 38.826-9.56 7.007 1.5 5.067 11.924-1.635 12.08-12.892.3-25.314 3.786-35.17 11.808-1.063 4.236-2.12 8.478-2.93 12.77-.178.938-.34 1.878-.494 2.82 1.134-.48 2.202-.912 3.132-1.298 6.415-2.664 13.885-4.803 20.852-3.896 7.156.932 9.243 10.507 1.754 12.96-5.903 1.933-12.084 2.835-17.996 4.853-2.943 1.005-6.11 2.962-9.322 4.286-.05 1.79-.07 3.58-.05 5.37.014 1.337-.227 3.022.154 4.316.06.207.076.338.068.42l.066.034c2.184 1.18 7.982-.922 10.104-1.446 7.93-1.958 14.858-6.07 22.565-8.55 6.91-2.222 11.45 6.855 6.823 11.72zm62.643-69.433c3.21-5.942 6.353-11.925 9.736-17.77 3.073-5.312 6.78-10.175 10.075-15.333 2.005-1.87 3.296-4.01 4.05-7.074 3.112-12.666-13.26-18.793-20.37-8.587-2.252 3.236-2.448 7.01-3.464 10.695-.89 3.224-1.468 6.528-2.458 9.728-1.978 6.39-4.655 12.625-7.253 18.783-5.283 12.52-11.005 24.847-16.866 37.106-1.557 3.254-3.13 6.5-4.71 9.743-5.26-5.852-10.504-12.073-16.816-16.64-4.527-3.277-9.716 2.958-7.284 7.283 4.436 7.888 11.568 14.687 17.422 21.543.137.16.273.324.41.486-8.41 16.83-17.104 33.527-25.882 50.162-2.16 4.092 3.832 7.634 6.22 3.636 9.036-15.13 17.71-30.45 26.192-45.882 3.658 4.36 7.534 8.55 12.175 11.683 5.256 3.55 10.76-3.23 8.18-8.178-3.195-6.128-8.336-11.357-13.32-16.404 1.912-3.535 3.82-7.073 5.72-10.618 6.124-11.43 12.078-22.953 18.242-34.363zm72.616 18.58c-1.907 5.736-6.926 10.29-11.16 14.396-4.54 4.403-9.44 8.433-14.558 12.147-7.857 5.7-17.75 12.348-27.657 14.8-1.75 7.164-3.383 14.353-4.93 21.567-1.098 5.13-8.56 2.865-7.743-2.135 1.713-10.463 3.563-20.908 5.48-31.335.984-5.355 2.047-10.694 3.088-16.04.553-2.84 1.89-6.846 2.332-10.462-2.188.64-4.374 1.263-6.564 1.838-7.06 1.853-12.15-9.083-5.11-12.122 12.985-5.604 26.656-10.017 40.926-10.53 10.77-.387 31.195 1.942 25.896 17.877zm-12.757-3.577c.032-.034.065-.076.1-.098-.05.033-.082.066-.1.098zm-1.136 2.283c.193-.29.412-.903.648-1.442-1-.098-2.074-.437-3.06-.553-4.926-.578-10.055-.363-14.96.312-2.177.3-4.34.703-6.49 1.172-.195.51-.455 1.003-.807 1.464l-.29.378c-1.13 1.48-2.426 2.542-3.81 3.182-3.46 7.995-5.414 16.978-7.527 25.49.997-.52 1.982-1.045 2.928-1.597 3.99-2.33 7.883-4.78 11.62-7.5 7.234-5.258 13.848-11.475 19.666-18.262.74-.863 1.454-1.7 2.082-2.645zm23.037 32.51c6.658-.222 14.013-3.274 19.976-5.427 6.173-2.23 3.703-10.794-2.684-9.736-4.42.732-9.624 1.408-14.38 2.815.55-2.17 1.113-4.336 1.7-6.496 1.095-4.015 2.615-8.092 3.824-12.193 12.252-3.686 24.554-7.205 36.8-10.91 7.062-2.135 3.997-11.868-2.976-10.798-12.22 1.875-23.733 4.976-35.223 9.128-1.458-.478-3.115-.096-4.295 1.605-.543.21-1.086.405-1.63.618-4.34 1.702-4.983 6.595-3.066 9.553-1.78 5.06-3.128 10.38-4.603 15.227-2.46 8.088-5.304 16.51-6.486 24.897-.995 7.062 2.34 13.617 9.49 15.604 3.18.885 6.67.723 9.864.018 3.72-.822 7.195-3.012 10.976-3.505 6.864-.895 7.333-10.786 0-11.06-2.933-.11-5.822.31-8.646 1.098-2.368.662-4.786 1.815-7.27 1.845-1.86.022-2.983-.007-3.315-1.853-.5-2.78 1.123-6.637 1.71-9.372.077-.352.16-.704.236-1.057zm85.525 8.302c-2.364-4.004-4.647-8.28-7.26-12.257 3.68-3.476 7.024-7.138 9.646-11.693 3.46-6.006 6.458-13.43 3.47-20.207-2.616-5.928-8.853-9.63-15.2-10.125-6.395-.498-12.244 2.264-17.488 5.67-1.563-1.337-3.92-1.62-5.63.17-3.76 3.94-5.34 10.554-6.893 15.69-1.832 6.063-3.328 12.238-4.622 18.435-2.52 12.067-3.824 24.3-4.055 36.617-.11 5.872 8.297 5.568 8.926 0 1.308-11.597 3.237-23.15 5.728-34.55 1.177-5.386 2.567-10.713 4.078-16.014.728-2.554 1.81-5.394 2.687-8.268.834-.02 1.724-.228 2.647-.688 3.72-1.85 7.992-4.335 12.265-4.36 2.315-.014 5.684.838 5.85 3.583.2 3.34-3.138 7.79-4.972 10.352-2.412 3.368-5.49 6.553-9.174 8.48-3.456 1.806-4.098 6.252-2.482 9.462 3.024 6.007 7.77 11.47 11.53 17.052 3.642 5.408 7.008 12.098 12.11 16.256 3.803 3.098 8.992.21 8.092-4.71-1.23-6.728-5.827-13.088-9.255-18.895zm30.645-54.23c-4.19 11.913-5.882 25.027-7.593 37.498-1.72 12.542-2.91 25.06-3.26 37.718-.152 5.544 7.867 5.278 8.445 0 1.374-12.537 2.936-25.087 5.06-37.522 2.078-12.16 5.235-24.185 6.86-36.406.756-5.702-7.818-6.102-9.512-1.287zm13.298-30.88c-.843.96-1.863 1.726-2.99 2.264-.08.258-.34 1.126-.397 1.366-.354 1.45-.58 2.91-.947 4.36-.82 3.243-5.09 4.285-7.402 1.955-2.26-2.276-3.12-4.793-3.464-7.913-.133-1.2-.17-2.368-.052-3.57.06-.606.22-1.264.32-1.908-.57-2.41-.218-4.78 1.215-7.142 2.723-4.49 8.693-5.65 12.834-2.45 4.32 3.338 4.324 9.12.884 13.036zm-14.87-4.146l.004-.084c-.007.01-.016.01-.027-.006l.024.09zm11.984 6.072c.397-.267.195-.55 0 0zm42.402 37.95c6.195-1.96 12.666-2.895 18.816-4.962 5.454-1.833 4.76-10.368-1.397-10.322-7.263.055-14.344 2.443-21.034 5.098-3.815 1.514-8.306 3.207-12.064 5.614-1.254-.093-2.52.546-2.978 2.192-.004.015-.01.03-.013.046-.875.776-1.67 1.612-2.35 2.528-1 1.35-.595 3.147.456 4.345-2.31 8.476-4.5 17-6.233 25.6l-.066.346c-.652 1.056-.828 2.218-.632 3.28-1.826 9.764-3.193 19.642-5.353 29.322-.81 3.623 2.514 8.093 6.567 6.567 12.252-4.613 24.58-5.374 37.35-7.356 4.827-.75 4.747-8.846 0-9.67-10.962-1.906-22.258.28-32.815 3.93.752-7.207 1.97-14.41 3.156-21.543 3.694-2.046 7.342-4.07 11.42-5.407 4.986-1.636 10.337-2.518 15.527-3.227 6.137-.84 3.966-9.637-1.37-10.12-7.644-.69-16.248 1.27-23.408 5.296.865-5.48 1.74-10.958 2.683-16.426 4.65-1.23 9.345-3.742 13.74-5.132zm85.624-53.608c-9.234 18.275-15.353 37.816-20.816 57.507-2.895 10.436-5.762 21.02-8.292 31.67-2.17-11.504-4.135-23.057-6.304-34.522-.428-2.26-2.725-3.47-4.79-3.646-6.1-.522-9.353 5.078-10.727 10.22-2.11 7.89-3.54 16.028-5.3 24.005-3.533 16.014-6.833 32.073-10.16 48.13-1.057 5.11 6.62 7.315 7.877 2.172 3.195-13.066 6.49-26.11 9.515-39.215.598-2.592 3.61-17.87 6.033-27.482 2.973 16.576 6.125 33.19 8.008 49.882.735 6.514 9.638 8.434 11.81 1.598 6.082-19.138 10.19-38.946 15.885-58.218 5.69-19.256 12.688-38.054 19.76-56.832 2.723-7.23-9.02-12.156-12.5-5.27zm26.327 46.824c-19.006 13.772-29.763 48.006-16.51 68.76 7.005 10.968 21.34 16.696 33.223 10.1 5.602-3.108 1.79-13.015-4.474-10.61-8.994 3.45-17.556-2.673-20.346-11.276-3.326-10.254-1.012-22.328 3.514-31.862 3.812-8.03 11.507-20.276 22.034-18.78 10.95 1.554 7.78 15.185 5.203 22.256-1.625 4.455 5.34 7.266 7.59 3.2 4.868-8.793 7.395-20.84.85-29.494-7.5-9.917-21.78-9.038-31.085-2.294zm104.264-.503c-.405-2.986-2.734-4.645-5.602-4.945-13.802-1.444-29.24 1.538-41.285 8.69-3.325 1.973-3.487 5.794-1.792 8.39-.858 2.877-1.483 5.844-2.21 8.27-1.896 6.317-3.61 12.694-5.326 19.06-3.445 12.777-6.37 25.592-8.86 38.59-.56 2.927 1.4 7.14 5.07 6.655 14.574-1.924 29.53-1.558 43.902-4.9 5.914-1.374 4.526-10.43-1.415-10.457-11.943-.055-23.722 2.446-35.546 4.035 2.25-8.963 4.48-17.93 6.685-26.904 2.057-.678 4.09-1.47 6.074-2.105 4.522-1.444 9.25-2.297 13.636-4.124 5.14-2.14 5.256-11.02-1.443-10.66-5.27.284-10.17 1.995-15.03 3.95.806-3.147 1.618-6.294 2.418-9.444.812-3.2 2.24-7.012 3.054-10.765 4.752-1.366 9.465-2.834 14.357-3.755 6.38-1.2 12.816-2.332 19.23-3.322 2.79-.432 4.423-3.74 4.082-6.258z"/></svg>