<?xml version="1.0" encoding="utf-8"?>
<!-- Generator: Adobe Illustrator 18.1.1, SVG Export Plug-In . SVG Version: 6.00 Build 0)  -->
<svg version="1.1" id="Layer_1" xmlns="http://www.w3.org/2000/svg" xmlns:xlink="http://www.w3.org/1999/xlink" x="0px"
	y="0px" viewBox="0 0 1600 720" enable-background="new 0 0 1600 720" xml:space="preserve">
	<polygon fill="#1643a9" points="47.545,562.606 47.545,542.166 99.334,542.166 99.334,566.82 117.334,566.82 117.334,550.68
	160,550.68 160,566.82 178.667,566.82 178.667,542.166 192.92,542.166 192.92,529.052 245.334,529.052 245.334,566.82
	264.147,566.82 264.147,556.006 293.147,556.006 293.147,535.104 338.14,535.104 338.14,548.097 379.334,548.097 379.334,556.006
	423.14,556.006 423.14,567.748 458.134,567.748 458.134,542.166 500.134,542.166 500.134,566.82 513.334,566.82 513.334,550.68
	556,550.68 556,599.439 565.554,599.439 565.554,582.961 575.127,582.961 575.127,556.006 657.127,556.006 657.127,552.254
	667.127,552.254 667.127,542.166 705.92,542.166 705.92,550.68 727.254,550.68 727.254,556.714 744.113,556.714 744.113,540.805
	768.667,540.805 768.667,548.218 800,548.218 800,558.608 854.363,558.608 854.363,542.166 899.334,542.166 899.334,566.82
	917.334,566.82 917.334,550.68 960,550.68 960,566.82 978.667,566.82 978.667,561.047 992.92,561.047 992.92,572.047
	1045.334,572.047 1045.334,566.82 1064.147,566.82 1064.147,556.006 1093.147,556.006 1093.147,553.276 1138.14,553.276
	1138.14,548.097 1179.334,548.097 1179.334,556.006 1223.14,556.006 1223.14,567.748 1258.134,567.748 1258.134,542.166
	1300.134,542.166 1300.134,566.82 1313.334,566.82 1313.334,550.68 1356,550.68 1356,599.439 1365.554,599.439 1365.554,582.961
	1375.127,582.961 1375.127,556.006 1457.127,556.006 1457.127,552.254 1467.127,552.254 1467.127,542.166 1505.92,542.166
	1505.92,550.68 1527.254,550.68 1527.254,562.563 1540.329,562.563 1540.329,535.104 1568.667,535.104 1568.667,548.218
	1600,548.218 1600,720 0,720 0,562.606 " />
</svg>
