<svg xmlns="http://www.w3.org/2000/svg" viewBox="0 0 600 600" enable-background="new 0 0 600 600"><g fill="#AF1E59"><path d="M457.61 195.263c-5.093-7.458-13.53-14.24-17.747-22.004-4.284-7.887-5.137-19.404-8.866-27.946-7.895-18.082-19.712-34.114-35.318-46.28-31.876-24.85-74.137-29.688-113.238-25.924-84.317 8.118-167.38 54.58-206.503 131.623C38.072 279.3 40.406 354.428 98.107 417.73c59.548 65.33 155.005 71.217 222.557 15.013 32.758-27.255 65.934-67.31 87.595-103.867 25.992-43.87 41.222-97.582 32.897-148.648 1.156 1.27 19.753 19.867 16.453 15.035-5.346-7.827 1.248 1.828 0 0zM315.982 91.165c38.48 2.886 74.396 19.864 92.33 55.082-18.128-12.58-36.894-23.703-55.113-35.89-16.274-10.886-34.81-17.465-54.24-19.73 5.67-.058 11.372.114 17.022.538 2.54.19-5.09-.382 0 0zm73.98 106.597c10.49 42.142.96 87.174-15.437 126.524-16.524 39.657-41.084 65.1-79.102 84.992-72.022 37.68-187.5 30.757-217.076-58.494-29.895-90.212 21.036-176.968 103.53-214.73 39.564-18.11 84.264-25.725 127.547-20.93 42.99 4.762 70.54 42.467 80.54 82.638 5.404 21.714-8.214-32.996 0 0zM254.866 447.82c-20.776 6.534-42.858 7.938-64.222 3.49 27.164 2.49 54.69-1.3 80.556-9.77-5.298 2.478-10.743 4.57-16.335 6.28-4.494 1.414 6.238-1.962 0 0zm166.573-234.007c-.622 20.556-4.954 40.69-11.557 60.147 8.563-47.905 1.588-99.358-29.317-138.36 20.022 9.676 31.604 14.793 36.824 36.5 3.306 13.756 4.48 27.555 4.05 41.713-.148 4.897.15-4.894 0 0zM263.38 293.4c-2.56 8.563-1.406 17.774 3.064 24.912 2.85 6.687 8.354 12.23 15.367 14.436 8.984 2.825 17.715-.762 24.867-6.14 2.74-2.06 5.444-4.426 7.81-7.074 1.883-1.556 3.63-3.19 5.195-4.848 10.593-11.21 17.923-30.242 4.07-42.197-2.674-2.31-5.673-3.84-8.837-4.737-.706-2.603-2.782-4.766-5.78-5.684-5.812-1.78-11.965-.297-17.164 2.486-12.17 6.515-24.43 14.938-28.59 28.844zM241.203 169.054c-2.894-2.613-6.35-4.346-10.034-5.363.09-.16.172-.33.23-.513 1.524-4.89 1.857-13.12-4.68-14.27-5.405-.95-11.556 1.137-16.6 2.92-10.615 3.75-20.193 9.47-28.306 17.302-8.464 8.17-17.852 19.926-17.034 32.396.822 12.542 10.85 22.524 22.966 24.965 13.483 2.718 26.022-2.72 37.48-9.353 11.672-6.756 22.218-15.42 23.238-29.827.475-6.71-2.262-13.743-7.26-18.256zM224.58 186.982c-.578-.992-.268-.6 0 0zM222.166 162.554c.934-.43 1.87-.856 2.81-1.284.25.39.446.848.574 1.42-1.125-.098-2.256-.145-3.384-.136zM204.477 197.907l-.085-.08c-.004-.017-.01-.035-.013-.052l-.002-.014.04-.008c.03.053.053.106.06.155zM203.247 197.04c.02.002.04.004.064.01l-.063-.01zM204.86 197.812c.072.04.083.048 0 0zM203.767 197.154l-.108-.068-.128-.14c.1.066.213.145.325.23-.03-.006-.06-.014-.09-.022zM203.466 196.906l.097.12c-.558-.356-.416-.32-.097-.12zM206.212 196.803l.23-.106c-.024.037-.112.073-.23.106zM204.36 197.115c.008-.157.028-.274.073-.304.005-.003-.027.127-.073.305zM204.358 196.874c.017-.182.14-.442.294-.713-.083.198-.176.424-.294.714zM222.688 188.194c1.202-.058.685-.054 0 0zM209.198 327.566c-11.128-6.306-24.156-8.002-36.428-3.93-13.46 4.464-23.327 13.777-28.696 26.823-1.604 3.897-.174 8.415 2.586 11.698-.766 5.307 3.424 10.84 8.383 12.227 25.053 7.01 52.865-8.996 59.258-34.28 1.195-4.724-.774-10.086-5.102-12.54z"/></g><path fill="#fff" d="M363.536 396.09c-3.548 9.51-13.442 16.465-23.788 15.03-.03-.004-.058-.01-.088-.016-1.12.58-2.396.878-3.77.783-2.967-.206-6.54-2.75-6.786-5.953-.333-4.35.192-7.983 2.796-11.615 2.006-2.8 4.603-5.002 7.566-6.727 5.722-3.33 13.276-4.06 19.362-1.322 3.738 1.682 6.25 5.682 4.708 9.82zm14.772 77.743c-11.145 1.852-22.204 4.43-33.1 7.408-.947.618-2.044.903-3.17.908-4.713 1.388-9.316 3.01-13.892 4.827-5.32 2.11-10.954 5.05-16.645 5.896-4.703.7-9.795-4.968-6.16-9.28 6.814-8.09 18.144-12.71 28.46-16.31.088-1.29.214-2.577.323-3.848.373-4.345.86-8.68 1.23-13.025.39-4.57.72-9.147.99-13.728-5.204 2.018-10.36 4.194-15.538 6.26-4.533 1.81-9.072 3.602-13.61 5.4-3.202 1.27-6.47 2.694-9.827 3.672-1.758 16.84-3.373 33.694-5.5 50.49-1.04 8.22-12.93 7.383-12.815-.89.29-21.114 2.286-42.157 4.755-63.116.618-5.248 1.257-10.513 1.946-15.78-2.235 1.12-4.474 2.228-6.738 3.286-5.383 2.518-11.12 6.058-16.97 7.97-.01.235-.02.468-.026.698-.1 3.25-.205 6.5-.32 9.75-.003.09-.008.182-.01.273 4.422-1.358 9.07-2.028 12.705.444 2.464 1.676 3.74 5.18 2.63 8.01-2.468 6.287-10.356 7.74-16.283 9.652l-.065 1.093c-.8 13.435-1.743 26.93-4.01 40.207-1.41 8.252-13.076 7.615-13.062-.907.02-11.717.866-23.43 1.717-35.12-.26.093-.523.184-.783.28-1.66.604-3.31 1.235-4.963 1.858-.035 21.19.216 42.59-2.247 63.573-.416 3.54-2.982 6.15-6.53 6.435-3.115.25-7.016-2.114-7.31-5.532-1.653-19.18-1.095-38.565-.586-57.845-3.64 1.526-7.267 3.078-10.87 4.69-4.908 2.195-9.794 4.46-14.657 6.784-9.042 21.336-17.864 42.814-28.382 63.44-2.627 5.153-10.09.618-8.61-4.354 5.017-16.86 11.376-33.336 18.08-49.656-9.688 5.038-19.245 10.326-28.612 15.887-5.626 3.342-11.66-5.777-6.344-9.52 14.084-9.914 28.595-19.04 43.67-27.238.927-2.207 1.853-4.413 2.776-6.618 10.632-25.42 21.976-50.538 32.644-75.94 2.087-4.968 6.955-6.075 11.487-3.77 5.438 2.768 5.98 9.187 6.055 14.53.084 6.063-.087 12.14-.148 18.204-.1 9.818-.197 19.635-.296 29.453 2.28-.884 4.564-1.755 6.856-2.606.15-2.242.305-4.484.475-6.724.262-3.472.516-6.944.76-10.417.25-3.53.127-7.374 1.536-10.667 1.815-4.238 6.11-5.044 9.206-3.145 4.197-3.01 9-5.442 13.292-7.695 5.27-2.765 10.882-4.89 16.534-6.816.957-5.976 2.02-11.93 3.236-17.84-2.356.044-4.338-1.08-5.576-3.225-2.04-3.532-.32-6.943 2.974-8.055 4.797-2.904 10.196-4.954 15.274-7.28 5.64-2.583 11.358-4.987 17.06-7.428l17.113-7.326c6.054-2.592 12.262-5.828 18.926-6.28 3.235-.22 6.344.754 7.885 3.865 1.39 2.807.725 6.607-1.727 8.63-5.226 4.31-11.495 6.293-17.76 8.583l-17.56 6.42c-6.008 2.195-12 4.43-18.06 6.476-1.66.56-3.343 1.195-5.045 1.835-.705 8.204-1.603 16.4-2.576 24.592.554 2.057.376 4.337-.737 6.13-.944 7.747-1.905 15.49-2.79 23.232.91-.428 1.82-.85 2.725-1.276 4.402-2.072 8.8-4.15 13.21-6.21 9.032-4.22 18.173-8.215 26.843-13.122 6.172-3.494 12.56 2.252 12.58 8.428.028 9.2-.28 18.363-1.045 27.532-.247 2.966-.407 6.2-.723 9.458 8.12-1.653 16.38-2.387 24.78-2.38 8.315.012 8.913 13.088.943 14.413zM223.303 459.45l.588-28.882.067-3.246c-5.94 13.182-11.694 26.456-17.434 39.715 5.546-2.635 11.14-5.162 16.78-7.587zm188.438-52.722c5.496-2.99 10.662-6.663 15.423-10.502 4.29-3.46 9.212-7.37 11.416-12.576 2.4-5.67 1.055-12.058-2.48-16.92-6.95-9.562-20.465-10.13-31.182-9.282-11.737.93-22.32 5.154-31.84 11.987-4.773 3.428.557 11.218 5.668 8.504 7.392-3.926 15.78-6.444 24.132-7.16 4.06-.35 8.184-.106 12.217.445 2.887.394 6.727 1.132 8.654 3.545 1.59 1.992 1.014 2.865-.622 4.53-2.945 2.994-6.508 5.59-9.935 8-6.828 4.796-14.547 8.047-21.83 12.036-.626.342-1.164.747-1.626 1.197-1.465.28-2.67 1.036-3.524 2.05.45-4.92.978-9.84 1.682-14.76.776-5.42-7.46-5.82-8.396-.583-2.742 15.337-5.248 31.222-5.137 46.835.043 6.03 8.967 6.82 9.46.657.677-8.462 1.164-16.9 1.815-25.33.625 1 1.607 1.89 3.01 2.533 9.586 4.39 18.99 9.11 27.822 14.905 8.938 5.865 17.358 12.697 25.46 19.654 2.734 2.347 7.405 1.273 9.56-1.227 2.367-2.75 2.523-6.81.094-9.635-10.543-12.267-24.596-22.363-39.843-28.904zm126.41 38.762c-.327 3.78-3.628 6.762-7.465 6.496-4.04-.28-6.38-3.688-6.496-7.465-.968-31.813 1.816-63.723 5.328-95.43-2.12 4.725-4.282 9.43-6.498 14.11-7.23 15.262-14.822 30.43-23.245 45.073-2.908 5.056-9.544 3.185-12.135-.843-3.732-5.803-7.44-11.622-11.116-17.46-.283-.45-.56-.905-.836-1.358-.74 11.008-1.678 22.012-2.502 33.01-1.317 17.56-2.22 35.282-4.716 52.716-.99 6.922-10.24 5.99-10.606-.737-.954-17.585.137-35.39 1.28-52.953 1.148-17.604 2.493-35.266 5.248-52.678.972-6.143 8.5-7.743 11.715-2.317 3.46 5.843 7.703 11.294 11.504 16.93 1.854 2.746 3.714 5.487 5.58 8.224 6.886-13.06 13.58-26.198 19.754-39.63 3.822-8.316 7.475-16.706 11.005-25.15 3.116-7.457 7.692-14.825 16.774-14.543 3.74.116 7.078 3.897 6.647 7.64-4.848 42.003-5.583 84.284-9.22 126.366z"/></svg>