<?xml version="1.0" encoding="UTF-8" standalone="no"?>
<!-- Generator: Adobe Illustrator 18.1.1, SVG Export Plug-In . SVG Version: 6.00 Build 0)  -->

<svg
   version="1.1"
   id="Layer_1"
   x="0px"
   y="0px"
   viewBox="0 0 1600 720"
   enable-background="new 0 0 1600 720"
   xml:space="preserve"
   sodipodi:docname="graphic-furthest.svg"
   inkscape:version="1.3 (1:1.3+202307231459+0e150ed6c4)"
   xmlns:inkscape="http://www.inkscape.org/namespaces/inkscape"
   xmlns:sodipodi="http://sodipodi.sourceforge.net/DTD/sodipodi-0.dtd"
   xmlns="http://www.w3.org/2000/svg"
   xmlns:svg="http://www.w3.org/2000/svg"><defs
   id="defs1" /><sodipodi:namedview
   id="namedview1"
   pagecolor="#ffffff"
   bordercolor="#666666"
   borderopacity="1.0"
   inkscape:showpageshadow="2"
   inkscape:pageopacity="0.0"
   inkscape:pagecheckerboard="0"
   inkscape:deskcolor="#d1d1d1"
   inkscape:zoom="0.61032154"
   inkscape:cx="800.39777"
   inkscape:cy="561.99884"
   inkscape:window-width="1920"
   inkscape:window-height="1135"
   inkscape:window-x="0"
   inkscape:window-y="0"
   inkscape:window-maximized="1"
   inkscape:current-layer="Layer_1"
   showguides="true"><sodipodi:guide
     position="185.96755,655.68964"
     orientation="1,0"
     id="guide28"
     inkscape:locked="false" /></sodipodi:namedview>&#10;	&#10;<g
   id="g1"
   transform="matrix(3.2759468,0,0,1.6868321,0.04046365,72.795394)"
   style="display:inline;fill:#ffb196;fill-opacity:1"><g
     id="g11"
     style="fill:#ffb196;fill-opacity:1"><path
       d="m 51.274,269.687 c 6.335,-1.801 11.545,-5.472 17.061,-9.357 9.492,-6.687 19.306,-13.598 35.014,-10.938 14.891,2.525 22.244,9.361 28.152,14.854 3.649,3.392 6.531,6.071 10.441,7.229 6.37,1.888 12.021,0.734 18.563,-0.6 4.501,-0.917 9.154,-1.866 14.389,-1.866 6.569,0 12.948,3.008 19.701,6.192 7.272,3.43 14.793,6.977 22.993,6.977 8.747,0 13.6,-3.848 19.219,-8.303 4.027,-3.192 8.19,-6.493 13.917,-8.37 6.982,-2.289 14.396,-1.184 21.564,-0.119 7.03,1.045 13.669,2.034 19.11,-0.235 4.215,-1.757 7.608,-8.906 11.201,-16.476 5.075,-10.691 10.827,-22.811 22.199,-27.299 12.772,-5.042 24.903,-0.336 34.65,3.446 5.37,2.084 10.443,4.052 14.558,4.052 5.918,0 12.17,-3.28 18.789,-6.753 6.354,-3.334 12.922,-6.78 19.982,-7.703 8.374,-1.097 19.16,2.438 29.596,5.854 7.496,2.454 15.248,4.991 20.224,4.991 8.488,0 20.457,-6.145 25.851,-9.386 l -0.025,-12.817 c -5.586,4.013 -14.517,8.623 -26.088,8.623 -10.157,0 -19.022,-4.814 -27.596,-9.471 -8.271,-4.492 -16.084,-8.735 -24.692,-8.735 -8.728,0 -13.199,4.018 -18.377,8.67 -4.818,4.329 -10.279,9.236 -19.397,10.707 -9.458,1.521 -17.485,-2.749 -25.248,-6.885 -8.229,-4.383 -16.006,-8.522 -25.914,-6.884 -9.284,1.534 -15.246,11.777 -20.506,20.815 -5.493,9.439 -11.177,19.197 -20.741,16.27 -10.461,-3.205 -9.618,-18.678 -8.727,-35.06 0.659,-12.101 1.406,-25.815 -2.998,-30.466 -0.664,-0.702 -1.838,-1.635 -4.348,-1.635 -9.319,0 -14.509,22.706 -19.087,42.739 -5.487,24.009 -10.67,46.687 -24.329,51.873 -2.754,1.046 -5.315,1.501 -7.705,1.501 -9.29,10e-4 -16.014,-6.87 -21.644,-12.622 -4.213,-4.304 -8.192,-8.369 -12.395,-9.163 -5.286,-0.993 -9.519,2.484 -14.42,6.519 -5.089,4.188 -10.868,8.95 -18.652,8.532 -7.514,-0.389 -12.593,-6.176 -17.505,-11.773 -5.633,-6.419 -11.459,-13.057 -21.525,-13.937 -10.162,-0.881 -19.838,4.475 -31.033,10.687 -9.611,5.333 -20.507,11.377 -33.424,14.082 -19.15,4.007 -34.057,-1.461 -42.073,-5.714 v 12.679 c 9.018,2.419 37.114,9.302 51.275,5.275 z"
       id="path1"
       style="display:inline;fill:#ff6091;fill-opacity:1"
       sodipodi:nodetypes="ccccccscscccccccssccsccscsccccccccscccccccccscccc" /><path
       d="m 40.435,249.616 c 11.732,-2.457 21.62,-7.942 31.182,-13.248 11.827,-6.563 22.993,-12.776 35.611,-11.659 13.265,1.159 20.792,9.736 26.841,16.629 4.166,4.747 7.765,8.847 11.906,9.062 4.697,0.212 8.613,-2.985 13.154,-6.721 5.636,-4.639 12.029,-9.89 20.988,-8.203 6.675,1.261 11.734,6.43 16.627,11.429 7.606,7.771 12.802,12.267 20.792,9.238 9.655,-3.666 14.816,-26.251 19.37,-46.178 5.754,-25.176 11.188,-48.956 26.886,-48.956 4.142,0 7.559,1.391 10.156,4.134 6.771,7.149 5.961,22.021 5.178,36.401 -0.588,10.806 -1.395,25.604 3.082,26.977 3.245,1.001 6.661,-4.359 11.483,-12.646 5.844,-10.041 13.116,-22.536 26.115,-24.684 12.595,-2.078 22.358,3.123 30.979,7.716 7.197,3.834 13.412,7.153 20.214,6.047 6.795,-1.096 10.748,-4.647 15.324,-8.759 5.592,-5.024 11.931,-10.72 23.724,-10.72 10.641,0 19.726,4.934 28.511,9.705 8.05,4.372 15.652,8.501 23.777,8.501 14.121,0 23.705,-8.677 26.068,-11.057 L 488.114,44.2 c -16.491,21.823 -58.844,72.735 -104.012,85.95 -33.656,9.849 -57.873,-0.462 -79.235,-9.559 -15.544,-6.619 -28.966,-12.338 -44.128,-10.229 -19.117,2.659 -32.401,17.686 -44.122,30.942 -10.9,12.331 -21.197,23.978 -34.698,23.978 -14.748,0 -22.3,-14.44 -28.963,-27.181 -7.374,-14.1 -12.495,-22.517 -21.444,-20.473 -12.446,2.835 -14.718,24.12 -16.722,42.9 -1.4,13.122 -2.723,25.516 -7.446,32.513 -8.479,12.558 -18.655,12.221 -26.085,11.975 -3.483,-0.113 -6.488,-0.215 -8.583,0.935 -2.582,1.417 -4.472,4.224 -6.658,7.475 -3.779,5.616 -8.482,12.605 -19.107,15.2 -2.462,0.602 -4.699,0.857 -6.75,0.857 -6.956,0 -11.754,-2.954 -15.789,-5.438 -3.032,-1.868 -5.651,-3.481 -8.833,-3.794 -6.37,-0.619 -12.47,1.497 -15.537,2.81 v 19.368 c 4.647,3.056 19.846,11.5 40.433,7.187 z"
       id="path2"
       style="display:none;fill:#ffb196;fill-opacity:1" /><path
       d="M 8.8817846,409.22448 C 14.100785,420.76948 47.113,350.024 55.125,350.024 c 5.73,0 10.66,-5.671 16.367,-12.236 7.657,-8.809 17.187,-19.771 32.797,-19.771 18.084,0 27.214,12.631 34.549,22.779 3.692,5.108 7.181,9.933 10.984,11.941 4.551,2.402 30.956,4.703 67.286,4.377 35.336,-0.312 63.701,-3.008 70.583,-6.708 4.147,-2.231 7.546,-7.256 11.143,-12.575 5.682,-8.404 12.599,-18.62 25.396,-20.867 2.505,-10.123 12.372,-43.741 33.414,-46.398 19.092,-2.408 33.117,16.997 38.554,26.039 5.875,-4.646 12.372,-7.642 19.374,-7.642 22.729,0 38.466,23.255 48.879,38.643 3.399,5.023 6.61,9.768 8.67,11.469 5.153,4.257 11.541,6.639 15.586,7.824 l -0.238,-121.851 c -6.367,3.407 -16.935,8.215 -25.868,8.215 -6.251,0 -14.247,-2.617 -22.712,-5.388 -9.59,-3.139 -19.507,-6.384 -26.07,-5.525 -5.645,0.738 -11.308,3.71 -17.303,6.855 -7.186,3.771 -14.617,7.669 -22.506,7.669 -5.611,0 -11.363,-2.231 -17.451,-4.594 -9.321,-3.616 -18.958,-7.355 -28.819,-3.463 -8.436,3.33 -13.252,13.476 -17.909,23.288 -4.27,8.995 -8.303,17.492 -15.351,20.43 -7.499,3.124 -15.564,1.925 -23.365,0.764 -6.538,-0.972 -12.713,-1.892 -17.896,-0.192 -4.368,1.432 -7.803,4.154 -11.438,7.037 -5.933,4.703 -12.655,10.034 -24.189,10.034 -9.992,0 -18.712,-4.112 -26.405,-7.74 -5.92,-2.792 -11.511,-5.429 -16.289,-5.429 -4.427,0 -8.489,0.828 -12.791,1.705 -6.954,1.418 -14.146,2.886 -22.433,0.433 -5.71,-1.691 -9.551,-5.262 -13.617,-9.041 -5.659,-5.262 -11.511,-10.701 -24.043,-12.827 -12.453,-2.108 -20.154,3.312 -29.068,9.592 -5.819,4.1 -11.837,8.339 -19.48,10.513 -15.206,4.324 -42.189,-1.76 -53.462,-4.688 l -7.1740741,22.00353 c 5.528,1.287 -10.8657689,70.48395 -2.7228255,78.41516 4.3180563,4.20579 15.2016842,28.20879 18.7746842,36.10979 z M 63.195217,345.1298 c 5.219,11.545 11.134,24.629 19.146,24.629 5.73,0 10.66,-5.671 16.367,-12.236 7.657003,-8.809 17.187003,-19.771 32.797003,-19.771 18.084,0 27.214,12.631 34.549,22.779 3.692,5.108 7.181,9.933 10.984,11.941 4.551,2.402 30.956,4.703 67.286,4.377 49.08634,-47.4915 77.2415,13.28293 111.24024,20.4021 2.505,-10.123 25.27461,-15.63854 46.31661,-18.29554 19.092,-2.408 19.22623,17.5391 24.66323,26.5811 5.875,-4.646 14.94365,-34.94458 21.94565,-34.94458 22.729,0 32.76427,-38.63908 43.17727,-23.25108 3.399,5.023 6.61,9.768 8.67,11.469 5.153,4.257 11.541,6.639 15.586,7.824 l -0.238,-121.851 c -6.367,3.407 -16.935,8.215 -25.868,8.215 -6.251,0 -14.247,-2.617 -22.712,-5.388 -9.59,-3.139 -19.507,-6.384 -26.07,-5.525 -5.645,0.738 -11.308,3.71 -17.303,6.855 -7.186,3.771 -14.617,7.669 -22.506,7.669 -5.611,0 -11.363,-2.231 -17.451,-4.594 -9.321,-3.616 -18.958,-7.355 -28.819,-3.463 -8.436,3.33 -13.252,13.476 -17.909,23.288 -4.27,8.995 -8.303,17.492 -15.351,20.43 -7.499,3.124 -15.564,1.925 -23.365,0.764 -6.538,-0.972 -12.713,-1.892 -17.896,-0.192 -4.368,1.432 -7.803,4.154 -11.438,7.037 -5.933,4.703 -12.655,10.034 -24.189,10.034 -9.992,0 -18.712,-4.112 -26.405,-7.74 -5.92,-2.792 -11.511,-5.429 -16.289,-5.429 -4.427,0 -8.489,0.828 -12.791,1.705 -6.954,1.418 -14.146,2.886 -22.433,0.433 -5.71,-1.691 -9.551,-5.262 -13.617,-9.041 -5.659,-5.262 -11.511,-10.701 -24.043,-12.827 -12.453,-2.108 -20.154,3.312 -29.068,9.592 -5.819003,4.1 -11.837003,8.339 -19.480003,10.513 -15.206,4.324 -42.189,-1.76 -53.462,-4.688 l 6.014686,13.43514 c 5.528,1.287 10.553314,11.76186 18.696314,19.69286 4.318,4.206 7.691,11.67 11.264,19.571 z"
       id="path3"
       style="fill:#0186c4;fill-opacity:1"
       sodipodi:nodetypes="cscsscccccccsscccscccscccccccscsccccccccsccscsscccccsscccscccscccccccscscccccccccc" /><path
       d="m 16.319,212.29 c 5.021,0.493 8.859,2.856 12.246,4.942 4.764,2.935 8.878,5.472 16.445,3.622 7.615,-1.86 10.896,-6.734 14.368,-11.896 2.537,-3.771 5.161,-7.67 9.448,-10.021 4.015,-2.204 8.428,-2.059 12.695,-1.916 7.08,0.23 13.187,0.437 19.189,-8.456 3.611,-5.348 4.888,-17.313 6.122,-28.886 2.288,-21.442 4.882,-45.746 22.899,-49.852 15.605,-3.55 23.418,11.385 30.311,24.565 6.156,11.771 11.971,22.889 21.874,22.889 9.896,0 18.612,-9.859 28.705,-21.276 12.639,-14.297 26.964,-30.501 49.014,-33.567 17.36,-2.413 32.418,4.002 48.364,10.793 21.109,8.99 42.939,18.285 73.854,9.241 50.845,-14.876 100.26,-83.332 106.232,-91.824 L 488.027,0 c -16.216,24.826 -56.623,81.188 -99.998,99.494 -34.094,14.386 -55.919,5.58 -77.026,-2.937 -13.6,-5.487 -27.66,-11.154 -45.278,-10.491 -25.849,0.983 -42.261,16.722 -55.448,29.368 -9.918,9.511 -17.766,17.008 -27.042,16.077 -9.119,-0.927 -15.738,-9.439 -22.746,-18.452 -9.451,-12.156 -19.226,-24.73 -35.578,-20.853 -15.315,3.627 -24.098,23.778 -33.395,45.112 -8.192,18.799 -16.663,38.236 -30.809,49.317 C 36.759,205.396 11.072,201.347 0,198.271 v 16.213 c 4.15,-1.432 10.044,-2.814 16.319,-2.194 z"
       id="path4"
       style="display:inline;fill:#972a58;fill-opacity:1" /><path
       d="M 47.678,141.146 C 58.684,121.025 61.77,90.23 56.813,53.993 53.665,85.934 45.917,110.27 34.527,122.9 c -6.374,7.067 -14.691,11.105 -22.854,11.105 -0.077,0 -0.152,0 -0.229,-0.001 C 7.358,133.967 3.5,132.916 0,130.916 v 28.832 c 20.177,7.384 37.039,0.844 47.678,-18.602 z"
       id="path5"
       style="display:inline;fill:#972a58;fill-opacity:1" /></g><path
     d="m 3.41,419.38901 c -0.025,-0.315 -0.09,-0.515 -0.245,-0.72 -0.28,-0.37 -0.73,-0.575 -1.275,-0.575 -1.03,0 -1.67,0.735 -1.67,1.915 0,1.175 0.635,1.905 1.65,1.905 0.91,0 1.51,-0.525 1.555,-1.36 h -0.73 c -0.05,0.465 -0.34,0.73 -0.805,0.73 -0.58,0 -0.92,-0.47 -0.92,-1.265 0,-0.805 0.355,-1.285 0.945,-1.285 0.435,0 0.68,0.21 0.78,0.655 z m 0.5149911,-0.29 v 2.7 h 0.7 v -1.435 c 0,-0.41 0.205,-0.615 0.615,-0.615 0.075,0 0.125,0.005 0.22,0.02 v -0.71 c -0.04,-0.005 -0.055,-0.005 -0.085,-0.005 -0.32,0 -0.595,0.21 -0.75,0.575 v -0.53 z m 4.2699982,1.57 c 0.005,-0.06 0.005,-0.085 0.005,-0.12 0,-0.27 -0.04,-0.52 -0.105,-0.71 -0.18,-0.49 -0.615,-0.785 -1.16,-0.785 -0.775,0 -1.25,0.56 -1.25,1.465 0,0.865 0.47,1.395 1.235,1.395 0.605,0 1.095,-0.34 1.25,-0.875 h -0.69 c -0.085,0.215 -0.28,0.34 -0.535,0.34 -0.2,0 -0.36,-0.085 -0.46,-0.235 -0.065,-0.1 -0.09,-0.22 -0.1,-0.475 z m -1.8,-0.465 c 0.045,-0.415 0.22,-0.615 0.53,-0.615 0.32,0 0.51,0.215 0.545,0.615 z m 4.6049947,1.51 c -0.12,-0.115 -0.16,-0.195 -0.16,-0.33 v -1.5 c 0,-0.55 -0.375,-0.83 -1.1050001,-0.83 -0.73,0 -1.11,0.31 -1.155,0.935 h 0.675 c 0.035,-0.28 0.15,-0.37 0.495,-0.37 0.2700001,0 0.4050001,0.09 0.4050001,0.27 0,0.09 -0.045,0.165 -0.12,0.21 -0.095,0.05 -0.095,0.05 -0.4400001,0.105 l -0.28,0.05 c -0.535,0.09 -0.795,0.365 -0.795,0.85 0,0.485 0.325,0.81 0.82,0.81 0.3,0 0.57,-0.125 0.8200001,-0.385 0,0.14 0.015,0.19 0.08,0.27 h 0.76 z m -0.845,-1 c 0,0.405 -0.2000001,0.635 -0.5550001,0.635 -0.235,0 -0.38,-0.125 -0.38,-0.325 0,-0.21 0.11,-0.31 0.4,-0.37 l 0.24,-0.045 c 0.1850001,-0.035 0.2150001,-0.045 0.2950001,-0.085 z m 2.494997,-1.56 h -0.39 v -0.725 h -0.7 v 0.725 h -0.345 v 0.465 h 0.345 v 1.66 c 0,0.425 0.225,0.635 0.685,0.635 0.16,0 0.275,-0.015 0.405,-0.055 v -0.49 c -0.07,0.01 -0.105,0.015 -0.16,0.015 -0.185,0 -0.23,-0.055 -0.23,-0.295 v -1.47 h 0.39 z m 2.759984,1.515 c 0.005,-0.06 0.005,-0.085 0.005,-0.12 0,-0.27 -0.04,-0.52 -0.105,-0.71 -0.18,-0.49 -0.615,-0.785 -1.16,-0.785 -0.775,0 -1.25,0.56 -1.25,1.465 0,0.865 0.47,1.395 1.235,1.395 0.605,0 1.095,-0.34 1.25,-0.875 h -0.69 c -0.085,0.215 -0.28,0.34 -0.535,0.34 -0.2,0 -0.36,-0.085 -0.46,-0.235 -0.065,-0.1 -0.09,-0.22 -0.1,-0.475 z m -1.8,-0.465 c 0.045,-0.415 0.22,-0.615 0.53,-0.615 0.32,0 0.51,0.215 0.545,0.615 z m 3.984998,1.595 h 0.7 v -3.645 h -0.7 v 1.295 c -0.175,-0.27 -0.405,-0.395 -0.745,-0.395 -0.645,0 -1.135,0.62 -1.135,1.435 0,0.365 0.11,0.735 0.29,0.995 0.185,0.265 0.515,0.43 0.845,0.43 0.34,0 0.57,-0.12 0.745,-0.39 z m -0.59,-2.16 c 0.355,0 0.59,0.34 0.59,0.86 0,0.49 -0.24,0.83 -0.59,0.83 -0.35,0 -0.59,-0.345 -0.59,-0.84 0,-0.505 0.24,-0.85 0.59,-0.85 z m 3.304991,-1.485 v 3.645 h 0.7 v -0.275 c 0.17,0.265 0.405,0.39 0.745,0.39 0.645,0 1.135,-0.615 1.135,-1.43 0,-0.365 -0.11,-0.735 -0.29,-0.995 -0.185,-0.265 -0.515,-0.435 -0.845,-0.435 -0.34,0 -0.575,0.125 -0.745,0.395 v -1.295 z m 1.29,1.485 c 0.345,0 0.59,0.35 0.59,0.85 0,0.495 -0.24,0.84 -0.59,0.84 -0.355,0 -0.59,-0.335 -0.59,-0.855 0,-0.495 0.24,-0.835 0.59,-0.835 z m 3.334981,-0.54 -0.56,1.965 -0.595,-1.965 h -0.77 l 1.005,2.81 c 0,0.28 -0.175,0.47 -0.435,0.47 -0.055,0 -0.1,-0.01 -0.185,-0.03 v 0.525 c 0.105,0.015 0.165,0.02 0.25,0.02 0.18,0 0.38,-0.035 0.505,-0.085 0.195,-0.08 0.28,-0.19 0.395,-0.515 l 1.11,-3.195 z m 4.704998,1.965 0.24,0.735 h 0.77 l -1.26,-3.645 h -0.83 l -1.295,3.645 h 0.765 l 0.245,-0.735 z m -0.205,-0.625 h -0.95 l 0.475,-1.425 z m 1.609992,-1.34 v 2.7 h 0.7 v -1.62 c 0,-0.335 0.18,-0.53 0.48,-0.53 0.235,0 0.38,0.135 0.38,0.35 v 1.8 h 0.7 v -1.62 c 0,-0.33 0.18,-0.53 0.48,-0.53 0.235,0 0.38,0.135 0.38,0.35 v 1.8 h 0.7 v -1.91 c 0,-0.525 -0.32,-0.835 -0.86,-0.835 -0.345,0 -0.58,0.12 -0.79,0.4 -0.13,-0.255 -0.4,-0.4 -0.735,-0.4 -0.31,0 -0.51,0.1 -0.74,0.38 v -0.335 z m 6.765001,1.57 c 0.005,-0.06 0.005,-0.085 0.005,-0.12 0,-0.27 -0.04,-0.52 -0.105,-0.71 -0.18,-0.49 -0.615,-0.785 -1.16,-0.785 -0.775,0 -1.25,0.56 -1.25,1.465 0,0.865 0.47,1.395 1.235,1.395 0.605,0 1.095,-0.34 1.25,-0.875 h -0.69 c -0.085,0.215 -0.28,0.34 -0.535,0.34 -0.2,0 -0.36,-0.085 -0.46,-0.235 -0.065,-0.1 -0.09,-0.22 -0.1,-0.475 z m -1.8,-0.465 c 0.045,-0.415 0.22,-0.615 0.53,-0.615 0.32,0 0.51,0.215 0.545,0.615 z m 3.444987,-1.05 h -0.39 v -0.725 h -0.7 v 0.725 h -0.345 v 0.465 h 0.345 v 1.66 c 0,0.425 0.225,0.635 0.685,0.635 0.16,0 0.275,-0.015 0.405,-0.055 v -0.49 c -0.07,0.01 -0.105,0.015 -0.16,0.015 -0.185,0 -0.23,-0.055 -0.23,-0.295 v -1.47 h 0.39 z m 0.484991,-1 v 3.645 h 0.7 v -1.62 c 0,-0.31 0.225,-0.53 0.54,-0.53 0.155,0 0.27,0.055 0.35,0.165 0.065,0.09 0.08,0.165 0.08,0.335 v 1.65 h 0.7 v -1.81 c 0,-0.335 -0.09,-0.575 -0.275,-0.73 -0.155,-0.13 -0.38,-0.205 -0.605,-0.205 -0.345,0 -0.595,0.135 -0.79,0.435 v -1.335 z m 4.56999,0.945 -0.56,1.965 -0.595,-1.965 h -0.77 l 1.005,2.81 c 0,0.28 -0.175,0.47 -0.435,0.47 -0.055,0 -0.1,-0.01 -0.185,-0.03 v 0.525 c 0.105,0.015 0.165,0.02 0.25,0.02 0.18,0 0.38,-0.035 0.505,-0.085 0.195,-0.08 0.28,-0.19 0.395,-0.515 l 1.11,-3.195 z m 3.244987,0.87 c -0.01,-0.57 -0.45,-0.915 -1.175,-0.915 -0.685,0 -1.11,0.345 -1.11,0.9 0,0.18 0.055,0.335 0.15,0.44 0.095,0.095 0.18,0.14 0.44,0.225 l 0.835,0.26 c 0.175,0.055 0.235,0.11 0.235,0.22 0,0.165 -0.195,0.265 -0.52,0.265 -0.185,0 -0.325,-0.03 -0.415,-0.095 -0.075,-0.055 -0.105,-0.11 -0.135,-0.255 h -0.685 c 0.02,0.595 0.455,0.9 1.275,0.9 0.375,0 0.66,-0.08 0.86,-0.24 0.2,-0.16 0.32,-0.41 0.32,-0.675 0,-0.35 -0.175,-0.575 -0.53,-0.68 l -0.885,-0.255 c -0.195,-0.06 -0.245,-0.1 -0.245,-0.21 0,-0.15 0.16,-0.25 0.405,-0.25 0.335,0 0.5,0.12 0.505,0.365 z m 1.754994,-0.815 h -0.39 v -0.725 h -0.7 v 0.725 h -0.345 v 0.465 h 0.345 v 1.66 c 0,0.425 0.225,0.635 0.685,0.635 0.16,0 0.275,-0.015 0.405,-0.055 v -0.49 c -0.07,0.01 -0.105,0.015 -0.16,0.015 -0.185,0 -0.23,-0.055 -0.23,-0.295 v -1.47 h 0.39 z m 4.584993,0.11 c -0.005,-0.755 -0.51,-1.17 -1.43,-1.17 -0.875,0 -1.38,0.41 -1.38,1.12 0,0.565 0.285,0.84 1.025,0.98 l 0.51,0.1 c 0.5,0.095 0.685,0.235 0.685,0.53 0,0.305 -0.28,0.49 -0.735,0.49 -0.51,0 -0.795,-0.215 -0.82,-0.605 h -0.73 c 0.045,0.78 0.58,1.205 1.51,1.205 0.94,0 1.495,-0.435 1.495,-1.18 0,-0.575 -0.29,-0.875 -0.965,-1.005 l -0.57,-0.11 c -0.535,-0.105 -0.69,-0.21 -0.69,-0.475 0,-0.275 0.24,-0.45 0.63,-0.45 0.475,0 0.74,0.2 0.765,0.57 z m 1.804999,-0.11 h -0.39 v -0.725 h -0.7 v 0.725 h -0.345 v 0.465 h 0.345 v 1.66 c 0,0.425 0.225,0.635 0.685,0.635 0.16,0 0.275,-0.015 0.405,-0.055 v -0.49 c -0.07,0.01 -0.105,0.015 -0.16,0.015 -0.185,0 -0.23,-0.055 -0.23,-0.295 v -1.47 h 0.39 z m 2.854983,2.645 v -2.7 h -0.7 v 1.69 c 0,0.32 -0.22,0.53 -0.565,0.53 -0.3,0 -0.45,-0.16 -0.45,-0.485 v -1.735 h -0.7 v 1.88 c 0,0.6 0.325,0.935 0.905,0.935 0.365,0 0.61,-0.13 0.81,-0.435 v 0.32 z m 2.374993,0 h 0.7 v -3.645 h -0.7 v 1.295 c -0.175,-0.27 -0.405,-0.395 -0.745,-0.395 -0.645,0 -1.135,0.62 -1.135,1.435 0,0.365 0.11,0.735 0.29,0.995 0.185,0.265 0.515,0.43 0.845,0.43 0.34,0 0.57,-0.12 0.745,-0.39 z m -0.59,-2.16 c 0.355,0 0.59,0.34 0.59,0.86 0,0.49 -0.24,0.83 -0.59,0.83 -0.35,0 -0.59,-0.345 -0.59,-0.84 0,-0.505 0.24,-0.85 0.59,-0.85 z m 2.654993,-0.54 h -0.7 v 2.7 h 0.7 z m 0,-0.945 h -0.7 v 0.625 h 0.7 z m 1.859999,0.9 c -0.825,0 -1.33,0.545 -1.33,1.43 0,0.89 0.505,1.43 1.335,1.43 0.825,0 1.335,-0.54 1.335,-1.41 0,-0.915 -0.495,-1.45 -1.34,-1.45 z m 0.005,0.565 c 0.385,0 0.635,0.345 0.635,0.875 0,0.505 -0.26,0.855 -0.635,0.855 -0.38,0 -0.635,-0.345 -0.635,-0.865 0,-0.52 0.255,-0.865 0.635,-0.865 z"
     id="text11"
     style="font-weight:bold;font-size:5px;font-family:'Helvetica Neue', Helvetica, Arial-Unicode, Arial, Sans-serif"
     aria-label="Created by Amethyst Studio" /><path
     d="M 1.565,424.15401 H 1.15 v -0.265 c 0,-0.14 0.06,-0.21 0.19,-0.21 0.065,0 0.13,0.005 0.2,0.015 v -0.525 c -0.15,-0.01 -0.295,-0.015 -0.4,-0.015 -0.465,0 -0.69,0.22 -0.69,0.675 v 0.325 H 0.07 v 0.465 h 0.38 v 2.18 h 0.7 v -2.18 h 0.415 z m 0.4149914,-0.055 v 2.7 h 0.7 v -1.435 c 0,-0.41 0.205,-0.615 0.615,-0.615 0.075,0 0.125,0.005 0.22,0.02 v -0.71 c -0.04,-0.005 -0.055,-0.005 -0.085,-0.005 -0.32,0 -0.595,0.21 -0.75,0.575 v -0.53 z m 3.1299929,-0.045 c -0.825,0 -1.33,0.545 -1.33,1.43 0,0.89 0.505,1.43 1.335,1.43 0.825,0 1.335,-0.54 1.335,-1.41 0,-0.915 -0.495,-1.45 -1.34,-1.45 z m 0.005,0.565 c 0.385,0 0.635,0.345 0.635,0.875 0,0.505 -0.26,0.855 -0.635,0.855 -0.38,0 -0.635,-0.345 -0.635,-0.865 0,-0.52 0.255,-0.865 0.635,-0.865 z m 1.8449908,-0.52 v 2.7 h 0.7 v -1.62 c 0,-0.335 0.18,-0.53 0.48,-0.53 0.235,0 0.38,0.135 0.38,0.35 v 1.8 h 0.7 v -1.62 c 0,-0.33 0.18,-0.53 0.48,-0.53 0.235,0 0.3799999,0.135 0.3799999,0.35 v 1.8 h 0.7 v -1.91 c 0,-0.525 -0.32,-0.835 -0.8599999,-0.835 -0.345,0 -0.58,0.12 -0.79,0.4 -0.13,-0.255 -0.4,-0.4 -0.735,-0.4 -0.31,0 -0.51,0.1 -0.74,0.38 v -0.335 z m 7.0399989,0.055 h -0.39 v -0.725 h -0.7 v 0.725 h -0.345 v 0.465 h 0.345 v 1.66 c 0,0.425 0.225,0.635 0.685,0.635 0.16,0 0.275,-0.015 0.405,-0.055 v -0.49 c -0.07,0.01 -0.105,0.015 -0.16,0.015 -0.185,0 -0.23,-0.055 -0.23,-0.295 v -1.47 h 0.39 z m 0.484987,-1 v 3.645 h 0.7 v -1.62 c 0,-0.31 0.225,-0.53 0.54,-0.53 0.155,0 0.27,0.055 0.35,0.165 0.065,0.09 0.08,0.165 0.08,0.335 v 1.65 h 0.7 v -1.81 c 0,-0.335 -0.09,-0.575 -0.275,-0.73 -0.155,-0.13 -0.38,-0.205 -0.605,-0.205 -0.345,0 -0.595,0.135 -0.79,0.435 v -1.335 z m 5.339991,2.515 c 0.005,-0.06 0.005,-0.085 0.005,-0.12 0,-0.27 -0.04,-0.52 -0.105,-0.71 -0.18,-0.49 -0.615,-0.785 -1.16,-0.785 -0.775,0 -1.25,0.56 -1.25,1.465 0,0.865 0.47,1.395 1.235,1.395 0.605,0 1.095,-0.34 1.25,-0.875 h -0.69 c -0.085,0.215 -0.28,0.34 -0.535,0.34 -0.2,0 -0.36,-0.085 -0.46,-0.235 -0.065,-0.1 -0.09,-0.22 -0.1,-0.475 z m -1.8,-0.465 c 0.045,-0.415 0.22,-0.615 0.53,-0.615 0.32,0 0.51,0.215 0.545,0.615 z m 5.904998,1.595 h 0.75 v -3.645 h -0.75 v 2.48 l -1.445,-2.48 h -0.77 v 3.645 h 0.75 v -2.52 z m 2.594991,-2.745 c -0.825,0 -1.33,0.545 -1.33,1.43 0,0.89 0.505,1.43 1.335,1.43 0.825,0 1.335,-0.54 1.335,-1.41 0,-0.915 -0.495,-1.45 -1.34,-1.45 z m 0.005,0.565 c 0.385,0 0.635,0.345 0.635,0.875 0,0.505 -0.26,0.855 -0.635,0.855 -0.38,0 -0.635,-0.345 -0.635,-0.865 0,-0.52 0.255,-0.865 0.635,-0.865 z m 4.249991,2.18 v -2.7 h -0.7 v 1.69 c 0,0.32 -0.22,0.53 -0.565,0.53 -0.3,0 -0.45,-0.16 -0.45,-0.485 v -1.735 h -0.7 v 1.88 c 0,0.6 0.325,0.935 0.905,0.935 0.365,0 0.61,-0.13 0.81,-0.435 v 0.32 z m 0.664991,-2.7 v 2.7 h 0.7 v -1.62 c 0,-0.32 0.22,-0.53 0.565,-0.53 0.3,0 0.45,0.165 0.45,0.485 v 1.665 h 0.7 v -1.81 c 0,-0.6 -0.325,-0.935 -0.905,-0.935 -0.365,0 -0.61,0.13 -0.81,0.435 v -0.39 z m 5.25999,1.4 h 0.935 c 0.67,0 1.1,-0.475 1.1,-1.215 0,-0.73 -0.415,-1.13 -1.175,-1.13 h -1.61 v 3.645 h 0.75 z m 0,-0.625 v -1.095 h 0.7 c 0.4,0 0.585,0.175 0.585,0.545 0,0.375 -0.185,0.55 -0.585,0.55 z m 2.519999,-0.775 v 2.7 h 0.7 v -1.435 c 0,-0.41 0.205,-0.615 0.615,-0.615 0.075,0 0.125,0.005 0.22,0.02 v -0.71 c -0.04,-0.005 -0.055,-0.005 -0.085,-0.005 -0.32,0 -0.595,0.21 -0.75,0.575 v -0.53 z m 3.129995,-0.045 c -0.825,0 -1.33,0.545 -1.33,1.43 0,0.89 0.505,1.43 1.335,1.43 0.825,0 1.335,-0.54 1.335,-1.41 0,-0.915 -0.495,-1.45 -1.34,-1.45 z m 0.005,0.565 c 0.385,0 0.635,0.345 0.635,0.875 0,0.505 -0.26,0.855 -0.635,0.855 -0.38,0 -0.635,-0.345 -0.635,-0.865 0,-0.52 0.255,-0.865 0.635,-0.865 z m 2.564986,-0.52 h -0.7 v 3.015 c 0,0.155 -0.055,0.21 -0.205,0.21 -0.045,0 -0.08,-0.005 -0.125,-0.02 v 0.56 c 0.135,0.015 0.305,0.025 0.415,0.025 0.435,0 0.615,-0.18 0.615,-0.62 z m 0,-0.945 h -0.7 v 0.625 h 0.7 z m 2.96,2.515 c 0.005,-0.06 0.005,-0.085 0.005,-0.12 0,-0.27 -0.04,-0.52 -0.105,-0.71 -0.18,-0.49 -0.615,-0.785 -1.16,-0.785 -0.775,0 -1.25,0.56 -1.25,1.465 0,0.865 0.47,1.395 1.235,1.395 0.605,0 1.095,-0.34 1.25,-0.875 h -0.69 c -0.085,0.215 -0.28,0.34 -0.535,0.34 -0.2,0 -0.36,-0.085 -0.46,-0.235 -0.065,-0.1 -0.09,-0.22 -0.1,-0.475 z m -1.8,-0.465 c 0.045,-0.415 0.22,-0.615 0.53,-0.615 0.32,0 0.51,0.215 0.545,0.615 z m 4.569998,-0.095 c -0.05,-0.66 -0.485,-1.055 -1.165,-1.055 -0.81,0 -1.275,0.53 -1.275,1.45 0,0.89 0.465,1.41 1.265,1.41 0.655,0 1.11,-0.405 1.175,-1.05 h -0.67 c -0.085,0.35 -0.225,0.485 -0.505,0.485 -0.355,0 -0.565,-0.315 -0.565,-0.845 0,-0.26 0.05,-0.495 0.135,-0.655 0.08,-0.15 0.235,-0.23 0.435,-0.23 0.285,0 0.42,0.135 0.5,0.49 z m 1.679996,-0.955 h -0.39 v -0.725 h -0.7 v 0.725 h -0.345 v 0.465 h 0.345 v 1.66 c 0,0.425 0.225,0.635 0.685,0.635 0.16,0 0.275,-0.015 0.405,-0.055 v -0.49 c -0.07,0.01 -0.105,0.015 -0.16,0.015 -0.185,0 -0.23,-0.055 -0.23,-0.295 v -1.47 h 0.39 z"
     id="text12"
     style="font-weight:bold;font-size:5px;font-family:'Helvetica Neue', Helvetica, Arial-Unicode, Arial, Sans-serif"
     aria-label="from the Noun Project" /></g><polygon
   fill="#ffb196"
   points="1521.588,522.049 1512.613,522.049 1512.613,516.821 1492.613,516.821 1492.613,511.995 1464.613,511.995 1464.613,521.245 1455.588,521.245 1455.588,518.544 1342.057,518.544 1342.057,522.164 1293.588,522.164 1293.588,517.338 1235.588,517.338 1235.588,519.751 1141.588,519.751 1141.588,514.523 1061.588,514.523 1061.588,518.142 1001.588,518.142 1001.588,520.957 971.588,520.957 971.588,516.131 944.588,516.131 944.588,523.37 891.613,523.37 891.613,520.153 842.613,520.153 842.613,513.027 774.613,513.027 774.613,516.131 743.588,516.131 743.588,520.498 701.588,520.498 701.588,514.45 629.966,514.45 629.966,521.647 588.613,521.647 588.613,524.665 535.588,524.665 535.588,519.349 516.991,519.349 516.991,515.213 426.613,515.213 426.613,522.854 332.613,522.854 332.613,514.81 278.613,514.81 278.613,510.789 236.613,510.789 236.613,515.213 208.613,515.213 208.613,509.985 130.613,509.985 130.613,518.028 90.613,518.028 90.613,512.398 -0.001,512.398 -0.001,720 1599.999,720 1599.999,512.8 1576.613,512.8 1576.613,516.821 1534.613,516.821 1534.613,519.618 1521.588,519.618 "
   id="polygon1"
   style="display:none" /><path
   style="display:inline;fill:#dd004b;fill-opacity:1;stroke:none;stroke-width:65.539;stroke-linecap:square;stroke-dasharray:none;paint-order:fill markers stroke"
   d="m 679.06302,503.62466 c -3.6526,-0.82263 -17.29295,-6.72458 -30.31189,-13.11548 -34.44794,-16.91023 -43.09436,-19.66806 -64.6328,-20.61493 -22.41507,-0.98544 -31.94441,1.08855 -63.49771,13.81979 -22.67901,9.15062 -23.78371,9.41874 -38.90733,9.44332 -17.34072,0.0282 -18.82645,-0.5182 -53.25061,-19.58358 -30.78044,-17.04732 -57.98914,-23.22669 -95.66478,-21.72641 -27.32969,1.08827 -46.00496,4.69387 -95.44201,18.42669 -72.23322,20.06524 -96.07279,24.15938 -141.504775,24.30162 -33.341988,0.10439 -55.261533,-2.37973 -81.10479,-9.19148 L 0.8192403,481.71329 0.35184044,465.86686 C -0.18612615,447.62797 -1.8974356,449.3795 19.409408,446.36147 c 19.288533,-2.73213 42.276373,-1.09506 58.41842,4.16025 21.426847,6.97586 34.785402,9.20395 55.107372,9.19142 33.75736,-0.0208 55.90739,-6.70521 80.32991,-24.24181 21.7436,-15.61302 21.47842,-15.54075 61.99963,-16.8989 29.65032,-0.99379 37.0431,-1.75589 46.6967,-4.81386 22.37591,-7.088 36.83797,-18.13668 44.25118,-33.80693 2.23833,-4.73144 6.64332,-19.89915 9.78887,-33.70604 8.03876,-35.28477 12.6164,-47.13058 22.31283,-57.74001 9.57851,-10.48042 20.32116,-15.54613 35.70271,-16.83567 22.08088,-1.85118 36.77774,5.86522 68.48521,35.9573 22.04603,20.92286 29.87686,26.83496 45.04652,34.00906 16.64352,7.87114 31.33464,10.36907 55.20744,9.3869 33.89059,-1.39431 54.22343,-8.944 109.16362,-40.53313 61.86291,-35.56951 94.20254,-47.01891 143.28024,-50.7264 37.63961,-2.84341 63.8695,0.28068 144.73232,17.23826 92.62372,19.42393 106.63102,21.17031 169.94272,21.18777 53.5878,0.0148 72.8656,-1.67457 114.2644,-10.01323 96.6148,-19.46044 204.719,-67.25711 310.5117,-137.28815 l 4.5059,-2.98269 v 124.80313 124.80314 l -8.6671,3.83297 c -4.7669,2.10814 -16.7482,5.93848 -26.6253,8.51186 -16.7197,4.3562 -20.0488,4.67241 -48.2702,4.585 l -30.3118,-0.0939 -29.4927,-7.81779 c -76.0488,-20.15872 -83.831,-21.46428 -120.6333,-20.23763 -29.367,0.97883 -37.7975,3.00917 -68.9981,16.61709 -28.4808,12.42165 -37.6758,14.69046 -59.4176,14.66088 -18.8709,-0.0257 -25.8935,-1.3203 -69.1656,-12.7507 -32.2992,-8.53192 -54.4432,-11.36834 -79.9362,-10.23898 -36.6004,1.62142 -57.919,10.21913 -87.61045,35.33301 -29.60074,25.03716 -38.44172,30.11776 -47.4397,27.26191 -1.89056,-0.60003 -4.61689,-3.3719 -6.05851,-6.1597 -2.27426,-4.39792 -2.46519,-9.53721 -1.44277,-38.83368 1.37813,-39.48899 0.43248,-44.79424 -9.81371,-55.05606 -9.11564,-9.12955 -21.38401,-12.86376 -41.79479,-12.72138 -24.70799,0.17235 -42.28373,8.56938 -57.90579,27.66525 -7.35948,8.99597 -12.32185,18.43314 -40.85343,77.6929 -15.06724,31.29451 -30.17671,48.00326 -48.35612,53.47445 -8.26018,2.48596 -27.11321,2.68171 -37.30091,0.38729 z"
   id="path12" /><g
   inkscape:groupmode="layer"
   id="layer1"
   inkscape:label="Layer 1"
   style="display:inline" /><g
   id="SVGRepo_bgCarrier"
   stroke-width="0"
   transform="matrix(8.1822273,0,0,8.1822273,1164.7254,84.531669)" /><g
   id="SVGRepo_tracerCarrier"
   stroke-linecap="round"
   stroke-linejoin="round"
   transform="matrix(8.1822273,0,0,8.1822273,1164.7254,84.531669)" /><g
   id="SVGRepo_iconCarrier"
   transform="matrix(8.1822273,0,0,8.1822273,1164.7254,84.531669)"
   style="fill:#41895b;fill-opacity:1;stroke:#1c2332;stroke-opacity:1"><path
     d="m 7.2031593,7.3221843 c 0.034042,-0.1277668 0.1782548,-0.1277668 0.2122965,0 L 7.615064,8.0721367 c 0.089081,0.3342521 0.2988015,0.5964861 0.5660208,0.7077507 l 0.5991341,0.2497259 c 0.1021253,0.042591 0.1021253,0.2230111 0,0.2656005 L 8.1807753,9.5449394 C 7.9136047,9.6563868 7.7039988,9.9187641 7.615064,10.253077 l -0.1996082,0.749566 c -0.033643,0.128247 -0.1786539,0.128247 -0.2122965,0 L 7.0035511,10.25269 C 6.9145339,9.9185249 6.7049409,9.6563071 6.4378398,9.5449394 L 5.8383963,9.2952138 c -0.1025095,-0.042089 -0.1025095,-0.2235112 0,-0.2656005 L 6.4378398,8.7798874 C 6.7049409,8.6685197 6.9145339,8.4063018 7.0035511,8.0721367 Z"
     id="path1-7"
     style="fill:#ffffff;fill-opacity:1;stroke:#1c2332;stroke-width:0.256078;stroke-linecap:butt;stroke-linejoin:bevel;stroke-dasharray:none;stroke-opacity:1;paint-order:markers stroke fill"
     sodipodi:nodetypes="ccccccccccccccccc" /></g><path
   d="m 988.30442,193.20499 c 0.15816,-0.57072 0.80331,-0.57072 0.96146,0 l 0.90527,3.39781 c 0.40352,1.51891 1.35444,2.70858 2.56851,3.21342 l 2.71587,1.13259 c 0.45623,0.19787 0.45623,1.00498 0,1.20285 l -2.71587,1.1326 c -1.21308,0.50487 -2.16499,1.69572 -2.56851,3.21343 l -0.90527,3.3978 c -0.15815,0.57071 -0.8033,0.57071 -0.96146,0 l -0.90527,-3.3978 c -0.40351,-1.51769 -1.35543,-2.70854 -2.56863,-3.21342 l -2.71228,-1.13261 c -0.45623,-0.19785 -0.45623,-1.00498 0,-1.20283 l 2.71587,-1.1326 c 1.21408,-0.50485 2.16494,-1.69451 2.56851,-3.21343 l 0.9018,-3.39342 z"
   style="fill:#ffffff;fill-opacity:1;stroke:#1c2332;stroke-width:0.354858;stroke-linecap:butt;stroke-linejoin:bevel;stroke-dasharray:none;stroke-opacity:1;paint-order:markers stroke fill"
   id="path1-9" /><path
   d="m 1148.1221,76.415618 c 0.075,-0.28388 0.3961,-0.28388 0.4712,0 l 0.4427,1.66277 c 0.1978,0.74124 0.6622,1.32221 1.2547,1.56976 l 1.329,0.55378 c 0.2269,0.094 0.2269,0.49556 0,0.58956 l -1.329,0.55378 c -0.5925,0.24695 -1.0573,0.82856 -1.2547,1.56977 l -0.4427,1.66277 c -0.075,0.28388 -0.3961,0.28388 -0.4712,0 l -0.4427,-1.66277 c -0.1974,-0.74121 -0.6622,-1.32282 -1.2547,-1.56977 l -1.3291,-0.55378 c -0.2269,-0.094 -0.2269,-0.49556 0,-0.58956 l 1.3291,-0.55378 c 0.5925,-0.24694 1.0573,-0.82855 1.2547,-1.56976 z"
   style="fill:#ffffff;fill-opacity:1;stroke:#1c2332;stroke-width:0.115671;stroke-linecap:butt;stroke-linejoin:bevel;stroke-dasharray:none;stroke-opacity:1;paint-order:markers stroke fill"
   id="path1-0" /><path
   d="m 185.74862,109.78079 c 0.075,-0.28388 0.3961,-0.28388 0.4712,0 l 0.4427,1.66277 c 0.1978,0.74124 0.6622,1.32221 1.2547,1.56976 l 1.329,0.55378 c 0.2269,0.094 0.2269,0.49556 0,0.58956 l -1.329,0.55378 c -0.5925,0.24695 -1.0573,0.82856 -1.2547,1.56977 l -0.4427,1.66277 c -0.075,0.28388 -0.3961,0.28388 -0.4712,0 l -0.4427,-1.66277 c -0.1974,-0.74121 -0.6622,-1.32282 -1.2547,-1.56977 l -1.3291,-0.55378 c -0.2269,-0.094 -0.2269,-0.49556 0,-0.58956 l 1.3291,-0.55378 c 0.5925,-0.24694 1.0573,-0.82855 1.2547,-1.56976 z"
   style="fill:#ffffff;fill-opacity:1;stroke:#1c2332;stroke-width:0.115671;stroke-linecap:butt;stroke-linejoin:bevel;stroke-dasharray:none;stroke-opacity:1;paint-order:markers stroke fill"
   id="path1-0-1" /></svg>
