<?xml version="1.0" encoding="utf-8"?>
<!-- Generator: Adobe Illustrator 18.1.1, SVG Export Plug-In . SVG Version: 6.00 Build 0)  -->
<svg version="1.1" id="Layer_1" xmlns="http://www.w3.org/2000/svg" xmlns:xlink="http://www.w3.org/1999/xlink" x="0px"
	y="0px" viewBox="0 0 1600 720" enable-background="new 0 0 1600 720" xml:space="preserve">
	<polygon fill="#1c2332" points="0,720 0,567.605 28.33,567.605 28.33,550.275 60.33,550.275 60.33,586.565 69.75,586.565
	69.75,570.866 91.08,570.866 91.08,559.605 135.87,559.605 135.87,572.946 145.87,572.946 145.87,577.906 227.87,577.906
	227.87,613.525 237.44,613.525 237.44,635.306 241,635.306 241,570.866 289.67,570.866 289.67,592.196 296.87,592.196
	296.87,559.605 344.86,559.605 344.86,593.426 373.86,593.426 373.86,577.906 417.67,577.906 417.67,567.446 458.86,567.446
	458.86,550.275 509.86,550.275 509.86,577.906 538.85,577.906 538.85,592.196 551.67,592.196 551.67,542.275 610.08,542.275
	610.08,559.605 624.33,559.605 624.33,592.196 637,592.196 637,570.866 685.67,570.866 685.67,592.196 697.67,592.196
	697.67,559.605 744.33,559.605 744.33,567.605 828.33,567.605 828.33,550.275 860.33,550.275 860.33,586.565 869.75,586.565
	869.75,570.866 891.08,570.866 891.08,559.605 935.87,559.605 935.87,572.946 945.87,572.946 945.87,577.906 1003.114,577.906
	1003.114,627.419 1096.87,627.418 1096.87,559.605 1144.86,559.605 1144.86,593.426 1173.86,593.426 1173.86,577.906
	1217.67,577.906 1217.67,567.446 1258.86,567.446 1258.86,550.275 1309.86,550.275 1309.86,577.906 1338.85,577.906
	1338.85,592.196 1351.67,592.196 1351.67,542.275 1410.08,542.275 1410.08,559.605 1424.33,559.605 1424.33,592.196 1437,592.196
	1437,570.866 1485.67,570.866 1485.67,592.196 1497.67,592.196 1497.67,559.605 1544.33,559.605 1544.33,570.866 1600,570.866
	1600,720 " />
	<rect x="872.75" y="573.866" fill="none" stroke="#ff6091" stroke-miterlimit="10" width="42.66" height="30.08" />
	<polyline fill="none" stroke="#ff6091" stroke-miterlimit="10" points="1440,616.525 1440,573.866 1482.67,573.866 1482.67,616.525
	" />
	<polyline fill="none" stroke="#ff6091" stroke-miterlimit="10" points="993.336,616.526 982.67,616.526 982.67,595.196
	942.87,595.196 942.87,603.946 800,603.946 " />
	<polyline fill="none" stroke="#ff6091" stroke-miterlimit="10" points="1407.08,616.526 1407.08,562.606 1407.08,545.276
	1354.67,545.276 1354.67,595.196 1335.85,595.196 1237.86,595.196 1192,595.196 1192,616.526 1176.86,616.526 1099.87,616.526
	1099.87,638.306 1086.67,638.306 " />
	<polyline fill="none" stroke="#ff6091" stroke-miterlimit="10"
		points="1600,616.526 1482.67,616.526 1459.864,616.526 " />
	<polyline fill="none" stroke="#ff6091" stroke-miterlimit="10" points="1600,603.941 1557.333,603.941 1557.333,588.902
	1518.667,588.902 1518.667,603.941 1482.667,603.941 " />
	<polyline fill="none" stroke="#ff6091" stroke-miterlimit="10" points="1407.08,562.606 1421.33,562.606 1421.33,595.196
	1440,595.196 " />
	<polyline fill="none" stroke="#ff6091" stroke-miterlimit="10" points="1541.33,588.906 1541.33,573.866 1541.33,562.606
	1500.67,562.606 1500.67,595.196 1482.67,595.196 " />
	<line fill="none" stroke="#ff6091" stroke-miterlimit="10" x1="1600" y1="573.866" x2="1541.33" y2="573.866" />
	<rect x="1391.333" y="552.608" fill="none" stroke="#ff6091" stroke-miterlimit="10" width="8" height="10" />
	<rect x="1505.333" y="567.941" fill="#ff6091" width="6.667" height="8" />
	<rect x="1165.333" y="602.085" fill="none" stroke="#ff6091" stroke-miterlimit="10" width="6.667" height="8" />
	<rect x="1505.333" y="580.902" fill="#ff6091" width="6.667" height="8" />
	<rect x="1255.193" y="580.902" fill="none" stroke="#ff6091" stroke-miterlimit="10" width="6.667" height="8" />
	<rect x="1268.667" y="580.902" fill="none" stroke="#ff6091" stroke-miterlimit="10" width="6.667" height="8" />
	<rect x="844.212" y="558.608" fill="#ff6091" width="6.667" height="8" />
	<rect x="807.333" y="575.235" fill="none" stroke="#ff6091" stroke-miterlimit="10" width="6.667" height="8" />
	<rect x="878.878" y="579.275" fill="#ff6091" width="6.667" height="8" />
	<rect x="1268.667" y="562.608" fill="none" stroke="#ff6091" stroke-miterlimit="10" width="6.667" height="8" />
	<rect x="1581.778" y="578.902" fill="#ff6091" width="7.556" height="10" />
	<rect x="989.558" y="586.791" fill="none" stroke="#ff6091" stroke-miterlimit="10" width="7.556" height="10" />
	<rect x="1106.444" y="569.235" fill="none" stroke="#ff6091" stroke-miterlimit="10" width="7.556" height="10" />
	<rect x="967.556" y="602.085" fill="#ff6091" width="7.556" height="10" />
	<rect x="1464.833" y="578.902" fill="none" stroke="#ff6091" stroke-miterlimit="10" width="10" height="10" />
	<polyline fill="none" stroke="#ff6091" stroke-miterlimit="10" points="1176.86,616.526 1176.86,596.426 1176.86,580.906
	1220.67,580.906 1237.86,580.906 1237.86,595.196 " />
	<polyline fill="none" stroke="#ff6091" stroke-miterlimit="10" points="1099.87,616.526 1099.87,595.196 1099.87,562.606
	1141.86,562.606 1141.86,596.426 1176.86,596.426 " />
	<polyline fill="none" stroke="#ff6091" stroke-miterlimit="10" points="1237.86,638.308 1237.86,616.529 1341.854,616.529
	1341.854,627.418 " />
	<polyline fill="none" stroke="#ff6091" stroke-miterlimit="10" points="915.412,616.529 960,616.529 960,624.547 " />
	<polyline fill="none" stroke="#ff6091" stroke-miterlimit="10" points="932.87,603.946 932.87,575.946 932.87,562.606
	893.08,562.606 " />
	<polyline fill="none" stroke="#ff6091" stroke-miterlimit="10"
		points="942.87,580.906 942.87,575.946 932.87,575.946 " />
	<polyline fill="none" stroke="#ff6091" stroke-miterlimit="10" points="1220.67,580.906 1220.67,570.446 1261.86,570.446
	1261.86,553.276 1306.86,553.276 1306.86,580.906 1335.85,580.906 1335.85,595.196 " />
	<polyline fill="none" stroke="#ff6091" stroke-miterlimit="10" points="72.75,608.866 72.75,573.866 115.41,573.866 115.41,608.866
	" />
	<polyline fill="none" stroke="#ff6091" stroke-miterlimit="10"
		points="640,627.418 640,573.866 682.67,573.866 682.67,627.418 " />
	<line fill="none" stroke="#ff6091" stroke-miterlimit="10" x1="72.75" y1="603.946" x2="0" y2="603.946" />
	<polyline fill="none" stroke="#ff6091" stroke-miterlimit="10" points="235.44,616.526 224.87,616.526 182.67,616.526
	182.67,595.196 160,595.196 160,603.946 142.87,603.946 132.87,603.946 115.41,603.946 " />
	<polyline fill="none" stroke="#ff6091" stroke-miterlimit="10" points="640,616.526 607.08,616.526 607.08,562.606 607.08,545.276
	554.67,545.276 554.67,595.196 535.85,595.196 437.86,595.196 392,595.196 392,616.526 376.86,616.526 299.87,616.526
	299.87,638.306 " />
	<line fill="none" stroke="#ff6091" stroke-miterlimit="10" x1="800" y1="616.526" x2="682.67" y2="616.526" />
	<polyline fill="none" stroke="#ff6091" stroke-miterlimit="10" points="800,603.946 757.33,603.946 757.33,588.906 741.33,588.906
	718.67,588.906 718.67,603.946 " />
	<polyline fill="none" stroke="#ff6091" stroke-miterlimit="10" points="857.33,589.566 857.33,553.276 831.33,553.276
	831.33,570.606 831.33,588.906 814,588.906 814,595.196 800,595.196 " />
	<polyline fill="none" stroke="#ff6091" stroke-miterlimit="10"
		points="610.08,562.606 621.33,562.606 621.33,595.196 " />
	<polyline fill="none" stroke="#ff6091" stroke-miterlimit="10" points="741.33,584.906 741.33,570.606 741.33,562.606
	700.67,562.606 700.67,595.196 685.67,595.196 " />
	<rect x="591.333" y="552.608" fill="#ff6091" width="8" height="10" />
	<rect x="705.333" y="567.941" fill="#ff6091" width="6.667" height="8" />
	<rect x="365.333" y="602.085" fill="none" stroke="#ff6091" stroke-miterlimit="10" width="6.667" height="8" />
	<rect x="705.333" y="580.902" fill="#ff6091" width="6.667" height="8" />
	<rect x="455.193" y="580.902" fill="none" stroke="#ff6091" stroke-miterlimit="10" width="6.667" height="8" />
	<rect x="468.667" y="580.902" fill="none" stroke="#ff6091" stroke-miterlimit="10" width="6.667" height="8" />
	<rect x="44.212" y="558.608" fill="#ff6091" width="6.667" height="8" />
	<rect x="78.878" y="579.275" fill="none" stroke="#ff6091" stroke-miterlimit="10" width="6.667" height="8" />
	<rect x="468.667" y="562.608" fill="none" stroke="#ff6091" stroke-miterlimit="10" width="6.667" height="8" />
	<rect x="781.778" y="578.902" fill="none" stroke="#ff6091" stroke-miterlimit="10" width="7.556" height="10" />
	<rect x="190.316" y="586.791" fill="#ff6091" width="7.556" height="10" />
	<rect x="306.444" y="569.235" fill="none" stroke="#ff6091" stroke-miterlimit="10" width="7.556" height="10" />
	<rect x="167.556" y="602.085" fill="#ff6091" width="7.556" height="10" />
	<rect x="645.333" y="578.902" fill="none" stroke="#ff6091" stroke-miterlimit="10" width="10" height="10" />
	<rect x="248.869" y="602.085" fill="#ff6091" width="10" height="10" />
	<rect x="248.869" y="581.752" fill="#ff6091" width="10" height="10" />
	<polyline fill="none" stroke="#ff6091" stroke-miterlimit="10" points="376.86,616.526 376.86,596.426 376.86,580.906
	420.67,580.906 437.86,580.906 437.86,595.196 " />
	<polyline fill="none" stroke="#ff6091" stroke-miterlimit="10" points="299.87,616.526 299.87,595.196 299.87,562.606
	341.86,562.606 341.86,596.426 376.86,596.426 " />
	<line fill="none" stroke="#ff6091" stroke-miterlimit="10" x1="299.87" y1="595.196" x2="286.67" y2="595.196" />
	<polyline fill="none" stroke="#ff6091" stroke-miterlimit="10" points="141.87,616.529 160,616.529 160,627.418 " />
	<polyline fill="none" stroke="#ff6091" stroke-miterlimit="10" points="31.33,589.566 31.33,570.606 31.33,553.276 57.33,553.276
	57.33,589.566 " />
	<polyline fill="none" stroke="#ff6091" stroke-miterlimit="10"
		points="0,595.196 14,595.196 14,589.566 37.33,589.566 " />
	<polyline fill="none" stroke="#ff6091" stroke-miterlimit="10" points="132.87,603.946 132.87,575.946 132.87,562.606
	94.08,562.606 94.08,570.866 " />
	<polyline fill="none" stroke="#ff6091" stroke-miterlimit="10"
		points="145.87,580.906 224.87,580.906 224.87,613.526 " />
	<polyline fill="none" stroke="#ff6091" stroke-miterlimit="10" points="420.67,580.906 420.67,570.446 461.86,570.446
	461.86,553.276 506.86,553.276 506.86,580.906 535.85,580.906 535.85,595.196 " />
	<g>
		<path fill="none" stroke="#8C8C8C" stroke-width="2" stroke-miterlimit="10" d="M523.85,328.901V209.895
		c-24.184-0.204-58.094-2.957-87.901-14.34c-22.584-8.626-38.359-20.489-47.099-35.382" />
		<line fill="none" stroke="#8C8C8C" stroke-width="2" stroke-miterlimit="10" x1="523.85" y1="382.906" x2="523.85"
			y2="400.897" />
		<line fill="none" stroke="#8C8C8C" stroke-width="2" stroke-miterlimit="10" x1="523.85" y1="418.906" x2="523.85"
			y2="436.897" />
		<line fill="none" stroke="#8C8C8C" stroke-width="2" stroke-miterlimit="10" x1="523.85" y1="454.906" x2="523.85"
			y2="472.897" />
		<line fill="none" stroke="#8C8C8C" stroke-width="2" stroke-miterlimit="10" x1="523.85" y1="490.906" x2="523.85"
			y2="508.897" />
		<line fill="none" stroke="#8C8C8C" stroke-width="2" stroke-miterlimit="10" x1="523.85" y1="526.906" x2="523.85"
			y2="544.897" />
		<line fill="none" stroke="#8C8C8C" stroke-width="2" stroke-miterlimit="10" x1="523.85" y1="562.906" x2="523.85"
			y2="580.897" />
		<line fill="none" stroke="#8C8C8C" stroke-width="2" stroke-miterlimit="10" x1="523.85" y1="598.906" x2="523.85"
			y2="616.897" />
		<rect x="511.85" y="328.906" fill="#ff6091" width="24" height="18" />
		<rect x="511.85" y="364.906" fill="#ff6091" width="24" height="18" />
		<rect x="511.85" y="400.906" fill="#ff6091" width="24" height="18" />
		<rect x="511.85" y="436.906" fill="#ff6091" width="24" height="18" />
		<rect x="511.85" y="472.906" fill="#ff6091" width="24" height="18" />
		<rect x="511.85" y="508.906" fill="#ff6091" width="24" height="18" />
		<g>
			<path fill="#ff6091"
				d="M459.196,486.681c0.333,0.046,0.666,0.092,1,0.137v-18c-0.334-0.045-0.667-0.091-1-0.137V486.681z" />
			<path fill="#ff6091"
				d="M481.812,471.137c-1.106-0.091-2.209-0.186-3.308-0.283v18c1.099,0.098,2.201,0.192,3.308,0.283V471.137z" />
			<path fill="#ff6091"
				d="M471.004,470.119c-0.72-0.076-1.439-0.153-2.154-0.233v18c0.715,0.08,1.435,0.157,2.154,0.233V470.119z" />
			<path fill="#ff6091"
				d="M526.773,472.906v18c0.026,0,0.051,0,0.077,0h9v-18h-9C526.824,472.906,526.799,472.906,526.773,472.906z" />
			<path fill="#ff6091"
				d="M492.619,471.904c-1.492-0.09-2.98-0.186-4.462-0.288v18c1.482,0.103,2.97,0.198,4.462,0.288V471.904z" />
			<path fill="#ff6091"
				d="M525.042,472.902c-2.641-0.008-5.283-0.033-7.923-0.076v18c2.64,0.043,5.282,0.068,7.923,0.076V472.902z" />
			<path fill="#ff6091"
				d="M514.234,472.772c-2.26-0.047-4.517-0.108-6.77-0.183v18c2.252,0.074,4.51,0.136,6.77,0.183V472.772z" />
			<path fill="#ff6091"
				d="M503.427,472.445c-1.877-0.075-3.749-0.16-5.615-0.254v18c1.866,0.094,3.738,0.179,5.615,0.254V472.445z" />
		</g>
		<g>
			<path fill="#ff6091"
				d="M525.043,508.902c-1.487-0.005-2.975-0.014-4.462-0.029v18c1.487,0.016,2.975,0.024,4.462,0.029V508.902z" />
			<rect x="530.235" y="508.906" fill="#ff6091" width="5.615" height="18" />
			<path fill="#ff6091"
				d="M503.427,508.445c-0.719-0.029-1.437-0.061-2.154-0.092v18c0.718,0.031,1.435,0.063,2.154,0.092V508.445z" />
			<path fill="#ff6091"
				d="M514.235,508.772c-1.103-0.022-2.206-0.05-3.308-0.079v18c1.102,0.029,2.204,0.057,3.308,0.079V508.772z" />
			<path fill="#ff6091"
				d="M491.619,525.845c0.333,0.021,0.667,0.039,1,0.06v-18c-0.333-0.021-0.667-0.039-1-0.06V525.845z" />
		</g>
		<path fill="#1c2332" d="M526.85,349.906h12v-24h-12l0,0V206.907c-63.677,0-128.871-17.249-141-61.497h-60v24h-24l-33.614,33.613
		v469.692l270.614,0v-58.81h-12l0,0v-12l0,0h12v-24h-12l0,0v-12l0,0h12v-24h-12l0,0v-12l0,0h12v-24h-12l0,0v-12l0,0h12v-24h-12l0,0
		v-12l0,0h12v-24h-12l0,0v-12l0,0h12v-24h-12l0,0v-12l0,0h12v-24h-12l0,0V349.906L526.85,349.906z" />
		<g>
			<path fill="#ff6091" d="M523.853,421.894v12c-4.86-0.021-9.74-0.101-14.58-0.25v-12
			C514.113,421.793,518.992,421.873,523.853,421.894z" />
			<path fill="#ff6091" d="M507.793,421.593v12c-1.84-0.05-3.67-0.12-5.5-0.199v-12C504.123,421.473,505.953,421.543,507.793,421.593
			z" />
			<path fill="#ff6091"
				d="M499.323,421.263v12c-1.33-0.06-2.67-0.13-4-0.21v-12C496.653,421.133,497.992,421.203,499.323,421.263z" />
			<path fill="#ff6091" d="M490.853,420.793v12c-0.84-0.05-1.67-0.109-2.5-0.17v-12C489.183,420.684,490.013,420.743,490.853,420.793
			z" />
			<path fill="#ff6091" d="M482.383,420.184v12c-0.34-0.03-0.67-0.061-1-0.091v-12C481.713,420.123,482.043,420.153,482.383,420.184z
			" />
		</g>
		<g>
			<path fill="#ff6091"
				d="M435.678,320.522c-1.511-0.337-2.998-0.685-4.462-1.043v18c1.464,0.358,2.951,0.706,4.462,1.043V320.522z" />
			<path fill="#ff6091"
				d="M402.254,327.173c0.331,0.175,0.661,0.351,1,0.523v-18c-0.339-0.173-0.669-0.349-1-0.523V327.173z" />
			<path fill="#ff6091" d="M480.485,327.027v18c15.011,1.275,30.732,1.879,46.365,1.879h9v-18h-9
			C511.218,328.906,495.497,328.303,480.485,327.027z" />
			<path fill="#ff6091"
				d="M414.063,314.349c-0.728-0.267-1.448-0.536-2.154-0.811v18c0.707,0.274,1.427,0.544,2.154,0.811V314.349z" />
			<path fill="#ff6091"
				d="M424.87,317.813c-1.119-0.315-2.223-0.636-3.308-0.966v18c1.084,0.33,2.188,0.65,3.308,0.966V317.813z" />
			<path fill="#ff6091"
				d="M478.909,326.89c-3.059-0.271-6.087-0.569-9.077-0.897v18c2.99,0.328,6.018,0.627,9.077,0.897V326.89z" />
			<path fill="#ff6091"
				d="M446.485,322.68c-1.899-0.34-3.772-0.693-5.615-1.062v18c1.843,0.368,3.716,0.722,5.615,1.062V322.68z" />
			<path fill="#ff6091"
				d="M468.101,325.799c-2.674-0.305-5.317-0.632-7.923-0.983v18c2.606,0.352,5.249,0.679,7.923,0.983V325.799z" />
			<path fill="#ff6091"
				d="M457.293,324.413c-2.287-0.327-4.546-0.673-6.77-1.039v18c2.224,0.366,4.482,0.712,6.77,1.039V324.413z" />
		</g>
		<g>
			<path fill="#ff6091"
				d="M430.275,355.247c-1.117-0.279-2.219-0.565-3.308-0.857v18c1.088,0.292,2.19,0.578,3.308,0.857V355.247z" />
			<path fill="#ff6091"
				d="M441.082,357.66c-1.508-0.301-2.995-0.611-4.462-0.932v18c1.467,0.32,2.954,0.631,4.462,0.932V357.66z" />
			<path fill="#ff6091"
				d="M407.659,365.777c0.331,0.146,0.664,0.291,1,0.435v-18c-0.336-0.144-0.669-0.289-1-0.435V365.777z" />
			<path fill="#ff6091"
				d="M419.467,352.195c-0.727-0.231-1.445-0.468-2.154-0.707v18c0.71,0.239,1.427,0.476,2.154,0.707V352.195z" />
			<path fill="#ff6091" d="M485.89,363.456v18c13.359,0.983,27.194,1.45,40.96,1.45h9v-18h-9
			C513.084,364.906,499.249,364.439,485.89,363.456z" />
			<path fill="#ff6091"
				d="M451.89,359.594c-1.896-0.304-3.768-0.621-5.615-0.952v18c1.847,0.331,3.719,0.648,5.615,0.952V359.594z" />
			<path fill="#ff6091"
				d="M473.505,362.379c-2.67-0.27-5.313-0.561-7.923-0.874v18c2.61,0.313,5.253,0.604,7.923,0.874V362.379z" />
			<path fill="#ff6091"
				d="M484.313,363.336c-3.054-0.235-6.082-0.496-9.077-0.786v18c2.995,0.29,6.023,0.551,9.077,0.786V363.336z" />
			<path fill="#ff6091"
				d="M462.697,361.146c-2.284-0.293-4.542-0.603-6.77-0.931v18c2.228,0.328,4.486,0.638,6.77,0.931V361.146z" />
		</g>
		<g>
			<path fill="#ff6091"
				d="M442.083,393.857c-1.114-0.217-2.215-0.44-3.308-0.669v18c1.092,0.229,2.194,0.452,3.308,0.669V393.857z" />
			<path fill="#ff6091" d="M497.698,400.186v18c9.623,0.486,19.405,0.721,29.152,0.721h9v-18h-9
			C517.103,400.906,507.321,400.672,497.698,400.186z" />
			<path fill="#ff6091"
				d="M452.89,395.755c-1.503-0.235-2.989-0.481-4.462-0.734v18c1.473,0.253,2.959,0.499,4.462,0.734V395.755z" />
			<path fill="#ff6091"
				d="M431.275,391.494c-0.724-0.178-1.442-0.357-2.154-0.539v18c0.712,0.182,1.43,0.361,2.154,0.539V391.494z" />
			<path fill="#ff6091"
				d="M419.467,406.195c0.331,0.106,0.666,0.21,1,0.314v-18c-0.334-0.104-0.669-0.208-1-0.314V406.195z" />
			<path fill="#ff6091"
				d="M485.313,399.412c-2.661-0.199-5.304-0.417-7.923-0.658v18c2.618,0.241,5.261,0.459,7.923,0.658V399.412z" />
			<path fill="#ff6091"
				d="M463.698,397.274c-1.89-0.237-3.762-0.485-5.615-0.747v18c1.853,0.262,3.726,0.51,5.615,0.747V397.274z" />
			<path fill="#ff6091"
				d="M496.121,400.103c-3.045-0.163-6.073-0.351-9.077-0.564v18c3.005,0.214,6.032,0.401,9.077,0.564V400.103z" />
			<path fill="#ff6091"
				d="M474.505,398.48c-2.278-0.225-4.533-0.467-6.77-0.724v18c2.236,0.257,4.492,0.499,6.77,0.724V398.48z" />
		</g>
		<g>
			<path fill="#ff6091"
				d="M459.534,432.727c-1.109-0.151-2.212-0.308-3.308-0.468v18c1.095,0.16,2.198,0.316,3.308,0.468V432.727z" />
			<path fill="#ff6091"
				d="M448.726,431.07c-0.722-0.123-1.44-0.248-2.154-0.376v18c0.714,0.128,1.432,0.253,2.154,0.376V431.07z" />
			<path fill="#ff6091"
				d="M436.918,446.793c0.333,0.072,0.664,0.146,1,0.218v-18c-0.336-0.071-0.667-0.146-1-0.218V446.793z" />
			<path fill="#ff6091" d="M515.149,436.793v18c3.898,0.075,7.802,0.113,11.701,0.113h9v-18h-9
			C522.951,436.906,519.046,436.868,515.149,436.793z" />
			<path fill="#ff6091"
				d="M513.572,436.758c-3.033-0.067-6.06-0.158-9.077-0.272v18c3.017,0.114,6.044,0.205,9.077,0.272V436.758z" />
			<path fill="#ff6091"
				d="M491.956,435.864c-2.269-0.139-4.526-0.293-6.77-0.462v18c2.244,0.169,4.501,0.323,6.77,0.462V435.864z" />
			<path fill="#ff6091"
				d="M502.764,436.417c-2.652-0.108-5.294-0.236-7.923-0.383v18c2.629,0.146,5.271,0.274,7.923,0.383V436.417z" />
			<path fill="#ff6091"
				d="M470.341,434.048c-1.496-0.162-2.985-0.33-4.462-0.507v18c1.477,0.177,2.966,0.345,4.462,0.507V434.048z" />
			<path fill="#ff6091"
				d="M481.149,435.082c-1.883-0.157-3.755-0.325-5.615-0.504v18c1.86,0.179,3.732,0.347,5.615,0.504V435.082z" />
		</g>
		<g>
			<g>
				<g>
					<path fill="#ff6091" d="M523.854,209.894v116.01c-12.69-0.07-25.4-0.53-37.7-1.431v-117.06
					C498.464,208.983,511.174,209.783,523.854,209.894z" />
				</g>
				<g>
					<path fill="#ff6091" d="M484.924,207.253v117.13c-2.86-0.22-5.7-0.46-8.5-0.729v-117.65
					C479.234,206.463,482.064,206.883,484.924,207.253z" />
				</g>
				<g>
					<path fill="#ff6091" d="M473.704,205.543v117.86c-2.36-0.24-4.69-0.5-7-0.771v-118.42
					C469.014,204.693,471.354,205.133,473.704,205.543z" />
				</g>
				<g>
					<path fill="#ff6091" d="M462.484,203.303v118.811c-1.85-0.24-3.69-0.49-5.5-0.75v-119.37
					C458.794,202.453,460.634,202.894,462.484,203.303z" />
				</g>
				<g>
					<path fill="#ff6091" d="M451.264,200.453v120.04c-1.35-0.22-2.68-0.45-4-0.68v-120.54
					C448.584,199.684,449.914,200.073,451.264,200.453z" />
				</g>
				<g>
					<path fill="#ff6091" d="M440.034,196.863v121.58c-0.84-0.17-1.68-0.33-2.5-0.521V195.943
					C438.364,196.263,439.194,196.563,440.034,196.863z" />
				</g>
				<g>
					<path fill="#ff6091" d="M428.814,192.323v123.55c-0.34-0.09-0.67-0.17-1-0.26v-123.75L428.814,192.323z" />
				</g>
			</g>
		</g>
		<g>
			<path fill="#ff6091" d="M472.358,359.262v-12c-1.341-0.139-2.674-0.283-4-0.433v12
			C469.684,358.978,471.017,359.123,472.358,359.262z" />
			<path fill="#ff6091" d="M482.246,360.173v-12c-1.844-0.149-3.678-0.31-5.5-0.479v12
			C478.568,359.863,480.402,360.023,482.246,360.173z" />
			<path fill="#ff6091" d="M523.853,349.894v12c-10.16-0.051-20.35-0.36-30.33-0.94v-12
			C503.503,349.533,513.693,349.843,523.853,349.894z" />
			<path fill="#ff6091" d="M485.134,348.398v12c2.32,0.175,4.654,0.334,7,0.477v-12C489.788,348.732,487.454,348.573,485.134,348.398
			z" />
			<path fill="#ff6091" d="M452.582,356.705v-12c-0.335-0.053-0.667-0.107-1-0.161v12
			C451.915,356.598,452.247,356.652,452.582,356.705z" />
			<path fill="#ff6091" d="M462.47,358.116v-12c-0.837-0.107-1.67-0.217-2.5-0.329v12
			C460.799,357.899,461.633,358.009,462.47,358.116z" />
		</g>
		<g>
			<path fill="#ff6091" d="M465.393,382.473v12c-0.33-0.039-0.67-0.079-1-0.119v-12C464.722,382.394,465.063,382.434,465.393,382.473
			z" />
			<path fill="#ff6091"
				d="M485.133,384.394v12c-1.34-0.101-2.68-0.2-4-0.32v-12C482.453,384.193,483.793,384.293,485.133,384.394z" />
			<path fill="#ff6091" d="M475.263,383.543v12c-0.84-0.08-1.67-0.16-2.5-0.25v-12C473.593,383.383,474.423,383.463,475.263,383.543z
			" />
			<path fill="#ff6091" d="M495.003,385.043v12c-1.84-0.109-3.68-0.22-5.5-0.34v-12C491.323,384.823,493.163,384.934,495.003,385.043
			z" />
			<path fill="#ff6091"
				d="M504.873,385.493v12c-2.34-0.08-4.67-0.19-7-0.31v-12C500.203,385.303,502.533,385.413,504.873,385.493z" />
			<path fill="#ff6091" d="M523.853,385.877c-5.877-0.029-11.765-0.129-17.61-0.334v12c5.845,0.205,11.733,0.305,17.61,0.334V385.877
			z" />
		</g>
		<g>
			<rect x="301.854" y="294.906" fill="#ff6091" width="24" height="18" />
			<rect x="301.854" y="330.906" fill="#ff6091" width="24" height="15.714" />
			<rect x="301.854" y="366.906" fill="#ff6091" width="24" height="13.429" />
			<rect x="301.854" y="402.906" fill="#ff6091" width="24" height="11.143" />
			<rect x="301.854" y="438.906" fill="#ff6091" width="24" height="8.857" />
			<rect x="301.854" y="474.749" fill="#ff6091" width="24" height="6.571" />
			<rect x="301.854" y="510.906" fill="#ff6091" width="24" height="4.286" />
			<rect x="301.854" y="546.906" fill="#ff6091" width="24" height="2" />
		</g>
		<g>
			<rect x="271.134" y="330.906" fill="#ff6091" width="3" height="15.714" />
			<rect x="271.134" y="366.906" fill="#ff6091" width="3" height="13.429" />
			<rect x="271.134" y="402.906" fill="#ff6091" width="3" height="11.143" />
			<rect x="271.134" y="438.906" fill="#ff6091" width="3" height="8.857" />
			<rect x="271.134" y="474.749" fill="#ff6091" width="3" height="6.571" />
			<rect x="271.134" y="510.906" fill="#ff6091" width="3" height="4.286" />
			<rect x="271.134" y="546.906" fill="#ff6091" width="3" height="2" />
		</g>
		<g>
			<rect x="361.85" y="294.906" fill="#ff6091" width="24" height="18" />
			<rect x="361.85" y="330.906" fill="#ff6091" width="24" height="15.714" />
			<rect x="361.85" y="366.906" fill="#ff6091" width="24" height="13.429" />
			<rect x="361.85" y="402.906" fill="#ff6091" width="24" height="11.143" />
			<rect x="361.85" y="438.906" fill="#ff6091" width="24" height="8.857" />
			<rect x="361.85" y="474.749" fill="#ff6091" width="24" height="6.571" />
			<rect x="361.85" y="510.906" fill="#ff6091" width="24" height="4.286" />
			<rect x="361.85" y="546.906" fill="#ff6091" width="24" height="2" />
		</g>
		<g>
			<polygon fill="#ff6091"
				points="325.85,292.41 323.85,292.41 323.85,175.41 301.854,175.41 301.854,173.41 325.85,173.41 		" />
		</g>
		<g>
			<rect x="323.85" y="294.906" fill="#ff6091" width="2" height="33" />
		</g>
		<g>
			<rect x="323.85" y="330.906" fill="#ff6091" width="2" height="33.715" />
		</g>
		<g>
			<rect x="323.85" y="366.906" fill="#ff6091" width="2" height="18" />
		</g>
		<g>
			<rect x="323.85" y="387.906" fill="#ff6091" width="2" height="6" />
		</g>
		<g>
			<rect x="323.85" y="396.906" fill="#ff6091" width="2" height="3" />
		</g>
		<rect x="328.851" y="148.41" fill="#ff6091" width="54" height="72.267" />
		<rect x="328.851" y="221.331" fill="#ff6091" width="54" height="7.385" />
		<rect x="328.851" y="230.445" fill="#ff6091" width="54" height="6.309" />
		<rect x="328.851" y="239.562" fill="#ff6091" width="54" height="5.23" />
		<rect x="328.851" y="248.676" fill="#ff6091" width="54" height="4.154" />
		<rect x="328.851" y="257.792" fill="#ff6091" width="54" height="3.076" />
		<rect x="328.851" y="266.906" fill="#ff6091" width="54" height="2" />
		<rect x="400.25" y="243.906" fill="#ff6091" width="18" height="48" />
		<path fill="#1c2332" d="M421.25,240.906v54h-24c9.743,7.918,40.923,25,108.6,25v-58C450.85,261.906,421.25,240.906,421.25,240.906z
		" />
		<g>
			<path fill="#ff6091" d="M502.854,264.883v46c-8.67-0.109-16.68-0.699-24-1.609v-46.101
			C486.194,264.144,494.204,264.763,502.854,264.883z" />
			<path fill="#ff6091" d="M476.854,262.903v46.109c-6.58-0.88-12.59-2.01-18-3.27v-46.31
			C464.304,260.773,470.304,261.973,476.854,262.903z" />
			<path fill="#ff6091" d="M456.854,258.923v46.34c-4.42-1.079-8.43-2.239-12-3.399v-46.54
			C448.474,256.563,452.474,257.793,456.854,258.923z" />
			<path fill="#ff6091" d="M442.854,254.623v46.57c-2.17-0.74-4.17-1.48-6-2.19v-46.7
			C438.704,253.073,440.704,253.843,442.854,254.623z" />
			<path fill="#ff6091" d="M434.854,251.463v46.74c-0.7-0.28-1.36-0.56-2-0.84v-46.78
			C433.494,250.873,434.164,251.163,434.854,251.463z" />
		</g>
		<polygon fill="#ff6091" points="271.234,204.02 271.234,260.842 301.854,230.222 301.854,173.41 	" />
		<polygon fill="#ff6091" points="271.234,296.328 301.854,265.707 301.854,262.879 271.234,293.5 	" />
		<polygon fill="#ff6091" points="271.234,272.671 301.854,242.051 301.854,232.622 271.234,263.242 	" />
		<polygon fill="#ff6091" points="271.234,284.5 301.854,253.879 301.854,247.75 271.234,278.371 	" />
	</g>
	<g>
		<path fill="#1c2332" d="M1443,491.239v152.33h-391.33V593.41c0-4.511-3.66-8.171-8.17-8.171s-8.17,3.66-8.17,8.171v50.159H1021
		l7.06-75.399c-45.77-7.11-48.39-27.601-48.39-27.601h161.66v-40.33c0,0,13.79-2.51,44.67-4.88v-76.29c121.5,0,171-18.5,171-18.5h24
		v15.75l32.67,8.92v66H1443z" />
		<g>
			<g>
				<g>
					<g>
						<polygon fill="#ff6091" points="1067,643.569 1065,643.569 1065,566.569 1215,566.569 1215,622.902 1213,622.902 1213,568.569
						1067,568.569 					" />
					</g>
				</g>
				<g>
					<g>
						<polygon fill="#ff6091" points="1391,566.569 1316,566.569 1316,604.069 1318,604.069 1318,568.569 1389,568.569 1389,614.069
						1391,614.069 					" />
					</g>
				</g>
				<g>
					<g>
						<path fill="#ff6091" d="M1263.808,419.23v72.522c1.48-0.032,2.968-0.063,4.462-0.093v-72.793
						C1266.802,418.991,1265.314,419.112,1263.808,419.23z" />
					</g>
					<g>
						<path fill="#ff6091" d="M1296.231,415.949v75.345c0.332-0.002,0.668-0.003,1-0.005v-75.468
						C1296.897,415.863,1296.568,415.906,1296.231,415.949z" />
					</g>
					<g>
						<path fill="#ff6091" d="M1189,422.065v73.062c9.54-0.699,19.558-1.302,30-1.813v-71.717
						C1209.541,421.874,1199.552,422.039,1189,422.065z" />
					</g>
					<g>
						<path fill="#ff6091" d="M1285.423,417.216v74.177c0.717-0.009,1.434-0.017,2.154-0.024v-74.39
						C1286.866,417.058,1286.146,417.137,1285.423,417.216z" />
					</g>
					<g>
						<path fill="#ff6091" d="M1274.615,418.304v73.241c1.104-0.019,2.197-0.039,3.308-0.056v-73.501
						C1276.833,418.095,1275.73,418.2,1274.615,418.304z" />
					</g>
					<g>
						<path fill="#ff6091" d="M1220.577,421.551v71.687c2.992-0.144,6.014-0.28,9.077-0.408v-71.6
						C1226.684,421.348,1223.662,421.456,1220.577,421.551z" />
					</g>
					<g>
						<path fill="#ff6091" d="M1253,420.009v72.012c1.858-0.051,3.735-0.099,5.615-0.145v-72.253
						C1256.773,419.756,1254.898,419.884,1253,420.009z" />
					</g>
					<g>
						<path fill="#ff6091" d="M1231.385,421.159v71.596c2.615-0.106,5.258-0.206,7.923-0.301v-71.657
						C1236.714,420.927,1234.073,421.047,1231.385,421.159z" />
					</g>
					<g>
						<path fill="#ff6091" d="M1242.192,420.647v71.709c2.24-0.076,4.495-0.148,6.77-0.217v-71.876
						C1246.744,420.397,1244.486,420.526,1242.192,420.647z" />
					</g>
				</g>
				<g>
					<path fill="#ff6091" d="M1168.667,540.569v-22.666c21.583-12.084,60.024-20.662,140.667-20.662v-3.004
					c-103.004,0.129-153.705,6.836-165,8.554v37.777H1168.667z" />
				</g>
				<g>
					<polygon fill="#ff6091"
						points="1115.6,643.569 1117.6,643.569 1117.6,616.069 1109.6,616.069 1115.6,622.07 				" />
				</g>
				<g>
					<polygon fill="#ff6091"
						points="1128.8,643.569 1130.8,643.569 1130.8,616.069 1122.8,616.069 1128.8,622.07 				" />
				</g>
				<g>
					<polygon fill="#ff6091" points="1142,643.569 1144,643.569 1144,616.069 1136,616.069 1142,622.07 				" />
				</g>
				<g>
					<polygon fill="#ff6091"
						points="1155.2,643.569 1157.2,643.569 1157.2,616.069 1149.2,616.069 1155.2,622.07 				" />
				</g>
				<g>
					<polygon fill="#ff6091"
						points="1168.4,643.569 1170.4,643.569 1170.4,616.069 1162.4,616.069 1168.4,622.07 				" />
				</g>
				<g>
					<g>
						<path fill="#ff6091" d="M1435.724,543.821l0.327-1.252H982.328l0.846,1.493c4.174,7.368,20.308,24.507,79.826,24.507v-2
						c-54.655,0-71.867-14.357-77.147-22h447.574c-2.386,7.503-10.835,22-40.427,22v2
						C1425.735,568.569,1433.784,551.262,1435.724,543.821z" />
					</g>
				</g>
				<g>
					<g>
						<polygon fill="#ff6091" points="1314.333,496.238 1342.599,496.238 1342.599,494.238 1312.333,494.238 1312.333,540.569
						1314.333,540.569 					" />
					</g>
				</g>
				<g>
					<rect x="1360" y="441.049" fill="#ff6091" width="18" height="4.154" />
				</g>
				<g>
					<rect x="1360" y="447.203" fill="#ff6091" width="18" height="3.076" />
				</g>
				<g>
					<rect x="1360" y="452.279" fill="#ff6091" width="18" height="2" />
				</g>
				<g>
					<rect x="1360" y="403.569" fill="#ff6091" width="18" height="35.479" />
				</g>
				<g>
					<g>
						<rect x="1439" y="493.236" fill="#ff6091" width="2" height="34" />
					</g>
				</g>
				<g>
					<g>
						<rect x="1439" y="530.236" fill="#ff6091" width="2" height="33.715" />
					</g>
				</g>
				<g>
					<g>
						<rect x="1439" y="566.236" fill="#ff6091" width="2" height="18" />
					</g>
				</g>
				<g>
					<g>
						<rect x="1409.667" y="497.236" fill="#ff6091" width="2" height="6" />
					</g>
				</g>
				<g>
					<g>
						<rect x="1409.667" y="506.236" fill="#ff6091" width="2" height="3" />
					</g>
				</g>
				<g>
					<rect x="1425.25" y="505.069" fill="#ff6091" width="9.25" height="9.25" />
				</g>
				<g>
					<g>
						<polygon fill="#ff6091" points="1381,418.389 1381,420.469 1409.67,428.289 1409.67,495.239 1411.67,495.239 1411.67,426.76
											" />
					</g>
					<g>
						<rect x="1413.67" y="493.236" fill="#ff6091" width="26.33" height="2" />
					</g>
				</g>
				<g>
					<g>
						<path fill="#ff6091" d="M1031.938,570.729c9.271,1.221,19.714,1.84,31.062,1.84h3v-2h-3c-11.68,0-22.387-0.659-31.823-1.96
						l-1.035-0.143l-2.565,27.353l1.991,0.188L1031.938,570.729z" />
					</g>
				</g>
				<g>
					<g>

						<rect x="1027.156" y="597.748" transform="matrix(0.9956 0.0937 -0.0937 0.9956 60.8633 -93.7421)"
							fill="#ff6091" width="2" height="6.332" />
					</g>
				</g>
				<g>
					<g>

						<rect x="1026.518" y="605.863" transform="matrix(0.9956 0.0937 -0.0937 0.9956 61.4992 -93.6523)"
							fill="#ff6091" width="2" height="3.729" />
					</g>
				</g>
				<g>
					<g>

						<rect x="1026.047" y="611.4" transform="matrix(0.9957 0.0928 -0.0928 0.9957 61.2819 -92.6474)"
							fill="#ff6091" width="2" height="2.703" />
					</g>
				</g>
				<g>
					<g>
						<rect x="1053.67" y="614.793" fill="#ff6091" width="2" height="6.305" />
					</g>
				</g>
				<g>
					<g>
						<rect x="1053.67" y="622.902" fill="#ff6091" width="2" height="3.713" />
					</g>
				</g>
				<g>
					<g>
						<rect x="1053.67" y="628.438" fill="#ff6091" width="2" height="2.691" />
					</g>
				</g>
				<g>
					<g>
						<path fill="#ff6091" d="M1055.67,593.399c0-6.705-5.459-12.16-12.17-12.16v2c5.608,0,10.17,4.558,10.17,10.16v19.353h2V593.399
						z" />
					</g>
				</g>
				<g>
					<g>
						<path fill="#ff6091" d="M1041.674,583.402l-0.358-1.967c-1.792,0.325-3.52,1.069-4.997,2.151l1.182,1.613
						C1038.735,584.297,1040.178,583.675,1041.674,583.402z" />
					</g>
				</g>
				<g>
					<g>
						<polygon fill="#ff6091" points="1275,566.569 1267,566.569 1267,582.757 1269,582.757 1269,568.569 1273,568.569 1273,628.437
						1275,628.437 					" />
					</g>
				</g>
				<g>
					<g>
						<polygon fill="#ff6091" points="1262,572.569 1226.392,572.569 1226.392,595.913 1228.392,595.913 1228.392,574.569
						1260,574.569 1260,605.871 1262,605.871 					" />
					</g>
				</g>
				<g>
					<g>
						<path fill="#ff6091" d="M1223.196,568.569H1238c29.285,0,36.87-20.46,36.943-20.666l-1.886-0.668
						c-0.068,0.193-7.169,19.334-35.057,19.334h-16.804v29.344h2V568.569z" />
					</g>
				</g>
				<g>
					<g>
						<rect x="1274" y="572.569" fill="#ff6091" width="34" height="2" />
					</g>
				</g>
				<g>
					<g>
						<rect x="1341.599" y="527.236" fill="#ff6091" width="2" height="13.333" />
					</g>
				</g>
				<g>
					<g>
						<rect x="1377" y="470.569" fill="#ff6091" width="2" height="70" />
					</g>
				</g>
				<g>
					<g>
						<path fill="#ff6091" d="M1154.155,567.569c-6.917-7.473-12.514-15.551-16.65-24h-4.711c3.89,8.411,9.146,16.481,15.651,24
						H1154.155z" />
					</g>
					<g>
						<path fill="#ff6091" d="M1155.393,567.569h5.369c-6.872-7.487-12.443-15.563-16.559-24h-4.45
						c1.756,3.823,3.785,7.59,6.115,11.271C1148.653,559.241,1151.854,563.486,1155.393,567.569z" />
					</g>
					<g>
						<path fill="#ff6091" d="M1130.811,543.569h-5.076c3.89,8.422,9.163,16.49,15.679,24h6.153
						C1140.603,560.11,1134.969,552.032,1130.811,543.569z" />
					</g>
					<g>
						<path fill="#ff6091" d="M1063,567.569h77.979c-7.013-7.445-12.684-15.523-16.863-24h-5.428
						c3.844,8.331,9.033,16.309,15.451,23.734c-6.945-7.357-12.562-15.346-16.713-23.734h-5.793c2.054,4.457,4.491,8.812,7.3,13.031
						c-3.042-4.207-5.693-8.564-7.936-13.031h-6.269c1.332,2.877,2.819,5.724,4.477,8.526c-1.8-2.787-3.427-5.634-4.886-8.526
						h-6.506c0.682,1.464,1.393,2.92,2.157,4.36c-0.83-1.438-1.604-2.896-2.346-4.36H984.056
						C988.225,550.926,1004.167,567.569,1063,567.569z" />
					</g>
					<g>
						<path fill="#ff6091" d="M1167.084,567.569c-6.869-7.5-12.393-15.563-16.448-24h-3.988c3.851,8.409,9.091,16.466,15.612,24
						H1167.084z" />
					</g>
					<g>
						<path fill="#ff6091" d="M1181.658,543.569c3.804,8.368,8.993,16.414,15.484,24h2.648c-6.677-7.572-12.019-15.62-15.933-24
						H1181.658z" />
					</g>
					<g>
						<path fill="#ff6091" d="M1173.665,567.569c-6.82-7.514-12.302-15.578-16.335-24h-3.629c3.849,8.397,9.072,16.457,15.578,24
						H1173.665z" />
					</g>
					<g>
						<path fill="#ff6091" d="M1193.433,567.569c-6.676-7.557-12.058-15.619-16.027-24h-2.554c3.843,8.366,9.05,16.425,15.515,24
						H1193.433z" />
					</g>
					<g>
						<path fill="#ff6091" d="M1186.844,567.569c-6.724-7.542-12.139-15.605-16.129-24h-2.913c3.845,8.378,9.061,16.436,15.54,24
						H1186.844z" />
					</g>
					<g>
						<path fill="#ff6091" d="M1180.255,567.569c-6.772-7.528-12.22-15.592-16.232-24h-3.272c3.846,8.389,9.07,16.445,15.563,24
						H1180.255z" />
					</g>
				</g>
				<g>
					<path fill="#ff6091" d="M1390,546.569v2h27.165c-2.342,7.224-9.632,18-24.165,18v2c25.482,0,37.588-13.494,40.429-20.63
					l0.545-1.37H1390z" />
				</g>
			</g>
		</g>
	</g>
</svg>
