<?xml version="1.0" encoding="utf-8"?>
<!-- Generator: Adobe Illustrator 18.1.1, SVG Export Plug-In . SVG Version: 6.00 Build 0)  -->
<svg version="1.1" id="Layer_1" xmlns="http://www.w3.org/2000/svg" xmlns:xlink="http://www.w3.org/1999/xlink" x="0px"
	y="0px" viewBox="0 0 1600 720" enable-background="new 0 0 1600 720" xml:space="preserve">
	<polygon fill="#ffb196" points="1576.613,512.8 1576.613,516.821 1534.613,516.821 1534.613,519.618 1521.588,519.618
	1521.588,522.049 1512.613,522.049 1512.613,516.821 1492.613,516.821 1492.613,511.995 1464.613,511.995 1464.613,521.245
	1455.588,521.245 1455.588,518.544 1342.057,518.544 1342.057,522.164 1293.588,522.164 1293.588,517.338 1235.588,517.338
	1235.588,519.751 1141.588,519.751 1141.588,514.523 1061.588,514.523 1061.588,518.142 1001.588,518.142 1001.588,520.957
	971.588,520.957 971.588,516.131 944.588,516.131 944.588,523.37 891.613,523.37 891.613,520.153 842.613,520.153 842.613,513.027
	774.613,513.027 774.613,516.131 743.588,516.131 743.588,520.498 701.588,520.498 701.588,514.45 629.966,514.45 629.966,521.647
	588.613,521.647 588.613,524.665 535.588,524.665 535.588,519.349 516.991,519.349 516.991,515.213 426.613,515.213
	426.613,522.854 332.613,522.854 332.613,514.81 278.613,514.81 278.613,510.789 236.613,510.789 236.613,515.213 208.613,515.213
	208.613,509.985 130.613,509.985 130.613,518.028 90.613,518.028 90.613,512.398 -0.001,512.398 -0.001,720 1599.999,720
	1599.999,512.8 " />
</svg>
