<?xml version="1.0" encoding="utf-8"?>
<!-- Generator: Adobe Illustrator 18.1.1, SVG Export Plug-In . SVG Version: 6.00 Build 0)  -->
<svg version="1.1" id="Layer_1" xmlns="http://www.w3.org/2000/svg" xmlns:xlink="http://www.w3.org/1999/xlink" x="0px" y="0px"
	 viewBox="0 0 360 360" enable-background="new 0 0 360 360" xml:space="preserve">
<g>
	<path fill="#AF1E59" d="M321.596,217.646c-1.688-17.524-4.338-35.019-7.954-52.25c-3.116-14.849-7.039-29.518-11.648-43.971
		c-2.206-6.919-3.747-17.717-8.172-23.475c-0.219-0.286-2.806-3.011-5.076-4.68c1.486-1.887,1.41-4.802-1.175-9.205
		c-7.61-12.964-42.506-3.937-53.368-2.934c-21.305,1.968-42.639,3.508-63.927,5.72c-21.215,2.204-42.376,4.814-63.474,7.95
		c-8.529,1.268-21.461,1.214-29.333,4.992c-0.305,0.146-17.264,8.166-5.419,9.513c19.719,2.243,41.937-3.247,61.562-5.261
		c20.786-2.133,41.57-4.273,62.391-6.041c20.222-1.717,40.849-4.152,61.185-3.414c5.205,0.189,20.993,3.468,28.494,0.715
		c0.053,0.181,0.102,0.357,0.166,0.556c10.974,33.96,18.801,69.106,22.821,104.579c2.017,17.803,3.019,35.708,3.578,53.61
		c0.063,2.029,0.069,5.257,0.248,8.637c-20.019-8.487-124.678,11.828-139.191,13.539c-29.6,3.489-59.407,5.677-89.229,4.476
		c-7.03-0.283-19.014,0.582-24.773-4.863c-0.42-0.397-0.791-2.345-1.269-4.5c0.165-14.65-3.07-35.906-3.164-41.693
		c-0.291-17.777,0.109-35.597,1.194-53.343c0.974-15.937,2.576-31.806,4.548-47.648c0.524-4.21,4.959-18.756,2.346-22.85
		c-2.035-3.188-6.735-8.407-9.699-1.313c-13.275,31.784-14.04,73.44-14.836,107.349c-0.39,16.595-0.346,33.38,1.25,49.917
		c0.851,8.819,1.992,35.786,15.295,23.498c10.246,6.96,30.571,9.045,37.436,9.601c27.206,2.204,54.559,0.778,81.689-1.766
		c15.812-1.482,122.085-7.138,139.335-22.315c1.223,5.701,3.845,8.699,9.598,1.221C329.385,263.73,322.593,228.001,321.596,217.646z
		"/>
	<path fill="#AF1E59" d="M280.408,115.724c-8.04-0.914-21.036,14.347-26.618,18.773c-10.195,8.083-20.574,15.933-31.11,23.565
		c-13.422,9.722-33.994,31.157-50.113,25.592c-19.558-6.751-39.5-23.525-56.96-34.498c-9.839-6.183-19.84-12.13-29.514-18.571
		c-1.915-1.275-10.718-9.15-12.672-8.8c-0.788,0.141-6.81,1.073-3.105,4.025c20.138,16.045,39.485,32.546,60.775,47.118
		c15.886,10.872,39.824,33.895,60.536,26.913c21.593-7.28,43.94-28.776,61.892-42.396
		C259.781,152.692,308.86,118.956,280.408,115.724z"/>
	<path fill="#AF1E59" d="M145.83,188.821c-14.182,9.789-27.723,20.506-40.149,32.456c-1.71,1.645-29.959,28.419-15.87,28.318
		c10.067-0.072,27.26-25.215,34.344-32.065c6.22-6.015,13.101-11.634,19.007-17.958C140.607,202.308,156.218,181.651,145.83,188.821
		z"/>
	<path fill="#AF1E59" d="M282.179,231.035c5.174,3.725,21.126,19.767,27.585,11.557c6.3-8.01-10.87-18.1-15.297-21.802
		c-14.716-12.305-38.46-36.366-57.506-40.598c-5.352-1.189-15.612,0.41-8.857,7.762c-0.075,0.02-0.15,0.04-0.225,0.059
		C242.399,204.622,264.326,218.179,282.179,231.035z"/>
</g>
<g>
</g>
<g>
</g>
<g>
</g>
<g>
</g>
<g>
</g>
<g>
</g>
<g>
</g>
<g>
</g>
<g>
</g>
<g>
</g>
<g>
</g>
<g>
</g>
<g>
</g>
<g>
</g>
<g>
</g>
</svg>
