<?xml version="1.0" encoding="utf-8"?>
<!-- Generator: Adobe Illustrator 18.1.1, SVG Export Plug-In . SVG Version: 6.00 Build 0)  -->
<svg version="1.1" id="Layer_1" xmlns="http://www.w3.org/2000/svg" xmlns:xlink="http://www.w3.org/1999/xlink" x="0px" y="0px"
	 viewBox="0 0 360 360" enable-background="new 0 0 360 360" xml:space="preserve">
<g>
	<path fill="#AF1E59" d="M288.813,48.8c-9.091-7.993-18.093-17.689-31.245-16.861c-6.782,0.427-12.916,2.73-18.903,5.765
		c-10.656,5.401-20.681,12.181-30.574,18.842c-13.443,9.052-26.616,18.509-39.577,28.238c-14.263,10.707-28.42,21.647-41.787,33.467
		c-6.697,5.922-3.558,15.444,2.572,19.957c5.925,4.363,12.21,8.031,18.921,11.046c6.24,2.802,13.628,1.801,17.341-4.547
		c3.178-5.433,1.719-14.504-4.547-17.341c-1.278-0.578-2.535-1.188-3.781-1.814c17.853-14.723,35.955-27.719,55.996-41.502
		c10.461-7.194,21.044-14.298,32.06-20.624c1.904-1.093,3.822-2.164,5.775-3.167c0.769-0.395,1.549-0.767,2.322-1.153
		c0.027-0.013,0.055-0.024,0.082-0.038c1.655-0.336,3.609-1.576,5.079-1.615c0.848-0.022,2.105,0.934,2.201,1.015
		c2.299,1.951,4.522,3.99,6.766,6.002c15.667,14.051,31.315,28.126,47.004,42.153c-13.069,11.27-25.395,23.289-37.469,35.68
		c-12.698,13.032-25.733,25.487-39.471,37.323c-2.668-2.096-5.25-4.301-7.749-6.649c-5.974-5.614-10.165-11.142-18.304-13.655
		c-6.021-1.859-13.687,3.33-13.109,9.987c0.518,5.98,1.87,9.857,5.703,14.523c2.411,2.936,5.044,5.679,7.764,8.331
		c6.038,5.886,12.671,11.15,19.561,16.002c5.274,3.714,11.792,1.395,16.253-2.097c34.71-27.171,62.188-62.072,96.533-89.701
		c5.381-4.329,4.953-14.434,0-18.822C325.814,81.232,307.289,65.043,288.813,48.8z"/>
	<path fill="#AF1E59" d="M121.598,225.825c9.442-11.41,17.806-23.477,27.862-34.429c9.61-10.467,19.876-20.335,30.719-29.519
		c10.64-9.012,21.884-17.302,33.537-24.957c5.941-3.903,12.007-7.616,18.185-11.133c3.318-1.889,6.641-3.802,10.026-5.57
		c1.374-0.718,4.957-2.715,6.131-2.215c2.793,1.188,5.829,1.245,8.122-1.048c1.943-1.943,2.795-5.767,1.048-8.122
		c-5.102-6.877-12.967-7.636-20.571-4.615c-7.681,3.052-15.061,7.086-22.278,11.093c-14.11,7.834-27.555,16.705-40.345,26.544
		c-13.028,10.022-25.412,20.818-36.934,32.547c-11.493,11.701-23.652,24.457-32.385,38.399
		C98.369,222.931,113.704,235.365,121.598,225.825z"/>
	<path fill="#AF1E59" d="M190.174,217.199c-8.177-6.872-15.835-14.298-22.719-22.469c-4.536-5.385-13.748-4.677-18.424,0
		c-5.293,5.293-4.6,13.072,0,18.424c3.955,4.602,8.128,8.89,12.526,12.938c-25.317,22.034-46.804,48.464-63.259,77.719
		c-9.665-8.024-19.139-16.274-28.375-24.793c-6.403-5.907-12.7-11.929-18.885-18.064c-3.093-3.067-6.157-6.163-9.194-9.285
		c-0.79-0.812-1.574-1.631-2.36-2.447c1.857-2.625,3.442-5.931,5.071-8.362c2.336-3.484,4.719-6.937,7.147-10.357
		c4.601-6.48,9.359-12.846,14.323-19.052c5.242-6.553,10.638-12.989,16.199-19.275c3.751-4.24,8.163-8.328,12.139-12.656
		c3.721,2.412,7.115,5.671,9.941,8.568c7.268,7.449,20.145-2.188,14.538-11.217c-5.261-8.472-11.989-13.768-19.704-19.735
		c-3.989-3.085-9.349-4.817-14.031-1.811c-8.126,5.219-14.78,13.92-21.205,21.066c-6.411,7.131-12.584,14.464-18.514,21.999
		c-5.835,7.414-11.515,14.949-16.945,22.666c-2.759,3.922-5.458,7.885-8.096,11.89c-2.628,3.991-5.837,8.129-6.957,12.867
		c-2.781,11.759,7.61,19.87,14.913,27.315c6.536,6.663,13.201,13.199,19.99,19.604c14.485,13.664,29.544,26.701,45.094,39.139
		c5.826,4.66,15.67,5.344,19.626-2.529c18.499-36.814,44.752-68.785,77.162-94.219C195.258,231.134,194.961,221.222,190.174,217.199
		z"/>
</g>
</svg>
