<?xml version="1.0" encoding="utf-8"?>
<!-- Generator: Adobe Illustrator 18.1.1, SVG Export Plug-In . SVG Version: 6.00 Build 0)  -->
<svg version="1.1" id="Layer_1" xmlns="http://www.w3.org/2000/svg" xmlns:xlink="http://www.w3.org/1999/xlink" x="0px" y="0px"
	 viewBox="0 0 360 360" enable-background="new 0 0 360 360" xml:space="preserve">
<g>
	<path fill="#AF1E59" d="M339.543,225.553c-9.108-5.16-21.697-3.861-31.909-4.124c-10.302-0.266-20.604-0.453-30.909-0.577
		c-11.185-0.135-22.37-0.212-33.556-0.243c1.723-8.262,3.464-16.521,5.245-24.771c4.616-21.383,9.456-42.717,14.495-64.003
		c8.238-1.116,16.475-2.232,24.712-3.348c4.93-0.668,9.849-1.368,14.763-2.145c2.439-0.385,4.879-0.766,7.317-1.156
		c0.459,0.195,0.93,0.37,1.424,0.5c6.016,1.582,12.246-1.058,15.387-6.386c3.711-6.295,0.758-14.794-5.356-18.37
		c-5.051-2.954-10.906-2.026-16.389-1.397c-11.712,1.344-23.402,2.881-35.083,4.48c4.491-17.862,9.122-35.698,13.122-53.664
		c2.045-9.185,11.697-34.886-6.063-34.886c-7.896,0-10.558,7.665-8.729,13.189c-0.233,0.776-0.426,1.617-0.633,2.246
		c-0.815,2.477-1.627,4.955-2.437,7.434c-1.619,4.959-3.215,9.916-4.688,14.92c-3.033,10.309-6.043,20.623-8.855,30.995
		c-2.091,7.711-4.144,15.433-6.179,23.159c-2.714,0.377-5.428,0.753-8.143,1.125c-18.649,2.558-37.277,5.271-55.896,8.049
		c2.293-6.411,4.586-12.821,6.879-19.232c3.158-8.829,8.594-19.252,7.572-28.797c-0.731-6.83-8.145-10.49-13.557-5.616
		c-6.41,5.773-9.153,15.409-12.319,23.218c-3.364,8.296-6.728,16.592-10.092,24.889c-1.261,3.109-2.506,6.224-3.75,9.34
		c-16.217,2.461-32.43,4.947-48.647,7.405c-12.428,1.884-24.818,4.035-37.22,6.085c-5.871,0.97-11.77,1.836-17.622,2.913
		c-3.226,0.594-6.497,1.22-9.68,2.016c-1.542,0.385-2.718,0.499-4.199,1.365c-0.639,0.494-1.279,0.988-1.918,1.482
		c-1.655,2.156-1.972,2.562-0.951,1.216c-7.136,1.511-5.637,13.281,1.735,12.821c-0.131-0.105-0.261-0.21-0.392-0.316
		c-1.023-0.82-0.514-0.431,1.527,1.167c1.096,0.641,2.293,0.941,3.524,1.125c2.334,0.348,4.833-0.053,7.179-0.2
		c4.621-0.288,9.208-0.757,13.812-1.252c9.208-0.991,18.415-1.981,27.623-2.972c18.108-1.948,36.18-4.183,54.26-6.374
		c0.185-0.022,0.37-0.045,0.555-0.068c-1.602,4.102-3.202,8.205-4.803,12.308c-8.285,21.224-16.464,42.486-24.607,63.762
		c-6.959,0.269-13.917,0.552-20.876,0.863c-22.984,1.031-45.876,3.102-68.769,5.339c-10.568,1.033-11.042,16.805,0,16.826
		c26.962,0.05,53.924-0.046,80.885-0.112c-1.35,3.538-2.702,7.076-4.052,10.614c-7.068,18.529-14.044,37.084-20.466,55.848
		c-1.957,5.717,2.242,12.233,7.815,13.764c6.462,1.776,11.407-2.222,13.764-7.815c10.081-23.92,19.326-48.183,28.523-72.459
		c26.339-0.028,52.677,0.034,79.014,0.341c-1.613,7.443-3.209,14.89-4.769,22.344c-2.399,11.465-4.79,22.937-7.009,34.438
		c-1.11,5.751-2.275,11.512-3.164,17.301c-0.515,3.352-1.284,6.858-1.446,10.241c-0.171,3.55,0.873,7.008,1.445,10.484
		c1.513,9.196,15.018,9.82,19.207,2.51c3.403-5.939,5.336-11.398,6.694-18.114c1.29-6.38,2.421-12.802,3.585-19.206
		c2.213-12.182,4.495-24.352,6.845-36.508c1.49-7.708,3.017-15.408,4.561-23.105c10.29,0.191,20.579,0.427,30.868,0.722
		c11.302,0.323,22.602,0.711,33.902,1.083c11.871,0.391,25.904,2.955,36.894-2.212C347.741,242.198,346.811,229.67,339.543,225.553z
		 M268.753,26.903C268.293,25.313,269.248,25.78,268.753,26.903L268.753,26.903z M215.889,220.633
		c-24.66,0.12-49.309,0.581-73.952,1.333c0.001-0.002,0.001-0.004,0.002-0.006c9.939-26.056,19.886-52.135,29.478-78.329
		c22.22-2.735,44.43-5.548,66.626-8.476c-0.891,3.505-1.784,7.01-2.663,10.518c-6.243,24.914-12.186,49.901-17.831,74.956
		C216.996,220.631,216.442,220.63,215.889,220.633z"/>
</g>
</svg>
