<?xml version="1.0" encoding="utf-8"?>
<!-- Generator: Adobe Illustrator 18.1.1, SVG Export Plug-In . SVG Version: 6.00 Build 0)  -->
<svg version="1.1"
	 id="svg2" xmlns:inkscape="http://www.inkscape.org/namespaces/inkscape" xmlns:cc="http://creativecommons.org/ns#" xmlns:dc="http://purl.org/dc/elements/1.1/" xmlns:svg="http://www.w3.org/2000/svg" xmlns:rdf="http://www.w3.org/1999/02/22-rdf-syntax-ns#" xmlns:sodipodi="http://sodipodi.sourceforge.net/DTD/sodipodi-0.dtd" sodipodi:version="0.32" inkscape:version="0.48.4 r9939" sodipodi:docname="bdan-logo4.svg" inkscape:output_extension="org.inkscape.output.svg.inkscape" inkscape:export-filename="/home/jensens/Desktop/bda-logo-neu2.png" inkscape:export-xdpi="720" inkscape:export-ydpi="720" sodipodi:modified="true"
	 xmlns="http://www.w3.org/2000/svg" xmlns:xlink="http://www.w3.org/1999/xlink" x="0px" y="0px" viewBox="0 0 600 145.5"
	 enable-background="new 0 0 600 145.5" xml:space="preserve">
<path fill="#FFFFFF" d="M590.9,145.5H9.1c-5,0-9.1-4.1-9.1-9.1V9.1C0,4.1,4.1,0,9.1,0h581.8c5,0,9.1,4.1,9.1,9.1v127.3
	C600,141.4,595.9,145.5,590.9,145.5z"/>
<sodipodi:namedview  pagecolor="#ffffff" showgrid="false" id="base" inkscape:cx="168.91076" inkscape:cy="897.37999" showguides="true" inkscape:zoom="1.5560496" bordercolor="#666666" borderopacity="1.0" inkscape:pageopacity="0.0" inkscape:pageshadow="2" inkscape:document-units="px" inkscape:current-layer="layer1" inkscape:guide-bbox="true" inkscape:window-width="1600" inkscape:window-height="839" inkscape:window-x="0" inkscape:window-y="42" inkscape:window-maximized="0">
	<sodipodi:guide  orientation="horizontal" position="206.93428,958.19568" id="guide5145"></sodipodi:guide>
	<sodipodi:guide  orientation="horizontal" position="995.89582" id="guide5149"></sodipodi:guide>
	<sodipodi:guide  orientation="vertical" position="59.235351" id="guide2174"></sodipodi:guide>
	<sodipodi:guide  orientation="vertical" position="139.13914" id="guide4138"></sodipodi:guide>
	<sodipodi:guide  orientation="vertical" position="152.16329" id="guide4140"></sodipodi:guide>
	<sodipodi:guide  orientation="horizontal" position="974.36085" id="guide4142"></sodipodi:guide>
	<sodipodi:guide  orientation="horizontal" position="1011.3701" id="guide4144"></sodipodi:guide>
	<sodipodi:guide  orientation="horizontal" position="943.70655" id="guide6092"></sodipodi:guide>
	<sodipodi:guide  orientation="horizontal" position="980.64391" id="guide2183"></sodipodi:guide>
	<sodipodi:guide  orientation="horizontal" position="976.43943" id="guide2185"></sodipodi:guide>
	<sodipodi:guide  orientation="vertical" position="112.33561" id="guide8978"></sodipodi:guide>
	<sodipodi:guide  orientation="vertical" position="86.102814" id="guide8980"></sodipodi:guide>
	<sodipodi:guide  orientation="vertical" position="119.31692" id="guide2193"></sodipodi:guide>
</sodipodi:namedview>
<g id="layer1" inkscape:label="Ebene 1" inkscape:groupmode="layer">
	<g id="text5141">
		<path id="path3020" fill="#13467D" d="M245.9,27.5c1.4,0,2.5-0.2,3.2-0.9c0.9-0.7,1.4-1.4,1.6-2.5c0.2-1.1,0-2-0.5-2.5
			c-0.7-0.7-1.6-0.9-3-0.9h-4.8l-1.4,7h4.8 M243.4,42c1.8,0,3.2-0.5,4.1-1.1s1.6-1.8,2-3.2c0.2-1.4,0-2.5-0.7-3.2s-1.8-1.1-3.6-1.1
			h-5l-1.8,8.6H243.4 M253.6,30.2c1.8,0.5,3,1.6,3.6,3c0.7,1.4,0.9,3.2,0.5,5.2c-0.7,3.2-2.3,5.5-4.8,7c-2.5,1.6-5.9,2.3-10.2,2.3
			h-14.1l6.6-33.2H248c4.5,0,7.7,0.7,9.5,2c1.8,1.4,2.3,3.6,1.8,6.6c-0.2,1.6-0.9,3-2,4.1C256.4,28.6,255.2,29.5,253.6,30.2"/>
		<path id="path3022" fill="#13467D" d="M269.8,13.4h8L270.9,48h-8L269.8,13.4"/>
		<path id="path3024" fill="#13467D" d="M280,38.2l3-15.2h8l-0.5,2.5c-0.2,1.4-0.7,3-1.1,5c-0.5,2-0.7,3.4-0.9,4.1
			c-0.5,2-0.7,3.4-0.7,4.3s0,1.6,0.2,1.8c0.2,0.5,0.5,0.9,0.9,1.1c0.5,0.2,1.1,0.5,1.8,0.5c1.6,0,3.2-0.7,4.3-1.8
			c1.1-1.4,2-3,2.5-5.2L300,23h8l-5,24.8h-8l0.7-3.6c-1.6,1.4-3,2.5-4.3,3.2c-1.6,0.7-3,0.9-4.5,0.9c-3,0-4.8-0.9-6.1-2.7
			C279.8,44.1,279.3,41.6,280,38.2"/>
		<path id="path3026" fill="#13467D" d="M338,35.5l-0.5,2.3h-18.6c-0.2,1.8,0.2,3.2,1.1,4.1s2.5,1.4,4.5,1.4c1.6,0,3.4-0.2,5.2-0.7
			c1.8-0.5,3.9-1.4,5.9-2.3l-1.1,6.1c-2,0.7-4.1,1.1-5.9,1.6c-2,0.5-3.9,0.5-5.7,0.5c-4.5,0-7.7-1.1-9.8-3.4s-2.7-5.5-1.8-9.5
			c0.9-4.1,2.7-7.3,5.5-9.5c3-2.3,6.6-3.4,10.7-3.4c3.9,0,6.8,1.1,8.6,3.6C338.2,28.2,338.9,31.4,338,35.5 M330.5,32.7
			c0.2-1.6,0.2-2.7-0.7-3.6c-0.7-0.9-1.8-1.4-3.2-1.4c-1.6,0-3,0.5-4.1,1.4c-1.1,0.9-2,2-2.5,3.6H330.5"/>
		<path id="path3028" fill="#13467D" d="M355.7,21.1l-4.1,20.2h3c3.4,0,6.4-0.9,8.4-2.5c2.3-1.8,3.6-4.3,4.3-7.5s0.2-5.7-1.4-7.5
			c-1.6-1.8-4.1-2.5-7.5-2.5h-2.7 M348.4,14.8h9.1c5,0,8.6,0.5,10.9,1.1s4.1,1.8,5.7,3.6c1.4,1.6,2,3.2,2.5,5.2
			c0.5,2,0.2,4.1-0.2,6.6c-0.5,2.5-1.4,4.8-2.5,6.6c-1.1,2-2.7,3.6-4.5,5.2c-2,1.8-4.5,3-7,3.6c-2.5,0.7-6.4,1.1-11.4,1.1h-9.1
			L348.4,14.8"/>
		<path id="path3030" fill="#13467D" d="M380.9,23h8l3.4,16.8l9.1-16.8h8l-15.9,27c-1.6,2.7-3.2,4.8-4.8,5.7
			c-1.6,1.1-3.6,1.6-5.9,1.6h-4.5l1.1-5.2h2.5c1.4,0,2.3-0.2,3-0.7c0.7-0.5,1.4-1.1,1.8-2.3l0.5-0.7L380.9,23"/>
		<path id="path3032" fill="#13467D" d="M436.8,32.7l-3,15h-8.2l0.5-2.5l1.8-9.1c0.5-2,0.7-3.6,0.7-4.3c0-0.9,0-1.4,0-1.8
			c-0.2-0.5-0.5-0.9-1.1-1.1c-0.5-0.2-1.1-0.5-1.8-0.5c-1.6,0-3.2,0.7-4.3,1.8c-1.1,1.4-2,3-2.5,5.2l-2.3,12.3h-7.7l5-24.8h8
			l-0.7,3.6c1.6-1.4,3-2.5,4.5-3.2c1.4-0.7,3-1.1,4.5-1.1c3,0,4.8,0.9,5.9,2.7C437.3,26.8,437.5,29.3,436.8,32.7"/>
		<path id="path3034" fill="#13467D" d="M454.5,36.6c-1.6,0-3,0.2-3.9,0.9c-0.9,0.5-1.6,1.4-1.8,2.5c-0.2,0.9,0,1.8,0.5,2.3
			c0.5,0.5,1.4,0.9,2.7,0.9c1.6,0,3-0.5,4.1-1.6c1.1-1.1,2-2.5,2.3-4.1l0.2-0.9H454.5 M467.3,33.6l-2.7,14.1h-8l0.7-3.6
			c-1.4,1.6-2.7,2.5-4.3,3.4c-1.4,0.7-3.2,0.9-5,0.9c-2.5,0-4.5-0.7-5.9-2.3c-1.4-1.6-1.8-3.4-1.1-5.9c0.7-3,2-5,4.3-6.4
			c2.3-1.4,5.5-2,9.8-2h4.8l0.2-0.7c0.2-1.4,0-2.3-0.9-2.7c-0.9-0.7-2.3-0.9-4.5-0.9c-1.6,0-3.4,0.2-4.8,0.5c-1.6,0.2-3,0.9-4.3,1.6
			l1.1-6.1c1.8-0.5,3.6-0.7,5.2-0.9c1.8-0.2,3.4-0.2,5.2-0.2c4.5,0,7.5,0.9,9.1,2.7C467.5,26.8,468,29.8,467.3,33.6"/>
		<path id="path3036" fill="#13467D" d="M498.9,27c1.4-1.6,2.7-2.7,4.3-3.4c1.6-0.9,3.2-1.1,4.8-1.1c3,0,4.8,0.9,5.9,2.7
			c1.1,1.8,1.4,4.3,0.7,7.7l-3,15h-8l2.5-13c0-0.2,0-0.5,0.2-0.7c0-0.2,0.2-0.5,0.2-0.9c0.5-1.8,0.5-3,0-3.9
			c-0.5-0.9-1.1-1.1-2.3-1.1c-1.6,0-2.7,0.7-3.9,1.8c-1.1,1.1-1.8,3-2.3,5.5L495.7,48h-8l2.5-13c0.5-2.7,0.7-4.5,0.2-5.2
			c-0.2-0.9-1.1-1.1-2.3-1.1c-1.6,0-2.7,0.7-3.9,1.8c-1.1,1.1-1.8,3-2.3,5.5l-2.5,12.3h-8l5-24.8h8.2l-0.7,3.6
			c1.4-1.4,2.5-2.5,4.1-3.2c1.6-0.7,3-1.1,4.3-1.1c1.8,0,3.2,0.5,4.3,1.1C497.7,24.5,498.4,25.7,498.9,27"/>
		<path id="path3038" fill="#13467D" d="M524.1,23h8l-5,24.8h-8L524.1,23 M525.9,13.4h8l-1.4,6.4h-8L525.9,13.4"/>
		<path id="path3040" fill="#13467D" d="M559.5,23.9l-1.4,6.4c-0.9-0.7-1.8-1.4-3-1.6c-1.1-0.2-2-0.5-3.2-0.5c-2.3,0-4.1,0.7-5.5,2
			c-1.6,1.4-2.5,3.2-3,5.5c-0.5,2.3-0.2,4.1,0.7,5.5c0.9,1.4,2.5,1.8,4.8,1.8c1.1,0,2.5-0.2,3.6-0.5c1.1-0.5,2.3-0.9,3.4-1.6
			l-1.4,6.6c-1.4,0.5-2.7,0.9-4.1,0.9c-1.4,0.2-2.5,0.5-3.9,0.5c-4.5,0-7.7-1.1-9.8-3.4c-2-2.3-2.7-5.5-1.8-9.5
			c0.9-4.1,2.7-7.3,5.7-9.5c3-2.3,6.8-3.4,11.1-3.4c1.4,0,2.5,0.2,3.9,0.5C557.3,23,558.4,23.4,559.5,23.9"/>
		<path id="path3042" fill="#13467D" d="M585.9,23.9l-1.1,6.1c-1.6-0.7-3.2-1.1-4.5-1.6c-1.6-0.5-3-0.5-4.3-0.5
			c-1.6,0-2.7,0.2-3.4,0.7c-0.9,0.5-1.4,0.9-1.4,1.8c-0.2,0.7,0,1.1,0.5,1.4c0.5,0.2,1.4,0.7,2.7,0.7l1.4,0.2
			c3.9,0.5,6.6,1.4,7.7,2.5s1.6,3,0.9,5.5c-0.5,2.7-1.8,4.5-4.1,5.9c-2.3,1.4-5.2,2-9.1,2c-1.6,0-3.4-0.2-5-0.5
			c-1.6-0.2-3.4-0.7-5.2-1.1l1.1-5.9c1.4,0.7,3,1.4,4.5,1.8c1.6,0.5,3.2,0.7,5,0.7c1.6,0,2.7-0.2,3.6-0.7c0.9-0.5,1.4-1.1,1.6-1.8
			c0.2-0.7,0-1.1-0.5-1.6c-0.5-0.5-1.4-0.7-3-0.9l-1.4-0.2c-3.4-0.5-5.7-1.4-7-2.5c-1.1-1.1-1.6-3-1.1-5.5c0.5-2.7,1.8-4.5,3.9-5.9
			c2-1.4,5-1.8,8.6-1.8c1.4,0,3,0,4.5,0.2C582.3,23,584.1,23.4,585.9,23.9"/>
	</g>
	<g id="text3149">
		<path id="path3045" fill="#E41E26" d="M249.3,68.2L240,84.5h12.3L249.3,68.2 M247.7,63.9h5l5.9,33.2h-4.5l-1.4-8.4h-15L233,97
			h-4.8L247.7,63.9"/>
		<path id="path3047" fill="#E41E26" d="M270.2,62.3h4.1l-6.8,34.5h-4.1L270.2,62.3"/>
		<path id="path3049" fill="#E41E26" d="M282.7,62.3h4.1L280,96.8h-4.1L282.7,62.3"/>
		<path id="path3051" fill="#E41E26" d="M293.4,72h4.1l-5,24.8h-4.1L293.4,72 M295.5,62.3h4.1l-0.9,5.2h-4.1L295.5,62.3"/>
		<path id="path3053" fill="#E41E26" d="M314.8,84.3c-3.2,0-5.7,0.5-7,1.1c-1.4,0.7-2.3,2-2.7,3.9c-0.2,1.4,0,2.5,0.7,3.4
			s2,1.4,3.6,1.4c2.3,0,4.3-0.9,5.9-2.5c1.6-1.6,2.7-3.6,3.4-6.4l0.2-0.9L314.8,84.3 M323.4,82.7l-2.7,14.1h-4.1l0.7-3.9
			c-1.1,1.6-2.5,2.7-4.1,3.4c-1.6,0.7-3.4,1.1-5.2,1.1c-2.5,0-4.3-0.7-5.7-2c-1.1-1.4-1.6-3.4-1.1-5.7c0.5-2.7,1.8-5,4.1-6.4
			c2-1.4,5-2,8.9-2h5.7v-0.5c0.5-1.8,0-3.4-0.9-4.3c-0.9-1.1-2.7-1.6-4.8-1.6c-1.4,0-2.7,0.2-4.3,0.5c-1.4,0.2-2.7,0.9-4.1,1.6
			l0.7-3.9c1.6-0.7,3.2-0.9,4.5-1.4c1.4-0.2,3-0.5,4.1-0.5c3.6,0,6.1,0.9,7.5,2.7C323.9,76.1,324.1,78.9,323.4,82.7"/>
		<path id="path3055" fill="#E41E26" d="M352.5,81.8l-3,15h-4.1l3-14.8c0.5-2.3,0.5-4.1-0.2-5.2c-0.7-1.1-2-1.8-3.9-1.8
			c-2.3,0-4.1,0.7-5.7,2c-1.6,1.4-2.5,3.4-3,5.7L333,96.8h-4.1l5-24.8h4.1l-0.7,3.9c1.4-1.6,2.7-2.5,4.1-3.4
			c1.4-0.7,3.2-1.1,4.8-1.1c3,0,4.8,0.9,5.9,2.7C353,75.9,353.2,78.4,352.5,81.8"/>
		<path id="path3057" fill="#E41E26" d="M380.2,73l-0.7,3.9c-0.9-0.7-2-1.1-3.2-1.4c-1.1-0.2-2.3-0.5-3.4-0.5
			c-2.7,0-4.8,0.9-6.6,2.5c-1.8,1.6-3,4.1-3.6,7c-0.7,3-0.5,5.5,0.7,7c1.1,1.6,3,2.5,5.7,2.5c1.1,0,2.3-0.2,3.6-0.5
			c1.1-0.2,2.5-0.9,3.9-1.4l-0.9,3.6c-1.4,0.5-2.5,0.9-3.9,1.1c-1.4,0.2-2.5,0.5-3.9,0.5c-3.6,0-6.4-1.1-8.2-3.4
			c-1.8-2.3-2.3-5.5-1.4-9.5c0.9-4.1,2.5-7.3,5.2-9.5c2.7-2.3,5.9-3.4,9.8-3.4c1.4,0,2.5,0.2,3.6,0.5C378.2,72,379.3,72.5,380.2,73"
			/>
		<path id="path3059" fill="#E41E26" d="M406.6,83.4l-0.5,2h-18.6c-0.5,2.7,0,5,1.1,6.4c1.1,1.4,3.2,2.3,5.9,2.3
			c1.6,0,3.2-0.2,4.8-0.7c1.6-0.5,3.2-0.9,4.8-1.8l-0.7,3.9c-1.6,0.7-3.2,1.1-4.8,1.4s-3.2,0.5-4.8,0.5c-3.9,0-6.8-1.1-8.6-3.4
			c-1.8-2.3-2.3-5.5-1.6-9.3c0.9-4.1,2.5-7.3,5.2-9.5c2.7-2.5,5.9-3.6,9.5-3.6c3.4,0,5.7,1.1,7.3,3.2
			C407,76.8,407.3,79.8,406.6,83.4 M402.7,82.3c0.5-2.3,0.2-4.1-0.9-5.5c-0.9-1.4-2.5-2-4.3-2c-2.3,0-4.3,0.7-5.9,1.8
			c-1.6,1.4-2.7,3.2-3.4,5.5L402.7,82.3"/>
	</g>
	<g id="g2195">
		
			<path id="path2160" sodipodi:type="arc" sodipodi:cx="367.14285" sodipodi:ry="72.85714" sodipodi:rx="72.85714" sodipodi:cy="370.93362" inkscape:export-filename="/home/jensens/Desktop/bda-logo-n.png" inkscape:export-xdpi="720.09052" inkscape:export-ydpi="720.09052" fill="#13467D" d="
			M103.4,97.7c-16.4,0-28.9-10.7-28-23.9c0.9-13.2,15-23.9,31.4-23.9s28.9,10.7,28,23.9C133.9,86.8,120,97.7,103.4,97.7z"/>
		
			<path id="path8976" sodipodi:nodetypes="csc" inkscape:connector-curvature="0" inkscape:export-filename="/home/jensens/Desktop/bda-logo-n.png" inkscape:export-xdpi="720.09052" inkscape:export-ydpi="720.09052" fill="#E41E26" d="
			M150.7,35c84.5,33.6,33,85.9-15,97.3C124.1,134.8,241.6,84.1,150.7,35z"/>
		
			<path id="path2191" sodipodi:nodetypes="csc" inkscape:connector-curvature="0" inkscape:export-filename="/home/jensens/Desktop/bda-logo-n.png" inkscape:export-xdpi="720.09052" inkscape:export-ydpi="720.09052" fill="#E41E26" d="
			M59.5,110.9c-84.5-33.6-33-85.9,15-97.3C86.1,11.1-31.4,61.8,59.5,110.9z"/>
	</g>
</g>
</svg>
