<svg xmlns="http://www.w3.org/2000/svg" xmlns:xlink="http://www.w3.org/1999/xlink" version="1.1" x="0px" y="0px" viewBox="0 0 488.822 508.49875" style="enable-background:new 0 0 488.822 406.799;" xml:space="preserve"><g><path d="M51.274,269.687c6.335-1.801,11.545-5.472,17.061-9.357c9.492-6.687,19.306-13.598,35.014-10.938   c14.891,2.525,22.244,9.361,28.152,14.854c3.649,3.392,6.531,6.071,10.441,7.229c6.37,1.888,12.021,0.734,18.563-0.6   c4.501-0.917,9.154-1.866,14.389-1.866c6.569,0,12.948,3.008,19.701,6.192c7.272,3.43,14.793,6.977,22.993,6.977   c8.747,0,13.6-3.848,19.219-8.303c4.027-3.192,8.19-6.493,13.917-8.37c6.982-2.289,14.396-1.184,21.564-0.119   c7.03,1.045,13.669,2.034,19.11-0.235c4.215-1.757,7.608-8.906,11.201-16.476c5.075-10.691,10.827-22.811,22.199-27.299   c12.772-5.042,24.903-0.336,34.65,3.446c5.37,2.084,10.443,4.052,14.558,4.052c5.918,0,12.17-3.28,18.789-6.753   c6.354-3.334,12.922-6.78,19.982-7.703c8.374-1.097,19.16,2.438,29.596,5.854c7.496,2.454,15.248,4.991,20.224,4.991   c8.488,0,20.457-6.145,25.851-9.386l-0.025-12.817c-5.586,4.013-14.517,8.623-26.088,8.623c-10.157,0-19.022-4.814-27.596-9.471   c-8.271-4.492-16.084-8.735-24.692-8.735c-8.728,0-13.199,4.018-18.377,8.67c-4.818,4.329-10.279,9.236-19.397,10.707   c-9.458,1.521-17.485-2.749-25.248-6.885c-8.229-4.383-16.006-8.522-25.914-6.884c-9.284,1.534-15.246,11.777-20.506,20.815   c-5.493,9.439-11.177,19.197-20.741,16.27c-10.461-3.205-9.618-18.678-8.727-35.06c0.659-12.101,1.406-25.815-2.998-30.466   c-0.664-0.702-1.838-1.635-4.348-1.635c-9.319,0-14.509,22.706-19.087,42.739c-5.487,24.009-10.67,46.687-24.329,51.873   c-2.754,1.046-5.315,1.501-7.705,1.501c-9.29,0.001-16.014-6.87-21.644-12.622c-4.213-4.304-8.192-8.369-12.395-9.163   c-5.286-0.993-9.519,2.484-14.42,6.519c-5.089,4.188-10.868,8.95-18.652,8.532c-7.514-0.389-12.593-6.176-17.505-11.773   c-5.633-6.419-11.459-13.057-21.525-13.937c-10.162-0.881-19.838,4.475-31.033,10.687c-9.611,5.333-20.507,11.377-33.424,14.082   c-19.15,4.007-34.057-1.461-42.073-5.714v12.679C9.017,266.831,37.113,273.714,51.274,269.687z"/><path d="M40.435,249.616c11.732-2.457,21.62-7.942,31.182-13.248c11.827-6.563,22.993-12.776,35.611-11.659   c13.265,1.159,20.792,9.736,26.841,16.629c4.166,4.747,7.765,8.847,11.906,9.062c4.697,0.212,8.613-2.985,13.154-6.721   c5.636-4.639,12.029-9.89,20.988-8.203c6.675,1.261,11.734,6.43,16.627,11.429c7.606,7.771,12.802,12.267,20.792,9.238   c9.655-3.666,14.816-26.251,19.37-46.178c5.754-25.176,11.188-48.956,26.886-48.956c4.142,0,7.559,1.391,10.156,4.134   c6.771,7.149,5.961,22.021,5.178,36.401c-0.588,10.806-1.395,25.604,3.082,26.977c3.245,1.001,6.661-4.359,11.483-12.646   c5.844-10.041,13.116-22.536,26.115-24.684c12.595-2.078,22.358,3.123,30.979,7.716c7.197,3.834,13.412,7.153,20.214,6.047   c6.795-1.096,10.748-4.647,15.324-8.759c5.592-5.024,11.931-10.72,23.724-10.72c10.641,0,19.726,4.934,28.511,9.705   c8.05,4.372,15.652,8.501,23.777,8.501c14.121,0,23.705-8.677,26.068-11.057L488.114,44.2   c-16.491,21.823-58.844,72.735-104.012,85.95c-33.656,9.849-57.873-0.462-79.235-9.559c-15.544-6.619-28.966-12.338-44.128-10.229   c-19.117,2.659-32.401,17.686-44.122,30.942c-10.9,12.331-21.197,23.978-34.698,23.978c-14.748,0-22.3-14.44-28.963-27.181   c-7.374-14.1-12.495-22.517-21.444-20.473c-12.446,2.835-14.718,24.12-16.722,42.9c-1.4,13.122-2.723,25.516-7.446,32.513   c-8.479,12.558-18.655,12.221-26.085,11.975c-3.483-0.113-6.488-0.215-8.583,0.935c-2.582,1.417-4.472,4.224-6.658,7.475   c-3.779,5.616-8.482,12.605-19.107,15.2c-2.462,0.602-4.699,0.857-6.75,0.857c-6.956,0-11.754-2.954-15.789-5.438   c-3.032-1.868-5.651-3.481-8.833-3.794c-6.37-0.619-12.47,1.497-15.537,2.81v19.368C4.649,245.485,19.848,253.929,40.435,249.616z"/><path d="M35.979,325.395c5.219,11.545,11.134,24.629,19.146,24.629c5.73,0,10.66-5.671,16.367-12.236   c7.657-8.809,17.187-19.771,32.797-19.771c18.084,0,27.214,12.631,34.549,22.779c3.692,5.108,7.181,9.933,10.984,11.941   c4.551,2.402,30.956,4.703,67.286,4.377c35.336-0.312,63.701-3.008,70.583-6.708c4.147-2.231,7.546-7.256,11.143-12.575   c5.682-8.404,12.599-18.62,25.396-20.867c2.505-10.123,12.372-43.741,33.414-46.398c19.092-2.408,33.117,16.997,38.554,26.039   c5.875-4.646,12.372-7.642,19.374-7.642c22.729,0,38.466,23.255,48.879,38.643c3.399,5.023,6.61,9.768,8.67,11.469   c5.153,4.257,11.541,6.639,15.586,7.824l-0.238-121.851c-6.367,3.407-16.935,8.215-25.868,8.215   c-6.251,0-14.247-2.617-22.712-5.388c-9.59-3.139-19.507-6.384-26.07-5.525c-5.645,0.738-11.308,3.71-17.303,6.855   c-7.186,3.771-14.617,7.669-22.506,7.669c-5.611,0-11.363-2.231-17.451-4.594c-9.321-3.616-18.958-7.355-28.819-3.463   c-8.436,3.33-13.252,13.476-17.909,23.288c-4.27,8.995-8.303,17.492-15.351,20.43c-7.499,3.124-15.564,1.925-23.365,0.764   c-6.538-0.972-12.713-1.892-17.896-0.192c-4.368,1.432-7.803,4.154-11.438,7.037c-5.933,4.703-12.655,10.034-24.189,10.034   c-9.992,0-18.712-4.112-26.405-7.74c-5.92-2.792-11.511-5.429-16.289-5.429c-4.427,0-8.489,0.828-12.791,1.705   c-6.954,1.418-14.146,2.886-22.433,0.433c-5.71-1.691-9.551-5.262-13.617-9.041c-5.659-5.262-11.511-10.701-24.043-12.827   c-12.453-2.108-20.154,3.312-29.068,9.592c-5.819,4.1-11.837,8.339-19.48,10.513c-15.206,4.324-42.189-1.76-53.462-4.688v20.499   c5.528,1.287,16.568,4.698,24.711,12.629C29.033,310.03,32.406,317.494,35.979,325.395z"/><path d="M16.319,212.29c5.021,0.493,8.859,2.856,12.246,4.942c4.764,2.935,8.878,5.472,16.445,3.622   c7.615-1.86,10.896-6.734,14.368-11.896c2.537-3.771,5.161-7.67,9.448-10.021c4.015-2.204,8.428-2.059,12.695-1.916   c7.08,0.23,13.187,0.437,19.189-8.456c3.611-5.348,4.888-17.313,6.122-28.886c2.288-21.442,4.882-45.746,22.899-49.852   c15.605-3.55,23.418,11.385,30.311,24.565c6.156,11.771,11.971,22.889,21.874,22.889c9.896,0,18.612-9.859,28.705-21.276   c12.639-14.297,26.964-30.501,49.014-33.567c17.36-2.413,32.418,4.002,48.364,10.793c21.109,8.99,42.939,18.285,73.854,9.241   c50.845-14.876,100.26-83.332,106.232-91.824L488.027,0c-16.216,24.826-56.623,81.188-99.998,99.494   c-34.094,14.386-55.919,5.58-77.026-2.937c-13.6-5.487-27.66-11.154-45.278-10.491c-25.849,0.983-42.261,16.722-55.448,29.368   c-9.918,9.511-17.766,17.008-27.042,16.077c-9.119-0.927-15.738-9.439-22.746-18.452c-9.451-12.156-19.226-24.73-35.578-20.853   c-15.315,3.627-24.098,23.778-33.395,45.112c-8.192,18.799-16.663,38.236-30.809,49.317C36.759,205.396,11.072,201.347,0,198.271   v16.213C4.15,213.052,10.044,211.67,16.319,212.29z"/><path d="M47.678,141.146c11.006-20.121,14.092-50.916,9.135-87.153c-3.148,31.941-10.896,56.277-22.286,68.907   c-6.374,7.067-14.691,11.105-22.854,11.105c-0.077,0-0.152,0-0.229-0.001C7.358,133.967,3.5,132.916,0,130.916v28.832   C20.177,167.132,37.039,160.592,47.678,141.146z"/><path d="M365.895,341.491c4.297-10.005,12.78-27.338,24.266-39.345c-1.043-1.818-2.68-4.48-4.814-7.384l-2.889,2.423   c-3.519,2.951-8.258,3.964-12.671,2.71l-2.777-0.787c-2.15-0.615-4.419,0.04-5.919,1.696l-2.221,2.452   c-2.678,2.959-6.435,4.549-10.265,4.549c-1.816,0-3.649-0.357-5.392-1.097l-6.462-2.74c-1.81,4.557-3.217,9.012-4.202,12.694   C348.57,318.275,360.092,332.439,365.895,341.491z"/><path d="M488.721,355.198c-4.364-1.087-13.374-3.906-20.698-9.956c-2.945-2.434-6.146-7.164-10.199-13.153   c-2.993-4.423-6.472-9.561-10.412-14.519l-7.615,7.998c-4.399,4.62-10.964,6.474-17.13,4.84l-8.429-2.234   c-2.824-0.749-5.791-0.17-8.128,1.593l-4.942,3.725c-3.151,2.376-6.849,3.548-10.527,3.548c-4.187,0-8.341-1.534-11.655-4.517   c-3.971,7.586-6.985,14.743-8.7,19.521c-0.547,1.524-1.959,2.568-3.575,2.646c-1.636,0.082-3.121-0.828-3.811-2.293   c-0.062-0.132-3.141-6.525-8.515-13.156l-2.986,2.625c-3.381,2.972-7.871,4.283-12.316,3.603l-6.459-0.989   c-2.009-0.311-4.067,0.256-5.641,1.549l-2.233,1.836c-2.766,2.274-6.15,3.462-9.603,3.462c-1.633,0-3.28-0.266-4.886-0.808   l-8.507-2.873c-2.967,4.045-6.139,7.583-10.275,9.807c-9.856,5.302-46.272,7.725-80.366,7.725   c-30.135,0.001-58.454-1.893-65.028-5.364c-3.846-2.031-6.978-5.396-9.982-9.266l-5.333,1.646c-1.588,0.49-3.232,0.73-4.872,0.73   c-3.407,0.001-6.793-1.038-9.617-3.03l-3.356-2.365c-2.246-1.584-5.141-2.003-7.745-1.12l-3.44,1.167   c-5.73,1.942-12.064,0.62-16.535-3.45l-4.797-4.365c-0.969,1.084-1.925,2.182-2.877,3.277c-6.7,7.707-13.028,14.987-22.405,14.987   c-13.175,0-20.22-15.584-26.436-29.333c-3.107-6.875-6.321-13.984-9.56-17.138C13.186,305.765,5.03,302.816,0,301.454v105.345   h488.822L488.721,355.198z"/><path d="M104.288,326.017c-7.503,0-13.258,3.404-18.3,8.004l4.6,4.186c2.321,2.113,5.608,2.799,8.58,1.791l3.44-1.167   c5.018-1.701,10.596-0.896,14.925,2.158l3.356,2.365c2.171,1.531,4.98,1.978,7.52,1.193l2.67-0.824   C124.535,334.738,117.427,326.017,104.288,326.017z"/><path d="M306.487,340.797l6.335,2.139c2.36,0.8,4.922,0.33,6.848-1.254l2.234-1.837c3.326-2.733,7.673-3.927,11.931-3.276   l6.46,0.989c2.106,0.321,4.224-0.298,5.821-1.702l2.83-2.488c-5.283-4.919-11.865-8.861-19.402-8.861   C318.167,324.507,312.319,332.224,306.487,340.797z"/><path d="M352.939,297.888l2.222-2.452c3.558-3.929,8.937-5.47,14.032-4.023l2.778,0.787c1.859,0.528,3.859,0.103,5.344-1.143   l2.917-2.447c-5.691-6.004-13.171-11.17-21.588-10.106c-7.784,0.983-14.042,9.002-18.635,18.158l6.328,2.683   C348.621,300.313,351.275,299.727,352.939,297.888z"/><path d="M396.353,327.102l4.942-3.725c4.31-3.249,9.774-4.32,14.994-2.937l8.428,2.234c3.341,0.885,6.901-0.12,9.287-2.625   l8.177-8.587c-7.532-8.091-16.437-14.5-26.61-14.5c-12.357,0-23.986,13.85-32.573,28.35l1.063,1.03   C387.435,329.609,392.604,329.929,396.353,327.102z"/></g><text x="0" y="421.799" fill="#000000" font-size="5px" font-weight="bold" font-family="'Helvetica Neue', Helvetica, Arial-Unicode, Arial, Sans-serif">Created by Amethyst Studio</text><text x="0" y="426.799" fill="#000000" font-size="5px" font-weight="bold" font-family="'Helvetica Neue', Helvetica, Arial-Unicode, Arial, Sans-serif">from the Noun Project</text></svg>