<?xml version="1.0" encoding="UTF-8" standalone="no"?>
<svg
   viewBox="0 0 480.00479 144.00261"
   enable-background="new 0 0 600 360"
   version="1.1"
   id="svg6"
   sodipodi:docname="ploneconf2015-logo-light.svg"
   inkscape:version="1.3 (1:1.3+202307231459+0e150ed6c4)"
   width="480.00479"
   height="144.00261"
   xmlns:inkscape="http://www.inkscape.org/namespaces/inkscape"
   xmlns:sodipodi="http://sodipodi.sourceforge.net/DTD/sodipodi-0.dtd"
   xmlns:xlink="http://www.w3.org/1999/xlink"
   xmlns="http://www.w3.org/2000/svg"
   xmlns:svg="http://www.w3.org/2000/svg">
  <defs
     id="defs6">
    <linearGradient
       id="linearGradient4"
       inkscape:collect="always">
      <stop
         style="stop-color:#0186c4;stop-opacity:1;"
         offset="0"
         id="stop4" />
      <stop
         style="stop-color:#ffffff;stop-opacity:1;"
         offset="1"
         id="stop5" />
    </linearGradient>
    <linearGradient
       inkscape:collect="always"
       xlink:href="#linearGradient4"
       id="linearGradient5"
       x1="313.50186"
       y1="183.98816"
       x2="312.45557"
       y2="108.62756"
       gradientUnits="userSpaceOnUse" />
  </defs>
  <sodipodi:namedview
     id="namedview6"
     pagecolor="#ffffff"
     bordercolor="#666666"
     borderopacity="1.0"
     inkscape:showpageshadow="2"
     inkscape:pageopacity="0.0"
     inkscape:pagecheckerboard="0"
     inkscape:deskcolor="#d1d1d1"
     showgrid="false"
     inkscape:zoom="2.3016666"
     inkscape:cx="249.81898"
     inkscape:cy="153.8016"
     inkscape:window-width="1920"
     inkscape:window-height="1135"
     inkscape:window-x="0"
     inkscape:window-y="0"
     inkscape:window-maximized="1"
     inkscape:current-layer="g6" />
  <g
     id="g6"
     transform="translate(-60.002209,-105.15915)">
    <path
       fill="#1c2332"
       d="m 537.196,140.903 c -1.886,-1.787 -3.997,-3.21 -6.51,-3.968 -1.297,-0.392 -2.574,-0.337 -3.858,0.136 -7.053,2.6 -14.238,4.76 -21.582,6.377 -7.052,1.553 -14.174,2.582 -21.397,2.83 -6.497,0.224 -12.938,-0.276 -19.31,-1.578 -0.87,-0.18 -1.697,-0.06 -2.525,0.178 -0.314,0.09 -0.623,0.2 -1.1,0.354 1.628,-2.363 3.118,-4.13 2.09,-6.97 -0.88,-2.437 -2.103,-4.685 -3.707,-6.707 -4.24,-5.345 -9.648,-8.827 -16.404,-10.086 -4.566,-0.852 -9.07,-0.454 -13.488,0.88 -4.525,1.365 -10.86,4.637 -14.192,8.75 -3.893,4.81 -7.287,13.426 -7.066,19.848 -7.707,2.904 -13.24,8.402 -15.963,15.588 -0.143,0.376 -0.407,0.18 -0.29,-0.145 0.857,-2.34 1.705,-4.684 2.238,-7.132 2.815,-12.934 -1.074,-23.128 -12.342,-29.55 -4.684,-2.67 -9.785,-3.883 -15.165,-3.974 -12.4,-0.21 -22.136,4.893 -29,10.34 -3.372,2.674 -3.43,6.558 -3.452,9.184 -0.038,4.38 0.724,8.55 4.447,8.742 2.916,0.15 5.323,-0.877 7.064,-3.284 0.34,-0.47 0.67,-0.953 0.934,-1.467 0.34,-0.662 0.84,-1.085 1.517,-1.377 5.58,-2.408 11.174,-2.47 16.67,0.142 4.26,2.023 6.55,5.623 7.437,10.176 1.882,9.663 -6.335,20.807 -14.658,24.623 -0.453,-3.753 -1.176,-14.23 -0.617,-20.067 0.25,-2.61 0.367,-5.24 -0.083,-7.854 -0.49,-2.84 -2.606,-4.593 -5.48,-4.41 -3.025,0.193 -5.472,1.59 -7.426,3.86 -0.35,0.41 -0.598,0.924 -0.815,1.424 -1.22,2.818 -1.974,5.77 -2.457,8.796 -0.312,1.958 -0.636,3.915 -0.975,5.997 -0.754,0.182 -1.534,0.372 -2.386,0.58 -2.09,-8.58 -5.928,-26.035 -7.492,-44.186 -0.427,-4.96 -0.777,-9.922 -0.912,-14.898 -0.02,-0.7 -0.052,-1.406 -0.145,-2.1 -0.227,-1.704 -1.176,-2.803 -2.713,-3.628 -1.482,-0.795 -3.848,-1.582 -5.41,-0.92 -2.468,1.044 -6.173,2.62 -7.64,3.278 -1.933,0.868 -3.006,2.342 -3.525,4.383 -4.84,18.435 -13.775,66.547 -13.775,66.547 l -2.79,0.427 c 0,0 -1.373,-24.565 -1.594,-29.475 -0.16,-3.57 -0.437,-7.134 -1.383,-10.605 -0.552,-2.025 -1.875,-3.22 -3.933,-3.63 -1.12,-0.223 -2.2,-0.044 -3.245,0.313 -2.062,0.704 -3.833,1.87 -5.28,3.51 -0.766,0.865 -1.262,1.856 -1.506,2.99 -0.624,2.903 -1.005,5.837 -1.105,8.803 -0.177,5.28 0.27,24.625 0.355,30.583 l -5.307,0.608 c 0.738,-25.088 1.653,-49.273 0.605,-56.695 -0.384,-2.715 -2.418,-4.6 -5.16,-4.695 -3.735,-0.128 -6.84,1.31 -9.33,4.078 -1.182,1.315 -1.542,2.94 -1.672,4.65 -0.377,4.962 -0.774,9.923 -1.164,14.884 -0.064,0.82 -0.133,1.64 -0.21,2.586 -1.812,-0.883 -3.633,-0.754 -5.552,-0.215 -0.195,-0.276 -0.406,-0.564 -0.607,-0.86 -1.94,-2.863 -4.377,-5.172 -7.527,-6.657 -5.165,-2.436 -10.244,-2.1 -15.21,0.587 -3.298,1.784 -6,4.295 -8.42,7.12 -5.497,6.408 -8.29,13.135 -10.038,19.105 -1.452,-6.065 -4.87,-15.387 -11.33,-18.96 -3.014,-1.667 -7.215,-1.667 -11.212,1.984 0.18,-0.165 -2.42,-5.433 -3.48,-7.868 -0.818,-1.882 -2.33,-2.837 -4.274,-3.215 -4.632,-0.9 -11.772,1.637 -13.63,6.852 -2,5.61 -5.498,18.228 -5.498,18.228 -2.317,-4.02 -4.568,-8.037 -7.82,-11.443 12.63,-13.464 2.89,-34.377 -11.956,-37.298 -3.878,-0.764 -7.756,-0.844 -11.665,-0.454 -12.842,1.28 -46.54,10.25 -59.112,16.38 -1.644,0.803 -3.075,1.9 -4.184,3.352 -1.853,2.425 -2.184,5.33 0.143,8.002 1.784,2.05 16.642,19.937 18.495,22.13 1.84,2.18 4.372,2.338 6.664,1.422 -1.21,11.258 -2.412,22.462 -3.616,33.685 -2.163,-0.747 -4.072,-0.89 -6.653,-0.197 -3.38,0.908 -6.446,2.443 -9.09,4.756 -1.453,1.272 -2.703,2.94 -2.703,5.558 0,3.75 1.7,7.982 4.474,12.01 7.56,10.968 22.705,15.99 37.848,14.995 27.502,-1.806 42.048,-17.307 49.185,-28.155 3.463,10.625 10.212,21.56 19.96,22.812 3.45,0.443 6.84,0.116 10.117,-1.03 9.714,-3.39 16.103,-9.82 20.003,-19.416 3.437,8.752 6.753,14.208 10.91,16.85 7.917,5.033 18.102,3.505 25.606,-2.724 6.2,-5.147 6.46,-13.362 5.72,-16.777 -0.614,-2.847 -3.53,-4.18 -6.254,-3.63 -1.225,0.247 -2.27,0.847 -3.246,1.617 -1.686,1.33 -3.637,2.026 -5.772,2.026 -4.446,0 -8.314,-5.083 -8.314,-18.845 0,-6.595 0.767,-16.585 5.378,-24.19 0.294,-0.487 0.708,-0.36 0.7,0.11 -0.11,5.916 1.085,9.974 2.304,13.348 0.14,0.384 -0.002,0.64 -0.183,0.925 -1.087,1.71 -1.684,3.576 -1.84,5.597 -0.332,4.337 1.182,12.858 8.097,16.054 2.043,0.945 4.203,1.49 6.42,1.77 1.664,0.21 3.345,0.285 5.018,0.422 0.147,0.012 0.293,0.03 0.51,0.053 0.13,15.97 2.086,25.53 2.81,28.652 0.714,3.082 3.254,4.828 6.388,4.204 3.918,-0.778 6.715,-3.82 7.022,-6.823 0.69,-6.746 1.288,-17.574 1.695,-27.17 2.59,-0.286 5.13,-0.565 7.754,-0.853 0.752,6.438 2.364,16.607 3.656,23.48 0.462,2.458 2.634,4.985 6.585,4.81 -0.5,3.186 -1.14,7.902 -1.34,9.915 -0.51,5.092 1.495,5.62 4.583,5.457 2.197,0 5.26,-1.07 6.464,-1.645 1.665,-0.797 2.638,-2.152 2.973,-4.027 1.335,-7.482 7.878,-42.086 8.004,-42.72 3.858,-0.772 7.705,-1.544 11.623,-2.33 5.697,21.58 12.427,40.58 23.956,48.744 13.062,9.25 29.22,6.31 38.003,-2.103 1.684,-1.614 3.12,-3.426 4.06,-5.602 0.578,-1.345 1.257,-2.647 1.862,-3.98 0.82,-1.806 0.567,-3.664 -0.682,-4.94 -1.19,-1.213 -2.688,-1.578 -4.3,-1.248 -1.126,0.23 -2.247,0.594 -3.3,1.057 -2.957,1.296 -6.028,1.975 -9.25,1.936 -4.657,-0.057 -12.82,-3.752 -16.335,-11.445 8.353,-3.177 9.403,-9.957 7.818,-14.57 l 0.634,-0.34 c 3.262,4.357 6.827,8.45 10.71,12.27 5.146,5.06 10.85,9.38 17.14,12.93 1.466,0.827 2.973,1.04 4.59,0.683 2.89,-0.64 5.464,-1.932 7.685,-3.88 0.703,-0.615 1.266,-1.392 1.955,-2.163 l 0.45,0.192 c -1.677,2.177 -2.768,4.643 -4,7.02 -1.107,2.14 0.016,4.61 2.292,5.548 2.142,0.884 12.3,4.143 22.013,4.143 31.793,-1.15 45.417,-23.56 45.637,-46.86 6.64,-3.692 10.937,-12.43 10.62,-24.238 l 1.084,-0.047 c -2.63,22.503 -6.44,54.72 -5.822,66.367 0.192,3.616 3.013,5.084 5.704,4.748 8.802,-1.098 14.812,-8.593 15.657,-12.784 3.902,-19.345 4.823,-46.167 5.58,-60.416 6.808,-1.353 17.822,-4.612 27.453,-8.595 0.84,-0.347 1.54,-0.842 2.137,-1.523 1.752,-1.997 3.512,-3.988 5.293,-5.96 0.76,-0.84 1.52,-1.66 1.766,-2.815 v -1.65 c -0.452,-1.746 -1.533,-3.083 -2.808,-4.292 z m -358.975,38.43 c 0.49,-6.147 2.41,-15.806 3.383,-20.394 3.06,1.978 5.775,7.28 6.7,14.816 0.975,7.946 1.875,21.397 -3.3,32.35 -0.547,1.156 -2.25,4.707 -3.514,4.632 -1.273,-0.076 -5.25,-6.45 -3.27,-31.405 z m 260.662,12.802 c -2.174,-0.127 -4.16,0.537 -6.064,1.486 -2.014,1.006 -3.654,2.41 -4.696,4.464 -0.51,1.005 -1.132,1.955 -1.71,2.926 -0.902,1.522 -2.272,2.438 -3.922,2.966 -3.076,0.986 -7.26,-2.67 -8.512,-4.43 12.626,-9.886 16.684,-20.677 17.487,-28.298 5.357,3.04 11.04,9.314 13.973,15.932 4.897,11.054 3.098,25.94 0.156,29.206 -5.13,5.697 -12.21,5.327 -18.858,3.605 6.65,-3.752 14.888,-10.618 17.064,-21.534 0.66,-3.31 -1.536,-6.123 -4.918,-6.32 z m 12.955,-39.106 -0.92,1.626 c -1.705,-1.258 -6.265,-3.608 -9.303,-5.048 -2.425,-1.15 -10.856,-5.163 -13.213,-9.295 1.315,-0.43 2.532,-0.232 3.724,-0.014 4.643,0.848 8.76,2.793 12.238,6.02 1.307,1.215 2.435,2.583 3.263,4.166 0.83,1.588 2.36,2.426 4.212,2.543 z m -44.258,32.146 c -0.55,-4.348 -0.49,-11.278 0.02,-14.3 0.126,-0.753 0.315,-0.864 1.038,-0.653 2.018,0.586 3.132,3.08 3.37,5.544 0.436,4.512 -1.517,7.472 -4.43,9.41 z M 111.03,139.943 c 7.68,-2.645 16.592,-3.154 18.777,-1.85 -2.33,3.917 -11.734,10.506 -19.217,13.49 0.15,-3.927 0.293,-7.753 0.44,-11.64 z m 27.392,42.282 c 0.626,9.135 -2.078,17.12 -8.554,23.7 -5.347,5.434 -14.788,9.22 -21.652,9.22 l 1.493,-40.162 c 7.828,-2.77 15.355,-6.084 22.54,-10.417 3.01,3.226 5.69,10.626 6.172,17.66 z"
       id="path1"
       style="fill:#141924;fill-opacity:1" />
    <g
       fill="#ffffff"
       id="g5" />
    <path
       fill="#fff"
       d="m 402.415,214.477 c -5.935,-4.758 -11.855,-9.692 -17.235,-15.076 -2.282,-2.283 -9.34,-9.876 -13.136,-14.944 4.94,-3.525 9.27,-7.867 12.565,-13.033 5.81,-9.112 9.502,-22.4 3.073,-32.156 -6.396,-9.704 -18.748,-12.396 -29.51,-9.924 -5.992,1.376 -11.81,4.015 -16.706,7.745 -0.937,0.714 -3.735,2.61 -3.26,4.17 0.567,1.858 3.38,1.118 4.378,0.428 1.683,-1.162 2.068,-3.53 3.7,-4.58 2.948,-1.898 8.163,-3.005 10.167,-3.043 13.344,-0.256 21.747,7.51 21.887,20.253 0.138,12.71 -8.327,27.415 -20.2,32.488 -1.002,0.43 -2.632,1.07 -4.063,1.91 -0.49,-3.213 -0.875,-6.44 -1.136,-9.683 -0.315,-3.926 -0.443,-7.887 -0.353,-11.825 0.09,-3.98 0.902,-8.217 0.323,-12.156 -0.42,-2.855 -5.646,0.16 -6.286,1.605 -2.226,5.016 -2.973,10.96 -3.092,16.79 -0.243,0.055 -0.466,0.112 -0.652,0.162 -2.868,0.768 -5.745,1.498 -8.627,2.21 -5.582,-21.64 -8.687,-43.882 -9.29,-66.233 -0.008,-0.352 0.052,-1.172 -0.445,-1.38 l -1.442,-0.606 c -0.497,-0.21 -1.164,-0.307 -1.846,-0.075 -1.12,0.382 -6.194,2.684 -7.365,3.394 -0.376,0.228 -0.62,0.692 -0.763,1.254 -5.202,20.587 -8.922,41.7 -12.81,62.565 -0.518,2.787 -1.027,5.576 -1.53,8.365 -3.22,0.53 -6.45,1.018 -9.68,1.478 -0.176,-2.178 -0.352,-4.357 -0.526,-6.534 -0.513,-6.385 -0.87,-12.776 -1.15,-19.174 -0.268,-6.117 -0.01,-12.662 -1.513,-18.608 -0.677,-2.677 -6.07,1.087 -6.428,2.6 -1.492,6.304 -1.256,13.246 -1.195,19.71 0.06,6.454 0.283,12.91 0.62,19.354 0.07,1.358 0.16,2.71 0.255,4.06 -4.823,0.687 -9.73,1.333 -14.585,1.5 0.09,-4.047 0.18,-8.093 0.3,-12.134 0.477,-16.358 0.954,-32.715 1.4,-49.075 0.11,-4.038 -8.235,-0.86 -8.524,2.544 -1.257,14.808 -2.074,29.596 -2.432,44.44 -3.592,-0.21 -7.046,0.38 -10.613,2.017 -3.987,1.83 -9.105,5.234 -9.702,10.023 -1.087,8.717 11.563,9.344 20.022,8.953 -0.015,10.946 0.317,21.903 1.696,32.715 0.39,3.064 5.783,0.46 6.01,-1.793 1.052,-10.514 1.435,-21.09 1.7,-31.674 5.08,-0.483 10.147,-1.05 15.202,-1.702 0.896,9.465 2.34,18.802 4.2,28.206 0.69,3.485 8.382,0.267 8.102,-2.62 -0.872,-8.978 -1.633,-17.978 -2.366,-26.977 2.717,-0.41 5.43,-0.85 8.14,-1.31 -2.788,15.85 -5.31,31.736 -7.537,47.68 -0.054,0.385 0.198,0.79 0.727,0.663 1.445,-0.35 4.67,-1.16 4.88,-2.322 2.81,-15.764 5.737,-31.515 8.815,-47.233 6.026,-1.11 12.034,-2.34 18.018,-3.68 0.09,0.35 0.175,0.7 0.267,1.05 3.122,11.852 6.815,23.73 11.697,34.986 10.726,24.73 31.34,23.095 40.978,17.46 2.96,-1.733 5.51,-3.978 7.293,-6.667 1.417,-2.14 -1.997,-0.805 -2.994,-0.332 -4.697,2.226 -18.957,6.11 -28.128,-7.618 -6.844,-10.244 -10.41,-23.192 -13.98,-34.865 -0.723,-2.368 -1.405,-4.747 -2.068,-7.13 0.558,-0.142 1.118,-0.28 1.675,-0.422 1.756,-0.45 4.184,-1.334 6.212,-2.556 0.044,1.595 0.12,3.16 0.21,4.67 0.51,8.615 2.442,17.066 5.738,25.033 1.115,2.698 8.408,-0.924 7.698,-3.754 -0.928,-3.7 -1.738,-7.425 -2.418,-11.173 0.098,-0.028 0.19,-0.055 0.278,-0.082 2.87,-0.9 5.695,-2.006 8.426,-3.315 1.212,2.773 3.402,5.487 5.132,7.725 2.33,3.015 4.88,5.88 7.534,8.61 5.293,5.442 11.104,9.98 17.72,13.704 1.962,1.108 10.304,-3.643 8.545,-5.053 z m -147.22,-36.24 c -0.05,2.932 -0.1,5.87 -0.136,8.812 -3.386,-0.52 -7.437,-1.73 -8.468,-4.842 -0.248,-0.75 -0.286,-1.567 -0.14,-2.345 0.152,-0.82 1.496,-1.585 2.807,-1.582 1.38,0.004 2.77,0.11 4.148,0.186 0.565,0.03 1.175,-0.08 1.787,-0.266 v 0.037 z m 50.574,3.656 c 0.72,-3.63 1.437,-7.263 2.174,-10.89 2.086,-10.25 4.403,-20.45 6.74,-30.643 0.263,2.53 0.548,5.056 0.875,7.577 1.348,10.39 3.257,20.706 5.698,30.895 -5.144,1.112 -10.31,2.128 -15.49,3.06 z m -114.893,35.714 c -4.905,3.84 -11.572,6.645 -17.886,5.418 -5.322,-1.034 -8.81,-5.206 -10.873,-9.99 -9,-20.86 -4.402,-45.837 2.416,-66.573 0.755,-2.298 3.91,-3.848 6.067,-4.35 1.055,-0.244 5.167,-0.597 4.646,1.74 -2.267,10.174 -4.023,20.507 -4.787,30.907 -0.48,6.517 -0.415,13.097 0.47,19.578 0.803,5.867 2.103,13.15 6.052,17.85 9.2,10.954 14.883,-11.98 15.41,-17.868 0.64,-7.155 0.26,-14.49 -0.703,-21.596 -0.847,-6.252 -1.84,-13.577 -6.503,-18.268 -2.23,-2.245 3.938,-4.987 5.823,-3.946 6.067,3.35 7.888,10.146 9.264,16.48 1.558,7.17 2.526,14.54 2.456,21.887 -0.102,10.754 -3.057,21.846 -11.853,28.73 z m 37.576,-64.29 c -2.008,0 -5.07,2.885 -7.416,11.612 -1.88,6.993 -2.633,14.348 -2.098,21.574 0.517,6.996 2.04,14.51 5.508,20.682 5.177,9.213 14.64,4.82 17.01,2.696 1.53,-1.372 3.205,-0.99 2.838,0.17 -1.757,5.56 -6.718,8.813 -11.31,10.564 -4.825,1.84 -10.55,2.566 -15.082,-0.42 -8.45,-5.57 -10.816,-17.898 -11.586,-27.248 -0.878,-10.665 0.925,-21.34 4.8,-31.335 3.308,-8.53 10.077,-16.97 16.642,-19.205 6.566,-2.235 11.496,1.655 13.217,3.443 1.734,1.802 3.136,3.963 4.183,6.293 2.746,-1.4 5.805,-2.246 5.654,-0.574 -0.444,4.93 -2.106,9.697 -3.84,14.312 -1.007,2.68 -12.374,8.203 -12.29,4.666 0.237,-10.195 -2.905,-17.23 -6.23,-17.23 z m 236.265,48.55 c -2.41,9.908 -8.314,18.346 -17.193,23.325 -13.32,7.47 -27.26,6.672 -41.414,1.523 -1.33,-0.484 2.677,-2.88 3.18,-3.16 1.55,-0.872 5.208,-2.438 7.074,-1.772 6.532,2.33 13.866,4.314 20.86,3.197 6.036,-0.965 11.565,-6.112 12.975,-8.424 4.956,-8.128 6.29,-17.824 5.063,-27.154 -1.98,-15.037 -11.734,-26.065 -25.248,-32.376 -6.115,-2.856 -14.558,-7.19 -14.9,-15.02 -0.298,-6.864 4.894,-11.916 10.523,-14.878 6.823,-3.59 14.93,-4.79 22.13,-1.536 5.582,2.523 10.39,7.604 12.162,13.51 0.222,0.74 -3.99,2.63 -4.26,2.08 -3.57,-7.297 -11.872,-12.207 -19.742,-13.303 -5.416,-0.756 -9.8,1.938 -10.823,4.284 -1.51,3.46 -1.363,7.052 0.713,10.22 4.88,7.45 13.68,9.22 20.807,13.71 6.032,3.8 11.25,8.874 14.604,15.212 4.844,9.157 5.927,20.527 3.488,30.56 z m 71.805,-56.028 c -11.992,5.027 -23.99,8.642 -36.14,10.187 -0.995,10.39 -2.11,20.77 -3.192,31.152 -1.36,13.036 -1.814,26.675 -4.985,39.417 -0.5,2.003 -8.42,5.825 -8.56,3.257 -0.362,-6.63 0.617,-13.422 1.376,-20.01 0.728,-6.315 1.557,-12.62 2.348,-18.927 1.428,-11.388 2.855,-22.774 4.38,-34.15 -6.065,0.262 -12.176,-0.022 -18.352,-0.94 4.795,7.642 5.077,18.222 0.5,26.168 -0.42,0.73 -2.87,1.358 -4.047,1.815 -0.36,0.14 -0.49,-0.19 -0.425,-0.467 1.473,-6.227 2.17,-12.163 -0.138,-18.38 -2.133,-5.744 -6.253,-10.324 -11.81,-12.814 -0.286,-0.13 -0.564,-0.59 -0.13,-0.887 0.87,-0.595 5.857,-3.64 6.954,-3.39 23.81,5.415 50.796,-2.736 65.042,-8.057 2.124,-0.795 9.048,5.24 7.18,6.023 z m -105.395,53.99 c -1.42,3.99 -5.425,8.195 -9.928,8.525 -5.12,0.374 -10.658,-4.954 -13.228,-8.875 -0.885,-1.35 -1.622,-2.792 -2.238,-4.295 2.105,-0.698 4.12,-1.636 5.95,-2.736 9.914,-5.97 20.333,-21.533 14.21,-33.366 -3.104,-5.995 -10.084,-6.966 -16.01,-5.02 -7.293,2.398 -12.693,8.097 -14.9,15.415 -0.842,2.79 -1.447,5.808 -1.78,8.92 -0.91,0.186 -1.99,0.647 -2.36,1.062 -4.456,5 -8.014,12.215 -0.017,15.643 1.212,0.52 2.47,0.88 3.748,1.106 1.606,5.593 4.436,10.674 8.773,14.41 5.943,5.125 12.843,5.944 19.982,2.958 6.648,-2.78 14.005,-8.06 15.936,-15.387 1.075,-4.08 -7.236,-0.897 -8.138,1.64 z m -38.144,-18.66 c -0.14,2.673 -0.072,5.386 0.227,8.062 -2.843,-2.358 -1.947,-5.38 -0.226,-8.062 z m 11.39,9.903 c -0.815,-3.14 -1.217,-6.402 -1.358,-9.542 -0.266,-5.922 -0.054,-12.85 2.77,-18.2 1.405,-2.66 3.22,-4.62 6.436,-3.883 2.365,0.542 4.172,2.316 5.222,4.438 2.257,4.563 1.372,10.28 -0.558,14.787 -2.33,5.44 -6.326,10.9 -12.362,12.37 -0.047,0.014 -0.1,0.02 -0.15,0.03 z M 88.05,228.05 c -4.798,-1.018 -9.183,-2.844 -12.875,-6.13 -3.87,-3.445 -5.632,-6.917 -5.898,-12.057 -0.162,-3.125 11.208,-8.718 12.998,-5.574 1.264,2.217 2.718,4.244 4.336,6.06 1.875,-24.52 5.485,-69.844 6.29,-79.928 -3.513,0.94 -7.01,1.948 -10.48,3.042 -2.53,0.798 -5.063,1.784 -7.61,2.723 0.62,1.053 1.265,2.164 1.586,2.768 4.728,8.89 3.213,15.213 1.873,16.502 -0.444,0.426 -1.332,0.332 -1.784,-0.14 -2.196,-2.29 -3.36,-5.57 -5.175,-8.195 -1.7,-2.46 -4.653,-7.533 -7.795,-8.09 -3.465,-0.612 0.43,-4.256 1.647,-4.937 6.86,-3.836 14.797,-6.046 22.296,-8.33 7.057,-2.15 14.183,-4.08 21.378,-5.71 11.005,-2.49 28.586,-7.187 35.697,5.105 4.724,8.166 -2.064,15.963 -9.313,21.71 9.77,6.14 17.132,15.583 19.218,27.112 6.197,34.26 -30.06,61.78 -66.39,54.068 z m 32.72,-78.52 c 6.77,-4.412 18.196,-12.82 9.03,-21.023 -7.474,-6.69 -20.25,-2.385 -29.187,-0.06 l -0.388,30.303 c 2.757,-0.868 5.53,-1.694 8.223,-2.77 4.315,-1.724 8.432,-3.915 12.323,-6.45 z m 5.827,3.417 c -5.638,3.69 -11.65,6.742 -17.88,9.296 -2.738,1.124 -5.625,2.272 -8.577,3.15 -0.254,20.055 -0.532,42.492 -0.644,53.248 2.63,0.753 5.443,1.115 8.432,1.004 9.075,-0.338 18.446,-3.873 24.85,-10.42 16.1,-16.458 9.834,-42.22 -5.36,-56.816 -0.28,0.185 -0.557,0.365 -0.82,0.54 z"
       id="path6"
       style="fill:url(#linearGradient5);fill-opacity:1" />
  </g>
</svg>
