<?xml version="1.0" encoding="UTF-8" standalone="no"?>
<svg
   viewBox="0 0 600 360"
   enable-background="new 0 0 600 360"
   version="1.1"
   id="svg6"
   sodipodi:docname="ploneconf2015-logo-light.svg"
   inkscape:version="1.3 (1:1.3+202307231459+0e150ed6c4)"
   xmlns:inkscape="http://www.inkscape.org/namespaces/inkscape"
   xmlns:sodipodi="http://sodipodi.sourceforge.net/DTD/sodipodi-0.dtd"
   xmlns:xlink="http://www.w3.org/1999/xlink"
   xmlns="http://www.w3.org/2000/svg"
   xmlns:svg="http://www.w3.org/2000/svg">
  <defs
     id="defs6">
    <linearGradient
       id="linearGradient1"
       inkscape:collect="always">
      <stop
         style="stop-color:#0186c4;stop-opacity:1;"
         offset="0"
         id="stop1" />
      <stop
         style="stop-color:#af1e59;stop-opacity:1;"
         offset="1"
         id="stop2" />
    </linearGradient>
    <linearGradient
       inkscape:collect="always"
       xlink:href="#linearGradient1"
       id="linearGradient2"
       x1="306.83167"
       y1="186.99632"
       x2="306.54056"
       y2="231.21272"
       gradientUnits="userSpaceOnUse"
       spreadMethod="pad" />
  </defs>
  <sodipodi:namedview
     id="namedview6"
     pagecolor="#ffffff"
     bordercolor="#666666"
     borderopacity="1.0"
     inkscape:showpageshadow="2"
     inkscape:pageopacity="0.0"
     inkscape:pagecheckerboard="0"
     inkscape:deskcolor="#d1d1d1"
     showgrid="false"
     inkscape:zoom="1.1508333"
     inkscape:cx="162.49095"
     inkscape:cy="192.03476"
     inkscape:window-width="1920"
     inkscape:window-height="1135"
     inkscape:window-x="0"
     inkscape:window-y="0"
     inkscape:window-maximized="1"
     inkscape:current-layer="svg6" />
  <g
     id="g6">
    <path
       fill="#1c2332"
       d="M537.196 140.903c-1.886-1.787-3.997-3.21-6.51-3.968-1.297-.392-2.574-.337-3.858.136-7.053 2.6-14.238 4.76-21.582 6.377-7.052 1.553-14.174 2.582-21.397 2.83-6.497.224-12.938-.276-19.31-1.578-.87-.18-1.697-.06-2.525.178-.314.09-.623.2-1.1.354 1.628-2.363 3.118-4.13 2.09-6.97-.88-2.437-2.103-4.685-3.707-6.707-4.24-5.345-9.648-8.827-16.404-10.086-4.566-.852-9.07-.454-13.488.88-4.525 1.365-10.86 4.637-14.192 8.75-3.893 4.81-7.287 13.426-7.066 19.848-7.707 2.904-13.24 8.402-15.963 15.588-.143.376-.407.18-.29-.145.857-2.34 1.705-4.684 2.238-7.132 2.815-12.934-1.074-23.128-12.342-29.55-4.684-2.67-9.785-3.883-15.165-3.974-12.4-.21-22.136 4.893-29 10.34-3.372 2.674-3.43 6.558-3.452 9.184-.038 4.38.724 8.55 4.447 8.742 2.916.15 5.323-.877 7.064-3.284.34-.47.67-.953.934-1.467.34-.662.84-1.085 1.517-1.377 5.58-2.408 11.174-2.47 16.67.142 4.26 2.023 6.55 5.623 7.437 10.176 1.882 9.663-6.335 20.807-14.658 24.623-.453-3.753-1.176-14.23-.617-20.067.25-2.61.367-5.24-.083-7.854-.49-2.84-2.606-4.593-5.48-4.41-3.025.193-5.472 1.59-7.426 3.86-.35.41-.598.924-.815 1.424-1.22 2.818-1.974 5.77-2.457 8.796-.312 1.958-.636 3.915-.975 5.997-.754.182-1.534.372-2.386.58-2.09-8.58-5.928-26.035-7.492-44.186-.427-4.96-.777-9.922-.912-14.898-.02-.7-.052-1.406-.145-2.1-.227-1.704-1.176-2.803-2.713-3.628-1.482-.795-3.848-1.582-5.41-.92-2.468 1.044-6.173 2.62-7.64 3.278-1.933.868-3.006 2.342-3.525 4.383-4.84 18.435-13.775 66.547-13.775 66.547l-2.79.427s-1.373-24.565-1.594-29.475c-.16-3.57-.437-7.134-1.383-10.605-.552-2.025-1.875-3.22-3.933-3.63-1.12-.223-2.2-.044-3.245.313-2.062.704-3.833 1.87-5.28 3.51-.766.865-1.262 1.856-1.506 2.99-.624 2.903-1.005 5.837-1.105 8.803-.177 5.28.27 24.625.355 30.583l-5.307.608c.738-25.088 1.653-49.273.605-56.695-.384-2.715-2.418-4.6-5.16-4.695-3.735-.128-6.84 1.31-9.33 4.078-1.182 1.315-1.542 2.94-1.672 4.65-.377 4.962-.774 9.923-1.164 14.884-.064.82-.133 1.64-.21 2.586-1.812-.883-3.633-.754-5.552-.215-.195-.276-.406-.564-.607-.86-1.94-2.863-4.377-5.172-7.527-6.657-5.165-2.436-10.244-2.1-15.21.587-3.298 1.784-6 4.295-8.42 7.12-5.497 6.408-8.29 13.135-10.038 19.105-1.452-6.065-4.87-15.387-11.33-18.96-3.014-1.667-7.215-1.667-11.212 1.984.18-.165-2.42-5.433-3.48-7.868-.818-1.882-2.33-2.837-4.274-3.215-4.632-.9-11.772 1.637-13.63 6.852-2 5.61-5.498 18.228-5.498 18.228-2.317-4.02-4.568-8.037-7.82-11.443 12.63-13.464 2.89-34.377-11.956-37.298-3.878-.764-7.756-.844-11.665-.454-12.842 1.28-46.54 10.25-59.112 16.38-1.644.803-3.075 1.9-4.184 3.352-1.853 2.425-2.184 5.33.143 8.002 1.784 2.05 16.642 19.937 18.495 22.13 1.84 2.18 4.372 2.338 6.664 1.422-1.21 11.258-2.412 22.462-3.616 33.685-2.163-.747-4.072-.89-6.653-.197-3.38.908-6.446 2.443-9.09 4.756-1.453 1.272-2.703 2.94-2.703 5.558 0 3.75 1.7 7.982 4.474 12.01 7.56 10.968 22.705 15.99 37.848 14.995 27.502-1.806 42.048-17.307 49.185-28.155 3.463 10.625 10.212 21.56 19.96 22.812 3.45.443 6.84.116 10.117-1.03 9.714-3.39 16.103-9.82 20.003-19.416 3.437 8.752 6.753 14.208 10.91 16.85 7.917 5.033 18.102 3.505 25.606-2.724 6.2-5.147 6.46-13.362 5.72-16.777-.614-2.847-3.53-4.18-6.254-3.63-1.225.247-2.27.847-3.246 1.617-1.686 1.33-3.637 2.026-5.772 2.026-4.446 0-8.314-5.083-8.314-18.845 0-6.595.767-16.585 5.378-24.19.294-.487.708-.36.7.11-.11 5.916 1.085 9.974 2.304 13.348.14.384-.002.64-.183.925-1.087 1.71-1.684 3.576-1.84 5.597-.332 4.337 1.182 12.858 8.097 16.054 2.043.945 4.203 1.49 6.42 1.77 1.664.21 3.345.285 5.018.422.147.012.293.03.51.053.13 15.97 2.086 25.53 2.81 28.652.714 3.082 3.254 4.828 6.388 4.204 3.918-.778 6.715-3.82 7.022-6.823.69-6.746 1.288-17.574 1.695-27.17 2.59-.286 5.13-.565 7.754-.853.752 6.438 2.364 16.607 3.656 23.48.462 2.458 2.634 4.985 6.585 4.81-.5 3.186-1.14 7.902-1.34 9.915-.51 5.092 1.495 5.62 4.583 5.457 2.197 0 5.26-1.07 6.464-1.645 1.665-.797 2.638-2.152 2.973-4.027 1.335-7.482 7.878-42.086 8.004-42.72 3.858-.772 7.705-1.544 11.623-2.33 5.697 21.58 12.427 40.58 23.956 48.744 13.062 9.25 29.22 6.31 38.003-2.103 1.684-1.614 3.12-3.426 4.06-5.602.578-1.345 1.257-2.647 1.862-3.98.82-1.806.567-3.664-.682-4.94-1.19-1.213-2.688-1.578-4.3-1.248-1.126.23-2.247.594-3.3 1.057-2.957 1.296-6.028 1.975-9.25 1.936-4.657-.057-12.82-3.752-16.335-11.445 8.353-3.177 9.403-9.957 7.818-14.57l.634-.34c3.262 4.357 6.827 8.45 10.71 12.27 5.146 5.06 10.85 9.38 17.14 12.93 1.466.827 2.973 1.04 4.59.683 2.89-.64 5.464-1.932 7.685-3.88.703-.615 1.266-1.392 1.955-2.163l.45.192c-1.677 2.177-2.768 4.643-4 7.02-1.107 2.14.016 4.61 2.292 5.548 2.142.884 12.3 4.143 22.013 4.143 31.793-1.15 45.417-23.56 45.637-46.86 6.64-3.692 10.937-12.43 10.62-24.238l1.084-.047c-2.63 22.503-6.44 54.72-5.822 66.367.192 3.616 3.013 5.084 5.704 4.748 8.802-1.098 14.812-8.593 15.657-12.784 3.902-19.345 4.823-46.167 5.58-60.416 6.808-1.353 17.822-4.612 27.453-8.595.84-.347 1.54-.842 2.137-1.523 1.752-1.997 3.512-3.988 5.293-5.96.76-.84 1.52-1.66 1.766-2.815v-1.65c-.452-1.746-1.533-3.083-2.808-4.292zm-358.975 38.43c.49-6.147 2.41-15.806 3.383-20.394 3.06 1.978 5.775 7.28 6.7 14.816.975 7.946 1.875 21.397-3.3 32.35-.547 1.156-2.25 4.707-3.514 4.632-1.273-.076-5.25-6.45-3.27-31.405zm260.662 12.802c-2.174-.127-4.16.537-6.064 1.486-2.014 1.006-3.654 2.41-4.696 4.464-.51 1.005-1.132 1.955-1.71 2.926-.902 1.522-2.272 2.438-3.922 2.966-3.076.986-7.26-2.67-8.512-4.43 12.626-9.886 16.684-20.677 17.487-28.298 5.357 3.04 11.04 9.314 13.973 15.932 4.897 11.054 3.098 25.94.156 29.206-5.13 5.697-12.21 5.327-18.858 3.605 6.65-3.752 14.888-10.618 17.064-21.534.66-3.31-1.536-6.123-4.918-6.32zm12.955-39.106l-.92 1.626c-1.705-1.258-6.265-3.608-9.303-5.048-2.425-1.15-10.856-5.163-13.213-9.295 1.315-.43 2.532-.232 3.724-.014 4.643.848 8.76 2.793 12.238 6.02 1.307 1.215 2.435 2.583 3.263 4.166.83 1.588 2.36 2.426 4.212 2.543zm-44.258 32.146c-.55-4.348-.49-11.278.02-14.3.126-.753.315-.864 1.038-.653 2.018.586 3.132 3.08 3.37 5.544.436 4.512-1.517 7.472-4.43 9.41zm-296.55-45.232c7.68-2.645 16.592-3.154 18.777-1.85-2.33 3.917-11.734 10.506-19.217 13.49.15-3.927.293-7.753.44-11.64zm27.392 42.282c.626 9.135-2.078 17.12-8.554 23.7-5.347 5.434-14.788 9.22-21.652 9.22l1.493-40.162c7.828-2.77 15.355-6.084 22.54-10.417 3.01 3.226 5.69 10.626 6.172 17.66z"
       id="path1"
       style="fill:#141924;fill-opacity:1" />
    <g
       fill="#fff"
       id="g2">
      <path
         d="M193.848 84.018v9.58h-4.605V68.9h8.824c1.277 0 2.396.186 3.357.555s1.767.885 2.417 1.547 1.14 1.447 1.47 2.355.49 1.896.49 2.962c0 1.16-.184 2.214-.553 3.163s-.894 1.758-1.573 2.426-1.494 1.186-2.443 1.555-2.003.554-3.163.554h-4.22zm0-11.003v6.943h3.744c1.125 0 1.983-.322 2.575-.967s.888-1.534.888-2.67c0-1.02-.302-1.826-.905-2.418s-1.456-.888-2.558-.888h-3.744zM213.026 93.6h-4.307V67.564h4.306V93.6zM224.012 74.227c2.52 0 4.41.8 5.67 2.4s1.89 4.098 1.89 7.496-.63 5.9-1.89 7.506-3.15 2.407-5.67 2.407-4.41-.803-5.67-2.408-1.89-4.108-1.89-7.507.63-5.897 1.89-7.497 3.15-2.4 5.67-2.4zm0 3.64c-1.113 0-1.9.477-2.364 1.432s-.694 2.334-.694 4.14v1.37c0 1.816.23 3.202.694 4.157s1.25 1.433 2.364 1.433 1.9-.478 2.364-1.433.694-2.34.694-4.157v-1.37c0-1.806-.23-3.186-.694-4.14s-1.25-1.434-2.364-1.434zM244.034 74.227c.727 0 1.397.108 2.013.325s1.146.565 1.59 1.046.795 1.107 1.047 1.88.378 1.718.378 2.83V93.6h-4.307V81.505c0-1.22-.223-2.083-.668-2.593s-1.055-.765-1.828-.765c-.423 0-.815.097-1.18.29s-.676.463-.94.81-.468.746-.614 1.203-.22.95-.22 1.477V93.6H235V74.666h3.585l.44 2.338h.21c.246-.363.527-.715.844-1.055s.673-.636 1.07-.888.84-.454 1.32-.606 1-.23 1.564-.23zM259.432 74.227c2.285 0 3.996.8 5.133 2.4s1.705 4.098 1.705 7.496v1.09h-9.615c.012.844.073 1.594.185 2.25s.28 1.21.51 1.66.524.795.888 1.03.81.35 1.336.35c.738 0 1.327-.315 1.767-.948s.66-1.518.66-2.654h4.27c0 1.22-.166 2.277-.5 3.174s-.8 1.638-1.397 2.224-1.307 1.022-2.127 1.31-1.71.43-2.672.43c-2.426 0-4.27-.802-5.528-2.407s-1.89-4.106-1.89-7.505.627-5.897 1.88-7.497 3.052-2.4 5.396-2.4zm0 3.534c-.914 0-1.58.376-1.995 1.126s-.66 1.816-.73 3.2h5.028c0-1.384-.185-2.45-.554-3.2s-.95-1.125-1.748-1.125zM286.73 68.462c1.29 0 2.488.188 3.596.563s2.065.952 2.874 1.73 1.444 1.776 1.907 2.99.694 2.656.694 4.332h-4.71c0-.95-.105-1.778-.316-2.487s-.51-1.298-.896-1.767-.847-.817-1.38-1.046-1.122-.343-1.767-.343c-.854 0-1.602.182-2.24.545s-1.17.884-1.59 1.563-.736 1.51-.94 2.487-.31 2.083-.31 3.313v1.81c0 1.23.106 2.336.317 3.314s.533 1.808.967 2.487.98 1.2 1.635 1.564 1.423.545 2.302.545c.668 0 1.274-.114 1.82-.343s1.01-.574 1.396-1.037.686-1.046.896-1.75.316-1.528.316-2.478h4.5c0 1.617-.23 3.026-.686 4.228s-1.09 2.197-1.898 2.988-1.767 1.384-2.874 1.776-2.312.59-3.612.59c-1.547 0-2.93-.26-4.148-.774s-2.25-1.3-3.094-2.355-1.485-2.382-1.925-3.98-.66-3.49-.66-5.67.22-4.072.66-5.678 1.08-2.937 1.925-3.99 1.875-1.84 3.094-2.356 2.602-.772 4.15-.772zM306.014 74.227c2.52 0 4.41.8 5.67 2.4s1.89 4.098 1.89 7.496-.63 5.9-1.89 7.506-3.15 2.407-5.67 2.407-4.41-.803-5.67-2.408-1.89-4.108-1.89-7.507.63-5.897 1.89-7.497 3.15-2.4 5.67-2.4zm0 3.64c-1.113 0-1.9.477-2.364 1.432s-.694 2.334-.694 4.14v1.37c0 1.816.23 3.202.694 4.157s1.25 1.433 2.364 1.433 1.9-.478 2.364-1.433.694-2.34.694-4.157v-1.37c0-1.806-.23-3.186-.694-4.14s-1.25-1.434-2.364-1.434zM326.036 74.227c.727 0 1.397.108 2.013.325s1.145.565 1.59 1.046.794 1.107 1.046 1.88.378 1.718.378 2.83V93.6h-4.307V81.505c0-1.22-.223-2.083-.668-2.593s-1.056-.765-1.83-.765c-.42 0-.813.097-1.177.29s-.677.463-.94.81-.47.746-.615 1.203-.22.95-.22 1.477V93.6H317V74.666h3.586l.44 2.338h.21c.246-.363.527-.715.844-1.055s.674-.636 1.072-.888.838-.454 1.318-.606 1.003-.23 1.566-.23zM339.747 67.284c.246 0 .516.012.81.035s.58.055.86.096.55.088.81.14.474.104.65.15v3.217h-1.76c-1.007 0-1.51.516-1.51 1.547v2.197h3.27v3.64h-3.27v15.292h-4.325V78.305h-1.916v-3.64h1.916v-2.302c0-.633.07-1.254.21-1.863s.382-1.15.722-1.625.797-.858 1.37-1.15 1.295-.44 2.163-.44zM351.26 74.227c2.285 0 3.996.8 5.133 2.4s1.705 4.098 1.705 7.496v1.09h-9.615c.012.844.073 1.594.185 2.25s.28 1.21.51 1.66.524.795.888 1.03.81.35 1.336.35c.738 0 1.327-.315 1.767-.948s.658-1.518.658-2.654h4.27c0 1.22-.166 2.277-.5 3.174s-.8 1.638-1.397 2.224-1.306 1.022-2.126 1.31-1.71.43-2.672.43c-2.426 0-4.27-.802-5.528-2.407s-1.89-4.106-1.89-7.505.627-5.897 1.88-7.497 3.053-2.4 5.396-2.4zm0 3.534c-.914 0-1.58.376-1.995 1.126s-.66 1.816-.73 3.2h5.028c0-1.384-.185-2.45-.554-3.2s-.953-1.125-1.75-1.125zM368.874 74.227c.27 0 .516.018.738.053s.416.07.58.105c.188.047.346.094.475.14v4.167h-1.547c-.47 0-.917.07-1.345.21s-.803.38-1.125.713-.58.78-.773 1.336-.29 1.258-.29 2.102V93.6h-4.307V74.666h3.586l.51 2.76h.21c.13-.398.282-.788.458-1.17s.396-.72.66-1.02.57-.54.922-.728.767-.283 1.248-.283zM379.157 74.227c2.285 0 3.996.8 5.133 2.4s1.705 4.098 1.705 7.496v1.09h-9.615c.012.844.073 1.594.185 2.25s.28 1.21.51 1.66.524.795.888 1.03.81.35 1.336.35c.737 0 1.326-.315 1.766-.948s.66-1.518.66-2.654h4.27c0 1.22-.167 2.277-.5 3.174s-.8 1.638-1.398 2.224-1.307 1.022-2.127 1.31-1.71.43-2.67.43c-2.427 0-4.27-.802-5.53-2.407s-1.89-4.106-1.89-7.505.628-5.897 1.882-7.497 3.05-2.4 5.395-2.4zm0 3.534c-.914 0-1.58.376-1.995 1.126s-.66 1.816-.73 3.2h5.028c0-1.384-.185-2.45-.554-3.2s-.952-1.125-1.75-1.125zM398.21 74.227c.728 0 1.398.108 2.014.325s1.146.565 1.59 1.046.795 1.107 1.047 1.88.38 1.718.38 2.83V93.6h-4.308V81.505c0-1.22-.223-2.083-.668-2.593s-1.055-.765-1.828-.765c-.422 0-.814.097-1.178.29s-.677.463-.94.81-.47.746-.615 1.203-.22.95-.22 1.477V93.6h-4.307V74.666h3.586l.44 2.338h.21c.246-.363.527-.715.844-1.055s.674-.636 1.072-.888.838-.454 1.318-.606 1.003-.23 1.565-.23zM413.715 74.227c1.008 0 1.922.146 2.742.44s1.518.746 2.092 1.36 1.016 1.398 1.326 2.348.466 2.086.466 3.41h-4.43c0-1.336-.182-2.323-.545-2.962s-.914-.958-1.652-.958c-.914 0-1.562.475-1.942 1.424s-.57 2.33-.57 4.147v1.37c0 1.817.2 3.203.605 4.158s1.093 1.433 2.065 1.433c.773 0 1.33-.328 1.67-.984s.51-1.64.51-2.953h4.29c0 1.325-.153 2.465-.458 3.42s-.738 1.74-1.3 2.355-1.243 1.07-2.04 1.362-1.688.44-2.672.44c-1.23 0-2.297-.197-3.2-.59s-1.648-.996-2.24-1.81-1.028-1.847-1.31-3.095-.422-2.722-.422-4.42c0-3.4.584-5.898 1.75-7.498s2.922-2.397 5.265-2.397zM430.028 74.227c2.285 0 3.996.8 5.133 2.4s1.706 4.098 1.706 7.496v1.09h-9.615c.013.844.074 1.594.186 2.25s.28 1.21.51 1.66.524.795.888 1.03.81.35 1.336.35c.738 0 1.327-.315 1.767-.948s.66-1.518.66-2.654h4.27c0 1.22-.167 2.277-.5 3.174s-.8 1.638-1.398 2.224-1.308 1.022-2.128 1.31-1.71.43-2.672.43c-2.426 0-4.27-.802-5.528-2.407s-1.89-4.106-1.89-7.505.627-5.897 1.88-7.497 3.052-2.4 5.396-2.4zm0 3.534c-.914 0-1.58.376-1.995 1.126s-.66 1.816-.73 3.2h5.028c0-1.384-.184-2.45-.553-3.2s-.952-1.125-1.75-1.125z"
         id="path2"
         style="fill:#0186c4;fill-opacity:1" />
    </g>
    <circle
       fill="#fff"
       cx="150.852"
       cy="70.754"
       r="4.959"
       id="circle2"
       style="fill:#0186c4;fill-opacity:1" />
    <path
       fill="#fff"
       d="M165.894 80.662c0 2.74-2.218 4.96-4.96 4.96-2.735 0-4.958-2.22-4.958-4.96 0-2.74 2.225-4.96 4.958-4.96 2.743 0 4.96 2.22 4.96 4.96z"
       id="path3"
       style="fill:#0186c4;fill-opacity:1" />
    <circle
       fill="#fff"
       cx="150.835"
       cy="90.599"
       r="4.96"
       id="circle3"
       style="fill:#0186c4;fill-opacity:1" />
    <path
       fill="#fff"
       d="M153.81 57.73c-12.657 0-22.917 10.26-22.918 22.918 0 12.657 10.26 22.916 22.918 22.918 12.658-.002 22.916-10.26 22.918-22.918-.002-12.658-10.26-22.917-22.918-22.918zm12.9 35.816c-3.31 3.305-7.856 5.342-12.9 5.344-5.046 0-9.59-2.04-12.9-5.344-3.304-3.31-5.34-7.855-5.342-12.9 0-5.043 2.038-9.59 5.344-12.9 3.31-3.304 7.855-5.34 12.9-5.343 5.044 0 9.59 2.04 12.9 5.344 3.305 3.31 5.34 7.855 5.343 12.9-.004 5.044-2.04 9.59-5.346 12.9z"
       id="path4"
       style="fill:#0186c4;fill-opacity:1" />
    <g
       fill="#fff"
       id="g5">
      <path
         d="M177.393 289.157h5.08v3.64h-14.94v-3.64h5.536V273.76h-5.573v-2.884c.504-.06 1.084-.167 1.74-.325s1.336-.36 2.04-.605 1.4-.524 2.09-.835 1.325-.647 1.9-1.01h2.126v21.057zM191.104 267.66c.914 0 1.775.122 2.584.368s1.512.627 2.11 1.143 1.068 1.18 1.414 1.987.52 1.78.52 2.918c0 1.09-.18 2.14-.537 3.146s-.814 1.976-1.37 2.9-1.173 1.803-1.847 2.63-1.33 1.602-1.97 2.328-1.22 1.4-1.748 2.02-.914 1.18-1.16 1.67h8.736v4.026h-14.133v-.86c0-.962.135-1.864.404-2.708s.627-1.644 1.072-2.4.95-1.478 1.52-2.17 1.15-1.368 1.75-2.03 1.18-1.324 1.748-1.986 1.075-1.342 1.52-2.04.804-1.42 1.073-2.17.405-1.547.405-2.39c0-.294-.035-.596-.105-.906s-.19-.598-.36-.86-.4-.48-.694-.65-.662-.256-1.107-.256-.827.103-1.144.308-.574.478-.773.817-.343.735-.43 1.187-.133.93-.133 1.433v1.477h-4.43c-.023-.117-.04-.246-.053-.387-.035-.246-.053-.598-.053-1.055 0-1.324.193-2.458.58-3.4s.91-1.72 1.573-2.33 1.427-1.055 2.294-1.336 1.783-.423 2.744-.423zM208.172 285.202h-8.666v-4.254h8.666v4.254zM220.055 289.157h5.08v3.64h-14.94v-3.64h5.536V273.76h-5.57v-2.884c.503-.06 1.083-.167 1.74-.325s1.335-.36 2.038-.605 1.4-.524 2.092-.835 1.324-.647 1.898-1.01h2.127v21.057zM233.38 267.66c1.1 0 2.064.18 2.89.544s1.516.858 2.066 1.485.967 1.355 1.248 2.187.422 1.723.422 2.672c0 1.17-.223 2.243-.668 3.216s-1.125 1.758-2.04 2.355c1.138.564 1.955 1.352 2.453 2.365s.748 2.194.748 3.542c0 .984-.135 1.916-.404 2.795s-.69 1.644-1.266 2.294-1.31 1.166-2.206 1.547-1.978.57-3.243.57-2.348-.19-3.244-.57-1.635-.896-2.215-1.547-1.004-1.415-1.273-2.294-.404-1.81-.404-2.795c0-1.336.252-2.514.756-3.533s1.312-1.81 2.425-2.373c-.914-.597-1.588-1.382-2.02-2.354s-.65-2.045-.65-3.217c0-.95.137-1.84.412-2.673s.69-1.562 1.248-2.188 1.248-1.123 2.074-1.486 1.787-.545 2.89-.545zm0 14.308c-.868 0-1.53.328-1.987.984s-.686 1.61-.686 2.865c0 1.242.23 2.188.686 2.84s1.12.975 1.986.975 1.525-.325 1.977-.976.677-1.597.677-2.84c0-1.253-.226-2.208-.677-2.864s-1.11-.984-1.978-.984zm0-10.705c-.728 0-1.28.302-1.662.905s-.57 1.49-.57 2.663.19 2.06.57 2.664.935.905 1.66.905 1.287-.303 1.68-.906.59-1.49.59-2.663-.197-2.06-.59-2.662-.953-.905-1.68-.905zM261.275 267.66c1.594 0 3.026.257 4.298.772s2.35 1.3 3.234 2.355 1.562 2.385 2.03 3.99.703 3.498.703 5.678-.234 4.07-.703 5.67-1.146 2.926-2.03 3.98-1.963 1.84-3.234 2.355-2.704.773-4.298.773-3.023-.258-4.29-.773-2.34-1.3-3.225-2.355-1.562-2.382-2.03-3.98-.703-3.49-.703-5.67.234-4.072.703-5.678 1.146-2.936 2.03-3.99 1.96-1.84 3.226-2.355 2.696-.773 4.29-.773zm0 3.972c-.914 0-1.717.182-2.408.545s-1.266.885-1.723 1.564-.8 1.51-1.028 2.488-.343 2.083-.343 3.313v1.812c0 1.23.114 2.335.343 3.313s.57 1.808 1.028 2.487 1.03 1.2 1.723 1.564 1.494.545 2.408.545 1.717-.18 2.408-.544 1.27-.885 1.73-1.564.81-1.51 1.038-2.487.344-2.083.344-3.313v-1.81c0-1.23-.114-2.336-.343-3.314s-.573-1.808-1.036-2.487-1.04-1.2-1.73-1.563-1.495-.545-2.41-.545zM281.262 273.425c1.008 0 1.922.146 2.742.44s1.518.746 2.092 1.36 1.017 1.398 1.327 2.348.466 2.086.466 3.41h-4.43c0-1.336-.183-2.323-.546-2.962s-.914-.957-1.652-.957c-.914 0-1.562.475-1.942 1.424s-.57 2.332-.57 4.148v1.37c0 1.817.2 3.203.605 4.158s1.093 1.433 2.065 1.433c.773 0 1.33-.328 1.67-.984s.51-1.64.51-2.953h4.29c0 1.323-.153 2.463-.458 3.418s-.738 1.74-1.3 2.355-1.243 1.07-2.04 1.362-1.688.44-2.672.44c-1.23 0-2.297-.197-3.2-.59s-1.648-.996-2.24-1.81-1.028-1.847-1.31-3.095-.422-2.722-.422-4.42c0-3.4.583-5.898 1.75-7.498s2.92-2.397 5.264-2.397zM295.746 273.864h2.725v3.64h-2.724v10.546c0 1.03.504 1.547 1.512 1.547h1.213v3.2c-.15.058-.333.11-.544.157s-.434.094-.668.14-.47.083-.703.106-.457.035-.668.035c-.867 0-1.588-.146-2.162-.44s-1.03-.68-1.37-1.16-.58-1.02-.722-1.625-.21-1.222-.21-1.854v-10.652h-1.917v-3.64h1.916l.65-5.325h3.674v5.324zM308.05 273.425c2.52 0 4.41.8 5.67 2.4s1.89 4.098 1.89 7.496-.63 5.9-1.89 7.507-3.15 2.408-5.67 2.408-4.408-.803-5.668-2.408-1.89-4.107-1.89-7.506.63-5.896 1.89-7.496 3.15-2.4 5.67-2.4zm0 3.638c-1.112 0-1.9.478-2.363 1.433s-.694 2.335-.694 4.14v1.37c0 1.817.23 3.203.694 4.158s1.25 1.433 2.364 1.433 1.902-.478 2.365-1.433.694-2.34.694-4.157v-1.37c0-1.806-.232-3.186-.695-4.14s-1.25-1.434-2.364-1.434zM323.063 290.458l-.44 2.338h-3.585v-26.033h4.307v9.035h.193c.34-.762.888-1.348 1.644-1.758s1.608-.615 2.558-.615c.844 0 1.623.19 2.338.57s1.333.974 1.854 1.776.932 1.826 1.23 3.068.448 2.725.448 4.447-.14 3.208-.422 4.456-.686 2.28-1.213 3.095-1.166 1.418-1.916 1.81-1.595.59-2.532.59c-.902 0-1.723-.234-2.46-.703s-1.35-1.16-1.83-2.074h-.175zm.28-6.45c0 1.71.22 3.02.66 3.928s1.18 1.362 2.224 1.362 1.784-.454 2.224-1.362.66-2.218.66-3.93v-1.37c0-1.7-.22-3.006-.66-3.92s-1.18-1.37-2.223-1.37c-.527 0-.973.12-1.336.36s-.658.588-.887 1.045-.396 1.02-.5 1.69-.16 1.43-.16 2.284v1.283zM343.47 273.425c2.286 0 3.997.8 5.134 2.4s1.705 4.098 1.705 7.496v1.09h-9.616c.012.845.073 1.595.185 2.25s.28 1.21.51 1.662.523.794.887 1.028.81.352 1.336.352c.738 0 1.327-.316 1.767-.95s.66-1.517.66-2.653h4.27c0 1.218-.167 2.275-.5 3.172s-.8 1.638-1.398 2.224-1.307 1.022-2.127 1.31-1.71.43-2.672.43c-2.426 0-4.27-.802-5.528-2.407s-1.89-4.108-1.89-7.507.627-5.897 1.88-7.497 3.052-2.4 5.396-2.4zm0 3.533c-.913 0-1.578.375-1.994 1.125s-.66 1.816-.73 3.2h5.028c0-1.384-.185-2.45-.554-3.2s-.952-1.125-1.75-1.125zM361.084 273.425c.27 0 .516.018.738.053s.416.07.58.105c.188.047.346.094.475.14v4.167h-1.547c-.47 0-.917.07-1.345.21s-.803.38-1.125.713-.58.78-.773 1.336-.29 1.256-.29 2.1v10.547h-4.307v-18.932h3.586l.51 2.76h.21c.13-.398.282-.788.458-1.17s.396-.72.66-1.02.57-.54.922-.728.768-.282 1.248-.282zM379.787 267.66c.914 0 1.775.122 2.584.368s1.513.627 2.11 1.143 1.07 1.18 1.415 1.987.52 1.78.52 2.918c0 1.09-.18 2.14-.537 3.146s-.814 1.976-1.37 2.9-1.173 1.803-1.847 2.63-1.33 1.602-1.968 2.328-1.222 1.4-1.75 2.02-.913 1.18-1.16 1.67h8.737v4.026h-14.134v-.86c0-.962.135-1.864.404-2.708s.627-1.644 1.072-2.4.952-1.478 1.52-2.17 1.152-1.368 1.75-2.03 1.18-1.324 1.75-1.986 1.074-1.342 1.52-2.04.803-1.42 1.072-2.17.404-1.547.404-2.39c0-.294-.035-.596-.105-.906s-.19-.598-.36-.86-.4-.48-.694-.65-.663-.256-1.108-.256-.826.103-1.143.308-.575.478-.774.817-.343.735-.43 1.187-.133.93-.133 1.433v1.477h-4.43c-.023-.117-.04-.246-.053-.387-.035-.246-.053-.598-.053-1.055 0-1.324.193-2.458.58-3.4s.91-1.72 1.573-2.33 1.427-1.055 2.294-1.336 1.782-.423 2.743-.423zM395.818 267.66c1.102 0 2.095.195 2.98.588s1.63 1.072 2.24 2.04 1.078 2.275 1.406 3.928.492 3.732.492 6.24-.164 4.585-.492 6.23-.797 2.954-1.406 3.92-1.356 1.647-2.24 2.04-1.88.59-2.98.59c-1.113 0-2.112-.197-2.997-.59s-1.634-1.072-2.25-2.04-1.083-2.272-1.405-3.92-.483-3.723-.483-6.23.16-4.588.483-6.24.79-2.962 1.406-3.93 1.366-1.645 2.25-2.038 1.885-.59 2.998-.59zm0 3.638c-.55 0-.996.158-1.336.475s-.606.8-.8 1.45-.325 1.47-.396 2.46-.105 2.16-.105 3.508v2.515c0 1.348.036 2.517.106 3.507s.202 1.81.396 2.46.46 1.135.8 1.45.785.476 1.336.476.996-.158 1.336-.475.606-.8.8-1.45.322-1.47.387-2.46.098-2.16.098-3.508v-2.514c0-1.347-.032-2.516-.097-3.506s-.192-1.81-.386-2.46-.46-1.135-.8-1.45-.785-.476-1.336-.476zM415.33 289.157h5.08v3.64h-14.94v-3.64h5.536V273.76h-5.572v-2.884c.504-.06 1.084-.167 1.74-.325s1.336-.36 2.04-.605 1.4-.524 2.09-.835 1.325-.647 1.9-1.01h2.126v21.057zM434.982 272.124h-8.12l-.37 5.836c.363-.293.826-.568 1.39-.826s1.276-.387 2.144-.387c.832 0 1.614.16 2.347.483s1.37.812 1.916 1.468.972 1.485 1.282 2.487.466 2.183.466 3.542-.167 2.566-.5 3.62-.815 1.946-1.442 2.673-1.39 1.277-2.285 1.652-1.9.563-3.014.563c-1.102 0-2.1-.188-2.997-.563s-1.662-.91-2.295-1.608-1.122-1.547-1.468-2.55-.52-2.13-.52-3.383h4.5c0 .68.063 1.3.186 1.855s.305 1.03.545 1.424.53.693.87.904.732.316 1.178.316c.41 0 .785-.103 1.125-.308s.634-.513.88-.923.437-.924.57-1.54.203-1.326.203-2.135c0-.715-.064-1.35-.193-1.907s-.308-1.025-.536-1.406-.495-.668-.8-.86-.64-.29-1.002-.29c-.656 0-1.195.198-1.617.597s-.768.895-1.037 1.493l-4.184-.58.826-13.676h11.953v4.027z"
         id="path5"
         style="fill:#f50053;fill-opacity:1" />
    </g>
    <path
       fill="#fff"
       d="M402.415 214.477c-5.935-4.758-11.855-9.692-17.235-15.076-2.282-2.283-9.34-9.876-13.136-14.944 4.94-3.525 9.27-7.867 12.565-13.033 5.81-9.112 9.502-22.4 3.073-32.156-6.396-9.704-18.748-12.396-29.51-9.924-5.992 1.376-11.81 4.015-16.706 7.745-.937.714-3.735 2.61-3.26 4.17.567 1.858 3.38 1.118 4.378.428 1.683-1.162 2.068-3.53 3.7-4.58 2.948-1.898 8.163-3.005 10.167-3.043 13.344-.256 21.747 7.51 21.887 20.253.138 12.71-8.327 27.415-20.2 32.488-1.002.43-2.632 1.07-4.063 1.91-.49-3.213-.875-6.44-1.136-9.683-.315-3.926-.443-7.887-.353-11.825.09-3.98.902-8.217.323-12.156-.42-2.855-5.646.16-6.286 1.605-2.226 5.016-2.973 10.96-3.092 16.79-.243.055-.466.112-.652.162-2.868.768-5.745 1.498-8.627 2.21-5.582-21.64-8.687-43.882-9.29-66.233-.008-.352.052-1.172-.445-1.38l-1.442-.606c-.497-.21-1.164-.307-1.846-.075-1.12.382-6.194 2.684-7.365 3.394-.376.228-.62.692-.763 1.254-5.202 20.587-8.922 41.7-12.81 62.565-.518 2.787-1.027 5.576-1.53 8.365-3.22.53-6.45 1.018-9.68 1.478-.176-2.178-.352-4.357-.526-6.534-.513-6.385-.87-12.776-1.15-19.174-.268-6.117-.01-12.662-1.513-18.608-.677-2.677-6.07 1.087-6.428 2.6-1.492 6.304-1.256 13.246-1.195 19.71.06 6.454.283 12.91.62 19.354.07 1.358.16 2.71.255 4.06-4.823.687-9.73 1.333-14.585 1.5.09-4.047.18-8.093.3-12.134.477-16.358.954-32.715 1.4-49.075.11-4.038-8.235-.86-8.524 2.544-1.257 14.808-2.074 29.596-2.432 44.44-3.592-.21-7.046.38-10.613 2.017-3.987 1.83-9.105 5.234-9.702 10.023-1.087 8.717 11.563 9.344 20.022 8.953-.015 10.946.317 21.903 1.696 32.715.39 3.064 5.783.46 6.01-1.793 1.052-10.514 1.435-21.09 1.7-31.674 5.08-.483 10.147-1.05 15.202-1.702.896 9.465 2.34 18.802 4.2 28.206.69 3.485 8.382.267 8.102-2.62-.872-8.978-1.633-17.978-2.366-26.977 2.717-.41 5.43-.85 8.14-1.31-2.788 15.85-5.31 31.736-7.537 47.68-.054.385.198.79.727.663 1.445-.35 4.67-1.16 4.88-2.322 2.81-15.764 5.737-31.515 8.815-47.233 6.026-1.11 12.034-2.34 18.018-3.68.09.35.175.7.267 1.05 3.122 11.852 6.815 23.73 11.697 34.986 10.726 24.73 31.34 23.095 40.978 17.46 2.96-1.733 5.51-3.978 7.293-6.667 1.417-2.14-1.997-.805-2.994-.332-4.697 2.226-18.957 6.11-28.128-7.618-6.844-10.244-10.41-23.192-13.98-34.865-.723-2.368-1.405-4.747-2.068-7.13.558-.142 1.118-.28 1.675-.422 1.756-.45 4.184-1.334 6.212-2.556.044 1.595.12 3.16.21 4.67.51 8.615 2.442 17.066 5.738 25.033 1.115 2.698 8.408-.924 7.698-3.754-.928-3.7-1.738-7.425-2.418-11.173.098-.028.19-.055.278-.082 2.87-.9 5.695-2.006 8.426-3.315 1.212 2.773 3.402 5.487 5.132 7.725 2.33 3.015 4.88 5.88 7.534 8.61 5.293 5.442 11.104 9.98 17.72 13.704 1.962 1.108 10.304-3.643 8.545-5.053zm-147.22-36.24c-.05 2.932-.1 5.87-.136 8.812-3.386-.52-7.437-1.73-8.468-4.842-.248-.75-.286-1.567-.14-2.345.152-.82 1.496-1.585 2.807-1.582 1.38.004 2.77.11 4.148.186.565.03 1.175-.08 1.787-.266v.037zm50.574 3.656c.72-3.63 1.437-7.263 2.174-10.89 2.086-10.25 4.403-20.45 6.74-30.643.263 2.53.548 5.056.875 7.577 1.348 10.39 3.257 20.706 5.698 30.895-5.144 1.112-10.31 2.128-15.49 3.06zm-114.893 35.714c-4.905 3.84-11.572 6.645-17.886 5.418-5.322-1.034-8.81-5.206-10.873-9.99-9-20.86-4.402-45.837 2.416-66.573.755-2.298 3.91-3.848 6.067-4.35 1.055-.244 5.167-.597 4.646 1.74-2.267 10.174-4.023 20.507-4.787 30.907-.48 6.517-.415 13.097.47 19.578.803 5.867 2.103 13.15 6.052 17.85 9.2 10.954 14.883-11.98 15.41-17.868.64-7.155.26-14.49-.703-21.596-.847-6.252-1.84-13.577-6.503-18.268-2.23-2.245 3.938-4.987 5.823-3.946 6.067 3.35 7.888 10.146 9.264 16.48 1.558 7.17 2.526 14.54 2.456 21.887-.102 10.754-3.057 21.846-11.853 28.73zm37.576-64.29c-2.008 0-5.07 2.885-7.416 11.612-1.88 6.993-2.633 14.348-2.098 21.574.517 6.996 2.04 14.51 5.508 20.682 5.177 9.213 14.64 4.82 17.01 2.696 1.53-1.372 3.205-.99 2.838.17-1.757 5.56-6.718 8.813-11.31 10.564-4.825 1.84-10.55 2.566-15.082-.42-8.45-5.57-10.816-17.898-11.586-27.248-.878-10.665.925-21.34 4.8-31.335 3.308-8.53 10.077-16.97 16.642-19.205 6.566-2.235 11.496 1.655 13.217 3.443 1.734 1.802 3.136 3.963 4.183 6.293 2.746-1.4 5.805-2.246 5.654-.574-.444 4.93-2.106 9.697-3.84 14.312-1.007 2.68-12.374 8.203-12.29 4.666.237-10.195-2.905-17.23-6.23-17.23zm236.265 48.55c-2.41 9.908-8.314 18.346-17.193 23.325-13.32 7.47-27.26 6.672-41.414 1.523-1.33-.484 2.677-2.88 3.18-3.16 1.55-.872 5.208-2.438 7.074-1.772 6.532 2.33 13.866 4.314 20.86 3.197 6.036-.965 11.565-6.112 12.975-8.424 4.956-8.128 6.29-17.824 5.063-27.154-1.98-15.037-11.734-26.065-25.248-32.376-6.115-2.856-14.558-7.19-14.9-15.02-.298-6.864 4.894-11.916 10.523-14.878 6.823-3.59 14.93-4.79 22.13-1.536 5.582 2.523 10.39 7.604 12.162 13.51.222.74-3.99 2.63-4.26 2.08-3.57-7.297-11.872-12.207-19.742-13.303-5.416-.756-9.8 1.938-10.823 4.284-1.51 3.46-1.363 7.052.713 10.22 4.88 7.45 13.68 9.22 20.807 13.71 6.032 3.8 11.25 8.874 14.604 15.212 4.844 9.157 5.927 20.527 3.488 30.56zm71.805-56.028c-11.992 5.027-23.99 8.642-36.14 10.187-.995 10.39-2.11 20.77-3.192 31.152-1.36 13.036-1.814 26.675-4.985 39.417-.5 2.003-8.42 5.825-8.56 3.257-.362-6.63.617-13.422 1.376-20.01.728-6.315 1.557-12.62 2.348-18.927 1.428-11.388 2.855-22.774 4.38-34.15-6.065.262-12.176-.022-18.352-.94 4.795 7.642 5.077 18.222.5 26.168-.42.73-2.87 1.358-4.047 1.815-.36.14-.49-.19-.425-.467 1.473-6.227 2.17-12.163-.138-18.38-2.133-5.744-6.253-10.324-11.81-12.814-.286-.13-.564-.59-.13-.887.87-.595 5.857-3.64 6.954-3.39 23.81 5.415 50.796-2.736 65.042-8.057 2.124-.795 9.048 5.24 7.18 6.023zm-105.395 53.99c-1.42 3.99-5.425 8.195-9.928 8.525-5.12.374-10.658-4.954-13.228-8.875-.885-1.35-1.622-2.792-2.238-4.295 2.105-.698 4.12-1.636 5.95-2.736 9.914-5.97 20.333-21.533 14.21-33.366-3.104-5.995-10.084-6.966-16.01-5.02-7.293 2.398-12.693 8.097-14.9 15.415-.842 2.79-1.447 5.808-1.78 8.92-.91.186-1.99.647-2.36 1.062-4.456 5-8.014 12.215-.017 15.643 1.212.52 2.47.88 3.748 1.106 1.606 5.593 4.436 10.674 8.773 14.41 5.943 5.125 12.843 5.944 19.982 2.958 6.648-2.78 14.005-8.06 15.936-15.387 1.075-4.08-7.236-.897-8.138 1.64zm-38.144-18.66c-.14 2.673-.072 5.386.227 8.062-2.843-2.358-1.947-5.38-.226-8.062zm11.39 9.903c-.815-3.14-1.217-6.402-1.358-9.542-.266-5.922-.054-12.85 2.77-18.2 1.405-2.66 3.22-4.62 6.436-3.883 2.365.542 4.172 2.316 5.222 4.438 2.257 4.563 1.372 10.28-.558 14.787-2.33 5.44-6.326 10.9-12.362 12.37-.047.014-.1.02-.15.03zM88.05 228.05c-4.798-1.018-9.183-2.844-12.875-6.13-3.87-3.445-5.632-6.917-5.898-12.057-.162-3.125 11.208-8.718 12.998-5.574 1.264 2.217 2.718 4.244 4.336 6.06 1.875-24.52 5.485-69.844 6.29-79.928-3.513.94-7.01 1.948-10.48 3.042-2.53.798-5.063 1.784-7.61 2.723.62 1.053 1.265 2.164 1.586 2.768 4.728 8.89 3.213 15.213 1.873 16.502-.444.426-1.332.332-1.784-.14-2.196-2.29-3.36-5.57-5.175-8.195-1.7-2.46-4.653-7.533-7.795-8.09-3.465-.612.43-4.256 1.647-4.937 6.86-3.836 14.797-6.046 22.296-8.33 7.057-2.15 14.183-4.08 21.378-5.71 11.005-2.49 28.586-7.187 35.697 5.105 4.724 8.166-2.064 15.963-9.313 21.71 9.77 6.14 17.132 15.583 19.218 27.112 6.197 34.26-30.06 61.78-66.39 54.068zm32.72-78.52c6.77-4.412 18.196-12.82 9.03-21.023-7.474-6.69-20.25-2.385-29.187-.06l-.388 30.303c2.757-.868 5.53-1.694 8.223-2.77 4.315-1.724 8.432-3.915 12.323-6.45zm5.827 3.417c-5.638 3.69-11.65 6.742-17.88 9.296-2.738 1.124-5.625 2.272-8.577 3.15-.254 20.055-.532 42.492-.644 53.248 2.63.753 5.443 1.115 8.432 1.004 9.075-.338 18.446-3.873 24.85-10.42 16.1-16.458 9.834-42.22-5.36-56.816-.28.185-.557.365-.82.54z"
       id="path6"
       style="fill:url(#linearGradient2);fill-opacity:1" />
  </g>
</svg>
