<?xml version="1.0" encoding="UTF-8" standalone="no"?>
<svg
   viewBox="45 60 400 320"
   id="sign-up"
   version="1.1"
   sodipodi:docname="sign-up.svg"
   xml:space="preserve"
   inkscape:version="1.3 (1:1.3+202307231459+0e150ed6c4)"
   xmlns:inkscape="http://www.inkscape.org/namespaces/inkscape"
   xmlns:sodipodi="http://sodipodi.sourceforge.net/DTD/sodipodi-0.dtd"
   xmlns="http://www.w3.org/2000/svg"
   xmlns:svg="http://www.w3.org/2000/svg"><defs
     id="defs1" /><sodipodi:namedview
     id="namedview1"
     pagecolor="#ffffff"
     bordercolor="#666666"
     borderopacity="1.0"
     inkscape:showpageshadow="2"
     inkscape:pageopacity="0.0"
     inkscape:pagecheckerboard="0"
     inkscape:deskcolor="#d1d1d1"
     inkscape:zoom="33.163308"
     inkscape:cx="185.21976"
     inkscape:cy="193.58744"
     inkscape:window-width="1920"
     inkscape:window-height="1135"
     inkscape:window-x="0"
     inkscape:window-y="0"
     inkscape:window-maximized="1"
     inkscape:current-layer="sign-up" /><path
     id="path1"
     mask="url(#knockout-text)"
     style="display:inline;stroke-width:0.739308"
     d="m 121.19453,281.56959 -2.24331,-6.97278 c -8.86595,4.79997 -22.179766,30.26418 -22.179766,39.34191 0,16.3973 40.000006,27.32887 49.999996,38.2604 19.99998,16.39729 60.00002,-5.46576 80,5.46577 9.99999,5.46576 40.00002,5.46576 60,0 19.99998,-5.46577 50.00002,-10.93154 70,-5.46577 29.99997,5.46576 40,-21.8631 40,-38.2604 0,-15.66521 -18.16421,-26.33865 -28.51367,-36.79253 -1.68906,-2.19189 -13.40265,-16.03594 -39.77734,-15.25292 -26.59701,-6.21517 -170.4273,35.95138 -207.28591,19.67632 z"
     sodipodi:nodetypes="ccscsscsccc" /><g
     id="g1"
     transform="translate(-672.57159,-70.947093)"><g
       id="g11"><path
         d="m 51.274,269.687 c 6.335,-1.801 11.545,-5.472 17.061,-9.357 9.492,-6.687 19.306,-13.598 35.014,-10.938 14.891,2.525 22.244,9.361 28.152,14.854 3.649,3.392 6.531,6.071 10.441,7.229 6.37,1.888 12.021,0.734 18.563,-0.6 4.501,-0.917 9.154,-1.866 14.389,-1.866 6.569,0 12.948,3.008 19.701,6.192 7.272,3.43 14.793,6.977 22.993,6.977 8.747,0 13.6,-3.848 19.219,-8.303 4.027,-3.192 8.19,-6.493 13.917,-8.37 6.982,-2.289 14.396,-1.184 21.564,-0.119 7.03,1.045 13.669,2.034 19.11,-0.235 4.215,-1.757 7.608,-8.906 11.201,-16.476 5.075,-10.691 10.827,-22.811 22.199,-27.299 12.772,-5.042 24.903,-0.336 34.65,3.446 5.37,2.084 10.443,4.052 14.558,4.052 5.918,0 12.17,-3.28 18.789,-6.753 6.354,-3.334 12.922,-6.78 19.982,-7.703 8.374,-1.097 19.16,2.438 29.596,5.854 7.496,2.454 15.248,4.991 20.224,4.991 8.488,0 20.457,-6.145 25.851,-9.386 l -0.025,-12.817 c -5.586,4.013 -14.517,8.623 -26.088,8.623 -10.157,0 -19.022,-4.814 -27.596,-9.471 -8.271,-4.492 -16.084,-8.735 -24.692,-8.735 -8.728,0 -13.199,4.018 -18.377,8.67 -4.818,4.329 -10.279,9.236 -19.397,10.707 -9.458,1.521 -17.485,-2.749 -25.248,-6.885 -8.229,-4.383 -16.006,-8.522 -25.914,-6.884 -9.284,1.534 -15.246,11.777 -20.506,20.815 -5.493,9.439 -11.177,19.197 -20.741,16.27 -10.461,-3.205 -9.618,-18.678 -8.727,-35.06 0.659,-12.101 1.406,-25.815 -2.998,-30.466 -0.664,-0.702 -1.838,-1.635 -4.348,-1.635 -9.319,0 -14.509,22.706 -19.087,42.739 -5.487,24.009 -10.67,46.687 -24.329,51.873 -2.754,1.046 -5.315,1.501 -7.705,1.501 -9.29,10e-4 -16.014,-6.87 -21.644,-12.622 -4.213,-4.304 -8.192,-8.369 -12.395,-9.163 -5.286,-0.993 -9.519,2.484 -14.42,6.519 -5.089,4.188 -10.868,8.95 -18.652,8.532 -7.514,-0.389 -12.593,-6.176 -17.505,-11.773 -5.633,-6.419 -11.459,-13.057 -21.525,-13.937 -10.162,-0.881 -19.838,4.475 -31.033,10.687 -9.611,5.333 -20.507,11.377 -33.424,14.082 -19.15,4.007 -34.057,-1.461 -42.073,-5.714 v 12.679 c 9.018,2.419 37.114,9.302 51.275,5.275 z"
         id="path1-6" /><path
         d="m 35.979,325.395 c 5.219,11.545 11.134,24.629 19.146,24.629 5.73,0 10.66,-5.671 16.367,-12.236 7.657,-8.809 17.187,-19.771 32.797,-19.771 18.084,0 27.214,12.631 34.549,22.779 3.692,5.108 7.181,9.933 10.984,11.941 4.551,2.402 30.956,4.703 67.286,4.377 35.336,-0.312 63.701,-3.008 70.583,-6.708 4.147,-2.231 7.546,-7.256 11.143,-12.575 5.682,-8.404 12.599,-18.62 25.396,-20.867 2.505,-10.123 12.372,-43.741 33.414,-46.398 19.092,-2.408 33.117,16.997 38.554,26.039 5.875,-4.646 12.372,-7.642 19.374,-7.642 22.729,0 38.466,23.255 48.879,38.643 3.399,5.023 6.61,9.768 8.67,11.469 5.153,4.257 11.541,6.639 15.586,7.824 l -0.238,-121.851 c -6.367,3.407 -16.935,8.215 -25.868,8.215 -6.251,0 -14.247,-2.617 -22.712,-5.388 -9.59,-3.139 -19.507,-6.384 -26.07,-5.525 -5.645,0.738 -11.308,3.71 -17.303,6.855 -7.186,3.771 -14.617,7.669 -22.506,7.669 -5.611,0 -11.363,-2.231 -17.451,-4.594 -9.321,-3.616 -18.958,-7.355 -28.819,-3.463 -8.436,3.33 -13.252,13.476 -17.909,23.288 -4.27,8.995 -8.303,17.492 -15.351,20.43 -7.499,3.124 -15.564,1.925 -23.365,0.764 -6.538,-0.972 -12.713,-1.892 -17.896,-0.192 -4.368,1.432 -7.803,4.154 -11.438,7.037 -5.933,4.703 -12.655,10.034 -24.189,10.034 -9.992,0 -18.712,-4.112 -26.405,-7.74 -5.92,-2.792 -11.511,-5.429 -16.289,-5.429 -4.427,0 -8.489,0.828 -12.791,1.705 -6.954,1.418 -14.146,2.886 -22.433,0.433 -5.71,-1.691 -9.551,-5.262 -13.617,-9.041 -5.659,-5.262 -11.511,-10.701 -24.043,-12.827 -12.453,-2.108 -20.154,3.312 -29.068,9.592 -5.819,4.1 -11.837,8.339 -19.48,10.513 -15.206,4.324 -42.189,-1.76 -53.462,-4.688 v 20.499 c 5.528,1.287 16.568,4.698 24.711,12.629 4.318,4.206 7.691,11.67 11.264,19.571 z"
         id="path3" /><path
         d="m 16.319,212.29 c 5.021,0.493 8.859,2.856 12.246,4.942 4.764,2.935 8.878,5.472 16.445,3.622 7.615,-1.86 10.896,-6.734 14.368,-11.896 2.537,-3.771 5.161,-7.67 9.448,-10.021 4.015,-2.204 8.428,-2.059 12.695,-1.916 7.08,0.23 13.187,0.437 19.189,-8.456 3.611,-5.348 4.888,-17.313 6.122,-28.886 2.288,-21.442 4.882,-45.746 22.899,-49.852 15.605,-3.55 23.418,11.385 30.311,24.565 6.156,11.771 11.971,22.889 21.874,22.889 9.896,0 18.612,-9.859 28.705,-21.276 12.639,-14.297 26.964,-30.501 49.014,-33.567 17.36,-2.413 32.418,4.002 48.364,10.793 21.109,8.99 42.939,18.285 73.854,9.241 50.845,-14.876 100.26,-83.332 106.232,-91.824 L 488.027,0 c -16.216,24.826 -56.623,81.188 -99.998,99.494 -34.094,14.386 -55.919,5.58 -77.026,-2.937 -13.6,-5.487 -27.66,-11.154 -45.278,-10.491 -25.849,0.983 -42.261,16.722 -55.448,29.368 -9.918,9.511 -17.766,17.008 -27.042,16.077 -9.119,-0.927 -15.738,-9.439 -22.746,-18.452 -9.451,-12.156 -19.226,-24.73 -35.578,-20.853 -15.315,3.627 -24.098,23.778 -33.395,45.112 -8.192,18.799 -16.663,38.236 -30.809,49.317 C 36.759,205.396 11.072,201.347 0,198.271 v 16.213 c 4.15,-1.432 10.044,-2.814 16.319,-2.194 z"
         id="path4" /><path
         d="M 47.678,141.146 C 58.684,121.025 61.77,90.23 56.813,53.993 53.665,85.934 45.917,110.27 34.527,122.9 c -6.374,7.067 -14.691,11.105 -22.854,11.105 -0.077,0 -0.152,0 -0.229,-0.001 C 7.358,133.967 3.5,132.916 0,130.916 v 28.832 c 20.177,7.384 37.039,0.844 47.678,-18.602 z"
         id="path5" /><path
         d="m 365.895,341.491 c 4.297,-10.005 12.78,-27.338 24.266,-39.345 -1.043,-1.818 -2.68,-4.48 -4.814,-7.384 l -2.889,2.423 c -3.519,2.951 -8.258,3.964 -12.671,2.71 l -2.777,-0.787 c -2.15,-0.615 -4.419,0.04 -5.919,1.696 l -2.221,2.452 c -2.678,2.959 -6.435,4.549 -10.265,4.549 -1.816,0 -3.649,-0.357 -5.392,-1.097 l -6.462,-2.74 c -1.81,4.557 -3.217,9.012 -4.202,12.694 16.021,1.613 27.543,15.777 33.346,24.829 z"
         id="path6" /><path
         d="m 488.721,355.198 c -4.364,-1.087 -13.374,-3.906 -20.698,-9.956 -2.945,-2.434 -6.146,-7.164 -10.199,-13.153 -2.993,-4.423 -6.472,-9.561 -10.412,-14.519 l -7.615,7.998 c -4.399,4.62 -10.964,6.474 -17.13,4.84 l -8.429,-2.234 c -2.824,-0.749 -5.791,-0.17 -8.128,1.593 l -4.942,3.725 c -3.151,2.376 -6.849,3.548 -10.527,3.548 -4.187,0 -8.341,-1.534 -11.655,-4.517 -3.971,7.586 -6.985,14.743 -8.7,19.521 -0.547,1.524 -1.959,2.568 -3.575,2.646 -1.636,0.082 -3.121,-0.828 -3.811,-2.293 -0.062,-0.132 -3.141,-6.525 -8.515,-13.156 l -2.986,2.625 c -3.381,2.972 -7.871,4.283 -12.316,3.603 l -6.459,-0.989 c -2.009,-0.311 -4.067,0.256 -5.641,1.549 l -2.233,1.836 c -2.766,2.274 -6.15,3.462 -9.603,3.462 -1.633,0 -3.28,-0.266 -4.886,-0.808 l -8.507,-2.873 c -2.967,4.045 -6.139,7.583 -10.275,9.807 -9.856,5.302 -46.272,7.725 -80.366,7.725 -30.135,10e-4 -58.454,-1.893 -65.028,-5.364 -3.846,-2.031 -6.978,-5.396 -9.982,-9.266 l -5.333,1.646 c -1.588,0.49 -3.232,0.73 -4.872,0.73 -3.407,0.001 -6.793,-1.038 -9.617,-3.03 l -3.356,-2.365 c -2.246,-1.584 -5.141,-2.003 -7.745,-1.12 l -3.44,1.167 c -5.73,1.942 -12.064,0.62 -16.535,-3.45 l -4.797,-4.365 c -0.969,1.084 -1.925,2.182 -2.877,3.277 -6.7,7.707 -13.028,14.987 -22.405,14.987 -13.175,0 -20.22,-15.584 -26.436,-29.333 -3.107,-6.875 -6.321,-13.984 -9.56,-17.138 -5.944,-5.789 -14.1,-8.738 -19.13,-10.1 v 105.345 h 488.822 z"
         id="path7" /><path
         d="m 104.288,326.017 c -7.503,0 -13.258,3.404 -18.3,8.004 l 4.6,4.186 c 2.321,2.113 5.608,2.799 8.58,1.791 l 3.44,-1.167 c 5.018,-1.701 10.596,-0.896 14.925,2.158 l 3.356,2.365 c 2.171,1.531 4.98,1.978 7.52,1.193 l 2.67,-0.824 c -6.544,-8.985 -13.652,-17.706 -26.791,-17.706 z"
         id="path8" /><path
         d="m 306.487,340.797 6.335,2.139 c 2.36,0.8 4.922,0.33 6.848,-1.254 l 2.234,-1.837 c 3.326,-2.733 7.673,-3.927 11.931,-3.276 l 6.46,0.989 c 2.106,0.321 4.224,-0.298 5.821,-1.702 l 2.83,-2.488 c -5.283,-4.919 -11.865,-8.861 -19.402,-8.861 -11.377,0 -17.225,7.717 -23.057,16.29 z"
         id="path9" /><path
         d="m 352.939,297.888 2.222,-2.452 c 3.558,-3.929 8.937,-5.47 14.032,-4.023 l 2.778,0.787 c 1.859,0.528 3.859,0.103 5.344,-1.143 l 2.917,-2.447 c -5.691,-6.004 -13.171,-11.17 -21.588,-10.106 -7.784,0.983 -14.042,9.002 -18.635,18.158 l 6.328,2.683 c 2.284,0.968 4.938,0.382 6.602,-1.457 z"
         id="path10" /><path
         d="m 396.353,327.102 4.942,-3.725 c 4.31,-3.249 9.774,-4.32 14.994,-2.937 l 8.428,2.234 c 3.341,0.885 6.901,-0.12 9.287,-2.625 l 8.177,-8.587 c -7.532,-8.091 -16.437,-14.5 -26.61,-14.5 -12.357,0 -23.986,13.85 -32.573,28.35 l 1.063,1.03 c 3.374,3.267 8.543,3.587 12.292,0.76 z"
         id="path11" /></g><text
       x="0"
       y="421.79901"
       fill="#000000"
       font-size="5px"
       font-weight="bold"
       font-family="'Helvetica Neue', Helvetica, Arial-Unicode, Arial, Sans-serif"
       id="text11">Created by Amethyst Studio</text><text
       x="0"
       y="426.79901"
       fill="#000000"
       font-size="5px"
       font-weight="bold"
       font-family="'Helvetica Neue', Helvetica, Arial-Unicode, Arial, Sans-serif"
       id="text12">from the Noun Project</text></g><path
     id="path1-6-5"
     style="stroke-width:0.37373"
     d="m 277.33398,199.48242 c -2.29286,0 -3.56887,12.88898 -4.69531,24.26172 -1.34994,13.6299 -2.62565,26.50512 -5.98633,29.44922 -0.67759,0.59382 -1.30837,0.85156 -1.89648,0.85156 -2.28571,5.6e-4 -3.939,-3.9006 -5.32422,-7.16601 -1.03653,-2.44338 -2.17051,-4.75042 -3.05078,-5.20118 -1.10686,-0.56373 -1.9932,1.41051 -3.01953,3.70118 -1.0657,2.37751 -2.27421,5.08105 -3.9043,4.84375 -1.57349,-0.22083 -2.63746,-3.50616 -3.66601,-6.6836 -1.17968,-3.64406 -2.39983,-7.41254 -4.50782,-7.91211 -2.12807,-0.50013 -4.15564,2.53987 -6.5,6.06641 -2.01267,3.02756 -4.29303,6.45851 -6.99804,7.99414 -1.97771,1.12187 -3.73778,0.93278 -5.2168,0.16602 -1.1283,-1.01568 -2.20685,-2.3659 -3.26758,-3.69532 -2.03509,-2.55012 -3.95831,-4.95703 -6.07617,-4.95703 -2.14745,0 -3.24749,2.28093 -4.52149,4.92188 -1.18538,2.45757 -2.52805,5.24304 -4.77148,6.07812 -2.32695,0.86347 -4.30296,-1.56214 -6.21289,-3.91015 -2.02471,-2.48822 -3.93709,-4.83615 -6.375,-3.90625 -2.28416,0.87084 -3.75069,6.68552 -5.04492,11.8164 -1.35154,5.35854 -2.75043,10.89798 -5.10352,9.23633 -2.57386,-1.81948 -2.36559,-10.60423 -2.14648,-19.9043 0.16225,-6.86973 0.34523,-14.65455 -0.73828,-17.29492 -0.16338,-0.39853 -0.45288,-0.92773 -1.07032,-0.92773 -2.29289,0 -3.56893,12.88898 -4.69531,24.26172 -1.35006,13.62989 -2.6257,26.50512 -5.98633,29.44921 -0.67765,0.59382 -1.30837,0.85157 -1.89648,0.85157 -2.28571,5.6e-4 -3.939,-3.9006 -5.32422,-7.16602 -1.03664,-2.44338 -2.17062,-4.75041 -3.05078,-5.20117 -1.10696,-0.56373 -1.9932,1.4105 -3.01953,3.70117 -1.06576,2.37752 -2.27625,5.08105 -3.90625,4.84375 -1.57349,-0.22083 -2.63545,-3.50616 -3.66406,-6.68359 -1.17972,-3.64407 -2.39993,-7.41254 -4.50782,-7.91211 -2.12808,-0.50013 -4.15568,2.53987 -6.5,6.0664 -2.0126,3.02756 -4.29302,6.45852 -6.99804,7.99414 -4.01018,2.27477 -6.41309,0.56873 -8.0918,-1.8457 l -0.71875,5.80078 c 1.88845,1.37328 7.7709,5.28027 10.73633,2.99414 1.32661,-1.02244 2.417,-3.10697 3.57226,-5.3125 1.98774,-3.79621 4.04257,-7.71907 7.33203,-6.20898 3.11823,1.43343 4.65937,5.31327 5.89649,8.43164 0.76418,1.92565 1.36672,3.44807 2.18555,4.10547 1.33392,1.0718 2.51681,0.41553 3.88671,-0.3418 0.94255,-0.52057 1.91739,-1.05859 3.01368,-1.05859 1.37562,0 3.04938,1.70806 4.71093,3.51562 1.78922,1.94722 3.6387,3.96094 5.65625,3.96094 2.15205,0 3.34596,-2.18574 4.72852,-4.71484 0.99077,-1.8121 2.01676,-3.68638 3.42578,-4.75196 1.71786,-1.29946 3.54115,-0.67095 5.30469,-0.0664 1.7297,0.59324 3.3625,1.15334 4.70117,-0.13477 1.03712,-0.99746 1.87187,-5.05407 2.75586,-9.35156 1.24864,-6.06928 2.6649,-12.95021 5.46289,-15.49805 3.14244,-2.86233 6.12733,-0.19196 8.52539,1.95508 1.3213,1.18309 2.56962,2.30078 3.58203,2.30078 1.45606,0 2.99444,-1.86235 4.62305,-3.83398 1.56334,-1.89272 3.17889,-3.84906 4.91601,-4.37305 2.06027,-0.62277 4.71362,1.38495 7.28125,3.32422 1.84438,1.39314 3.75239,2.83398 4.97657,2.83398 6.32773,0 8.21649,-16.99753 14.46093,-14.13086 3.11833,1.43343 4.65928,5.31523 5.89649,8.4336 0.76407,1.92565 1.36677,3.44611 2.18555,4.10351 1.3339,1.0718 2.51864,0.41554 3.88867,-0.34179 0.94256,-0.52057 1.91552,-1.0586 3.01172,-1.0586 1.37561,0 3.04939,1.70807 4.71093,3.51563 1.78928,1.94722 3.63874,3.96094 5.65625,3.96094 2.15209,0 3.34602,-2.18574 4.72852,-4.71485 0.99093,-1.8121 2.0167,-3.68442 3.42578,-4.75 1.71789,-1.29947 3.541,-0.67291 5.30469,-0.0684 1.7297,0.59324 3.36245,1.1553 4.70117,-0.13281 1.03697,-0.99746 1.87373,-5.05603 2.75781,-9.35352 1.24861,-6.06928 2.663,-12.95021 5.46094,-15.49804 3.14241,-2.86234 6.12727,-0.19001 8.52539,1.95703 1.32124,1.18309 2.56952,2.29883 3.58203,2.29883 1.45605,0 2.99447,-1.86236 4.62305,-3.83399 1.56328,-1.89272 3.17894,-3.84905 4.91601,-4.37304 2.06028,-0.62277 4.71351,1.38495 7.28125,3.32421 1.84434,1.39314 3.75223,2.83399 4.97657,2.83399 2.08835,0 5.03228,-3.48822 6.35937,-5.32813 l -0.004,-7.27734 c -1.37448,2.27819 -3.57293,4.89648 -6.41993,4.89648 -2.49891,0 -4.67963,-2.73317 -6.78906,-5.37695 -2.035,-2.55013 -3.95636,-4.95898 -6.07422,-4.95898 -2.14754,0 -3.24745,2.28092 -4.52148,4.92187 -1.18552,2.45758 -2.53002,5.24305 -4.77344,6.07813 -2.32705,0.86347 -4.30096,-1.56019 -6.21094,-3.90821 -2.02464,-2.48821 -3.93915,-4.8381 -6.37695,-3.9082 -2.28425,0.87085 -3.75078,6.68552 -5.04492,11.81641 -1.35157,5.35853 -2.75041,10.89797 -5.10352,9.23633 -2.5739,-1.81948 -2.36571,-10.60423 -2.14648,-19.9043 0.1622,-6.86974 0.34527,-14.65456 -0.73828,-17.29492 -0.16345,-0.39853 -0.45284,-0.92774 -1.07032,-0.92774 z"
     sodipodi:nodetypes="scccscccccscccsccccccccscccccccscscccccccccscscccccccscccsccccscsccccsccscccsccscsscccscccss" /></svg>
